<svg width="44" height="39" viewBox="0 0 44 39" fill="none" xmlns="http://www.w3.org/2000/svg">
<path d="M43.2422 22.4465C42.9503 22.2203 42.5959 22.0748 42.2193 22.0266C41.8427 21.9785 41.4591 22.0296 41.1123 22.1741L34.659 24.8389L30.9094 18.5619C30.7302 18.2688 30.4705 18.0251 30.1569 17.8555C29.8432 17.686 29.4868 17.5967 29.1239 17.5967C28.7609 17.5967 28.4045 17.686 28.0909 17.8555C27.7772 18.0251 27.5176 18.2688 27.3383 18.5619L23.5888 24.8389L17.1354 22.1741C16.7879 22.0298 16.4038 21.9786 16.0266 22.0264C15.6494 22.0742 15.2941 22.219 15.0009 22.4444C14.7076 22.6699 14.4882 22.9671 14.3673 23.3023C14.2464 23.6376 14.229 23.9975 14.3169 24.3415L17.5563 37.168C17.6182 37.4163 17.7338 37.6504 17.896 37.856C18.0583 38.0616 18.2638 38.2345 18.5001 38.3642C18.82 38.542 19.1858 38.6362 19.5586 38.6366C19.7399 38.6363 19.9202 38.6124 20.0943 38.5655C25.999 37.0495 32.236 37.0495 38.1407 38.5655C38.6798 38.6972 39.2532 38.6248 39.7349 38.3642C39.9727 38.2362 40.1793 38.0638 40.3417 37.8579C40.5041 37.652 40.6189 37.4171 40.6787 37.168L43.9309 24.3415C44.0178 23.9974 43.9993 23.6376 43.8776 23.3028C43.7559 22.9679 43.5358 22.6713 43.2422 22.4465Z" fill="#FFAA00"/>
<circle cx="17" cy="4" r="4" fill="#FFAA00"/>
<circle cx="17" cy="18" r="3" fill="#BE9502"/>
<circle cx="31.5" cy="10.5" r="2.5" fill="#FFAA00"/>
<circle cx="2.5" cy="10.5" r="2.5" fill="#FFAA00"/>
<circle cx="9.5" cy="19.5" r="1.5" fill="#BE9502"/>
<circle cx="24.5" cy="19.5" r="1.5" fill="#BE9502"/>
</svg>
