<svg width="319" height="305" viewBox="0 0 319 305" fill="none" xmlns="http://www.w3.org/2000/svg">
<path d="M34.2846 140.928C14.9563 157.146 4.0231 179.087 0.860189 201.724C-1.95129 224.066 3.35896 246.809 18.6652 265.051C33.6982 282.966 55.1739 292.145 77.9382 293.582L290.978 304.105L317.609 92.4746C320.42 70.1324 315.11 47.389 299.804 29.1477C284.771 11.2322 263.295 2.05327 240.531 0.616615C218.04 -0.494284 194.533 6.46281 174.854 22.976C155.525 39.1944 144.592 61.1354 141.429 83.7724C138.618 106.115 143.928 128.858 159.234 147.099C144.201 129.184 122.726 120.005 99.9614 118.568C77.4705 117.457 53.9643 124.414 34.2846 140.928Z" fill="url(#paint0_linear_12_1399)"/>
<defs>
<linearGradient id="paint0_linear_12_1399" x1="104.569" y1="81.9518" x2="290.978" y2="304.105" gradientUnits="userSpaceOnUse">
<stop stop-color="#E2480D"/>
<stop offset="1" stop-color="#FE9732" stop-opacity="0"/>
</linearGradient>
</defs>
</svg>
