<svg width="57" height="195" viewBox="0 0 57 195" fill="none" xmlns="http://www.w3.org/2000/svg">
<path d="M26.5867 135C16.8383 135 8.86224 142.697 8.86224 152.105V160.658H0V194.869H53.1735V160.658H44.3112V152.105C44.3112 142.697 36.3352 135 26.5867 135ZM26.5867 143.553C31.5496 143.553 35.449 147.316 35.449 152.105V160.658H17.7245V152.105C17.7245 147.316 21.6239 143.553 26.5867 143.553Z" fill="#979797"/>
<path d="M29.5867 0C19.8383 0 11.8622 7.69745 11.8622 17.1054V25.6582H3V59.869H56.1735V25.6582H47.3112V17.1054C47.3112 7.69745 39.3352 0 29.5867 0ZM29.5867 8.55272C34.5496 8.55272 38.449 12.3159 38.449 17.1054V25.6582H20.7245V17.1054C20.7245 12.3159 24.6239 8.55272 29.5867 8.55272Z" fill="#979797"/>
</svg>
