<svg width="237" height="50" viewBox="0 0 237 50" fill="none" xmlns="http://www.w3.org/2000/svg">
<path d="M27.5 0L20.625 18.75H0L17.1875 31.25L10.3125 50L27.5 37.5L44.6875 50L37.8125 31.25L55 18.75H34.375L27.5 0Z" fill="#F8C800"/>
<path d="M87.5 0L80.625 18.75H60L77.1875 31.25L70.3125 50L87.5 37.5L104.688 50L97.8125 31.25L115 18.75H94.375L87.5 0Z" fill="#F8C800"/>
<path d="M148.5 0L141.625 18.75H121L138.188 31.25L131.312 50L148.5 37.5L165.688 50L158.812 31.25L176 18.75H155.375L148.5 0Z" fill="#F8C800"/>
<path d="M209.5 0L202.625 18.75H182L199.188 31.25L192.312 50L209.5 37.5L226.688 50L219.812 31.25L237 18.75H216.375L209.5 0Z" fill="#F8C800"/>
</svg>
