<svg width="163" height="136" viewBox="0 0 163 136" fill="none" xmlns="http://www.w3.org/2000/svg">
<path fill-rule="evenodd" clip-rule="evenodd" d="M105.486 38.9415L102.52 41.2807C102.513 41.2853 102.505 41.2943 102.498 41.2989C102.491 41.3034 102.484 41.3125 102.476 41.317C101.951 41.5301 101.56 41.2354 101.27 40.6551C100.948 40.0159 100.98 39.2725 101.339 38.9869C101.698 38.7058 102.248 38.9914 102.571 39.6306C102.734 39.9525 102.806 40.3061 102.792 40.6098L105.266 38.6605L105.483 38.4882L105.845 38.2026C105.928 38.1391 106.052 38.1527 106.117 38.2389L108.656 41.4122C108.725 41.4983 108.71 41.6162 108.627 41.6842L108.214 42.0106L108.047 42.1421L105.088 44.4722C105.081 44.4767 105.074 44.4858 105.066 44.4903C105.059 44.4949 105.052 44.5039 105.045 44.5085C104.519 44.7215 104.128 44.4269 103.838 43.8466C103.516 43.2074 103.549 42.4639 103.907 42.1783C104.266 41.8973 104.816 42.1829 105.139 42.8221C105.302 43.1439 105.374 43.4975 105.36 43.8013L107.826 41.8565L105.486 38.9415Z" fill="white"/>
<path fill-rule="evenodd" clip-rule="evenodd" d="M108.79 26.8604L107.67 30.673L107.652 30.7364C107.334 31.3167 106.874 31.3802 106.352 31.1444C105.776 30.8815 105.428 30.2559 105.577 29.7482C105.725 29.2404 106.312 29.0455 106.888 29.313C107.178 29.449 107.413 29.6711 107.551 29.9295L108.58 26.4298L108.67 26.1215L108.819 25.6092C108.898 25.3418 109.17 25.4279 109.13 25.7044C108.982 27.069 110.032 27.7263 109.565 29.0999C109.742 28.0028 108.935 27.7308 108.79 26.8604ZM110.572 55.0487L108.036 52.5191L107.993 52.4783C107.656 51.9162 107.75 51.3495 108.098 50.8055C108.482 50.2071 109.065 49.9895 109.402 50.325C109.739 50.6604 109.702 51.422 109.319 52.0204C109.127 52.3242 108.88 52.5282 108.641 52.6143L110.97 54.9399L111.173 55.1439L111.514 55.4839C111.691 55.6607 111.539 55.9554 111.343 55.8239C110.354 55.221 109.525 56.2591 108.634 55.2708C109.409 55.8194 109.869 54.949 110.572 55.0487Z" fill="#E2480D"/>
<path fill-rule="evenodd" clip-rule="evenodd" d="M114.694 40.5458L116.726 40.2511C116.73 40.2511 116.737 40.2511 116.74 40.2466C116.744 40.2466 116.751 40.2466 116.755 40.2466C117.074 40.301 117.219 40.5775 117.258 40.9765C117.298 41.4117 117.132 41.797 116.889 41.8333C116.643 41.8695 116.411 41.5431 116.371 41.1079C116.349 40.8858 116.382 40.6773 116.451 40.5231L114.755 40.7679L114.607 40.7906L114.361 40.8269C114.303 40.8359 114.241 40.7861 114.223 40.7226L113.524 38.2519C113.506 38.1885 113.535 38.125 113.593 38.1159L113.875 38.0751L113.988 38.057L116.012 37.7623C116.016 37.7623 116.023 37.7623 116.027 37.7578C116.03 37.7578 116.038 37.7578 116.041 37.7578C116.36 37.8122 116.505 38.0887 116.545 38.4877C116.585 38.9229 116.418 39.3082 116.175 39.3445C115.929 39.3807 115.697 39.0543 115.657 38.6191C115.636 38.397 115.668 38.1885 115.737 38.0343L114.049 38.2791L114.694 40.5458Z" fill="#00347F"/>
<path opacity="0.85" d="M51.3533 82.3294C54.5417 78.3389 54.5416 71.8692 51.3531 67.8788C48.1646 63.8884 42.9951 63.8886 39.8068 67.8791C36.6184 71.8696 36.6185 78.3393 39.807 82.3297C42.9954 86.32 48.1649 86.3199 51.3533 82.3294Z" stroke="white" stroke-width="0.755" stroke-miterlimit="10"/>
<path opacity="0.5" d="M55.5829 61.8758C56.5672 61.8758 57.365 60.8773 57.365 59.6454C57.365 58.4136 56.5672 57.415 55.5829 57.415C54.5987 57.415 53.8008 58.4136 53.8008 59.6454C53.8008 60.8773 54.5987 61.8758 55.5829 61.8758Z" fill="url(#paint0_linear_33_114)"/>
<path opacity="0.5" fill-rule="evenodd" clip-rule="evenodd" d="M104.986 72.0166C104.052 71.6312 103.541 70.371 103.849 69.1968C104.157 68.0272 105.164 67.388 106.102 67.7734C107.037 68.1587 107.547 69.419 107.239 70.5931C106.928 71.7627 105.921 72.4019 104.986 72.0166Z" fill="url(#paint1_linear_33_114)"/>
<path opacity="0.2" fill-rule="evenodd" clip-rule="evenodd" d="M28.0034 107.182C28.0034 91.3014 38.2905 78.4268 50.9792 78.4268C63.6678 78.4268 73.9549 91.3014 73.9549 107.182H64.8813C64.8813 97.5756 58.6583 89.7828 50.9792 89.7828C43.3001 89.7828 37.0771 97.571 37.0771 107.182H28.0034Z" fill="url(#paint2_linear_33_114)"/>
<path opacity="0.2" fill-rule="evenodd" clip-rule="evenodd" d="M123.039 66.0188C123.043 66.0188 123.047 66.0188 123.05 66.0188C129.65 66.0052 134.996 59.3049 134.996 51.0406C134.996 42.7764 129.65 36.0761 123.05 36.0625C123.047 36.0625 123.043 36.0625 123.039 36.0625C123.036 36.0625 123.032 36.0625 123.029 36.0625C116.429 36.0761 111.083 42.7764 111.083 51.0406C111.083 59.3049 116.429 66.0052 123.029 66.0188C123.032 66.0188 123.036 66.0188 123.039 66.0188ZM115.81 51.0406C115.81 46.0404 119.044 41.9876 123.039 41.9785C127.035 41.9876 130.269 46.0404 130.269 51.0406C130.269 56.0409 127.035 60.0937 123.039 60.1028C119.044 60.0937 115.81 56.0409 115.81 51.0406Z" fill="url(#paint3_linear_33_114)"/>
<path d="M82.8043 94.4512H81.3735V107.738H82.8043V94.4512Z" fill="#F8C800"/>
<path fill-rule="evenodd" clip-rule="evenodd" d="M74.4332 107.738H73.0024L76.6645 94.4512H78.0953L74.4332 107.738Z" fill="#F8C800"/>
<path fill-rule="evenodd" clip-rule="evenodd" d="M91.081 107.738H92.5118L88.8497 94.4512H87.4189L91.081 107.738Z" fill="#F8C800"/>
<path fill-rule="evenodd" clip-rule="evenodd" d="M95.964 57.5636L101.209 39.802C101.636 38.6143 103.237 40.0106 103.23 41.9871C102.792 47.9439 102.071 54.5218 100.724 60.3788C100.017 63.457 94.9389 61.4804 95.964 57.5636ZM67.3701 88.1999C67.6925 92.3252 68.0076 96.4551 68.225 100.762C67.9171 103.146 65.9393 105.164 63.8457 106.043C67.8374 106.669 71.6951 102.267 70.8982 98.9847C70.4889 97.3028 71.5031 94.4423 71.9631 88.2226L67.3701 88.1999Z" fill="#F6CBAD"/>
<path fill-rule="evenodd" clip-rule="evenodd" d="M70.8944 98.9844C70.8944 98.9844 72.0136 100.204 72.1006 101.079C72.1875 101.954 71.8543 102.747 71.818 103.658C71.7891 104.461 71.7311 107.081 71.7166 107.697H71.3182L71.3001 103.903C70.2641 102.353 68.913 107.326 67.4496 107.679L62.2554 107.652C62.2518 105.041 66.4789 107.054 68.4204 102.752C68.721 102.094 69.7389 99.4921 70.8944 98.9844Z" fill="#E2480D"/>
<path fill-rule="evenodd" clip-rule="evenodd" d="M67.9024 61.4263C65.3596 63.8788 66.1964 78.9068 67.446 90.6255C68.3371 91.7452 69.3948 92.5023 71.311 93.9212C74.0168 83.9615 74.0675 74.4143 72.8504 68.5164C76.6791 69.745 79.9427 72.1839 83.5686 73.3716C88.234 74.8993 88.6469 69.6452 87.9225 63.3031C86.7344 63.0311 70.9632 58.4751 67.9024 61.4263Z" fill="#00347F"/>
<path fill-rule="evenodd" clip-rule="evenodd" d="M99.3689 88.2002C99.0465 92.3255 98.7313 96.4554 98.514 100.762C98.8219 103.147 100.8 105.164 102.893 106.043C98.9016 106.669 95.0439 102.267 95.8408 98.985C96.2501 97.3031 95.2359 94.4426 94.7759 88.2229L99.3689 88.2002Z" fill="#F6CBAD"/>
<path fill-rule="evenodd" clip-rule="evenodd" d="M95.8441 98.9844C95.8441 98.9844 94.7249 100.204 94.6379 101.079C94.551 101.954 94.8843 102.747 94.9205 103.658C94.9495 104.461 95.0074 107.081 95.0219 107.697H95.4204L95.4385 103.903C96.4744 102.353 97.8255 107.326 99.2889 107.679L104.483 107.652C104.487 105.041 100.26 107.054 98.3181 102.752C98.0139 102.094 96.996 99.4921 95.8441 98.9844Z" fill="#E2480D"/>
<path fill-rule="evenodd" clip-rule="evenodd" d="M98.8364 61.4262C101.379 63.8788 100.376 80.6158 99.1226 92.3345C98.2568 92.942 97.4346 93.9212 95.5583 94.8097C92.8525 84.85 92.6678 74.4188 93.8848 68.5209C90.0561 69.7494 86.7925 72.1884 83.1667 73.3761C78.5012 74.9038 78.0883 69.6497 78.8128 63.3076C80.0045 63.031 95.772 58.475 98.8364 61.4262Z" fill="#00347F"/>
<path fill-rule="evenodd" clip-rule="evenodd" d="M83.6988 46.8284C81.7175 45.2462 82.0471 37.2948 84.7131 38.1833L96.4635 46.6153C98.1189 47.8484 95.7644 53.1478 93.7215 53.8596L83.6988 46.8284Z" fill="#F6CBAD"/>
<path fill-rule="evenodd" clip-rule="evenodd" d="M88.9513 60.8092C88.4297 57.9894 87.2272 56.6974 86.8975 53.234C86.7997 52.1958 86.749 51.1033 86.8577 50.2556C86.6548 49.3625 89.0165 45.21 86.5389 41.3657C85.3907 39.5841 85.7095 38.7681 84.496 37.9249C84.1881 37.7073 83.4093 37.4988 82.5328 37.594C81.5765 37.7028 80.5152 38.1516 80.0769 38.6956C76.7263 42.8889 78.2948 50.378 78.6751 54.1542C78.9576 56.9785 78.4252 58.6604 77.1719 61.5345C78.7403 65.2382 86.3144 65.619 88.9513 60.8092Z" fill="#F8C800"/>
<path fill-rule="evenodd" clip-rule="evenodd" d="M78.0376 48.2793C78.1789 50.5324 78.5193 52.6449 78.6751 54.159C78.9576 56.9833 78.4252 58.6652 77.1719 61.5393C78.7439 65.243 86.318 65.6238 88.955 60.8094C88.4587 58.1257 87.3467 56.8201 86.9555 53.7102C83.5434 53.7057 80.2001 51.566 78.0376 48.2793Z" fill="#E8AB00"/>
<path fill-rule="evenodd" clip-rule="evenodd" d="M83.2208 37.5667C83.2208 37.5667 82.4384 37.3899 83.7134 35.0733C83.909 34.7152 84.4306 34.9419 84.4886 34.6563C84.6407 33.8901 84.0249 32.7568 84.2749 31.8637C84.4487 31.2381 83.5721 30.8483 82.9165 30.6579C81.8371 30.3496 79.9753 31.2245 80.6744 34.2437C80.841 34.9691 81.2213 35.9528 81.2213 38.0155C81.7031 39.5296 83.065 41.0347 83.5142 41.7736C83.3186 40.2187 83.0034 38.9584 83.2208 37.5667ZM77.0413 39.8696C79.9644 37.8976 82.1848 41.4608 80.7287 44.3939C79.7724 46.3205 75.9546 49.9155 74.1 53.6101C73.18 55.4416 72.5751 55.7453 71.713 55.3101C70.4923 54.6936 68.75 54.3672 68.9854 52.4451C70.8762 47.064 75.4547 40.9395 77.0413 39.8696Z" fill="#F6CBAD"/>
<path fill-rule="evenodd" clip-rule="evenodd" d="M84.369 31.6829C83.88 31.9005 82.3695 30.1008 81.9675 32.644C81.9385 32.8344 81.9349 33.4962 81.2358 33.1472C80.5367 32.7981 80.6635 34.1626 81.2611 33.945C81.9675 33.6866 81.7864 37.7032 80.5222 39.2309C78.8995 41.1893 78.1931 41.4749 73.5567 41.7922C71.8397 41.9101 70.6227 43.728 68.2791 44.213C64.1932 45.0562 62.0163 39.7069 63.6137 35.6405C65.5987 30.5813 70.0576 32.7528 73.1401 34.6296C75.0418 35.7856 76.7515 35.3912 78.5952 33.4509C79.3559 32.6485 79.4138 30.5042 80.5983 30.3909C82.1196 25.2184 86.9444 29.933 84.369 31.6829ZM71.0573 65.2386C71.5608 65.6149 71.3109 93.9165 71.3109 93.9165C71.3109 93.9165 82.4021 102.358 96.92 94.0661C97.0069 94.0162 97.0939 93.9664 97.1772 93.9165L96.1847 66.7482L71.0573 65.2386Z" fill="#00347F"/>
<path d="M99.4156 90.8203L99.9952 83.8526C100.017 83.6078 100.107 83.3811 100.249 83.2134L101.238 82.071C101.701 81.536 101.516 80.5704 100.908 80.3574L99.1222 79.7318L98.5463 77.4742C98.0283 75.4478 98.3144 73.2355 99.3142 71.5174L100.368 69.704L101.129 69.9715C101.614 70.1438 102.063 69.5816 101.922 68.9742L101.625 67.6776C101.582 67.4872 101.596 67.2878 101.661 67.111L103.578 62.0518C103.719 61.68 103.824 61.2902 103.885 60.8912C104.559 56.5302 102.455 52.1827 98.9773 50.9632L97.2785 50.3694L97.1517 50.324L95.4529 49.7302C91.9756 48.5107 88.3715 50.859 87.1363 55.0206C87.024 55.4059 86.9479 55.8048 86.9153 56.2128L86.4517 61.7798C86.4372 61.9747 86.3647 62.156 86.2488 62.2875L85.4592 63.2032C85.0897 63.6339 85.2382 64.4046 85.7236 64.5723L86.4843 64.8398L86.6328 67.0792C86.774 69.1963 86.0967 71.2726 84.8144 72.6688L83.3873 74.2192L81.6015 73.5936C80.993 73.3806 80.4352 74.0832 80.609 74.8448L80.9785 76.4678C81.0328 76.7035 81.0147 76.9574 80.9314 77.1795L78.5335 83.508C78.3596 83.9704 78.2256 84.46 78.1495 84.9632C77.3092 90.4214 79.9389 95.8614 84.2928 97.3891L86.1945 98.0555L86.832 98.2776L88.7337 98.944C93.084 100.472 97.5936 97.5342 99.1403 92.3254C99.2816 91.8312 99.3721 91.3326 99.4156 90.8203Z" fill="#E2480D"/>
<path d="M102.589 31.6467C102.694 31.1344 102.451 30.6176 102.049 30.4725L101.76 30.3728L101.47 30.2731C101.064 30.1325 100.644 30.4181 100.521 30.9213L92.0194 65.7464C91.8926 66.2677 92.1317 66.8163 92.5518 66.9613L93.49 67.2923L94.4281 67.6232C94.8483 67.7683 95.2794 67.4555 95.388 66.9296L102.589 31.6467ZM92.2077 79.904L91.0341 79.4915L89.8605 79.0789C89.6359 79.0019 89.4077 79.1741 89.357 79.4597L86.3687 96.6773C86.3216 96.9403 86.4484 97.1987 86.6549 97.2712L87.0243 97.4027L87.3938 97.5341C87.6003 97.6067 87.814 97.4661 87.8828 97.2123L92.4794 80.5613C92.5591 80.2803 92.4323 79.9811 92.2077 79.904Z" fill="#F8C800"/>
<path d="M86.8033 75.4434C86.6077 75.3754 86.4049 75.2575 86.1911 75.0943C86.0426 74.981 85.9955 74.7407 86.0861 74.5548C86.1767 74.369 86.3686 74.31 86.5171 74.4279C86.9083 74.7271 87.2235 74.8087 87.4517 74.6591C87.8827 74.3826 88.0385 73.3626 88.0675 72.9636L87.861 67.7458C87.7161 65.1572 88.7919 64.8716 88.9078 64.8444C89.3497 64.7583 89.7192 64.858 90.009 65.1391C90.4545 65.5743 90.5197 66.2634 90.5269 66.3404C90.5451 66.558 90.4183 66.7484 90.2444 66.7666C90.0742 66.7892 89.9184 66.6306 89.9039 66.4175C89.9039 66.4039 89.8605 65.9823 89.6214 65.7556C89.4729 65.6151 89.2664 65.5698 89.0056 65.6196H89.002C88.7847 65.6831 88.4043 66.1954 88.4876 67.6914C88.4876 67.6959 88.4876 67.6959 88.4876 67.7004L88.6977 72.9455C88.6977 72.9591 88.6977 72.9772 88.6977 72.9908C88.6869 73.1767 88.5746 74.8178 87.7451 75.3527C87.4625 75.5386 87.151 75.5658 86.8033 75.4434ZM94.9279 77.8778C94.4426 76.8804 95.0257 75.4071 95.0946 75.2394C95.1018 75.2258 95.1054 75.2122 95.1127 75.1986L97.4707 70.8511L97.4744 70.8466C98.1662 69.6226 98.0539 68.938 97.8945 68.7431L97.8909 68.7386C97.6881 68.5255 97.4925 68.4303 97.3077 68.453C97.0107 68.4938 96.8006 68.8247 96.7934 68.8338C96.6883 69.006 96.4927 69.0423 96.3551 68.9108C96.2175 68.7794 96.1885 68.5346 96.2899 68.3623C96.3261 68.2988 96.6666 67.7548 97.2317 67.6732C97.5975 67.6234 97.9561 67.7775 98.2966 68.1402C98.3835 68.2354 99.1841 69.1828 97.9851 71.2954L95.6451 75.6202C95.5003 75.9783 95.2105 76.953 95.464 77.4698C95.5981 77.7463 95.8987 77.8823 96.3587 77.8778C96.5326 77.8778 96.6739 78.05 96.6739 78.2676C96.6739 78.4852 96.5362 78.662 96.3623 78.662C96.1124 78.662 95.8878 78.6303 95.6922 78.5623C95.3481 78.4399 95.0909 78.2132 94.9279 77.8778ZM97.8945 68.7431C97.8945 68.7386 97.8945 68.7386 97.8945 68.7431V68.7431Z" fill="white"/>
<path d="M100.883 32.2627L90.2515 79.3504" stroke="white" stroke-width="0.755" stroke-miterlimit="10"/>
<path d="M101.629 32.5264L91.5229 79.664" stroke="white" stroke-width="0.755" stroke-miterlimit="10"/>
<path d="M84.7095 107.739L86.5459 97.208L87.495 97.5389L84.7095 107.739Z" fill="#F8C800"/>
<path d="M92.5518 66.9609L94.4317 67.6228" stroke="#00347F" stroke-width="1.511" stroke-miterlimit="10" stroke-linecap="round" stroke-linejoin="round"/>
<path d="M89.8604 79.0791L92.2076 79.9042" stroke="#00347F" stroke-width="1.511" stroke-miterlimit="10" stroke-linecap="round" stroke-linejoin="round"/>
<path d="M98.6407 50.8359L95.3916 66.9293" stroke="#00347F" stroke-width="1.511" stroke-miterlimit="10" stroke-linecap="round" stroke-linejoin="round"/>
<path d="M92.3343 81.0918L87.8862 97.2078" stroke="#00347F" stroke-width="1.511" stroke-miterlimit="10" stroke-linecap="round" stroke-linejoin="round"/>
<path d="M102.049 32.671L100.557 32.1451C99.9014 31.9139 99.5174 31.0617 99.7021 30.2411L101.166 23.7041C101.35 22.8835 102.031 22.403 102.687 22.6342L104.179 23.1601C104.835 23.3913 105.219 24.2435 105.034 25.0641L103.571 31.6011C103.386 32.4262 102.705 32.9022 102.049 32.671Z" fill="#E2480D"/>
<path d="M100.843 25.1455L98.3174 24.2598L98.1493 25.0106L100.674 25.8963L100.843 25.1455Z" fill="#F8C800"/>
<path d="M98.999 24.9101C98.8795 25.4405 98.4412 25.7533 98.0138 25.6037C97.59 25.4541 97.34 24.9056 97.4596 24.3707C97.5791 23.8403 98.0174 23.5275 98.4448 23.6771C98.8722 23.8267 99.1186 24.3797 98.999 24.9101Z" fill="#00347F"/>
<path d="M100.299 27.5605L97.7739 26.6748L97.6058 27.4256L100.131 28.3113L100.299 27.5605Z" fill="#F8C800"/>
<path d="M98.4595 27.3261C98.3399 27.8565 97.9017 28.1693 97.4742 28.0197C97.0504 27.8701 96.8005 27.3216 96.92 26.7867C97.0396 26.2563 97.4778 25.9435 97.9053 26.0931C98.3327 26.2427 98.579 26.7957 98.4595 27.3261Z" fill="#00347F"/>
<path d="M104.547 27.2647L107.072 28.1504L107.24 27.3996L104.715 26.5139L104.547 27.2647Z" fill="#F8C800"/>
<path d="M107.834 28.286C108.064 27.8163 107.946 27.2023 107.571 26.9146C107.195 26.627 106.705 26.7745 106.475 27.2442C106.245 27.7139 106.363 28.3279 106.738 28.6156C107.113 28.9033 107.604 28.7557 107.834 28.286Z" fill="#00347F"/>
<path d="M100.26 31.9912L102.306 32.7165" stroke="#00347F" stroke-width="1.511" stroke-miterlimit="10" stroke-linecap="round" stroke-linejoin="round"/>
<path d="M100.843 25.1504L100.673 25.9029L98.8545 25.2637" stroke="#00347F" stroke-width="1.511" stroke-miterlimit="10" stroke-linecap="round" stroke-linejoin="round"/>
<path d="M100.299 27.5664L100.133 28.3189L98.3145 27.6797" stroke="#00347F" stroke-width="1.511" stroke-miterlimit="10" stroke-linecap="round" stroke-linejoin="round"/>
<path d="M104.715 26.5059L104.548 27.2584L106.359 27.8976" stroke="#00347F" stroke-width="1.511" stroke-miterlimit="10" stroke-linecap="round" stroke-linejoin="round"/>
<path d="M101.962 32.1268L100.872 31.746C100.336 31.5556 100.02 30.862 100.173 30.1866L101.487 24.2842C101.64 23.6132 102.194 23.2188 102.733 23.4092L103.824 23.79C104.36 23.9804 104.675 24.674 104.523 25.3495L103.208 31.2519C103.056 31.9228 102.498 32.3127 101.962 32.1268Z" stroke="white" stroke-width="0.755" stroke-miterlimit="10"/>
<path d="M86.5462 97.208L87.4952 97.5389L84.7749 107.499" stroke="#00347F" stroke-width="1.511" stroke-miterlimit="10" stroke-linecap="round" stroke-linejoin="round"/>
<path d="M95.6847 50.727C95.6847 50.727 94.3047 49.8838 91.9864 50.6227C89.8421 51.3073 87.7702 52.9121 87.647 58.3339C87.5239 63.7558 87.647 64.1321 87.647 64.1321M98.5789 51.6881C98.5789 51.6881 100.1 51.9646 101.683 54.2086C103.147 56.2849 104.135 59.0729 101.795 63.6379C99.4591 68.203 99.1838 68.4297 99.1838 68.4297" stroke="white" stroke-width="0.755" stroke-miterlimit="10"/>
<path d="M85.4592 96.7226C85.4592 96.7226 80.4895 94.1522 79.6129 90.6071C78.7617 87.1709 78.6965 83.9477 83.0576 77.6191M98.6404 80.3346C98.6404 80.3346 100.332 93.8213 95.5652 96.0925C95.5652 96.0925 92.0045 98.3727 88.7337 97.5477" stroke="white" stroke-width="0.755" stroke-miterlimit="10" stroke-linecap="round" stroke-linejoin="round"/>
<path d="M104.008 29.6807L106.533 30.5664L106.701 29.8156L104.176 28.9299L104.008 29.6807Z" fill="#F8C800"/>
<path d="M105.849 29.915C105.729 30.4454 105.979 30.9984 106.403 31.148C106.827 31.2976 107.269 30.9848 107.388 30.4544C107.508 29.924 107.258 29.371 106.834 29.2214C106.407 29.0763 105.968 29.3846 105.849 29.915Z" fill="#00347F"/>
<path d="M104.175 28.9219L104.005 29.6744L105.82 30.3136" stroke="#00347F" stroke-width="1.511" stroke-miterlimit="10" stroke-linecap="round" stroke-linejoin="round"/>
<path fill-rule="evenodd" clip-rule="evenodd" d="M72.9443 51.326L88.3714 60.9503C88.4257 62.7818 88.0309 63.2623 87.368 63.294C83.0721 62.3919 74.089 60.6964 69.4525 56.0407C68.5397 55.125 68 48.7828 72.9443 51.326ZM100.821 41.126L101.665 37.0551C101.35 36.3162 101.071 35.0106 101.324 34.1946C101.564 33.9407 101.712 36.2708 101.918 35.9716C102.444 35.2191 101.806 31.7647 102.179 31.8644C103.831 32.3087 103.139 36.0623 103.208 38.0207C103.255 39.2538 103.295 40.514 103.233 41.9828L100.821 41.126Z" fill="#F6CBAD"/>
<path fill-rule="evenodd" clip-rule="evenodd" d="M92.787 59.6126C92.595 59.4267 92.3197 59.4721 92.1676 59.7123L89.2951 64.3499C89.1466 64.5902 89.1828 64.9347 89.3748 65.1251C89.5668 65.311 89.8421 65.2657 89.9942 65.0254L92.8666 60.3878C93.0152 60.1475 92.9789 59.7985 92.787 59.6126Z" fill="#00347F"/>
<path d="M92.6552 59.4841L92.9043 59.7256L99.4811 49.0992L99.2319 48.8577L92.6552 59.4841Z" fill="#00347F"/>
<path fill-rule="evenodd" clip-rule="evenodd" d="M100.039 47.3678L101.426 47.472C101.52 47.4811 101.567 47.6126 101.509 47.7078L100.234 49.7659C100.194 49.8294 100.122 49.843 100.071 49.7931L99.1655 48.9136C99.1148 48.8638 99.104 48.7731 99.1438 48.7096L99.9371 47.4267C99.9624 47.3859 99.9987 47.3632 100.039 47.3678Z" fill="#00347F"/>
<path d="M92.537 61.5569C92.3993 61.4254 92.2037 61.4572 92.0951 61.6249L91.2583 62.9803C91.1533 63.1526 91.1786 63.3974 91.3127 63.5334C91.4503 63.6649 91.6459 63.6332 91.7546 63.4654L92.5913 62.11C92.7 61.9377 92.6746 61.6929 92.537 61.5569Z" fill="#00347F"/>
<path d="M92.5448 61.565L92.665 61.6816L100.09 49.6869L99.9695 49.5703L92.5448 61.565Z" fill="#00347F"/>
<path fill-rule="evenodd" clip-rule="evenodd" d="M86.9409 60.0566L89.9329 61.5073C90.5559 61.1945 91.6208 60.986 92.2402 61.3894C92.4177 61.7158 90.5487 61.6524 90.7624 61.9425C91.3057 62.6769 94.1165 62.2508 93.997 62.7086C93.4682 64.7169 90.5161 63.6017 88.9513 63.4748C87.937 63.4068 87.4987 63.2934 87.1257 63.2436L86.9409 60.0566Z" fill="#F6CBAD"/>
<path d="M80.2471 31.2021C80.2471 31.2021 80.6238 34.0853 79.1133 35.1235C77.6029 36.1616 74.9876 36.8053 69.9962 34.4752C65.0048 32.1496 63.7769 36.556 63.7769 38.1109" stroke="white" stroke-width="0.755" stroke-miterlimit="10" stroke-linecap="round" stroke-linejoin="round"/>
<path d="M82.0039 34.6611C82.0619 34.7246 82.1669 36.2297 83.326 35.1507" stroke="#00347F" stroke-width="1.511" stroke-miterlimit="10" stroke-linecap="round" stroke-linejoin="round"/>
<path d="M74.745 52.4502L72.9194 52.9489" stroke="#00347F" stroke-width="1.511" stroke-miterlimit="10" stroke-linecap="round" stroke-linejoin="round"/>
<path d="M78.0229 48.0076L79.8377 45.7546C79.8377 45.7546 82.7862 42.3727 80.0442 39.7842" stroke="#00347F" stroke-width="1.511" stroke-miterlimit="10" stroke-linecap="round" stroke-linejoin="round"/>
<path d="M86.8576 50.2559L86.3433 51.3121" stroke="#00347F" stroke-width="1.511" stroke-miterlimit="10" stroke-linecap="round" stroke-linejoin="round"/>
<path fill-rule="evenodd" clip-rule="evenodd" d="M69.42 51.3125C69.42 51.3125 72.8611 53.8421 70.532 57.0109L69.4526 56.0362C69.4489 56.0408 68.1087 54.0914 69.42 51.3125Z" fill="#F4BE99"/>
<path d="M83.2206 37.5674C83.2206 37.5674 83.0685 39.4895 83.5104 41.7743M85.1114 38.4967C85.1114 38.4967 85.7779 40.0698 86.1582 40.718C86.5386 41.3663 88.6829 43.8506 87.0348 49.1727L89.5957 50.9679" stroke="#00347F" stroke-width="1.511" stroke-miterlimit="10" stroke-linecap="round" stroke-linejoin="round"/>
<path d="M100.198 43.3651L101.665 37.0547" stroke="#00347F" stroke-width="1.511" stroke-miterlimit="10" stroke-linecap="round" stroke-linejoin="round"/>
<path d="M87.2559 98.4183C87.2559 98.4183 95.2899 102.716 99.1367 92.3164" stroke="#00347F" stroke-width="1.511" stroke-miterlimit="10" stroke-linecap="round" stroke-linejoin="round"/>
<path fill-rule="evenodd" clip-rule="evenodd" d="M68.1413 104.914C67.9928 105.068 67.7683 105.046 67.6451 104.855L66.3809 102.951C66.2578 102.765 66.2759 102.484 66.428 102.33C66.5765 102.176 66.8011 102.199 66.9243 102.389L68.1884 104.293C68.3116 104.479 68.2935 104.76 68.1413 104.914ZM100.231 102.425C100.386 102.57 100.415 102.847 100.299 103.042L99.1113 105.018C98.9954 105.213 98.7745 105.25 98.6187 105.104C98.463 104.959 98.434 104.683 98.5499 104.488L99.738 102.511C99.8539 102.321 100.075 102.28 100.231 102.425Z" fill="#00347F"/>
<path d="M95.8444 98.9844C95.8444 98.9844 96.8079 99.2655 98.0576 102.167M70.8946 98.9844C70.8946 98.9844 69.7282 99.3833 68.5474 102.471" stroke="#00347F" stroke-width="1.511" stroke-miterlimit="10" stroke-linecap="round" stroke-linejoin="round"/>
<path d="M77.6605 62.3691C77.6605 62.3691 72.4663 62.3691 71.3398 62.5459C70.992 62.6003 67.9783 63.2577 68.1232 66.7529C68.2645 70.2481 70.8652 90.3398 73.6761 95.3129" stroke="white" stroke-width="0.755" stroke-miterlimit="10"/>
<path d="M81.2104 64.2593C81.2104 64.2593 71.6804 63.6926 71.713 68.7427C71.7456 73.7929 76.9435 91.0286 79.1566 97.3707" stroke="white" stroke-width="0.755" stroke-miterlimit="10"/>
<path d="M82.3082 64.3682C82.3082 64.3682 78.3962 68.2306 78.5266 71.0866C78.6606 73.9426 80.1023 79.3554 80.1023 79.3554M84.1193 64.3682C84.1193 64.3682 86.2782 66.2223 85.4414 71.8618" stroke="white" stroke-width="0.755" stroke-miterlimit="10"/>
<path fill-rule="evenodd" clip-rule="evenodd" d="M100.517 51.7566C100.517 51.7566 101.593 52.3731 102.046 53.2299L102.386 50.732C102.383 50.7275 101.147 50.4192 100.517 51.7566Z" fill="#F4BE99"/>
<path d="M78.7329 54.9385L86.6004 59.8435" stroke="#00347F" stroke-width="1.511" stroke-miterlimit="10" stroke-linecap="round" stroke-linejoin="round"/>
<path d="M68.9637 35.6498C68.6558 35.6045 63.9143 34.6978 64.6858 39.7842C65.566 45.5778 71.3833 41.4162 71.3833 41.4162" stroke="white" stroke-width="0.755" stroke-miterlimit="10" stroke-linecap="round" stroke-linejoin="round"/>
<path d="M79.4176 32.5256C74.5131 38.9539 68.9638 26.664 63.085 32.6661" stroke="#00347F" stroke-width="1.511" stroke-miterlimit="10" stroke-linecap="round" stroke-linejoin="round"/>
<path d="M77.4542 96.7812L74.7593 106.564" stroke="#00347F" stroke-width="1.511" stroke-miterlimit="10" stroke-linecap="round" stroke-linejoin="round"/>
<path d="M81.3735 97.375V105.358" stroke="#00347F" stroke-width="1.511" stroke-miterlimit="10" stroke-linecap="round" stroke-linejoin="round"/>
<path d="M88.73 98.9346L90.5049 105.648" stroke="#00347F" stroke-width="1.511" stroke-miterlimit="10" stroke-linecap="round" stroke-linejoin="round"/>
<path d="M39.2285 107.286H121.265" stroke="#00347F" stroke-miterlimit="10"/>
<path fill-rule="evenodd" clip-rule="evenodd" d="M65.4176 66.3676C65.49 66.1726 65.0698 65.7374 64.4794 65.3929C64.1824 65.2206 63.8999 65.1028 63.6825 65.0574C63.8962 64.8625 64.1426 64.5905 64.3816 64.2641C64.9576 63.4798 65.2944 62.691 65.1278 62.5006C64.9612 62.3102 64.3599 62.7908 63.784 63.575C63.4942 63.9694 63.2624 64.3684 63.1283 64.6857C62.969 64.5452 62.7661 64.3956 62.5343 64.2641C61.9439 63.9196 61.4078 63.8017 61.3353 63.9921C61.2629 64.187 61.6831 64.6222 62.2735 64.9668C62.4473 65.0665 62.614 65.1481 62.7661 65.207C62.5126 65.3974 62.1938 65.7329 61.8787 66.1545C61.3027 66.9388 60.9659 67.7276 61.1325 67.918C61.2991 68.1084 61.9004 67.6278 62.4763 66.8436C62.9001 66.2678 63.1899 65.6921 63.2515 65.3521C63.2696 65.343 63.2877 65.3385 63.3058 65.3249C63.3094 65.3249 63.3131 65.3249 63.3167 65.3249C63.4398 65.5425 63.7803 65.8462 64.2114 66.0956C64.809 66.4401 65.3451 66.5625 65.4176 66.3676Z" fill="#F8C800"/>
<path fill-rule="evenodd" clip-rule="evenodd" d="M70.3615 71.0693C70.4738 71.1327 70.7201 70.7429 70.9048 70.1989C70.999 69.9269 71.0606 69.6685 71.0823 69.469C71.1982 69.6594 71.3612 69.877 71.5568 70.0855C72.0205 70.5933 72.4841 70.8789 72.5928 70.7247C72.6978 70.5706 72.408 70.0357 71.9444 69.5279C71.7089 69.2741 71.4771 69.0746 71.2888 68.9567C71.3685 68.8117 71.4481 68.6213 71.5206 68.4127C71.7089 67.8733 71.7669 67.3837 71.651 67.3202C71.5387 67.2567 71.2924 67.6466 71.1077 68.1906C71.0533 68.3493 71.0099 68.5034 70.9773 68.6439C70.8613 68.4173 70.6621 68.1362 70.4122 67.8597C69.9485 67.352 69.4849 67.0664 69.3762 67.2205C69.2712 67.3746 69.561 67.9095 70.0246 68.4173C70.3651 68.789 70.7056 69.0429 70.9048 69.0882C70.9084 69.1063 70.9157 69.1199 70.9193 69.1381C70.9193 69.1426 70.9193 69.1426 70.9193 69.1472C70.7961 69.265 70.6295 69.5778 70.4919 69.9722C70.3071 70.5207 70.2492 71.0058 70.3615 71.0693ZM64.3776 75.7794C64.4899 75.7114 64.4065 75.2264 64.1965 74.7005C64.0914 74.433 63.9719 74.2109 63.8668 74.0613C64.0588 74.0703 64.2943 74.0567 64.5478 74.0069C65.1563 73.889 65.6309 73.6306 65.6055 73.4312C65.5801 73.2317 65.0658 73.1637 64.4573 73.2815C64.1494 73.3405 63.8777 73.4357 63.6857 73.5399C63.6459 73.3677 63.5843 73.1727 63.5046 72.9642C63.2945 72.4383 63.0337 72.0666 62.9251 72.1346C62.8128 72.2026 62.8961 72.6877 63.1062 73.2135C63.1677 73.3677 63.2329 73.5082 63.2981 73.6306C63.0881 73.5943 62.7838 73.6034 62.4542 73.6669C61.8456 73.7847 61.3711 74.0431 61.3965 74.2426C61.4218 74.4421 61.9362 74.5101 62.5447 74.3922C62.9903 74.3061 63.3633 74.1429 63.5227 73.9842C63.5336 73.9887 63.5481 73.9978 63.5626 74.0024C63.5662 74.0024 63.5662 74.0069 63.5698 74.0069C63.5589 74.2018 63.6459 74.5645 63.798 74.9498C64.0081 75.4757 64.2689 75.8474 64.3776 75.7794Z" fill="white"/>
<path fill-rule="evenodd" clip-rule="evenodd" d="M67.7611 93.5C67.8734 93.5634 68.1197 93.1736 68.3045 92.6296C68.3987 92.3576 68.4602 92.0991 68.482 91.8997C68.5979 92.0901 68.7609 92.3077 68.9565 92.5162C69.4201 93.024 69.8838 93.3095 69.9924 93.1554C70.0975 93.0013 69.8077 92.4664 69.3441 91.9586C69.1086 91.7048 68.8768 91.5053 68.6884 91.3874C68.7681 91.2424 68.8478 91.052 68.9203 90.8434C69.1086 90.304 69.1666 89.8144 69.0507 89.7509C68.9384 89.6874 68.6921 90.0773 68.5073 90.6213C68.453 90.78 68.4095 90.9341 68.3769 91.0746C68.261 90.848 68.0618 90.5669 67.8119 90.2903C67.3482 89.7826 66.8846 89.497 66.7759 89.6511C66.6709 89.8053 66.9606 90.3402 67.4243 90.848C67.7648 91.2197 68.1053 91.4736 68.3045 91.5189C68.3081 91.537 68.3154 91.5506 68.319 91.5688C68.319 91.5733 68.319 91.5733 68.319 91.5778C68.1958 91.6957 68.0292 92.0085 67.8916 92.4029C67.7068 92.9514 67.6489 93.441 67.7611 93.5Z" fill="#F8C800"/>
<path fill-rule="evenodd" clip-rule="evenodd" d="M61.9544 84.5106C61.8892 84.642 62.1536 85.0047 62.5484 85.322C62.7477 85.4807 62.9433 85.5986 63.0954 85.662C62.9251 85.7754 62.7295 85.9431 62.5303 86.1471C62.0558 86.6367 61.7552 87.1626 61.8566 87.3212C61.9616 87.4799 62.4289 87.2079 62.9034 86.7138C63.1425 86.4644 63.3381 86.2106 63.4612 85.9975C63.5627 86.1199 63.7003 86.2514 63.8524 86.3738C64.2473 86.6911 64.624 86.8452 64.6892 86.7138C64.7544 86.5823 64.4899 86.2196 64.0951 85.9023C63.9792 85.8071 63.8669 85.73 63.7619 85.6666C63.9575 85.5623 64.2147 85.3628 64.4718 85.0954C64.9463 84.6058 65.247 84.0799 65.1456 83.9212C65.0405 83.7626 64.5733 84.0346 64.0987 84.5287C63.751 84.8868 63.4975 85.2676 63.425 85.5034C63.4105 85.5079 63.396 85.5079 63.3815 85.5124C63.3779 85.5124 63.3779 85.5124 63.3743 85.5124C63.3019 85.3402 63.0809 85.0818 62.7911 84.8506C62.3963 84.5332 62.0232 84.3791 61.9544 84.5106Z" fill="white"/>
<path fill-rule="evenodd" clip-rule="evenodd" d="M69.0794 82.3029C69.2497 82.3165 69.4199 81.6682 69.4598 80.8568C69.4779 80.4488 69.4634 80.077 69.4199 79.805C69.6445 79.9864 69.9379 80.1677 70.2675 80.3309C71.0608 80.7162 71.7707 80.816 71.854 80.553C71.9337 80.2901 71.3578 79.7688 70.5609 79.3834C70.1588 79.1885 69.7821 79.0661 69.4924 79.0298C69.5394 78.7941 69.5757 78.4994 69.5902 78.1866C69.63 77.3752 69.525 76.7042 69.3511 76.6906C69.1808 76.677 69.0106 77.3253 68.9708 78.1368C68.9599 78.3725 68.9599 78.5992 68.9708 78.7986C68.7389 78.572 68.3695 78.3226 67.942 78.1141C67.1488 77.7288 66.4388 77.629 66.3555 77.892C66.2758 78.1549 66.8518 78.6762 67.6486 79.0616C68.2282 79.3426 68.7643 79.4741 69.0432 79.4197C69.0541 79.4378 69.0686 79.456 69.083 79.4741C69.083 79.4786 69.0867 79.4832 69.0867 79.4877C68.9671 79.7098 68.8693 80.2176 68.8404 80.8114C68.8041 81.6184 68.9092 82.2893 69.0794 82.3029Z" fill="#F8C800"/>
<defs>
<linearGradient id="paint0_linear_33_114" x1="56.1428" y1="57.5304" x2="52.9927" y2="65.1755" gradientUnits="userSpaceOnUse">
<stop offset="0.095" stop-color="white"/>
<stop offset="0.754" stop-color="#FBE0DF"/>
<stop offset="0.979" stop-color="#F9D4D3"/>
</linearGradient>
<linearGradient id="paint1_linear_33_114" x1="106.106" y1="67.7788" x2="102.956" y2="75.4239" gradientUnits="userSpaceOnUse">
<stop offset="0.095" stop-color="white"/>
<stop offset="0.754" stop-color="#FBE0DF"/>
<stop offset="0.979" stop-color="#F9D4D3"/>
</linearGradient>
<linearGradient id="paint2_linear_33_114" x1="50.9772" y1="80.0157" x2="50.9772" y2="114.987" gradientUnits="userSpaceOnUse">
<stop offset="0.095" stop-color="#E0AC26"/>
<stop offset="0.754" stop-color="#FBE0DF"/>
<stop offset="0.979" stop-color="#DAD211"/>
</linearGradient>
<linearGradient id="paint3_linear_33_114" x1="123.04" y1="47.1066" x2="123.04" y2="82.5773" gradientUnits="userSpaceOnUse">
<stop offset="0.095" stop-color="white"/>
<stop offset="0.754" stop-color="#FBE0DF"/>
<stop offset="0.979" stop-color="#F9D4D3"/>
</linearGradient>
</defs>
</svg>
