<svg width="238" height="140" viewBox="0 0 238 140" fill="none" xmlns="http://www.w3.org/2000/svg">
<g clip-path="url(#clip0_33_1054)">
<path opacity="0.1" d="M123.723 140C136.456 140 146.779 137.852 146.779 135.204C146.779 132.555 136.456 130.407 123.723 130.407C110.989 130.407 100.667 132.555 100.667 135.204C100.667 137.852 110.989 140 123.723 140Z" fill="#2A94F4"/>
<path opacity="0.1" d="M122.855 1.87988C89.2002 1.87988 61.917 30.4114 61.917 65.6058C61.917 100.8 89.2002 129.332 122.855 129.332C156.51 129.332 183.793 100.8 183.793 65.6058C183.793 30.4114 156.51 1.87988 122.855 1.87988ZM162.534 71.0502L106.133 111.871C103.22 113.984 99.2284 111.793 99.2284 108.085V26.4577C99.2284 22.7503 103.208 20.5595 106.133 22.6725L162.534 63.4928C165.063 65.3206 165.063 69.2225 162.534 71.0502Z" fill="#F9F5ED"/>
<path d="M117.438 20.2482C117.438 20.2482 112.219 20.1316 111.5 30.6704C110.781 41.2093 109.641 44.6575 103.455 47.2501C97.2699 49.8427 95.3609 58.3593 99.9226 62.3519C104.484 66.3445 123.425 79.8001 125.855 63.726C128.284 47.6519 130.925 53.9908 134.891 47.7945C142.031 36.6464 130.044 21.8686 125.594 20.9223C121.144 19.976 117.438 20.2482 117.438 20.2482Z" fill="#0B4870"/>
<path d="M129.871 44.8394L129.995 44.6449L130.094 44.4894L130.231 44.2431L130.516 43.7634L131.074 42.8172L132.177 40.9246L134.383 37.1394C135.846 34.6116 137.309 32.0968 138.772 29.5171L138.908 29.2709L139.057 28.9857C139.156 28.7912 139.267 28.5838 139.354 28.4023C139.515 28.0394 139.689 27.6764 139.838 27.3264C140.135 26.6134 140.408 25.9134 140.693 25.2134C141.226 23.8134 141.734 22.4264 142.23 21.0264C143.222 18.2394 144.598 12.4838 144.598 12.4838L142.527 11.8486C142.527 11.8486 139.652 16.8134 138.573 19.5097C138.028 20.8579 137.482 22.206 136.912 23.5153C136.627 24.1764 136.342 24.8246 136.044 25.4468C135.896 25.7709 135.747 26.056 135.598 26.3542C135.524 26.4968 135.449 26.6134 135.387 26.7431L135.276 26.9375L135.14 27.1579C133.615 29.582 132.028 32.0449 130.454 34.482L125.793 41.6764L125.669 41.8709C124.876 43.0894 125.186 44.7486 126.351 45.5653C127.516 46.3949 129.103 46.0709 129.884 44.8523C129.859 44.8653 129.871 44.8394 129.871 44.8394Z" fill="#B97A59"/>
<path d="M144.597 12.8466C144.597 12.8466 145.75 8.58176 144.238 6.93546C142.725 5.30213 141.064 6.65028 141.387 8.5688C141.709 10.4873 142.354 12.5225 142.044 13.3521C141.746 14.1688 143.011 14.441 143.011 14.441L144.597 12.8466Z" fill="#B97A59"/>
<path opacity="0.5" d="M128.036 42.415C128.148 42.4668 129.04 51.152 128.718 52.4224C128.445 53.4983 127.07 55.6761 126.289 56.8168C126.078 55.3261 125.867 53.8483 125.681 52.3705L125.198 48.4687C125.247 48.1965 125.309 47.9242 125.371 47.6391C126.239 43.5557 127.925 42.3761 128.036 42.415Z" fill="#F5A171"/>
<path d="M129.784 54.1857C129.549 55.2227 129.636 64.4782 129.945 69.7542H116.843C117.041 69.4431 119.111 63.4801 118.64 62.0023C117.339 57.919 114.699 49.6357 114.475 48.7542C114.178 47.5745 114.537 41.5727 114.773 41.3264C115.008 41.0801 119.359 39.2134 119.731 39.2523C120.103 39.2912 123.946 38.2412 123.946 38.2412L125.57 39.7579C125.731 39.7968 126.995 39.356 127.863 40.0042C127.875 40.082 127.913 40.1468 127.962 40.2245C129.115 41.8449 130.826 48.7412 130.95 48.9616C131.235 49.519 132.102 52.319 129.784 54.1857Z" fill="#FFBE55"/>
<path d="M125.557 39.7319L125.57 39.7578H118.38C118.368 39.7319 118.368 39.693 118.368 39.6671C120.599 37.9689 118.008 29.8412 118.008 29.1152C118.008 29.1152 124.045 30.5671 125.607 32.2912C121.801 36.893 125.557 39.7319 125.557 39.7319Z" fill="#A56950"/>
<path d="M117.029 31.6426C116.695 30.0741 116.31 28.5185 116.31 26.9241C116.31 16.3722 127.776 19.6778 127.776 24.0852C127.776 26.7296 128.136 31.4741 126.512 34.5852C125.868 35.8167 124.529 36.4519 123.227 36.1537C120.029 35.4278 117.525 33.9759 117.042 31.6945L117.029 31.6426ZM118.356 44.6444L118.281 44.8648L118.207 45.0333L118.095 45.2926L117.885 45.8111L117.463 46.8352L116.62 48.8704L114.934 52.9407C113.806 55.663 112.691 58.3463 111.526 61.0815L111.414 61.3407L111.278 61.6389C111.178 61.8333 111.092 62.0407 110.993 62.2222C110.807 62.5722 110.621 62.9352 110.422 63.2593C110.038 63.9204 109.654 64.5685 109.269 65.2037C108.489 66.4741 107.695 67.7056 106.902 68.937C105.303 71.4 101.609 75.8982 101.609 75.8982L99.9106 74.4982C99.9106 74.4982 102.117 69.1833 103.605 66.6945C104.336 65.45 105.067 64.2056 105.774 62.9611C106.121 62.3389 106.456 61.7167 106.778 61.0944C106.939 60.7833 107.075 60.4852 107.224 60.187C107.286 60.0444 107.336 59.9148 107.398 59.7852L107.484 59.5778L107.584 59.3315C108.6 56.6222 109.604 53.8482 110.596 51.1L113.509 42.9722L113.583 42.7519C114.079 41.3778 115.542 40.6778 116.856 41.1963C118.17 41.7148 118.839 43.2445 118.343 44.6185C118.368 44.6185 118.356 44.6315 118.356 44.6444Z" fill="#B97A59"/>
<path d="M101.906 75.6909C101.906 75.6909 99.2409 79.1391 97.0965 78.802C94.952 78.465 95.0388 76.2613 96.7246 75.4317C98.4104 74.602 100.369 73.9668 100.84 73.228C101.311 72.4891 102.241 73.4224 102.241 73.4224L101.906 75.6909Z" fill="#B97A59"/>
<path d="M126.152 68.3922C128.941 68.3922 129.76 65.7607 129.76 65.7607L130.912 70.5441C130.218 71.1533 128.892 70.8422 128.83 71.7885C128.433 71.8144 127.913 71.7626 127.243 71.5811C123.475 70.557 120.091 70.2719 120.091 70.2719C120.091 70.2719 119.707 69.0144 119.384 68.2107C119.062 67.407 118.07 65.7607 118.07 65.7607C118.07 65.7607 123.376 68.3922 126.152 68.3922Z" fill="#F6E8FF"/>
<path d="M137.866 134.258C138.251 134.245 138.35 133.713 138.003 133.545C136.837 133.013 135.561 132.391 134.928 132.313C133.962 132.184 131.111 132.184 131.111 132.184C131.111 132.184 130.813 134.4 130.987 134.4C131.111 134.413 135.375 134.322 137.866 134.258ZM117.376 135.048C117.76 135.035 117.859 134.504 117.512 134.335C116.347 133.804 115.07 133.182 114.438 133.104C113.471 132.974 110.62 132.974 110.62 132.974C110.62 132.974 110.323 135.191 110.496 135.191C110.62 135.204 114.884 135.1 117.376 135.048Z" fill="#0B4870"/>
<path d="M141.498 95.8478L129.784 65.7478L118.083 65.6182C117.686 66.4089 114.686 70.7645 114.29 74.783C113.918 78.5034 119.694 96.5608 120.996 101.759C121.033 101.746 110.67 132.987 110.67 132.987L113.471 132.974L126.289 105.842C127.516 103.574 127.975 100.929 127.578 98.3626L126.165 79.1774C129.611 86.8515 135.486 98.7774 135.771 99.4385C132.908 114.281 131.061 132.17 131.061 132.17L133.937 132.235L141.895 103.444C142.589 100.942 142.453 98.2589 141.498 95.8478Z" fill="#0E538C"/>
<path d="M117.847 29.0893C117.847 29.9578 117.24 30.6708 116.496 30.6708C115.752 30.6708 115.145 29.9578 115.145 29.0893C115.145 28.2208 115.752 27.5078 116.496 27.5078C117.252 27.5078 117.847 28.2208 117.847 29.0893Z" fill="#F5A171"/>
<path d="M119.608 23.1C119.608 23.1 120.079 28.687 116.509 28.0519C116.509 28.0519 112.753 26.237 116.509 21.2722C120.265 16.3074 127.417 20.1444 128.074 23.3852C128.731 26.6259 127.714 29.6981 127.714 29.6981C127.714 29.6981 128.384 24.1241 126.5 22.9963C124.132 21.5833 122.855 25.7963 119.608 23.1Z" fill="#0B4870"/>
<path d="M115.405 30.9556C115.293 29.8538 116.012 28.9982 117.004 29.0501C117.996 29.1019 118.888 30.0353 119 31.1501C119.111 32.2519 118.392 33.1075 117.401 33.0556C116.421 33.0038 115.517 32.0575 115.405 30.9556Z" fill="url(#paint0_linear_33_1054)"/>
<path d="M116.806 33.8206C118.216 33.8206 119.36 32.4625 119.36 30.7872C119.36 29.112 118.216 27.7539 116.806 27.7539C115.396 27.7539 114.252 29.112 114.252 30.7872C114.252 32.4625 115.396 33.8206 116.806 33.8206Z" fill="#341675"/>
<path d="M120.413 30.372C120.413 32.4331 118.727 34.1053 117.054 34.1053C115.38 34.1053 114.029 32.4331 114.029 30.372C114.029 28.3109 115.38 26.6387 117.054 26.6387C118.74 26.6387 120.413 28.3109 120.413 30.372Z" fill="#A1C9E2"/>
<path d="M116.818 34.1053C118.359 34.1053 119.607 32.4339 119.607 30.372C119.607 28.3101 118.359 26.6387 116.818 26.6387C115.278 26.6387 114.029 28.3101 114.029 30.372C114.029 32.4339 115.278 34.1053 116.818 34.1053Z" fill="#F7F7F7"/>
<path d="M115.777 27.0669C115.777 26.9243 115.963 20.1187 121.9 19.6002C123.177 19.4706 126.71 21.078 126.71 21.078C126.71 21.078 121.9 18.991 119.173 22.2058C117.797 23.8391 117.463 27.1447 117.463 27.1447L115.777 27.0669Z" fill="#F7F7F7"/>
<path d="M78.2054 114.152L78.131 99.6074H77.3749L77.4368 112.389C76.879 111.831 76.0609 111.481 75.1436 111.481C73.4578 111.481 72.0942 112.674 72.0942 114.139C72.0942 115.604 73.4578 116.77 75.1436 116.77C76.8171 116.77 78.1682 115.681 78.193 114.126H78.2178V114.152H78.2054Z" fill="#FFBE55"/>
<path d="M152.27 60.2129C151.936 59.3443 151.056 58.7869 150.014 58.7869C149.432 58.7869 148.861 58.9684 148.39 59.2925C148.031 59.5388 147.758 59.8499 147.548 60.2129L147.597 49.1943H146.841L146.767 63.7777V64.4258L147.151 64.4388C147.151 64.4388 147.275 64.4258 147.473 64.4258C148.143 64.4258 149.419 64.374 150.411 63.9332C151.973 63.2462 152.791 61.5869 152.27 60.2129ZM150.101 63.1684C149.258 63.5443 148.13 63.6092 147.585 63.6092C147.634 61.7036 148.019 60.5888 148.837 60.0184C149.171 59.7851 149.593 59.6554 150.002 59.6554C150.708 59.6554 151.303 60.0054 151.502 60.5369C151.874 61.4703 151.242 62.6629 150.101 63.1684Z" fill="#0B4870"/>
<path d="M180.744 79.0996C181.971 79.0996 182.975 79.9033 182.975 80.9015C182.975 81.8996 181.971 82.7033 180.744 82.7033C179.516 82.7033 178.512 81.8996 178.512 80.9015C178.512 79.9163 179.516 79.0996 180.744 79.0996ZM180.744 78.2441C179.058 78.2441 177.694 79.4367 177.694 80.9015C177.694 82.3663 179.058 83.5589 180.744 83.5589C182.429 83.5589 183.793 82.3663 183.793 80.9015C183.793 79.4367 182.429 78.2441 180.744 78.2441ZM108.687 14.9718L108.637 0.440365V0.207031L97.9271 1.59407L97.9395 3.33111L97.9891 14.5052C97.4313 13.9478 96.6131 13.5978 95.6959 13.5978C94.01 13.5978 92.6465 14.7904 92.6465 16.2552C92.6465 17.72 94.01 18.8867 95.6959 18.8867C97.3693 18.8867 98.7204 17.8107 98.7452 16.2422V16.2681L98.708 3.24036L107.881 1.99592L107.931 13.2218C107.373 12.6644 106.555 12.3144 105.637 12.3144C103.951 12.3144 102.588 13.507 102.588 14.9718C102.588 16.4367 103.951 17.6033 105.637 17.6033C107.311 17.6033 108.662 16.5274 108.687 14.9589V14.9718Z" fill="#FFBE55"/>
<path d="M167.133 22.2831C166.513 21.9072 165.745 22.0498 165.447 22.5813H165.435L162.757 27.4683L159.051 25.8609L161.369 21.635C161.468 21.972 161.703 22.2831 162.038 22.4905C162.67 22.8665 163.427 22.7368 163.736 22.1794C164.046 21.635 163.774 20.8831 163.141 20.4943C162.522 20.1183 161.753 20.2609 161.456 20.7924H161.443L158.456 26.2498L158.406 26.3405L162.708 28.2461L163.055 27.598L165.36 23.385C165.459 23.722 165.695 24.0331 166.03 24.2405C166.662 24.6165 167.418 24.4868 167.728 23.9424C168.038 23.398 167.765 22.672 167.133 22.2831ZM82.0603 37.0609C81.3413 37.1646 80.8331 37.7739 80.9075 38.3831H80.8951L81.6512 43.9702L77.7837 45.072L77.1267 40.2498C77.3994 40.4572 77.7713 40.548 78.168 40.4961C78.8869 40.3924 79.4076 39.7961 79.3208 39.1609C79.234 38.5257 78.5894 38.1109 77.8581 38.2146C77.1391 38.3183 76.6309 38.9276 76.7053 39.5368H76.6929L77.5482 45.7591L77.5606 45.8628L82.0851 44.6054L81.9735 43.8665L81.3165 39.0702C81.5892 39.2776 81.9611 39.3683 82.3578 39.3165C83.0767 39.2128 83.5974 38.6165 83.5106 37.9943C83.4238 37.372 82.7792 36.9572 82.0603 37.0609Z" fill="#0B4870"/>
<path d="M171.137 119.466L171.087 104.922V104.676L160.377 106.076L160.39 107.8L160.439 118.987C159.882 118.429 159.063 118.079 158.146 118.079C156.46 118.079 155.097 119.272 155.097 120.737C155.097 122.202 156.46 123.355 158.146 123.355C159.807 123.355 161.158 122.279 161.196 120.711L161.158 109.342L170.331 108.033L170.368 117.69C169.811 117.133 168.993 116.783 168.075 116.783C166.389 116.783 165.026 117.976 165.026 119.44C165.026 120.905 166.389 122.137 168.075 122.137C169.736 122.137 171.087 120.996 171.125 119.57V119.466H171.137ZM161.158 108.5V107.722L170.331 106.478V107.19L161.158 108.5ZM193.536 43.6201C192.458 43.6201 191.578 44.4109 191.553 45.3312L191.578 52.7072L185.628 53.5627L185.603 47.2886C185.962 47.6516 186.495 47.872 187.09 47.872C188.181 47.872 189.074 47.0942 189.074 46.1479C189.074 45.1886 188.194 44.4368 187.09 44.4368C186.012 44.4368 185.132 45.2275 185.107 46.1479L185.144 55.559V55.7275L192.098 54.8201L192.086 53.7053L192.049 46.446C192.408 46.809 192.941 47.0294 193.536 47.0294C194.627 47.0294 195.52 46.2646 195.52 45.3053C195.52 44.3849 194.627 43.6201 193.536 43.6201ZM191.578 53.2775V53.7831L185.628 54.5997V54.146L191.578 53.2775ZM73.1603 67.5109C72.0819 67.5109 71.2018 68.3016 71.177 69.222L71.2018 76.5979L65.2518 77.4534L65.227 71.1794C65.5865 71.5423 66.1195 71.7627 66.7145 71.7627C67.8053 71.7627 68.6978 70.9849 68.6978 70.0386C68.6978 69.0794 67.8177 68.3275 66.7145 68.3275C65.636 68.3275 64.7559 69.1183 64.7312 70.0386L64.7683 79.4497V79.6183L71.7224 78.7109L71.71 77.596L71.6728 70.3368C72.0323 70.6997 72.5653 70.9201 73.1603 70.9201C74.2512 70.9201 75.1437 70.1553 75.1437 69.196C75.1437 68.2757 74.2635 67.5109 73.1603 67.5109ZM71.2142 77.1683V77.6738L65.2642 78.4905V78.0368L71.2142 77.1683Z" fill="#FFBE55"/>
</g>
<defs>
<linearGradient id="paint0_linear_33_1054" x1="116.134" y1="20.3523" x2="114.738" y2="47.236" gradientUnits="userSpaceOnUse">
<stop stop-color="#FFAC85"/>
<stop offset="1" stop-color="#FF8E59"/>
</linearGradient>
<clipPath id="clip0_33_1054">
<rect width="238" height="140" fill="white"/>
</clipPath>
</defs>
</svg>
