<svg width="631" height="500" viewBox="0 0 631 500" fill="none" xmlns="http://www.w3.org/2000/svg">
<path fill-rule="evenodd" clip-rule="evenodd" d="M408.355 143.167L396.871 151.767C396.843 151.783 396.815 151.817 396.787 151.833C396.759 151.85 396.731 151.883 396.703 151.9C394.669 152.683 393.155 151.6 392.033 149.467C390.785 147.117 390.911 144.383 392.3 143.333C393.688 142.3 395.819 143.35 397.067 145.7C397.698 146.883 397.979 148.183 397.923 149.3L407.5 142.133L408.341 141.5L409.743 140.45C410.066 140.217 410.543 140.267 410.795 140.583L420.624 152.25C420.891 152.567 420.835 153 420.512 153.25L418.914 154.45L418.269 154.933L406.813 163.5C406.785 163.517 406.757 163.55 406.728 163.567C406.7 163.583 406.672 163.617 406.644 163.633C404.611 164.417 403.097 163.333 401.975 161.2C400.727 158.85 400.853 156.117 402.241 155.067C403.63 154.033 405.761 155.083 407.009 157.433C407.64 158.617 407.92 159.917 407.864 161.033L417.413 153.883L408.355 143.167Z" fill="white"/>
<path fill-rule="evenodd" clip-rule="evenodd" d="M421.143 98.7502L416.81 112.767L416.74 113C415.506 115.134 413.725 115.367 411.706 114.5C409.477 113.534 408.131 111.234 408.705 109.367C409.28 107.5 411.552 106.784 413.782 107.767C414.903 108.267 415.815 109.084 416.348 110.034L420.33 97.1669L420.68 96.0335L421.255 94.1502C421.564 93.1669 422.616 93.4835 422.461 94.5002C421.886 99.5169 425.953 101.934 424.144 106.984C424.831 102.95 421.704 101.95 421.143 98.7502ZM428.042 202.384L418.227 193.084L418.058 192.934C416.754 190.867 417.119 188.784 418.465 186.784C419.951 184.584 422.209 183.784 423.513 185.017C424.817 186.25 424.677 189.05 423.19 191.25C422.447 192.367 421.494 193.117 420.568 193.434L429.585 201.984L430.37 202.734L431.688 203.984C432.375 204.634 431.786 205.717 431.029 205.234C427.201 203.017 423.99 206.834 420.54 203.2C423.541 205.217 425.322 202.017 428.042 202.384Z" fill="#E2480D"/>
<path fill-rule="evenodd" clip-rule="evenodd" d="M444 149.066L451.866 147.983C451.88 147.983 451.908 147.983 451.922 147.966C451.936 147.966 451.964 147.966 451.978 147.966C453.212 148.166 453.773 149.183 453.927 150.65C454.082 152.25 453.437 153.666 452.497 153.8C451.544 153.933 450.646 152.733 450.492 151.133C450.408 150.316 450.534 149.55 450.8 148.983L444.238 149.883L443.663 149.966L442.71 150.1C442.485 150.133 442.247 149.95 442.177 149.716L439.47 140.633C439.4 140.4 439.513 140.166 439.737 140.133L440.831 139.983L441.265 139.916L449.104 138.833C449.118 138.833 449.146 138.833 449.16 138.816C449.174 138.816 449.202 138.816 449.216 138.816C450.45 139.016 451.011 140.033 451.165 141.5C451.319 143.1 450.674 144.516 449.735 144.65C448.781 144.783 447.884 143.583 447.73 141.983C447.645 141.166 447.772 140.4 448.038 139.833L441.504 140.733L444 149.066Z" fill="#00347F"/>
<path opacity="0.85" d="M198.798 302.681C211.14 288.01 211.14 264.225 198.797 249.554C186.454 234.884 166.442 234.884 154.099 249.555C141.756 264.226 141.757 288.012 154.1 302.682C166.443 317.353 186.455 317.352 198.798 302.681Z" stroke="white" stroke-width="0.755" stroke-miterlimit="10"/>
<path opacity="0.5" d="M215.171 227.483C218.981 227.483 222.07 223.812 222.07 219.283C222.07 214.754 218.981 211.083 215.171 211.083C211.361 211.083 208.272 214.754 208.272 219.283C208.272 223.812 211.361 227.483 215.171 227.483Z" fill="url(#paint0_linear_12_281)"/>
<path opacity="0.5" fill-rule="evenodd" clip-rule="evenodd" d="M406.42 264.767C402.802 263.35 400.825 258.717 402.017 254.4C403.209 250.1 407.107 247.75 410.739 249.167C414.357 250.583 416.334 255.216 415.142 259.533C413.936 263.833 410.038 266.183 406.42 264.767Z" fill="url(#paint1_linear_12_281)"/>
<path opacity="0.2" fill-rule="evenodd" clip-rule="evenodd" d="M108.406 394.05C108.406 335.666 148.229 288.333 197.349 288.333C246.469 288.333 286.292 335.666 286.292 394.05H251.166C251.166 358.733 227.076 330.083 197.349 330.083C167.622 330.083 143.531 358.716 143.531 394.05H108.406Z" fill="url(#paint2_linear_12_281)"/>
<path opacity="0.2" fill-rule="evenodd" clip-rule="evenodd" d="M476.307 242.716C476.321 242.716 476.335 242.716 476.349 242.716C501.897 242.666 522.594 218.033 522.594 187.65C522.594 157.266 501.897 132.633 476.349 132.583C476.335 132.583 476.321 132.583 476.307 132.583C476.293 132.583 476.279 132.583 476.265 132.583C450.716 132.633 430.02 157.266 430.02 187.65C430.02 218.033 450.716 242.666 476.265 242.716C476.279 242.716 476.293 242.716 476.307 242.716ZM448.319 187.65C448.319 169.266 460.84 154.366 476.307 154.333C491.773 154.366 504.295 169.266 504.295 187.65C504.295 206.033 491.773 220.933 476.307 220.966C460.84 220.933 448.319 206.033 448.319 187.65Z" fill="url(#paint3_linear_12_281)"/>
<path d="M320.548 347.247H315.009V396.097H320.548V347.247Z" fill="#F8C800"/>
<path fill-rule="evenodd" clip-rule="evenodd" d="M288.143 396.097H282.604L296.78 347.247H302.319L288.143 396.097Z" fill="#F8C800"/>
<path fill-rule="evenodd" clip-rule="evenodd" d="M352.589 396.097H358.128L343.951 347.247H338.413L352.589 396.097Z" fill="#F8C800"/>
<path fill-rule="evenodd" clip-rule="evenodd" d="M371.491 211.63L391.795 146.33C393.45 141.963 399.647 147.097 399.619 154.363C397.923 176.263 395.132 200.447 389.916 221.98C387.182 233.297 367.523 226.03 371.491 211.63ZM260.799 324.263C262.047 339.43 263.267 354.613 264.109 370.447C262.917 379.213 255.261 386.63 247.156 389.863C262.608 392.163 277.542 375.98 274.457 363.913C272.873 357.73 276.799 347.213 278.58 324.347L260.799 324.263Z" fill="#F6CBAD"/>
<path fill-rule="evenodd" clip-rule="evenodd" d="M274.443 363.913C274.443 363.913 278.776 368.396 279.112 371.613C279.449 374.83 278.159 377.746 278.019 381.096C277.906 384.046 277.682 393.68 277.626 395.946H276.084L276.014 381.996C272.003 376.296 266.773 394.58 261.108 395.88L241 395.78C240.986 386.18 257.35 393.58 264.866 377.763C266.03 375.346 269.97 365.78 274.443 363.913Z" fill="#E2480D"/>
<path fill-rule="evenodd" clip-rule="evenodd" d="M262.861 225.83C253.017 234.847 256.256 290.097 261.094 333.18C264.543 337.297 268.638 340.08 276.055 345.297C286.53 308.68 286.726 273.58 282.015 251.897C296.836 256.413 309.47 265.38 323.507 269.747C341.567 275.363 343.166 256.047 340.361 232.73C335.762 231.73 274.709 214.98 262.861 225.83Z" fill="#00347F"/>
<path fill-rule="evenodd" clip-rule="evenodd" d="M384.672 324.264C383.424 339.43 382.204 354.614 381.363 370.447C382.554 379.214 390.211 386.63 398.315 389.864C382.863 392.164 367.929 375.98 371.014 363.914C372.599 357.73 368.672 347.214 366.892 324.347L384.672 324.264Z" fill="#F6CBAD"/>
<path fill-rule="evenodd" clip-rule="evenodd" d="M371.028 363.913C371.028 363.913 366.695 368.396 366.359 371.613C366.022 374.83 367.312 377.746 367.452 381.096C367.564 384.046 367.789 393.68 367.845 395.946H369.387L369.457 381.996C373.468 376.296 378.698 394.58 384.363 395.88L404.471 395.78C404.485 386.18 388.121 393.58 380.605 377.763C379.427 375.346 375.487 365.78 371.028 363.913Z" fill="#E2480D"/>
<path fill-rule="evenodd" clip-rule="evenodd" d="M382.61 225.83C392.454 234.846 388.57 296.38 383.718 339.463C380.367 341.696 377.184 345.296 369.92 348.563C359.446 311.946 358.731 273.596 363.442 251.913C348.621 256.43 335.987 265.396 321.95 269.763C303.89 275.38 302.291 256.063 305.096 232.746C309.709 231.73 370.748 214.98 382.61 225.83Z" fill="#00347F"/>
<path fill-rule="evenodd" clip-rule="evenodd" d="M324.012 172.163C316.342 166.347 317.618 137.113 327.938 140.38L373.426 171.38C379.834 175.913 370.72 195.397 362.811 198.013L324.012 172.163Z" fill="#F6CBAD"/>
<path fill-rule="evenodd" clip-rule="evenodd" d="M344.344 223.563C342.325 213.196 337.669 208.446 336.393 195.713C336.015 191.896 335.818 187.88 336.239 184.763C335.454 181.48 344.596 166.213 335.005 152.08C330.56 145.53 331.794 142.53 327.097 139.43C325.905 138.63 322.89 137.863 319.497 138.213C315.795 138.613 311.686 140.263 309.989 142.263C297.019 157.68 303.091 185.213 304.563 199.096C305.657 209.48 303.595 215.663 298.744 226.23C304.815 239.846 334.136 241.246 344.344 223.563Z" fill="#F8C800"/>
<path fill-rule="evenodd" clip-rule="evenodd" d="M302.095 177.497C302.642 185.78 303.96 193.547 304.563 199.114C305.657 209.497 303.595 215.68 298.744 226.247C304.829 239.864 334.15 241.264 344.358 223.564C342.437 213.697 338.132 208.897 336.618 197.464C323.409 197.447 310.466 189.58 302.095 177.497Z" fill="#E8AB00"/>
<path fill-rule="evenodd" clip-rule="evenodd" d="M322.161 138.113C322.161 138.113 319.132 137.463 324.068 128.947C324.825 127.63 326.844 128.463 327.068 127.413C327.657 124.597 325.274 120.43 326.241 117.147C326.914 114.847 323.521 113.413 320.983 112.713C316.804 111.58 309.597 114.797 312.303 125.897C312.948 128.563 314.42 132.18 314.42 139.763C316.285 145.33 321.558 150.863 323.296 153.58C322.539 147.863 321.319 143.23 322.161 138.113ZM298.239 146.58C309.555 139.33 318.15 152.43 312.513 163.213C308.811 170.297 294.032 183.513 286.853 197.097C283.291 203.83 280.949 204.947 277.612 203.347C272.887 201.08 266.142 199.88 267.053 192.813C274.373 173.03 292.097 150.513 298.239 146.58Z" fill="#F6CBAD"/>
<path fill-rule="evenodd" clip-rule="evenodd" d="M326.606 116.48C324.713 117.28 318.866 110.663 317.309 120.013C317.197 120.713 317.183 123.147 314.477 121.863C311.77 120.58 312.261 125.597 314.575 124.797C317.309 123.847 316.608 138.613 311.714 144.23C305.432 151.43 302.698 152.48 284.749 153.647C278.103 154.08 273.391 160.763 264.319 162.547C248.502 165.647 240.075 145.98 246.258 131.03C253.943 112.43 271.204 120.413 283.137 127.313C290.499 131.563 297.117 130.113 304.254 122.98C307.199 120.03 307.423 112.147 312.009 111.73C317.898 92.7135 336.576 110.047 326.606 116.48ZM275.074 239.847C277.023 241.23 276.056 345.28 276.056 345.28C276.056 345.28 318.992 376.313 375.193 345.83C375.529 345.647 375.866 345.463 376.188 345.28L372.346 245.397L275.074 239.847Z" fill="#00347F"/>
<path d="M384.854 333.897L387.098 308.28C387.182 307.38 387.532 306.547 388.079 305.93L391.907 301.73C393.702 299.764 392.987 296.214 390.631 295.43L383.718 293.13L381.489 284.83C379.484 277.38 380.591 269.247 384.462 262.93L388.542 256.264L391.487 257.247C393.366 257.88 395.104 255.814 394.558 253.58L393.408 248.814C393.239 248.114 393.296 247.38 393.548 246.73L400.966 228.13C401.513 226.764 401.919 225.33 402.158 223.864C404.766 207.83 396.619 191.847 383.157 187.364L376.581 185.18L376.09 185.014L369.514 182.83C356.053 178.347 342.1 186.98 337.319 202.28C336.884 203.697 336.59 205.164 336.463 206.664L334.669 227.13C334.613 227.847 334.332 228.514 333.883 228.997L330.827 232.364C329.396 233.947 329.971 236.78 331.85 237.397L334.795 238.38L335.37 246.614C335.917 254.397 333.294 262.03 328.331 267.164L322.806 272.864L315.893 270.564C313.537 269.78 311.378 272.364 312.051 275.164L313.481 281.13C313.691 281.997 313.621 282.93 313.299 283.747L304.016 307.014C303.343 308.714 302.824 310.514 302.53 312.364C299.277 332.43 309.457 352.43 326.311 358.047L333.673 360.497L336.141 361.314L343.503 363.764C360.343 369.38 377.801 358.58 383.788 339.43C384.335 337.614 384.686 335.78 384.854 333.897Z" fill="#E2480D"/>
<path d="M397.138 116.346C397.544 114.463 396.605 112.563 395.048 112.03L393.927 111.663L392.805 111.296C391.234 110.78 389.608 111.83 389.131 113.68L356.221 241.713C355.73 243.63 356.655 245.647 358.282 246.18L361.914 247.397L365.546 248.613C367.172 249.147 368.841 247.997 369.261 246.063L397.138 116.346ZM356.95 293.763L352.407 292.247L347.864 290.73C346.994 290.447 346.111 291.08 345.914 292.13L334.346 355.43C334.164 356.397 334.655 357.347 335.454 357.613L336.884 358.097L338.314 358.58C339.114 358.847 339.941 358.33 340.207 357.397L358.002 296.18C358.31 295.147 357.819 294.047 356.95 293.763Z" fill="#F8C800"/>
<path d="M336.028 277.363C335.271 277.113 334.486 276.68 333.659 276.08C333.084 275.663 332.901 274.78 333.252 274.096C333.603 273.413 334.346 273.196 334.921 273.63C336.435 274.73 337.655 275.03 338.538 274.48C340.207 273.463 340.81 269.713 340.922 268.246L340.123 249.063C339.562 239.546 343.727 238.496 344.175 238.396C345.886 238.08 347.316 238.446 348.438 239.48C350.163 241.08 350.415 243.613 350.443 243.896C350.513 244.696 350.023 245.396 349.35 245.463C348.69 245.546 348.088 244.963 348.031 244.18C348.031 244.13 347.863 242.58 346.938 241.746C346.363 241.23 345.564 241.063 344.554 241.246H344.54C343.699 241.48 342.226 243.363 342.549 248.863C342.549 248.88 342.549 248.88 342.549 248.896L343.362 268.18C343.362 268.23 343.362 268.296 343.362 268.346C343.32 269.03 342.885 275.063 339.674 277.03C338.58 277.713 337.375 277.813 336.028 277.363ZM367.48 286.313C365.601 282.646 367.859 277.23 368.125 276.613C368.153 276.563 368.167 276.513 368.195 276.463L377.324 260.48L377.338 260.463C380.016 255.963 379.581 253.446 378.964 252.73L378.95 252.713C378.165 251.93 377.408 251.58 376.693 251.663C375.543 251.813 374.73 253.03 374.702 253.063C374.295 253.696 373.538 253.83 373.005 253.346C372.472 252.863 372.36 251.963 372.753 251.33C372.893 251.096 374.211 249.096 376.398 248.796C377.815 248.613 379.203 249.18 380.521 250.513C380.857 250.863 383.956 254.346 379.315 262.113L370.257 278.013C369.696 279.33 368.574 282.913 369.556 284.813C370.074 285.83 371.238 286.33 373.019 286.313C373.692 286.313 374.239 286.946 374.239 287.746C374.239 288.546 373.706 289.196 373.033 289.196C372.066 289.196 371.196 289.08 370.439 288.83C369.107 288.38 368.111 287.546 367.48 286.313ZM378.964 252.73C378.964 252.713 378.964 252.713 378.964 252.73V252.73Z" fill="white"/>
<path d="M390.533 118.613L349.378 291.73" stroke="white" stroke-width="0.755" stroke-miterlimit="10"/>
<path d="M393.422 119.58L354.3 292.88" stroke="white" stroke-width="0.755" stroke-miterlimit="10"/>
<path d="M327.924 396.097L335.033 357.38L338.707 358.597L327.924 396.097Z" fill="#F8C800"/>
<path d="M358.282 246.18L365.559 248.613" stroke="#00347F" stroke-width="1.511" stroke-miterlimit="10" stroke-linecap="round" stroke-linejoin="round"/>
<path d="M347.863 290.73L356.95 293.764" stroke="#00347F" stroke-width="1.511" stroke-miterlimit="10" stroke-linecap="round" stroke-linejoin="round"/>
<path d="M381.853 186.896L369.275 246.063" stroke="#00347F" stroke-width="1.511" stroke-miterlimit="10" stroke-linecap="round" stroke-linejoin="round"/>
<path d="M357.44 298.13L340.221 357.38" stroke="#00347F" stroke-width="1.511" stroke-miterlimit="10" stroke-linecap="round" stroke-linejoin="round"/>
<path d="M395.048 120.113L389.271 118.18C386.733 117.33 385.247 114.197 385.962 111.18L391.627 87.1467C392.342 84.13 394.978 82.3633 397.516 83.2133L403.293 85.1467C405.831 85.9967 407.318 89.13 406.602 92.1467L400.937 116.18C400.222 119.213 397.586 120.963 395.048 120.113Z" fill="#E2480D"/>
<path d="M390.376 92.4448L380.601 89.1885L379.95 91.9488L389.726 95.2051L390.376 92.4448Z" fill="#F8C800"/>
<path d="M383.242 91.58C382.779 93.53 381.082 94.68 379.428 94.13C377.787 93.58 376.819 91.5634 377.282 89.5967C377.745 87.6467 379.442 86.4967 381.096 87.0467C382.751 87.5967 383.704 89.63 383.242 91.58Z" fill="#00347F"/>
<path d="M388.273 101.326L378.498 98.0693L377.847 100.83L387.623 104.086L388.273 101.326Z" fill="#F8C800"/>
<path d="M381.152 100.464C380.69 102.414 378.993 103.564 377.338 103.014C375.698 102.464 374.73 100.447 375.193 98.4805C375.656 96.5305 377.352 95.3805 379.007 95.9305C380.662 96.4805 381.615 98.5138 381.152 100.464Z" fill="#00347F"/>
<path d="M404.717 100.237L414.493 103.493L415.144 100.733L405.368 97.4765L404.717 100.237Z" fill="#F8C800"/>
<path d="M417.442 103.991C418.332 102.265 417.875 100.007 416.422 98.9495C414.97 97.8919 413.07 98.4344 412.181 100.161C411.291 101.888 411.747 104.145 413.2 105.203C414.653 106.261 416.552 105.718 417.442 103.991Z" fill="#00347F"/>
<path d="M388.121 117.613L396.044 120.28" stroke="#00347F" stroke-width="1.511" stroke-miterlimit="10" stroke-linecap="round" stroke-linejoin="round"/>
<path d="M390.379 92.4629L389.72 95.2296L382.681 92.8796" stroke="#00347F" stroke-width="1.511" stroke-miterlimit="10" stroke-linecap="round" stroke-linejoin="round"/>
<path d="M388.275 101.347L387.63 104.113L380.591 101.763" stroke="#00347F" stroke-width="1.511" stroke-miterlimit="10" stroke-linecap="round" stroke-linejoin="round"/>
<path d="M405.369 97.4463L404.724 100.213L411.735 102.563" stroke="#00347F" stroke-width="1.511" stroke-miterlimit="10" stroke-linecap="round" stroke-linejoin="round"/>
<path d="M394.711 118.113L390.491 116.713C388.415 116.013 387.196 113.463 387.784 110.98L392.875 89.28C393.463 86.8134 395.609 85.3634 397.698 86.0634L401.919 87.4634C403.994 88.1634 405.214 90.7134 404.625 93.1967L399.535 114.897C398.946 117.363 396.787 118.797 394.711 118.113Z" stroke="white" stroke-width="0.755" stroke-miterlimit="10"/>
<path d="M335.033 357.38L338.707 358.597L328.176 395.213" stroke="#00347F" stroke-width="1.511" stroke-miterlimit="10" stroke-linecap="round" stroke-linejoin="round"/>
<path d="M370.411 186.497C370.411 186.497 365.069 183.397 356.095 186.113C347.793 188.63 339.773 194.53 339.296 214.463C338.819 234.397 339.296 235.78 339.296 235.78M381.615 190.03C381.615 190.03 387.504 191.047 393.632 199.297C399.297 206.93 403.125 217.18 394.067 233.963C385.022 250.747 383.957 251.58 383.957 251.58" stroke="white" stroke-width="0.755" stroke-miterlimit="10"/>
<path d="M330.826 355.597C330.826 355.597 311.588 346.147 308.195 333.113C304.899 320.48 304.647 308.63 321.53 285.363M381.853 295.347C381.853 295.347 388.402 344.93 369.948 353.28C369.948 353.28 356.165 361.663 343.502 358.63" stroke="white" stroke-width="0.755" stroke-miterlimit="10" stroke-linecap="round" stroke-linejoin="round"/>
<path d="M402.632 109.121L412.407 112.377L413.058 109.617L403.283 106.36L402.632 109.121Z" fill="#F8C800"/>
<path d="M409.757 109.98C409.295 111.93 410.262 113.963 411.903 114.513C413.543 115.063 415.254 113.913 415.717 111.963C416.179 110.013 415.212 107.98 413.571 107.43C411.917 106.896 410.22 108.03 409.757 109.98Z" fill="#00347F"/>
<path d="M403.279 106.33L402.62 109.097L409.645 111.447" stroke="#00347F" stroke-width="1.511" stroke-miterlimit="10" stroke-linecap="round" stroke-linejoin="round"/>
<path fill-rule="evenodd" clip-rule="evenodd" d="M282.38 188.696L342.1 224.08C342.311 230.813 340.782 232.58 338.216 232.696C321.586 229.38 286.811 223.146 268.862 206.03C265.329 202.663 263.239 179.346 282.38 188.696ZM390.295 151.196L393.562 136.23C392.342 133.513 391.262 128.713 392.244 125.713C393.169 124.78 393.744 133.346 394.544 132.246C396.577 129.48 394.109 116.78 395.553 117.146C401.947 118.78 399.269 132.58 399.535 139.78C399.718 144.313 399.872 148.946 399.634 154.346L390.295 151.196Z" fill="#F6CBAD"/>
<path fill-rule="evenodd" clip-rule="evenodd" d="M359.194 219.163C358.45 218.48 357.385 218.647 356.796 219.53L345.676 236.58C345.101 237.463 345.241 238.73 345.985 239.43C346.728 240.113 347.793 239.947 348.382 239.063L359.502 222.013C360.077 221.13 359.937 219.847 359.194 219.163Z" fill="#00347F"/>
<path d="M358.684 218.693L359.648 219.581L385.108 180.514L384.144 179.626L358.684 218.693Z" fill="#00347F"/>
<path fill-rule="evenodd" clip-rule="evenodd" d="M387.266 174.147L392.637 174.53C393.001 174.563 393.183 175.047 392.959 175.397L388.023 182.963C387.869 183.197 387.589 183.247 387.392 183.063L383.887 179.83C383.69 179.647 383.648 179.313 383.803 179.08L386.873 174.363C386.972 174.213 387.112 174.13 387.266 174.147Z" fill="#00347F"/>
<path d="M358.226 226.314C357.693 225.83 356.936 225.947 356.515 226.564L353.276 231.547C352.869 232.18 352.967 233.08 353.486 233.58C354.019 234.064 354.776 233.947 355.197 233.33L358.436 228.347C358.857 227.714 358.759 226.814 358.226 226.314Z" fill="#00347F"/>
<path d="M358.256 226.343L358.721 226.771L387.464 182.673L386.998 182.244L358.256 226.343Z" fill="#00347F"/>
<path fill-rule="evenodd" clip-rule="evenodd" d="M336.562 220.797L348.144 226.13C350.556 224.98 354.678 224.214 357.076 225.697C357.763 226.897 350.528 226.664 351.355 227.73C353.458 230.43 364.34 228.864 363.877 230.547C361.83 237.93 350.401 233.83 344.344 233.364C340.418 233.114 338.721 232.697 337.277 232.514L336.562 220.797Z" fill="#F6CBAD"/>
<path d="M310.648 114.713C310.648 114.713 312.107 125.313 306.259 129.13C300.412 132.946 290.288 135.313 270.965 126.746C251.643 118.196 246.889 134.396 246.889 140.113" stroke="white" stroke-width="0.755" stroke-miterlimit="10" stroke-linecap="round" stroke-linejoin="round"/>
<path d="M317.449 127.43C317.674 127.663 318.08 133.196 322.567 129.23" stroke="#00347F" stroke-width="1.511" stroke-miterlimit="10" stroke-linecap="round" stroke-linejoin="round"/>
<path d="M289.348 192.83L282.281 194.663" stroke="#00347F" stroke-width="1.511" stroke-miterlimit="10" stroke-linecap="round" stroke-linejoin="round"/>
<path d="M302.039 176.497L309.064 168.214C309.064 168.214 320.478 155.78 309.863 146.264" stroke="#00347F" stroke-width="1.511" stroke-miterlimit="10" stroke-linecap="round" stroke-linejoin="round"/>
<path d="M336.239 184.764L334.248 188.647" stroke="#00347F" stroke-width="1.511" stroke-miterlimit="10" stroke-linecap="round" stroke-linejoin="round"/>
<path fill-rule="evenodd" clip-rule="evenodd" d="M268.736 188.646C268.736 188.646 282.057 197.946 273.041 209.596L268.862 206.013C268.848 206.03 263.66 198.863 268.736 188.646Z" fill="#F4BE99"/>
<path d="M322.16 138.113C322.16 138.113 321.571 145.18 323.282 153.58M329.48 141.53C329.48 141.53 332.06 147.313 333.532 149.697C335.005 152.08 343.306 161.213 336.926 180.78L346.84 187.38" stroke="#00347F" stroke-width="1.511" stroke-miterlimit="10" stroke-linecap="round" stroke-linejoin="round"/>
<path d="M387.883 159.43L393.562 136.23" stroke="#00347F" stroke-width="1.511" stroke-miterlimit="10" stroke-linecap="round" stroke-linejoin="round"/>
<path d="M337.781 361.83C337.781 361.83 368.883 377.63 383.774 339.396" stroke="#00347F" stroke-width="1.511" stroke-miterlimit="10" stroke-linecap="round" stroke-linejoin="round"/>
<path fill-rule="evenodd" clip-rule="evenodd" d="M263.786 385.713C263.211 386.28 262.342 386.196 261.865 385.496L256.971 378.496C256.495 377.813 256.565 376.78 257.154 376.213C257.729 375.646 258.598 375.73 259.075 376.43L263.968 383.43C264.445 384.113 264.375 385.146 263.786 385.713ZM388.009 376.563C388.612 377.097 388.724 378.113 388.275 378.83L383.676 386.097C383.227 386.813 382.372 386.946 381.769 386.413C381.166 385.88 381.054 384.863 381.503 384.147L386.102 376.88C386.551 376.18 387.406 376.03 388.009 376.563Z" fill="#00347F"/>
<path d="M371.028 363.913C371.028 363.913 374.758 364.946 379.595 375.613M274.443 363.913C274.443 363.913 269.928 365.38 265.356 376.73" stroke="#00347F" stroke-width="1.511" stroke-miterlimit="10" stroke-linecap="round" stroke-linejoin="round"/>
<path d="M300.636 229.297C300.636 229.297 280.529 229.297 276.168 229.947C274.821 230.147 263.155 232.564 263.716 245.414C264.263 258.264 274.331 332.13 285.212 350.414" stroke="white" stroke-width="0.755" stroke-miterlimit="10"/>
<path d="M314.378 236.247C314.378 236.247 277.486 234.163 277.612 252.73C277.738 271.297 297.86 334.663 306.428 357.98" stroke="white" stroke-width="0.755" stroke-miterlimit="10"/>
<path d="M318.627 236.646C318.627 236.646 303.483 250.846 303.988 261.346C304.507 271.846 310.088 291.746 310.088 291.746M325.638 236.646C325.638 236.646 333.995 243.463 330.756 264.196" stroke="white" stroke-width="0.755" stroke-miterlimit="10"/>
<path fill-rule="evenodd" clip-rule="evenodd" d="M389.117 190.28C389.117 190.28 393.281 192.546 395.034 195.696L396.352 186.513C396.338 186.496 391.557 185.363 389.117 190.28Z" fill="#F4BE99"/>
<path d="M304.787 201.98L335.243 220.014" stroke="#00347F" stroke-width="1.511" stroke-miterlimit="10" stroke-linecap="round" stroke-linejoin="round"/>
<path d="M266.969 131.063C265.778 130.897 247.422 127.563 250.409 146.263C253.817 167.563 276.336 152.263 276.336 152.263" stroke="white" stroke-width="0.755" stroke-miterlimit="10" stroke-linecap="round" stroke-linejoin="round"/>
<path d="M307.437 119.58C288.451 143.213 266.969 98.0299 244.211 120.097" stroke="#00347F" stroke-width="1.511" stroke-miterlimit="10" stroke-linecap="round" stroke-linejoin="round"/>
<path d="M299.837 355.813L289.405 391.78" stroke="#00347F" stroke-width="1.511" stroke-miterlimit="10" stroke-linecap="round" stroke-linejoin="round"/>
<path d="M315.009 357.997V387.347" stroke="#00347F" stroke-width="1.511" stroke-miterlimit="10" stroke-linecap="round" stroke-linejoin="round"/>
<path d="M343.488 363.73L350.359 388.414" stroke="#00347F" stroke-width="1.511" stroke-miterlimit="10" stroke-linecap="round" stroke-linejoin="round"/>
<path d="M151.861 394.434H469.436" stroke="#00347F" stroke-miterlimit="10"/>
<path fill-rule="evenodd" clip-rule="evenodd" d="M253.241 244C253.522 243.283 251.895 241.683 249.609 240.416C248.46 239.783 247.366 239.35 246.525 239.183C247.352 238.466 248.305 237.466 249.231 236.266C251.46 233.383 252.764 230.483 252.119 229.783C251.474 229.083 249.147 230.85 246.917 233.733C245.795 235.183 244.898 236.65 244.379 237.816C243.762 237.3 242.977 236.75 242.079 236.266C239.794 235 237.719 234.566 237.438 235.266C237.158 235.983 238.784 237.583 241.07 238.85C241.743 239.216 242.388 239.516 242.977 239.733C241.995 240.433 240.761 241.666 239.541 243.216C237.312 246.1 236.008 249 236.653 249.7C237.298 250.4 239.626 248.633 241.855 245.75C243.496 243.633 244.617 241.516 244.856 240.266C244.926 240.233 244.996 240.216 245.066 240.166C245.08 240.166 245.094 240.166 245.108 240.166C245.585 240.966 246.903 242.083 248.572 243C250.885 244.266 252.961 244.716 253.241 244Z" fill="#F8C800"/>
<path fill-rule="evenodd" clip-rule="evenodd" d="M272.382 261.283C272.816 261.516 273.77 260.083 274.485 258.083C274.85 257.083 275.088 256.133 275.172 255.4C275.621 256.1 276.252 256.9 277.009 257.666C278.804 259.533 280.599 260.583 281.019 260.016C281.426 259.45 280.304 257.483 278.509 255.616C277.598 254.683 276.7 253.95 275.971 253.516C276.28 252.983 276.588 252.283 276.869 251.516C277.598 249.533 277.822 247.733 277.374 247.5C276.939 247.266 275.985 248.7 275.27 250.7C275.06 251.283 274.892 251.85 274.765 252.366C274.317 251.533 273.545 250.5 272.578 249.483C270.783 247.616 268.988 246.566 268.568 247.133C268.161 247.7 269.283 249.666 271.078 251.533C272.396 252.9 273.714 253.833 274.485 254C274.499 254.066 274.527 254.116 274.541 254.183C274.541 254.2 274.541 254.2 274.541 254.216C274.064 254.65 273.419 255.8 272.886 257.25C272.171 259.266 271.947 261.05 272.382 261.283ZM249.217 278.6C249.652 278.35 249.329 276.566 248.516 274.633C248.109 273.65 247.646 272.833 247.24 272.283C247.983 272.316 248.894 272.266 249.876 272.083C252.232 271.65 254.069 270.7 253.97 269.966C253.872 269.233 251.881 268.983 249.525 269.416C248.333 269.633 247.282 269.983 246.539 270.366C246.384 269.733 246.146 269.016 245.838 268.25C245.024 266.316 244.015 264.95 243.594 265.2C243.159 265.45 243.482 267.233 244.295 269.166C244.533 269.733 244.786 270.25 245.038 270.7C244.225 270.566 243.047 270.6 241.771 270.833C239.415 271.266 237.578 272.216 237.677 272.95C237.775 273.683 239.766 273.933 242.122 273.5C243.846 273.183 245.291 272.583 245.908 272C245.95 272.016 246.006 272.05 246.062 272.066C246.076 272.066 246.076 272.083 246.09 272.083C246.048 272.8 246.384 274.133 246.973 275.55C247.787 277.483 248.796 278.85 249.217 278.6Z" fill="white"/>
<path fill-rule="evenodd" clip-rule="evenodd" d="M262.314 343.75C262.749 343.983 263.702 342.55 264.417 340.55C264.782 339.55 265.02 338.6 265.104 337.867C265.553 338.567 266.184 339.367 266.941 340.133C268.736 342 270.531 343.05 270.952 342.483C271.358 341.917 270.236 339.95 268.442 338.083C267.53 337.15 266.633 336.417 265.904 335.983C266.212 335.45 266.52 334.75 266.801 333.983C267.53 332 267.754 330.2 267.306 329.967C266.871 329.733 265.918 331.167 265.202 333.167C264.992 333.75 264.824 334.317 264.698 334.833C264.249 334 263.478 332.967 262.51 331.95C260.715 330.083 258.92 329.033 258.5 329.6C258.093 330.167 259.215 332.133 261.01 334C262.328 335.367 263.646 336.3 264.417 336.467C264.431 336.533 264.459 336.583 264.473 336.65C264.473 336.667 264.473 336.667 264.473 336.683C263.996 337.117 263.351 338.267 262.819 339.717C262.103 341.733 261.879 343.533 262.314 343.75Z" fill="#F8C800"/>
<path fill-rule="evenodd" clip-rule="evenodd" d="M239.836 310.7C239.584 311.184 240.607 312.517 242.136 313.684C242.907 314.267 243.664 314.7 244.253 314.934C243.594 315.35 242.837 315.967 242.066 316.717C240.229 318.517 239.065 320.45 239.458 321.034C239.864 321.617 241.673 320.617 243.51 318.8C244.435 317.884 245.193 316.95 245.669 316.167C246.062 316.617 246.595 317.1 247.184 317.55C248.712 318.717 250.17 319.284 250.423 318.8C250.675 318.317 249.652 316.984 248.123 315.817C247.675 315.467 247.24 315.184 246.833 314.95C247.59 314.567 248.586 313.834 249.582 312.85C251.418 311.05 252.582 309.117 252.19 308.534C251.783 307.95 249.974 308.95 248.137 310.767C246.791 312.084 245.81 313.484 245.529 314.35C245.473 314.367 245.417 314.367 245.361 314.384C245.347 314.384 245.347 314.384 245.333 314.384C245.052 313.75 244.197 312.8 243.075 311.95C241.547 310.784 240.103 310.217 239.836 310.7Z" fill="white"/>
<path fill-rule="evenodd" clip-rule="evenodd" d="M267.418 302.583C268.077 302.633 268.736 300.25 268.89 297.267C268.96 295.767 268.904 294.4 268.736 293.4C269.605 294.067 270.741 294.733 272.017 295.333C275.088 296.75 277.836 297.117 278.159 296.15C278.467 295.183 276.238 293.267 273.153 291.85C271.597 291.133 270.138 290.683 269.016 290.55C269.199 289.683 269.339 288.6 269.395 287.45C269.549 284.467 269.143 282 268.47 281.95C267.811 281.9 267.152 284.283 266.997 287.267C266.955 288.133 266.955 288.967 266.997 289.7C266.1 288.867 264.67 287.95 263.015 287.183C259.944 285.767 257.196 285.4 256.873 286.367C256.565 287.333 258.794 289.25 261.879 290.667C264.123 291.7 266.198 292.183 267.278 291.983C267.32 292.05 267.376 292.117 267.432 292.183C267.432 292.2 267.446 292.217 267.446 292.233C266.983 293.05 266.605 294.917 266.492 297.1C266.352 300.067 266.759 302.533 267.418 302.583Z" fill="#F8C800"/>
<defs>
<linearGradient id="paint0_linear_12_281" x1="217.338" y1="211.507" x2="206.181" y2="240.02" gradientUnits="userSpaceOnUse">
<stop offset="0.095" stop-color="white"/>
<stop offset="0.754" stop-color="#FBE0DF"/>
<stop offset="0.979" stop-color="#F9D4D3"/>
</linearGradient>
<linearGradient id="paint1_linear_12_281" x1="410.755" y1="249.187" x2="399.597" y2="277.699" gradientUnits="userSpaceOnUse">
<stop offset="0.095" stop-color="white"/>
<stop offset="0.754" stop-color="#FBE0DF"/>
<stop offset="0.979" stop-color="#F9D4D3"/>
</linearGradient>
<linearGradient id="paint2_linear_12_281" x1="197.341" y1="294.175" x2="197.341" y2="422.746" gradientUnits="userSpaceOnUse">
<stop offset="0.095" stop-color="#E0AC26"/>
<stop offset="0.754" stop-color="#FBE0DF"/>
<stop offset="0.979" stop-color="#DAD211"/>
</linearGradient>
<linearGradient id="paint3_linear_12_281" x1="476.308" y1="173.186" x2="476.308" y2="303.593" gradientUnits="userSpaceOnUse">
<stop offset="0.095" stop-color="white"/>
<stop offset="0.754" stop-color="#FBE0DF"/>
<stop offset="0.979" stop-color="#F9D4D3"/>
</linearGradient>
</defs>
</svg>
