<svg width="246" height="198" viewBox="0 0 246 198" fill="none" xmlns="http://www.w3.org/2000/svg">
<path opacity="0.85" d="M49.5718 97C55.2327 97 59.8218 91.4595 59.8218 84.625C59.8218 77.7905 55.2327 72.25 49.5718 72.25C43.9109 72.25 39.3218 77.7905 39.3218 84.625C39.3218 91.4595 43.9109 97 49.5718 97Z" stroke="white" stroke-width="0.547" stroke-miterlimit="10"/>
<path fill-rule="evenodd" clip-rule="evenodd" d="M66.4091 122.529H50.4027C49.9435 122.529 49.5718 122.08 49.5718 121.526V120.925C49.5718 120.371 49.9435 119.922 50.4027 119.922H66.4036C66.8628 119.922 67.2346 120.371 67.2346 120.925V121.526C67.2346 122.08 66.8628 122.529 66.4091 122.529Z" fill="#F8C800"/>
<path fill-rule="evenodd" clip-rule="evenodd" d="M60.1659 123.882H56.6454C56.1424 123.882 55.7324 123.387 55.7324 122.78V122.529H61.0788V122.78C61.0788 123.387 60.6688 123.882 60.1659 123.882Z" fill="#E2480D"/>
<path d="M59.1441 123.882H57.6626V167.792H59.1441V123.882Z" fill="#E2480D"/>
<path d="M53.475 167.58H52.0864V160.729C52.0864 156.961 54.623 153.898 57.7444 153.898V155.575C55.3883 155.575 53.475 157.885 53.475 160.729V167.58ZM64.7254 168.913H63.3368V160.729C63.3368 157.885 61.4235 155.575 59.0674 155.575V153.898C62.1888 153.898 64.7254 156.961 64.7254 160.729V168.913Z" fill="#E2480D"/>
<path d="M58.4004 169.91C59.5416 169.91 60.4668 168.794 60.4668 167.416C60.4668 166.038 59.5416 164.921 58.4004 164.921C57.2591 164.921 56.334 166.038 56.334 167.416C56.334 168.794 57.2591 169.91 58.4004 169.91Z" fill="#00347F"/>
<path d="M58.4006 168.913C59.086 168.913 59.6415 168.243 59.6415 167.415C59.6415 166.588 59.086 165.917 58.4006 165.917C57.7153 165.917 57.1597 166.588 57.1597 167.415C57.1597 168.243 57.7153 168.913 58.4006 168.913Z" fill="white"/>
<path fill-rule="evenodd" clip-rule="evenodd" d="M59.1275 167.416C59.1275 167.904 58.7995 168.294 58.4004 168.294C58.0013 168.294 57.6733 167.898 57.6733 167.416C57.6733 166.934 58.0013 166.538 58.4004 166.538C58.7995 166.538 59.1275 166.927 59.1275 167.416Z" fill="#E2480D"/>
<path d="M64.0747 169.91C65.2159 169.91 66.1411 168.794 66.1411 167.416C66.1411 166.038 65.2159 164.921 64.0747 164.921C62.9335 164.921 62.0083 166.038 62.0083 167.416C62.0083 168.794 62.9335 169.91 64.0747 169.91Z" fill="#00347F"/>
<path d="M64.0749 168.913C64.7603 168.913 65.3159 168.243 65.3159 167.415C65.3159 166.588 64.7603 165.917 64.0749 165.917C63.3896 165.917 62.834 166.588 62.834 167.415C62.834 168.243 63.3896 168.913 64.0749 168.913Z" fill="white"/>
<path d="M52.7422 169.91C53.8834 169.91 54.8086 168.794 54.8086 167.416C54.8086 166.038 53.8834 164.921 52.7422 164.921C51.6009 164.921 50.6758 166.038 50.6758 167.416C50.6758 168.794 51.6009 169.91 52.7422 169.91Z" fill="#00347F"/>
<path d="M52.7424 168.913C53.4277 168.913 53.9833 168.243 53.9833 167.415C53.9833 166.588 53.4277 165.917 52.7424 165.917C52.0571 165.917 51.5015 166.588 51.5015 167.415C51.5015 168.243 52.0571 168.913 52.7424 168.913Z" fill="white"/>
<path d="M57.6626 155.575V153.898" stroke="#00347F" stroke-width="1.093" stroke-miterlimit="10" stroke-linecap="round" stroke-linejoin="round"/>
<path d="M59.144 153.898V155.575" stroke="#00347F" stroke-width="1.093" stroke-miterlimit="10" stroke-linecap="round" stroke-linejoin="round"/>
<path d="M52.0864 165.046C52.0864 165.046 52.8026 164.757 53.475 165.079M57.7116 165.046C57.7116 165.046 58.4278 164.757 59.1002 165.079M63.3806 165.046C63.3806 165.046 64.0967 164.757 64.7691 165.079" stroke="white" stroke-width="0.547" stroke-miterlimit="10" stroke-linecap="round" stroke-linejoin="round"/>
<path d="M50.4028 122.529H65.8844" stroke="#00347F" stroke-width="1.093" stroke-miterlimit="10" stroke-linecap="round" stroke-linejoin="round"/>
<path d="M52.7149 168.294C53.1164 168.294 53.4419 167.901 53.4419 167.416C53.4419 166.931 53.1164 166.538 52.7149 166.538C52.3133 166.538 51.9878 166.931 51.9878 167.416C51.9878 167.901 52.3133 168.294 52.7149 168.294Z" fill="#E2480D"/>
<path d="M64.0747 168.294C64.4763 168.294 64.8018 167.901 64.8018 167.416C64.8018 166.931 64.4763 166.538 64.0747 166.538C63.6732 166.538 63.3477 166.931 63.3477 167.416C63.3477 167.901 63.6732 168.294 64.0747 168.294Z" fill="#E2480D"/>
<path fill-rule="evenodd" clip-rule="evenodd" d="M57.6626 123.882L59.1441 128.02V123.882H57.6626Z" fill="#00347F"/>
<path d="M49.5718 121.223H67.0815" stroke="#00347F" stroke-width="0.547" stroke-miterlimit="10" stroke-linecap="round" stroke-linejoin="round"/>
<path opacity="0.85" d="M169.456 91.3111C178.912 91.3111 186.577 82.0563 186.577 70.64C186.577 59.2236 178.912 49.9688 169.456 49.9688C160 49.9688 152.334 59.2236 152.334 70.64C152.334 82.0563 160 91.3111 169.456 91.3111Z" stroke="white" stroke-width="0.547" stroke-miterlimit="10"/>
<path opacity="0.85" d="M116.653 155.376C118.88 152.688 118.88 148.329 116.653 145.641C114.427 142.953 110.816 142.953 108.59 145.641C106.363 148.329 106.363 152.688 108.59 155.376C110.817 158.065 114.427 158.064 116.653 155.376Z" stroke="white" stroke-width="0.547" stroke-miterlimit="10"/>
<path opacity="0.5" d="M49.5718 152.718C52.7208 152.718 55.2736 149.636 55.2736 145.834C55.2736 142.032 52.7208 138.95 49.5718 138.95C46.4229 138.95 43.8701 142.032 43.8701 145.834C43.8701 149.636 46.4229 152.718 49.5718 152.718Z" fill="url(#paint0_linear_33_747)"/>
<path opacity="0.5" d="M57.8536 60.5744C59.3209 60.5744 60.5104 59.1383 60.5104 57.3668C60.5104 55.5953 59.3209 54.1592 57.8536 54.1592C56.3863 54.1592 55.1968 55.5953 55.1968 57.3668C55.1968 59.1383 56.3863 60.5744 57.8536 60.5744Z" fill="url(#paint1_linear_33_747)"/>
<path opacity="0.5" d="M41.7215 115.916C43.7051 115.916 45.3131 113.974 45.3131 111.579C45.3131 109.185 43.7051 107.243 41.7215 107.243C39.7379 107.243 38.1299 109.185 38.1299 111.579C38.1299 113.974 39.7379 115.916 41.7215 115.916Z" fill="url(#paint2_linear_33_747)"/>
<path opacity="0.2" fill-rule="evenodd" clip-rule="evenodd" d="M150.191 169.911C150.191 150.678 163.104 135.096 179.028 135.096C194.958 135.096 207.865 150.685 207.865 169.911H196.472C196.472 158.275 188.66 148.843 179.023 148.843C169.385 148.843 161.573 158.275 161.573 169.911H150.191Z" fill="url(#paint3_linear_33_747)"/>
<path fill-rule="evenodd" clip-rule="evenodd" d="M88.1664 83.8332L84.4436 86.6646C84.4326 86.6712 84.4272 86.6778 84.4162 86.6844C84.4053 86.691 84.3998 86.6976 84.3889 86.7042C83.7329 86.9616 83.2409 86.6052 82.8746 85.9056C82.4701 85.1334 82.5084 84.2292 82.9566 83.886C83.4049 83.5428 84.0992 83.8926 84.4982 84.6648C84.7005 85.0542 84.7934 85.4832 84.777 85.8462L87.8821 83.4834L88.1554 83.2788L88.6092 82.9356C88.713 82.8564 88.8661 82.8762 88.9536 82.9752L92.1406 86.8164C92.2226 86.9154 92.2117 87.0672 92.1078 87.1464L91.5885 87.5424L91.3808 87.7008L87.6689 90.5256C87.658 90.5322 87.6525 90.5388 87.6416 90.5454C87.6306 90.552 87.6252 90.5586 87.6142 90.5652C86.9582 90.8226 86.4662 90.4662 86.1 89.7666C85.6954 88.9944 85.7337 88.0902 86.182 87.747C86.6302 87.4038 87.3245 87.7536 87.7236 88.5258C87.9258 88.9152 88.0188 89.3442 88.0024 89.7072L91.0965 87.351L88.1664 83.8332Z" fill="white"/>
<path fill-rule="evenodd" clip-rule="evenodd" d="M78.6597 79.114L77.2548 83.7274L77.2329 83.8066C76.8338 84.5062 76.2544 84.5854 75.5984 84.295C74.8768 83.9716 74.4394 83.2192 74.6253 82.6054C74.8112 81.9916 75.5492 81.754 76.2708 82.0774C76.637 82.2424 76.9268 82.513 77.1017 82.8232L78.3918 78.586L78.5066 78.2164L78.698 77.596C78.7964 77.2726 79.1353 77.3782 79.0861 77.7082C78.9002 79.3582 80.2177 80.1568 79.6328 81.82C79.8514 80.4934 78.8401 80.1634 78.6597 79.114ZM85.5258 63.2872L82.3388 60.2248L82.2841 60.172C81.8577 59.4922 81.978 58.8058 82.4153 58.1458C82.8964 57.4198 83.6289 57.1558 84.0498 57.565C84.4708 57.9742 84.427 58.8916 83.946 59.6176C83.7054 59.9872 83.3938 60.2314 83.0986 60.337L86.0233 63.1486L86.2802 63.3928L86.7066 63.802C86.9308 64.0198 86.7394 64.3762 86.4934 64.2112C85.2525 63.4786 84.2138 64.7392 83.0877 63.538C84.0662 64.2178 84.6457 63.1618 85.5258 63.2872Z" fill="#E2480D"/>
<path fill-rule="evenodd" clip-rule="evenodd" d="M76.9213 67.8412L80.7152 69.5572L80.7808 69.5836C81.3548 70.0654 81.4204 70.765 81.1744 71.5504C80.9065 72.415 80.2778 72.9364 79.7749 72.7054C79.272 72.4744 79.0806 71.59 79.3485 70.7254C79.4852 70.2898 79.7093 69.94 79.9662 69.7288L76.484 68.1514L76.1778 68.0128L75.6694 67.7818C75.4016 67.663 75.489 67.2538 75.7678 67.3132C77.129 67.5442 77.7905 65.9668 79.1572 66.6796C78.0638 66.4156 77.7905 67.63 76.9213 67.8412Z" fill="white"/>
<path fill-rule="evenodd" clip-rule="evenodd" d="M86.5102 75.6753L89.0631 75.3189C89.0686 75.3189 89.074 75.3189 89.085 75.3123C89.0904 75.3123 89.0959 75.3123 89.1068 75.3123C89.5059 75.3783 89.6918 75.7149 89.7355 76.1967C89.7847 76.7247 89.577 77.1933 89.2708 77.2329C88.9647 77.2791 88.6695 76.8831 88.6203 76.3551C88.593 76.0845 88.6367 75.8337 88.7187 75.6489L86.5922 75.9459L86.4063 75.9723L86.0947 76.0185C86.0236 76.0317 85.9471 75.9723 85.9252 75.8931L85.0506 72.9033C85.0287 72.8241 85.067 72.7515 85.138 72.7383L85.4934 72.6855L85.6355 72.6657L88.1775 72.3093C88.183 72.3093 88.1884 72.3093 88.1994 72.3027C88.2048 72.3027 88.2103 72.3027 88.2212 72.3027C88.6203 72.3687 88.8062 72.7053 88.8499 73.1871C88.8991 73.7151 88.6914 74.1837 88.3852 74.2233C88.0791 74.2695 87.7839 73.8735 87.7347 73.3455C87.7074 73.0749 87.7511 72.8241 87.8331 72.6393L85.712 72.9363L86.5102 75.6753Z" fill="#00347F"/>
<path fill-rule="evenodd" clip-rule="evenodd" d="M87.8438 102.136L93.0644 102.36C94.5186 102.149 95.7048 102.756 95.8087 102.868C96.7653 103.291 100.062 104.697 99.8321 105.185C99.8321 105.185 97.5307 104.796 96.8419 104.842C96.4592 104.868 96.0109 105.733 95.6228 105.924C94.8575 106.294 93.7095 105.271 92.6818 105.079L88.4232 105.211L87.8438 102.136Z" fill="#F6CBAD"/>
<path fill-rule="evenodd" clip-rule="evenodd" d="M73.2207 97.6474L91.8949 101.706C92.8406 102.459 93.0811 106.696 91.6379 107.455C84.3837 107.719 75.637 107.198 69.1644 106.082C64.6872 105.303 62.7193 94.4332 73.2207 97.6474Z" fill="#E2480D"/>
<path fill-rule="evenodd" clip-rule="evenodd" d="M68.5139 87.2788C69.3831 92.7766 71.0832 97.7926 70.9957 102.657C70.8973 108.194 64.6435 107.435 64.0859 103.218C63.3971 97.9906 62.342 92.209 62.834 87.0214C63.2877 82.2166 67.8141 82.837 68.5139 87.2788Z" fill="#E2480D"/>
<path fill-rule="evenodd" clip-rule="evenodd" d="M81.8414 158.724L82.4701 164.485L83.5689 166.663L78.5669 166.578L77.49 164.631L77.2549 159.087L81.8414 158.724Z" fill="#F6CBAD"/>
<path fill-rule="evenodd" clip-rule="evenodd" d="M77.4903 164.631C79.1795 166.155 80.8632 166.162 82.4704 164.631L90.654 167.911C91.6326 168.3 91.4686 169.911 90.6814 169.911H76.3204C76.2001 166.01 77.4903 166.393 77.4903 164.631Z" fill="#00347F"/>
<path fill-rule="evenodd" clip-rule="evenodd" d="M98.6133 158.743L100.734 164.485L101.833 166.663L96.8311 166.577L95.7542 164.63L94.4531 160.228L98.6133 158.743Z" fill="#F6CBAD"/>
<path fill-rule="evenodd" clip-rule="evenodd" d="M95.7544 164.631C97.4436 166.155 99.1273 166.162 100.735 164.631L108.918 167.911C109.897 168.3 109.733 169.911 108.945 169.911H94.5845C94.4643 166.01 95.7544 166.393 95.7544 164.631ZM66.6772 107.62C81.5028 109.765 84.6243 111.573 87.2756 117.368C89.3967 122.008 95.7763 146.751 99.2367 159.06C98.4877 160.75 95.8091 162.4 93.9504 161.7L78.2392 122.991L83.2357 161.1C81.9073 163.436 76.4899 163.264 76.2821 160.948L66.1415 120.424C62.8779 120.292 58.2148 119.579 53.6501 119.579C51.8735 104.769 61.5331 108.062 61.7408 106.683C63.3917 106.993 65.0372 107.31 66.6772 107.62Z" fill="#00347F"/>
<path fill-rule="evenodd" clip-rule="evenodd" d="M61.7459 106.683C63.3913 106.993 65.0313 107.31 66.6768 107.62C73.4719 108.603 77.807 109.514 80.7644 110.775C80.7098 110.992 80.6606 111.217 80.6278 111.441C79.8132 116.748 82.9347 133.842 83.1205 135.016L80.01 127.354C79.3485 125.163 77.9873 122.265 78.2388 122.985C77.9655 122.179 75.9537 113.019 68.0052 115.777C65.3648 116.695 64.1512 117.144 63.0579 120.206C60.6416 120.001 56.5525 119.592 54.18 119.592C52.4088 104.788 61.5382 108.055 61.7459 106.683Z" fill="#062C59"/>
<path fill-rule="evenodd" clip-rule="evenodd" d="M69.8805 102.782C71.3346 107.336 76.2164 107.627 75.4237 110.715C71.0012 113.89 59.2478 115.778 55.3009 126.998C51.2665 119.797 54.0654 106.973 53.896 102.281C53.486 90.724 56.0498 79.3852 62.0686 81.0814C66.7426 82.4014 66.9777 83.0944 68.153 86.533C68.891 88.711 69.2737 94.9414 69.8805 102.782Z" fill="#E2480D"/>
<path fill-rule="evenodd" clip-rule="evenodd" d="M63.6374 81.5631C63.6374 81.5631 62.3035 81.5235 64.5339 78.7647C64.8783 78.3423 65.5671 78.7977 65.6983 78.4281C66.0591 77.4381 65.4141 75.7221 65.9389 74.5869C66.3051 73.7949 65.1517 73.0029 64.2661 72.5607C62.8119 71.8281 60.0403 72.4617 60.4285 76.7517C60.5214 77.7813 61.5273 78.4875 61.2102 80.9229C61.5163 83.0613 63.2001 83.8071 64.1677 84.6255C64.1021 83.4639 63.8506 82.0977 63.6374 81.5631Z" fill="#F6CBAD"/>
<path fill-rule="evenodd" clip-rule="evenodd" d="M65.9006 74.6925C65.2391 75.0885 63.6483 72.1317 62.5604 75.2733C62.4784 75.5109 62.3308 76.3557 61.4726 75.6759C60.6143 74.9961 60.4886 76.7913 61.3304 76.7055C62.1778 76.6197 61.3687 78.7317 61.0352 78.4611C60.7072 78.1905 57.214 74.2767 61.4343 72.3627C62.5222 68.4027 66.3434 70.0659 67.2344 69.0693C68.6066 70.3497 68.7159 75.1017 65.9006 74.6925Z" fill="#00347F"/>
<path fill-rule="evenodd" clip-rule="evenodd" d="M81.5137 105.904L86.7015 106.657C88.1611 106.591 89.3037 107.317 89.3966 107.442C90.3205 107.957 93.5075 109.693 93.2451 110.161C93.2451 110.161 90.9819 109.541 90.2877 109.515C89.905 109.501 89.4021 110.32 88.9975 110.472C88.2103 110.762 87.1334 109.627 86.1275 109.33L81.8745 109.033L81.5137 105.904Z" fill="#F6CBAD"/>
<path fill-rule="evenodd" clip-rule="evenodd" d="M67.2509 99.9507L85.5807 105.877C86.4717 106.722 86.4171 110.966 84.9247 111.58C77.6813 111.111 68.9948 109.712 62.6261 107.95C58.22 106.722 57.0119 95.6937 67.2509 99.9507Z" fill="#E2480D"/>
<path fill-rule="evenodd" clip-rule="evenodd" d="M61.3634 86.6785C61.2267 92.2753 61.9866 97.6147 61.0354 102.34C59.953 107.719 53.9779 105.35 54.1911 101.086C54.4535 95.8063 54.459 89.8861 55.8694 84.9493C57.1704 80.3755 61.4727 82.1575 61.3634 86.6785Z" fill="#E2480D"/>
<path d="M64.2988 116.418H66.9775C66.9775 116.418 69.1259 116.372 69.6288 118.576C70.1318 120.781 79.7859 162.763 79.7859 162.763" stroke="white" stroke-width="0.547" stroke-miterlimit="10"/>
<path d="M97.6621 160.869C97.6621 160.869 91.3317 142.29 86.1657 128.588C83.3175 121.031 82.8255 117.051 78.5615 115.784" stroke="white" stroke-width="0.41" stroke-miterlimit="10"/>
<path d="M85.9579 106.597C85.9579 106.597 85.9033 105.983 85.5807 105.877L65.5509 99.3498C65.5509 99.3498 62.9214 83.9652 60.6309 83.6748" stroke="white" stroke-width="0.547" stroke-miterlimit="10" stroke-linecap="round" stroke-linejoin="round"/>
<path d="M56.0552 92.8428L58.0997 102.287C58.6846 107 61.992 107.693 61.992 107.693L71.6078 109.937C71.6078 109.937 82.5193 111.402 84.9246 111.58" stroke="#00347F" stroke-width="1.093" stroke-miterlimit="10" stroke-linecap="round" stroke-linejoin="round"/>
<path d="M78.2392 122.991C78.2392 122.991 77.2607 115.784 69.9736 113.435" stroke="white" stroke-width="0.547" stroke-miterlimit="10"/>
<path d="M60.084 106.597C60.084 106.597 57.8482 105.884 55.585 108.214" stroke="#00347F" stroke-width="1.093" stroke-miterlimit="10" stroke-linecap="round" stroke-linejoin="round"/>
<path d="M65.5452 99.3506L64.3262 100.479" stroke="#00347F" stroke-width="1.093" stroke-miterlimit="10" stroke-linecap="round" stroke-linejoin="round"/>
<path d="M69.1314 100.518L68.541 90.4268" stroke="white" stroke-width="0.547" stroke-miterlimit="10" stroke-linecap="round" stroke-linejoin="round"/>
<path d="M70.4711 97.0865L69.416 97.0537" stroke="#00347F" stroke-width="1.093" stroke-miterlimit="10" stroke-linecap="round" stroke-linejoin="round"/>
<path fill-rule="evenodd" clip-rule="evenodd" d="M84.9903 110.022C84.9903 110.405 84.7334 110.715 84.4163 110.715C84.0992 110.715 83.8423 110.405 83.8423 110.022C83.8423 109.64 84.0992 109.329 84.4163 109.329C84.7334 109.329 84.9903 109.64 84.9903 110.022ZM91.1567 105.277C91.1567 105.66 90.8998 105.97 90.5827 105.97C90.2656 105.97 90.0087 105.66 90.0087 105.277C90.0087 104.894 90.2656 104.584 90.5827 104.584C90.8998 104.584 91.1567 104.894 91.1567 105.277Z" fill="white"/>
<path d="M75.757 110.511C75.757 110.511 73.0127 112.247 68.7159 114.081C64.4191 115.916 60.8822 118.734 59.7725 119.922" stroke="white" stroke-width="0.547" stroke-miterlimit="10" stroke-linecap="round" stroke-linejoin="round"/>
<path d="M62.2217 77.6689C62.3091 77.7745 62.4622 79.4707 63.8672 78.6193" stroke="#00347F" stroke-width="1.093" stroke-miterlimit="10" stroke-linecap="round" stroke-linejoin="round"/>
<path fill-rule="evenodd" clip-rule="evenodd" d="M82.842 166.67L82.7764 166.611C82.6343 166.485 82.6015 166.241 82.7053 166.07L83.8479 164.189C83.9517 164.017 84.154 163.977 84.2961 164.103L84.3617 164.162C84.5039 164.288 84.5367 164.532 84.4328 164.703L83.2903 166.584C83.1864 166.763 82.9841 166.802 82.842 166.67ZM83.9408 167.185L83.8752 167.126C83.7331 167 83.7003 166.756 83.8041 166.584L84.9467 164.703C85.0505 164.532 85.2528 164.492 85.3949 164.618L85.4605 164.677C85.6027 164.802 85.6355 165.047 85.5316 165.218L84.3891 167.099C84.2797 167.271 84.0829 167.31 83.9408 167.185ZM85.138 167.799L85.0724 167.739C84.9303 167.614 84.8975 167.37 85.0013 167.198L86.1439 165.317C86.2477 165.146 86.45 165.106 86.5921 165.231L86.6577 165.291C86.7999 165.416 86.8327 165.66 86.7288 165.832L85.5863 167.713C85.4769 167.891 85.2801 167.924 85.138 167.799ZM101.489 166.617L101.423 166.558C101.281 166.433 101.248 166.188 101.352 166.017L102.495 164.136C102.599 163.964 102.801 163.925 102.943 164.05L103.009 164.109C103.151 164.235 103.183 164.479 103.08 164.651L101.937 166.532C101.833 166.71 101.631 166.743 101.489 166.617ZM102.588 167.132L102.522 167.073C102.38 166.947 102.347 166.703 102.451 166.532L103.593 164.651C103.697 164.479 103.9 164.439 104.042 164.565L104.107 164.624C104.249 164.75 104.282 164.994 104.178 165.165L103.036 167.046C102.927 167.218 102.73 167.258 102.588 167.132ZM103.785 167.746L103.719 167.687C103.577 167.561 103.544 167.317 103.648 167.145L104.791 165.264C104.895 165.093 105.097 165.053 105.239 165.179L105.305 165.238C105.447 165.363 105.479 165.608 105.376 165.779L104.233 167.66C104.129 167.838 103.927 167.871 103.785 167.746Z" fill="#E2480D"/>
<path d="M64.1733 84.626L64.5943 86.771" stroke="white" stroke-width="0.547" stroke-miterlimit="10" stroke-linecap="round" stroke-linejoin="round"/>
<path d="M89.1777 109.329L90.0087 109.62" stroke="#00347F" stroke-width="1.093" stroke-miterlimit="10" stroke-linecap="round" stroke-linejoin="round"/>
<path d="M89.2982 110.313L88.4673 110.022" stroke="#00347F" stroke-width="1.093" stroke-miterlimit="10" stroke-linecap="round" stroke-linejoin="round"/>
<path d="M96.5688 104.874L95.7378 104.583C95.7378 104.583 94.7374 104.471 95.0326 105.276L95.8636 105.567M95.8362 105.56L95.0053 105.27C95.0053 105.27 94.0049 105.158 94.3001 105.963L95.131 106.253" stroke="#00347F" stroke-width="1.093" stroke-miterlimit="10" stroke-linecap="round" stroke-linejoin="round"/>
<path d="M76.6211 167.047C76.6211 167.047 78.1791 167.192 78.037 169.911M94.8852 167.047C95.0875 167.02 96.3558 167.132 96.4815 169.918" stroke="white" stroke-width="0.41" stroke-miterlimit="10"/>
<path d="M78.0479 168.479L91.31 168.769" stroke="white" stroke-width="0.41" stroke-miterlimit="10"/>
<path d="M96.3394 168.769H109.574" stroke="white" stroke-width="0.41" stroke-miterlimit="10"/>
<path d="M63.6375 81.5631C63.6375 81.5631 63.9327 82.8105 64.1295 84.1173M61.2158 80.9229C61.2158 80.9229 61.4673 83.2328 63.8835 84.3944M86.1274 109.323C86.1274 109.323 86.3023 107.692 86.1274 107.138M92.2993 102.333C92.2993 102.333 92.7038 103.251 92.682 105.085" stroke="#00347F" stroke-width="1.093" stroke-miterlimit="10" stroke-linecap="round" stroke-linejoin="round"/>
<path d="M61.9758 72.9171C61.9758 72.9171 61.6369 70.8183 63.6377 70.5873C65.6385 70.3563 67.0653 70.5081 67.2238 69.8613" stroke="white" stroke-width="0.547" stroke-miterlimit="10" stroke-linecap="round" stroke-linejoin="round"/>
<path d="M62.708 73.3002C62.708 73.3002 62.79 71.7822 63.8833 72.0132C64.9767 72.2442 66.3269 73.5048 67.5843 72.6468" stroke="white" stroke-width="0.547" stroke-miterlimit="10" stroke-linecap="round" stroke-linejoin="round"/>
<path d="M98.3672 102.696V26.4262C98.3672 23.0602 100.625 20.3344 103.413 20.3344H134.792C134.792 20.3344 148.835 18.1036 149.202 45.9886C149.573 73.8736 165.864 78.1108 180.241 77.4442H182.308C187.802 77.4442 192.252 82.8232 192.252 89.4496V102.729L98.3672 102.696Z" fill="#E2480D"/>
<path d="M189.666 130.983H79.9282C78.4959 130.983 77.3315 129.578 77.3315 127.848V118.424C77.3315 116.694 78.4959 115.289 79.9282 115.289H95.6886C97.1099 115.289 98.2689 113.903 98.2853 112.187L98.3673 102.696C98.3837 100.98 99.5426 99.5938 100.964 99.5938H189.666C191.098 99.5938 192.263 101 192.263 102.729V127.848C192.263 129.578 191.098 130.983 189.666 130.983Z" fill="#F8C800"/>
<path d="M148.704 96.98C133.758 91.6604 118.977 85.7138 104.184 79.8134C101.986 79.0676 100.045 77.7806 98.3672 75.959V102.946C98.3672 102.946 98.482 100.234 100.073 99.785C100.712 99.6068 101.849 99.5738 101.849 99.5738L156.221 99.5936C153.712 98.7422 151.208 97.871 148.704 96.98Z" fill="#00347F"/>
<path d="M189.316 99.5938V93.2182C189.316 86.5852 184.861 81.2128 179.372 81.2128H177.306C162.929 81.8794 146.633 77.6422 146.266 49.7572C145.895 21.8722 131.856 24.103 131.856 24.103H104.031C104.031 24.103 100.806 24.3406 100.871 28.9936V99.5938" stroke="white" stroke-width="1.093" stroke-miterlimit="10" stroke-linecap="round" stroke-linejoin="round"/>
<path d="M99.7012 140.131H91.8292C89.9486 140.131 88.418 138.29 88.418 136.013V130.983H103.107V136.013C103.107 138.283 101.582 140.131 99.7012 140.131Z" fill="#F8C800"/>
<path d="M95.694 140.131H91.1895L93.9611 169.91H95.694H97.4269L100.199 140.131H95.694Z" fill="#E2480D"/>
<path d="M93.726 167.046H97.6675C98.7717 167.046 99.6683 168.128 99.6683 169.461V169.904H91.7197V169.461C91.7197 168.128 92.6163 167.046 93.726 167.046ZM179.104 140.131H171.232C169.352 140.131 167.821 138.29 167.821 136.013V130.983H182.51V136.013C182.516 138.283 180.99 140.131 179.104 140.131Z" fill="#F8C800"/>
<path d="M175.103 140.131H170.598L173.37 169.91H175.103H176.836L179.607 140.131H175.103Z" fill="#E2480D"/>
<path d="M88.418 130.983H103.107L88.418 134.33V130.983Z" fill="#00347F"/>
<path d="M167.827 130.983H182.516L167.827 134.33V130.983Z" fill="#00347F"/>
<path d="M91.1895 140.131H100.199" stroke="#00347F" stroke-width="1.093" stroke-miterlimit="10" stroke-linecap="round" stroke-linejoin="round"/>
<path d="M170.598 140.131H179.607" stroke="#00347F" stroke-width="1.093" stroke-miterlimit="10" stroke-linecap="round" stroke-linejoin="round"/>
<path d="M97.6675 167.046H93.726C93.726 167.046 91.6104 167.151 91.7252 169.91" stroke="#00347F" stroke-width="1.093" stroke-miterlimit="10" stroke-linecap="round" stroke-linejoin="round"/>
<path d="M173.129 167.046H177.071C178.175 167.046 179.072 168.128 179.072 169.462V169.904H171.123V169.462C171.129 168.128 172.025 167.046 173.129 167.046Z" fill="#F8C800"/>
<path d="M95.6938 140.131L95.7649 167.046" stroke="white" stroke-width="0.41" stroke-miterlimit="10"/>
<path d="M92.5288 140.131L94.6116 167.046" stroke="white" stroke-width="0.41" stroke-miterlimit="10"/>
<path d="M98.788 140.131L96.6123 166.663" stroke="white" stroke-width="0.41" stroke-miterlimit="10"/>
<path d="M172.561 140.131L174.327 167.046" stroke="white" stroke-width="0.41" stroke-miterlimit="10"/>
<path d="M175.595 140.19V167.046" stroke="white" stroke-width="0.41" stroke-miterlimit="10"/>
<path d="M178.12 140.131L176.349 167.046" stroke="white" stroke-width="0.41" stroke-miterlimit="10"/>
<path d="M103.107 130.983H167.827" stroke="#00347F" stroke-width="1.093" stroke-miterlimit="10" stroke-linecap="round" stroke-linejoin="round"/>
<path d="M118.255 24.2744H115.412V99.3494H118.255V24.2744Z" fill="#00347F"/>
<path d="M143.008 117.025C144.913 117.025 146.458 116.005 146.458 114.748C146.458 113.49 144.913 112.471 143.008 112.471C141.103 112.471 139.559 113.49 139.559 114.748C139.559 116.005 141.103 117.025 143.008 117.025Z" fill="white"/>
<path d="M143.008 117.922C145.562 117.922 147.633 116.462 147.633 114.662C147.633 112.861 145.562 111.401 143.008 111.401C140.454 111.401 138.383 112.861 138.383 114.662C138.383 116.462 140.454 117.922 143.008 117.922Z" stroke="white" stroke-width="0.547" stroke-miterlimit="10"/>
<path d="M77.3315 118.424C77.3315 116.694 78.4959 115.289 79.9282 115.289H95.6886C97.1099 115.289 98.2689 113.903 98.2853 112.187L98.3673 102.696C98.3837 100.98 99.5426 99.5938 100.964 99.5938H189.666C191.098 99.5938 192.263 101 192.263 102.729V127.848" stroke="white" stroke-width="1.093" stroke-miterlimit="10" stroke-linecap="round" stroke-linejoin="round"/>
<path d="M183.445 125.499C184.872 124.753 185.697 124.674 187.184 126.476C185.708 130.344 182.631 127.525 181.411 128.403C181.308 127.941 182.095 126.205 183.445 125.499ZM187.6 121.625C186.643 123.103 186.364 124.047 187.436 126.238C190.913 125.493 189.426 121.183 190.442 119.982C190.098 119.751 188.507 120.226 187.6 121.625Z" fill="white"/>
<path d="M185.523 124.07C186.077 123.738 186.304 122.926 186.029 122.257C185.754 121.587 185.081 121.314 184.527 121.646C183.972 121.978 183.746 122.79 184.021 123.459C184.296 124.129 184.969 124.402 185.523 124.07Z" fill="white"/>
<path d="M85.5696 125.499C84.1428 124.753 83.3173 124.674 81.8304 126.476C83.3064 130.343 86.3841 127.525 87.6032 128.403C87.7071 127.941 86.9199 126.205 85.5696 125.499ZM81.4149 121.625C82.3716 123.103 82.6504 124.047 81.5789 126.238C78.1021 125.492 79.5891 121.182 78.5723 119.981C78.9112 119.75 80.5075 120.225 81.4149 121.625ZM83.1041 122.014C82.7269 122.601 82.8199 123.453 83.3064 123.908C83.7929 124.364 84.4981 124.258 84.8753 123.664C85.2525 123.077 85.1651 122.225 84.6731 121.77C84.1811 121.314 83.4813 121.427 83.1041 122.014ZM102.751 109.243C103.369 107.52 103.435 106.524 101.942 104.729C98.7388 106.511 101.073 110.226 100.346 111.698C100.729 111.824 102.166 110.873 102.751 109.243ZM105.96 104.227C104.736 105.382 103.954 105.719 102.139 104.425C102.757 100.227 106.327 102.023 107.321 100.795C107.513 101.204 107.119 103.131 105.96 104.227ZM105.632 106.266C105.146 105.811 104.441 105.917 104.063 106.511C103.686 107.098 103.774 107.949 104.266 108.405C104.752 108.86 105.457 108.755 105.835 108.161C106.212 107.573 106.124 106.722 105.632 106.266ZM184.708 104.517C186.134 105.263 186.96 105.342 188.447 103.541C186.971 99.6729 183.893 102.491 182.674 101.613C182.57 102.069 183.357 103.811 184.708 104.517ZM188.862 108.385C187.906 106.907 187.627 105.963 188.698 103.772C192.175 104.517 190.688 108.827 191.705 110.028C191.366 110.266 189.77 109.784 188.862 108.385ZM187.173 107.996C187.55 107.408 187.463 106.557 186.971 106.101C186.484 105.646 185.779 105.752 185.402 106.346C185.025 106.933 185.118 107.784 185.604 108.24C186.096 108.695 186.796 108.583 187.173 107.996Z" fill="white"/>
<path d="M109.153 103.224H180.608" stroke="white" stroke-width="1.093" stroke-miterlimit="10" stroke-linecap="round" stroke-linejoin="round"/>
<path d="M89.7573 126.792H180.608" stroke="white" stroke-width="1.093" stroke-miterlimit="10" stroke-linecap="round" stroke-linejoin="round"/>
<path d="M189.502 110.729V118.589" stroke="white" stroke-width="1.093" stroke-miterlimit="10" stroke-linecap="round" stroke-linejoin="round"/>
<path d="M118.255 24.2744V99.3494" stroke="white" stroke-width="1.093" stroke-miterlimit="10" stroke-linecap="round" stroke-linejoin="round"/>
<path d="M177.071 167.046H173.129C173.129 167.046 171.21 167.112 171.128 169.91" stroke="#00347F" stroke-width="1.093" stroke-miterlimit="10" stroke-linecap="round" stroke-linejoin="round"/>
<path d="M100.871 113.896V114.985C100.871 116.345 99.9583 117.441 98.8376 117.441H81.8089C81.1803 117.441 80.6719 118.054 80.6719 118.813" stroke="white" stroke-width="1.093" stroke-miterlimit="10" stroke-linecap="round" stroke-linejoin="round"/>
<path opacity="0.15" fill-rule="evenodd" clip-rule="evenodd" d="M169.456 68.251C169.461 68.251 169.467 68.251 169.472 68.251C178.891 68.2312 186.523 59.0044 186.523 47.626C186.523 36.2476 178.891 27.0208 169.472 27.001C169.467 27.001 169.461 27.001 169.456 27.001C169.45 27.001 169.445 27.001 169.439 27.001C160.02 27.0208 152.389 36.2476 152.389 47.626C152.389 59.0044 160.02 68.2312 169.439 68.251C169.445 68.251 169.45 68.251 169.456 68.251ZM159.135 47.626C159.135 40.7422 163.754 35.1586 169.456 35.1454C175.157 35.1586 179.777 40.7356 179.777 47.626C179.777 54.5098 175.157 60.0934 169.456 60.1066C163.754 60.0934 159.135 54.5098 159.135 47.626Z" fill="url(#paint4_linear_33_747)"/>
<path d="M42.9951 169.91H205.716" stroke="#00347F" stroke-miterlimit="10"/>
<defs>
<linearGradient id="paint0_linear_33_747" x1="51.3585" y1="139.304" x2="41.8908" y2="163.123" gradientUnits="userSpaceOnUse">
<stop offset="0.095" stop-color="white"/>
<stop offset="0.754" stop-color="#FBE0DF"/>
<stop offset="0.979" stop-color="#F9D4D3"/>
</linearGradient>
<linearGradient id="paint1_linear_33_747" x1="58.6254" y1="54.2976" x2="56.4611" y2="60.2113" gradientUnits="userSpaceOnUse">
<stop offset="0.095" stop-color="white"/>
<stop offset="0.754" stop-color="#FBE0DF"/>
<stop offset="0.979" stop-color="#F9D4D3"/>
</linearGradient>
<linearGradient id="paint2_linear_33_747" x1="40.8557" y1="107.376" x2="43.3244" y2="115.57" gradientUnits="userSpaceOnUse">
<stop offset="0.095" stop-color="white"/>
<stop offset="0.754" stop-color="#FBE0DF"/>
<stop offset="0.979" stop-color="#F9D4D3"/>
</linearGradient>
<linearGradient id="paint3_linear_33_747" x1="179.03" y1="137.013" x2="179.03" y2="179.359" gradientUnits="userSpaceOnUse">
<stop offset="0.095" stop-color="white"/>
<stop offset="0.754" stop-color="#FBE0DF"/>
<stop offset="0.979" stop-color="#F9D4D3"/>
</linearGradient>
<linearGradient id="paint4_linear_33_747" x1="169.454" y1="42.2083" x2="169.454" y2="91.0465" gradientUnits="userSpaceOnUse">
<stop offset="0.095" stop-color="white"/>
<stop offset="0.754" stop-color="#FBE0DF"/>
<stop offset="0.979" stop-color="#F9D4D3"/>
</linearGradient>
</defs>
</svg>
