<svg width="242" height="216" viewBox="0 0 242 216" fill="none" xmlns="http://www.w3.org/2000/svg">
<path fill-rule="evenodd" clip-rule="evenodd" d="M195.246 154.347L196.762 162.123L195.692 164.585L200.731 164.333L201.78 162.13L200.865 152.144L195.246 154.347Z" fill="#F6CBAD"/>
<path fill-rule="evenodd" clip-rule="evenodd" d="M201.779 162.13C200.102 163.887 198.408 163.944 196.762 162.281L188.577 166.191C187.598 166.659 187.797 168.451 188.582 168.43L203.049 167.991C203.102 163.635 201.812 164.095 201.779 162.13Z" fill="#00347F"/>
<path fill-rule="evenodd" clip-rule="evenodd" d="M161.549 147.859L160.021 155.628L158.188 157.075L162.667 160.171L164.388 158.933L167.254 149.638L161.549 147.859Z" fill="#F6CBAD"/>
<path fill-rule="evenodd" clip-rule="evenodd" d="M164.388 158.933C162.285 159.365 160.785 158.299 159.962 155.765L151.4 153.792C150.379 153.555 149.889 155.247 150.588 155.743L163.35 164.866C164.99 161.115 163.694 160.668 164.388 158.933Z" fill="#00347F"/>
<path fill-rule="evenodd" clip-rule="evenodd" d="M178.827 81.3963L165.458 65.7579C164.651 65.6715 162.645 68.3859 162.371 69.0843C164.452 73.7787 169.685 88.2651 174.143 92.4987C186.533 104.263 192.911 68.6667 187.593 66.1827C180.967 63.0867 181.839 85.1259 178.827 81.3963Z" fill="#F6CBAD"/>
<path fill-rule="evenodd" clip-rule="evenodd" d="M200.295 94.32L199.623 126.828L201.989 154.706C201.107 157.68 195.762 157.954 193.057 155.887L189.766 130.147L189.529 110.066L176.767 123.206L167.399 154.346C164.624 155.722 161.059 151.546 159.94 149.76L167.082 115.502L183.565 91.9512L200.295 94.32Z" fill="#F8C800"/>
<path fill-rule="evenodd" clip-rule="evenodd" d="M171.325 114.163C173.299 115.992 175.38 117.612 177.542 119.009C178.3 119.376 179.064 119.721 179.833 120.045L189.529 110.059L189.68 122.637C190.379 122.695 191.083 122.745 191.783 122.774C194.412 122.889 197.058 122.961 199.704 122.933L200.301 94.3053L183.576 91.9365L169.54 111.989C170.121 112.745 170.712 113.465 171.325 114.163Z" fill="#E8AB00"/>
<path fill-rule="evenodd" clip-rule="evenodd" d="M199.43 93.7438C198.273 97.5814 183.167 99.0934 183.076 94.075C183.033 91.5406 185.399 87.307 185.141 84.4918C184.522 77.7382 182.979 70.5094 185.544 66.3334C186.05 65.5126 187.158 64.4326 187.878 64.2742C188.416 64.015 192.885 64.4542 193.315 64.9438C200.295 72.9862 199.698 92.851 199.43 93.7438Z" fill="#E2480D"/>
<path fill-rule="evenodd" clip-rule="evenodd" d="M195.681 68.6445C195.692 71.6829 195.181 74.5269 194.138 77.1837C193.422 80.1357 192.196 82.6917 190.459 84.8445C188.846 87.1629 186.942 88.8045 184.737 89.7693C184.458 89.9637 184.173 90.1509 183.888 90.3165C183.441 91.7133 183.054 93.0381 183.076 94.0749C183.167 99.0861 198.268 97.5813 199.429 93.7437C199.661 92.9733 200.145 77.8605 195.681 68.6445Z" fill="#CE3000"/>
<path fill-rule="evenodd" clip-rule="evenodd" d="M188.33 64.8571C188.33 64.8571 189.411 64.2307 187.55 60.7243C187.265 60.1843 186.518 60.5443 186.431 60.1051C186.2 58.9387 187.066 57.1819 186.695 55.8211C186.431 54.8707 187.685 54.2443 188.62 53.9419C190.164 53.4451 192.836 54.7267 191.89 59.3707C191.664 60.4867 190.589 61.6819 190.621 64.8427C190.642 67.0171 187.878 66.1891 188.33 64.8571Z" fill="#F6CBAD"/>
<path fill-rule="evenodd" clip-rule="evenodd" d="M186.674 55.901C187.276 56.477 189.303 53.597 189.976 57.2906C190.024 57.5714 190.062 58.5362 191.003 57.9674C191.944 57.3986 191.836 59.4074 191.008 59.1338C190.18 58.8602 190.852 61.4306 191.212 61.2002C191.368 61.1066 191.605 59.8394 192.283 59.105C193.326 57.9674 194.466 55.3178 192.315 53.3018C190.218 48.6362 186.83 50.6738 185.851 52.5962C185.146 53.9714 185.388 54.9002 186.674 55.901Z" fill="#00347F"/>
<path d="M189.513 59.7451C189.513 59.7451 189.857 62.2795 188.195 60.4003" stroke="#00347F" stroke-width="1.323" stroke-miterlimit="10" stroke-linecap="round" stroke-linejoin="round"/>
<path d="M160.836 59.6499L158.487 62.4082L158.902 63.0415L161.251 60.2832L160.836 59.6499Z" fill="#F8C800"/>
<path fill-rule="evenodd" clip-rule="evenodd" d="M159.349 61.978C159.596 62.3524 159.564 62.9212 159.284 63.2524C159.005 63.5836 158.58 63.5404 158.333 63.166C158.085 62.7916 158.117 62.2228 158.397 61.8916C158.677 61.5676 159.102 61.6036 159.349 61.978Z" fill="#00347F"/>
<path d="M162.344 61.9546L159.995 64.7129L160.41 65.3462L162.759 62.5879L162.344 61.9546Z" fill="#F8C800"/>
<path fill-rule="evenodd" clip-rule="evenodd" d="M160.855 64.2739C161.102 64.6483 161.07 65.2171 160.79 65.5483C160.511 65.8795 160.086 65.8363 159.838 65.4619C159.591 65.0875 159.623 64.5187 159.903 64.1875C160.183 63.8635 160.607 63.8995 160.855 64.2739Z" fill="#00347F"/>
<path d="M162.134 59.272L164.483 56.5137L164.069 55.8804L161.72 58.6387L162.134 59.272Z" fill="#F8C800"/>
<path fill-rule="evenodd" clip-rule="evenodd" d="M163.624 56.9521C163.872 57.3265 164.297 57.3625 164.576 57.0385C164.856 56.7073 164.883 56.1385 164.641 55.7641C164.393 55.3897 163.968 55.3537 163.689 55.6777C163.409 56.0089 163.382 56.5777 163.624 56.9521Z" fill="#00347F"/>
<path d="M163.645 61.5747L165.994 58.8164L165.579 58.1831L163.23 60.9414L163.645 61.5747Z" fill="#F8C800"/>
<path fill-rule="evenodd" clip-rule="evenodd" d="M165.13 59.249C165.378 59.6234 165.802 59.6594 166.082 59.3354C166.362 59.0042 166.389 58.4354 166.147 58.061C165.899 57.6866 165.474 57.6506 165.195 57.9746C164.915 58.3058 164.888 58.8818 165.13 59.249ZM177.569 98.993C177.569 98.993 182.092 101.326 183.092 104.235C184.092 107.143 186.093 114.25 190.072 114.12C194.052 113.983 199.403 109.231 198.865 101.751C198.386 95.1194 193.374 94.1618 192.702 93.6362C191.471 92.6714 190.051 89.9354 189.545 86.753C189.04 83.5634 185.603 78.7466 184.157 78.7034C182.716 78.6602 182.71 79.949 183.506 80.9066C184.302 81.8642 185.862 84.4994 184.28 85.9754C182.705 87.4514 178.472 91.433 178.472 91.433C178.472 91.433 176.402 93.1034 175.197 90.7418C173.987 88.3802 171.793 85.205 171.056 86.8322C170.32 88.445 171.901 95.4362 177.569 98.993Z" fill="#00347F"/>
<path d="M184.275 98.0064L187.039 94.7664L166.308 63.1152L163.915 66.0096L184.275 98.0064Z" fill="#F8C800"/>
<path d="M163.775 66.1826L166.372 63.029C166.587 62.7626 166.582 62.309 166.351 62.057L160.779 56.0018C160.596 55.8002 160.333 55.8146 160.155 56.0234L159.333 57.0242C159.161 57.233 159.123 57.5714 159.247 57.8378L163.038 66.0458C163.205 66.3842 163.554 66.449 163.775 66.1826Z" fill="#00347F"/>
<path fill-rule="evenodd" clip-rule="evenodd" d="M189.147 96.4511L185.249 101.03C185.093 101.21 184.856 101.196 184.716 100.987L184.151 100.123C184.017 99.9143 184.028 99.5975 184.184 99.4103L188.083 94.8311C188.239 94.6511 188.475 94.6655 188.615 94.8743L189.18 95.7383C189.32 95.9471 189.303 96.2639 189.147 96.4511ZM194.649 103.745L189.933 109.281C189.777 109.461 189.54 109.447 189.4 109.238L188.26 107.496C188.126 107.287 188.136 106.97 188.292 106.783L193.009 101.246C193.165 101.066 193.401 101.081 193.541 101.289L194.681 103.032C194.821 103.241 194.805 103.557 194.649 103.745Z" fill="#F8C800"/>
<path d="M164.608 65.1748L189.481 104.746" stroke="#E2480D" stroke-width="0.496" stroke-miterlimit="10" stroke-linecap="round" stroke-linejoin="round"/>
<path d="M165.308 64.3252L190.546 103.839" stroke="#E2480D" stroke-width="0.496" stroke-miterlimit="10" stroke-linecap="round" stroke-linejoin="round"/>
<path d="M166.012 63.4678L191.863 102.593" stroke="#E2480D" stroke-width="0.496" stroke-miterlimit="10" stroke-linecap="round" stroke-linejoin="round"/>
<path d="M160.785 56.0088L165.883 61.668" stroke="white" stroke-width="1.323" stroke-miterlimit="10" stroke-linecap="round" stroke-linejoin="round"/>
<path fill-rule="evenodd" clip-rule="evenodd" d="M192.917 94.8672L189.868 98.5176C189.061 98.6544 186.83 99.3096 186.744 99.6552C186.636 100.073 188.755 100.195 188.62 100.44C188.072 101.966 185.851 102.521 186.437 103.788C186.555 104.047 187.905 104.443 188.421 104.638C189.508 105.048 190.427 104.81 191.648 101.542L197.386 98.4384L192.917 94.8672Z" fill="white"/>
<path fill-rule="evenodd" clip-rule="evenodd" d="M199.462 86.5509L192.207 95.7237C191.594 97.6317 194.149 100.245 195.246 99.5397C199.564 97.4085 205.334 94.2981 208.233 88.0845C213.987 75.7581 196.154 61.0917 193.315 64.9581C191.218 70.2429 202.662 83.1093 199.462 86.5509ZM167.152 71.0997L163.915 64.8717C163.097 63.4749 163.216 61.7109 162.855 61.3581C162.366 59.8677 160.828 58.0605 160.145 59.0973C159.677 59.8677 160.51 61.6245 160.349 62.3517C159.182 62.3517 160.242 64.5837 161.382 66.8373L163.958 72.8853L167.152 71.0997Z" fill="#F6CBAD"/>
<path d="M187.878 64.2891C187.878 64.2891 186.749 65.7147 187.561 67.2267C188.373 68.7387 192.713 67.6875 191.465 64.4475" stroke="white" stroke-width="0.496" stroke-miterlimit="10" stroke-linecap="round" stroke-linejoin="round"/>
<path d="M167.152 71.0996L179.483 90.4748" stroke="#00347F" stroke-width="1.323" stroke-miterlimit="10" stroke-linecap="round" stroke-linejoin="round"/>
<path fill-rule="evenodd" clip-rule="evenodd" d="M207.12 90.1154C207.12 90.1154 204.323 82.1882 209.201 80.7842C209.201 80.7842 210.481 86.141 207.12 90.1154Z" fill="#F4BE99"/>
<path d="M199.769 86.1119L201.721 83.0303" stroke="#00347F" stroke-width="1.323" stroke-miterlimit="10" stroke-linecap="round" stroke-linejoin="round"/>
<path d="M179.483 81.8203L181.817 83.4619" stroke="#00347F" stroke-width="1.323" stroke-miterlimit="10" stroke-linecap="round" stroke-linejoin="round"/>
<path d="M187.233 104.22L188.395 103.471" stroke="#00347F" stroke-width="1.323" stroke-miterlimit="10" stroke-linecap="round" stroke-linejoin="round"/>
<path d="M188.061 104.515L189.147 104.22" stroke="#00347F" stroke-width="1.323" stroke-miterlimit="10" stroke-linecap="round" stroke-linejoin="round"/>
<path d="M160.349 62.3594L161.021 63.9722" stroke="#00347F" stroke-width="1.323" stroke-miterlimit="10" stroke-linecap="round" stroke-linejoin="round"/>
<path d="M184.501 78.6963C184.501 78.6963 187.158 79.8987 189.282 85.6587C189.282 85.6587 189.621 89.3451 191.024 91.3683C192.116 93.3483 192.729 93.7659 193.541 94.0395" stroke="white" stroke-width="1.323" stroke-miterlimit="10" stroke-linecap="round" stroke-linejoin="round"/>
<path d="M160.914 151.092C160.914 151.092 162.775 153.885 165.733 154.584" stroke="#00347F" stroke-width="1.323" stroke-miterlimit="10" stroke-linecap="round" stroke-linejoin="round"/>
<path d="M176.768 123.206L177.042 120.06" stroke="#00347F" stroke-width="1.323" stroke-miterlimit="10" stroke-linecap="round" stroke-linejoin="round"/>
<path d="M202.828 165.276C202.828 165.276 200.72 165.471 200.914 168.056" stroke="white" stroke-width="1.323" stroke-miterlimit="10" stroke-linecap="round" stroke-linejoin="round"/>
<path d="M201.08 166.666L187.926 167.235" stroke="white" stroke-width="1.323" stroke-miterlimit="10" stroke-linecap="round" stroke-linejoin="round"/>
<path d="M161.113 163.282C161.113 163.282 162.167 160.46 164.205 161.9" stroke="white" stroke-width="1.323" stroke-miterlimit="10" stroke-linecap="round" stroke-linejoin="round"/>
<path d="M150.433 154.311L161.973 161.979" stroke="white" stroke-width="1.323" stroke-miterlimit="10" stroke-linecap="round" stroke-linejoin="round"/>
<path d="M193.691 163.749C193.691 163.749 197.079 157.629 198.225 161.121C199.365 164.584 193.691 163.749 193.691 163.749ZM193.691 163.749C193.691 163.749 188.05 162.756 189.771 159.717C191.481 156.7 193.691 163.749 193.691 163.749ZM157.37 155.577C157.37 155.577 163.054 155.167 161.774 158.58C160.505 161.964 157.37 155.577 157.37 155.577ZM157.37 155.577C157.37 155.577 154.342 149.126 157.187 148.968C160.01 148.809 157.37 155.577 157.37 155.577Z" stroke="#E2480D" stroke-width="1.323" stroke-miterlimit="10" stroke-linecap="round" stroke-linejoin="round"/>
<path d="M199.672 127.448L198.375 124.582" stroke="#00347F" stroke-width="1.323" stroke-miterlimit="10" stroke-linecap="round" stroke-linejoin="round"/>
<path d="M188.577 64.4688C188.577 64.4688 188.115 64.9727 188.308 65.3471C188.502 65.7215 188.986 66.7727 190.384 65.7575" stroke="#00347F" stroke-width="1.323" stroke-miterlimit="10" stroke-linecap="round" stroke-linejoin="round"/>
<path d="M181.817 101.657L172.487 113.242C172.487 113.242 170.277 115.496 169.099 121.997C167.921 128.499 162.662 152.338 162.662 152.338" stroke="white" stroke-width="0.661" stroke-miterlimit="10" stroke-linecap="round" stroke-linejoin="round"/>
<path d="M184.237 107.539L175.477 115.214C175.477 115.214 172.879 117.705 171.702 125.071C170.524 132.437 166.689 154.577 166.689 154.577M192.116 113.234L191.863 127.447C191.863 127.447 191.933 131.846 192.815 135.792C193.697 139.737 196.956 157.219 196.956 157.219M196.956 110.678L195.772 127.447C195.772 127.447 195.945 132.89 196.956 137.995C197.967 143.1 199.768 157.219 199.768 157.219" stroke="white" stroke-width="0.661" stroke-miterlimit="10" stroke-linecap="round" stroke-linejoin="round"/>
<path d="M195.772 157.053C195.772 157.053 199.203 157.91 201.215 155.959" stroke="#00347F" stroke-width="1.323" stroke-miterlimit="10" stroke-linecap="round" stroke-linejoin="round"/>
<path d="M191.863 53.4747C191.863 53.4747 189.319 48.6075 185.883 53.4747" stroke="white" stroke-width="0.661" stroke-miterlimit="10" stroke-linecap="round" stroke-linejoin="round"/>
<path d="M190.008 88.8047L192.428 89.3447" stroke="#00347F" stroke-width="1.323" stroke-miterlimit="10" stroke-linecap="round" stroke-linejoin="round"/>
<path opacity="0.85" d="M74.4324 80.3191C81.3585 71.0457 81.3583 56.0108 74.4319 46.7377C67.5055 37.4647 56.2757 37.4649 49.3496 46.7383C42.4234 56.0117 42.4236 71.0466 49.35 80.3197C56.2764 89.5927 67.5062 89.5925 74.4324 80.3191Z" stroke="white" stroke-width="0.661" stroke-miterlimit="10"/>
<path opacity="0.5" d="M30.352 94.4278C32.6983 94.4278 34.6004 91.8812 34.6004 88.7398C34.6004 85.5984 32.6983 83.0518 30.352 83.0518C28.0056 83.0518 26.1035 85.5984 26.1035 88.7398C26.1035 91.8812 28.0056 94.4278 30.352 94.4278Z" fill="url(#paint0_linear_33_853)"/>
<path fill-rule="evenodd" clip-rule="evenodd" d="M46.0823 88.4015L43.103 95.2775L43.0546 95.3927C42.334 96.3719 41.4843 96.3071 40.6078 95.6231C39.6344 94.8671 39.1719 93.5135 39.5645 92.5991C39.9624 91.6847 41.0702 91.5551 42.0382 92.3111C42.5276 92.6927 42.8933 93.2255 43.0762 93.7799L45.8134 87.4655L46.0554 86.9111L46.4534 85.9895C46.6631 85.5071 47.131 85.7879 46.9912 86.3063C46.3835 88.8695 48.1044 90.5903 46.9159 93.0383C47.5074 91.0007 46.1254 90.1367 46.0823 88.4015ZM111.062 49.1543L113.563 54.1511L113.606 54.2375C113.864 55.2167 113.547 55.9727 112.912 56.5415C112.207 57.1751 111.363 57.1535 111.035 56.4839C110.702 55.8215 111.008 54.7703 111.713 54.1367C112.068 53.8199 112.46 53.6615 112.804 53.6759L110.508 49.0895L110.309 48.6863L109.976 48.0167C109.798 47.6639 110.099 47.3327 110.315 47.6351C111.417 49.0391 112.858 48.0383 113.708 49.9391C112.858 48.7223 111.96 49.6943 111.062 49.1543ZM211.691 59.3927L208.002 62.8199L207.943 62.8775C207.217 63.2375 206.647 62.8271 206.211 61.9847C205.727 61.0487 205.732 59.9255 206.222 59.4719C206.711 59.0183 207.502 59.4071 207.986 60.3431C208.233 60.8183 208.351 61.3367 208.346 61.7975L211.734 58.6511L212.03 58.3775L212.525 57.9167C212.783 57.6719 213.035 58.0679 212.815 58.3631C211.782 59.8607 212.551 61.7759 211.148 62.9423C212.041 61.7831 211.298 60.6023 211.691 59.3927Z" fill="#E2480D"/>
<path fill-rule="evenodd" clip-rule="evenodd" d="M184.135 40.1686L180.446 43.5958L180.387 43.6534C179.661 44.0134 179.091 43.603 178.655 42.7606C178.171 41.8246 178.176 40.7014 178.666 40.2478C179.155 39.7942 179.946 40.183 180.43 41.119C180.677 41.5942 180.795 42.1126 180.79 42.5734L184.178 39.427L184.474 39.1534L184.968 38.6926C185.227 38.4478 185.479 38.8438 185.259 39.139C184.226 40.6366 184.995 42.5518 183.592 43.7182C184.484 42.559 183.748 41.371 184.135 40.1686ZM120.801 57.5062L120.65 61.063C120.65 61.0702 120.65 61.0846 120.65 61.0918C120.65 61.099 120.65 61.1134 120.65 61.1206C120.527 61.6534 120.204 61.8406 119.795 61.8046C119.338 61.7686 118.983 61.3942 118.999 60.9622C119.015 60.5302 119.403 60.2134 119.86 60.2494C120.091 60.2638 120.295 60.3718 120.441 60.5302L120.564 57.5638L120.575 57.3046L120.591 56.8726C120.596 56.7718 120.656 56.6782 120.726 56.6638L123.409 56.059C123.479 56.0446 123.533 56.1094 123.533 56.2102L123.511 56.707L123.5 56.9086L123.35 60.451C123.35 60.4582 123.35 60.4726 123.35 60.4798C123.35 60.487 123.35 60.5014 123.35 60.5086C123.221 61.0414 122.904 61.2286 122.495 61.1926C122.038 61.1566 121.683 60.7822 121.699 60.3502C121.715 59.9182 122.102 59.6014 122.559 59.6374C122.791 59.6518 122.995 59.7598 123.14 59.9182L123.264 56.959L120.801 57.5062ZM49.1634 74.3326L50.8628 77.0686C50.8682 77.0758 50.8736 77.083 50.8736 77.0902C50.879 77.0974 50.8843 77.1046 50.8843 77.1118C51.2231 77.443 51.5619 77.335 51.8792 76.9822C52.2288 76.5934 52.3471 76.003 52.1427 75.6718C51.9384 75.3406 51.4866 75.391 51.1371 75.7798C50.9596 75.9814 50.8413 76.2262 50.7929 76.4638L49.3732 74.1814L49.2495 73.9798L49.0398 73.6486C48.9914 73.5694 48.8999 73.5478 48.8354 73.591L46.41 75.2398C46.3455 75.283 46.3294 75.3838 46.3778 75.4558L46.6144 75.8374L46.7112 75.9886L48.4052 78.7174C48.4105 78.7246 48.4159 78.7318 48.4159 78.739C48.4213 78.7462 48.4267 78.7534 48.4267 78.7606C48.7655 79.0918 49.1043 78.9838 49.4216 78.631C49.7711 78.2422 49.8894 77.6518 49.6851 77.3206C49.4807 76.9894 49.029 77.0398 48.6794 77.4286C48.502 77.6302 48.3837 77.875 48.3353 78.1126L46.9209 75.8374L49.1634 74.3326Z" fill="white"/>
<path fill-rule="evenodd" clip-rule="evenodd" d="M117.365 68.9397L118.543 73.0725C118.548 73.0797 118.548 73.0941 118.553 73.1013C118.559 73.1085 118.559 73.1229 118.564 73.1301C118.623 73.8213 118.333 74.2461 117.854 74.4909C117.322 74.7645 116.779 74.5773 116.639 74.0805C116.499 73.5837 116.811 72.9573 117.343 72.6909C117.612 72.5541 117.881 72.5325 118.107 72.6117L117.128 69.1629L117.042 68.8605L116.897 68.3565C116.865 68.2413 116.897 68.0901 116.972 68.0253L119.779 65.5125C119.855 65.4477 119.941 65.4837 119.973 65.5989L120.134 66.1749L120.199 66.4053L121.371 70.5237C121.377 70.5309 121.377 70.5453 121.382 70.5525C121.387 70.5597 121.387 70.5741 121.393 70.5813C121.452 71.2725 121.162 71.6973 120.683 71.9421C120.151 72.2157 119.607 72.0285 119.468 71.5317C119.328 71.0349 119.64 70.4085 120.172 70.1421C120.441 70.0053 120.71 69.9837 120.936 70.0629L119.957 66.6285L117.365 68.9397ZM176.3 62.8557L177.478 66.9885C177.483 66.9957 177.483 67.0101 177.488 67.0173C177.494 67.0245 177.494 67.0389 177.499 67.0461C177.558 67.7373 177.268 68.1621 176.789 68.4069C176.257 68.6805 175.714 68.4933 175.574 67.9965C175.434 67.4997 175.746 66.8733 176.278 66.6069C176.547 66.4701 176.816 66.4485 177.042 66.5277L176.063 63.0789L175.977 62.7765L175.832 62.2725C175.8 62.1573 175.832 62.0061 175.907 61.9413L178.715 59.4285C178.79 59.3637 178.876 59.3997 178.908 59.5149L179.069 60.0909L179.134 60.3213L180.306 64.4397C180.312 64.4469 180.312 64.4613 180.317 64.4685C180.322 64.4757 180.322 64.4901 180.328 64.4973C180.387 65.1885 180.097 65.6133 179.618 65.8581C179.086 66.1317 178.542 65.9445 178.403 65.4477C178.263 64.9509 178.575 64.3245 179.107 64.0581C179.376 63.9213 179.645 63.8997 179.871 63.9789L178.892 60.5445L176.3 62.8557Z" fill="#00347F"/>
<path opacity="0.85" d="M80.6606 133.538C84.8062 127.987 84.8061 118.988 80.6604 113.438C76.5146 107.887 69.7931 107.888 65.6474 113.438C61.5018 118.989 61.5019 127.988 65.6477 133.538C69.7935 139.088 76.515 139.088 80.6606 133.538Z" stroke="white" stroke-width="0.661" stroke-miterlimit="10"/>
<path opacity="0.5" d="M86.1572 105.091C87.4373 105.091 88.475 103.702 88.475 101.988C88.475 100.274 87.4373 98.8848 86.1572 98.8848C84.8771 98.8848 83.8394 100.274 83.8394 101.988C83.8394 103.702 84.8771 105.091 86.1572 105.091Z" fill="url(#paint1_linear_33_853)"/>
<path opacity="0.5" fill-rule="evenodd" clip-rule="evenodd" d="M173.132 92.29C171.917 91.7572 171.255 90.0004 171.653 88.3732C172.051 86.746 173.363 85.8604 174.579 86.3932C175.794 86.926 176.456 88.6828 176.058 90.31C175.66 91.9444 174.348 92.83 173.132 92.29Z" fill="url(#paint2_linear_33_853)"/>
<path opacity="0.5" fill-rule="evenodd" clip-rule="evenodd" d="M50.2983 168.099C50.2983 146.017 63.6729 128.11 80.1665 128.11C96.6602 128.11 110.035 146.017 110.035 168.099H98.2359C98.2359 154.736 90.1423 143.9 80.1611 143.9C70.18 143.9 62.0918 154.736 62.0918 168.099H50.2983Z" fill="url(#paint3_linear_33_853)"/>
<path fill-rule="evenodd" clip-rule="evenodd" d="M99.1931 142.265C98.7145 148.565 98.7198 156.074 98.3972 162.648C98.8543 166.284 100.441 165.132 103.571 166.471C97.6066 167.421 92.3095 167.904 93.498 162.893C93.3582 156.873 93.0248 151.79 92.3364 142.301L99.1931 142.265Z" fill="#F6CBAD"/>
<path fill-rule="evenodd" clip-rule="evenodd" d="M97.9455 110.016C101.108 113.277 101.92 141.055 100.608 157.356C98.365 158.184 93.0733 159.545 90.7124 157.946C90.336 144.713 90.0402 134.841 90.5565 124.833C85.7003 124.826 83.5923 124.589 78.9351 123.033C73.1217 121.089 72.1483 120.96 73.0518 112.521C74.5307 112.154 94.1381 106.092 97.9455 110.016Z" fill="#E2480D"/>
<path fill-rule="evenodd" clip-rule="evenodd" d="M84.4097 124.466C85.3885 122.803 86.3726 121.147 87.3406 119.469C89.5616 116.517 92.1752 114.48 95.1868 113.349C96.4936 113.112 97.8004 112.881 99.1126 112.644C98.7684 111.369 98.3812 110.462 97.9456 110.016C94.1381 106.092 74.5308 112.154 73.0519 112.514C72.1484 120.953 73.1164 121.082 78.9352 123.026C81.14 123.768 82.7803 124.207 84.4097 124.466Z" fill="#CE3000"/>
<path fill-rule="evenodd" clip-rule="evenodd" d="M67.088 99.6336L58.1447 103.867C55.7731 104.99 53.1434 103.09 52.6648 99.7848C52.5034 98.6688 52.5948 97.4664 53.1488 96.2712C55.1923 91.8504 63.1407 88.416 63.1407 88.416L67.0933 91.7064V99.6336H67.088Z" fill="#F6CBAD"/>
<path fill-rule="evenodd" clip-rule="evenodd" d="M77.3647 95.2199C79.618 92.6135 80.1289 79.0343 76.7032 79.3007C74.5091 79.4735 71.7234 82.0655 69.696 83.2679C65.5121 85.7375 63.3126 87.7103 63.2158 87.7895C62.5328 89.9423 64.1461 99.1799 67.0878 99.6335L77.3647 95.2199Z" fill="#E8AB00"/>
<path fill-rule="evenodd" clip-rule="evenodd" d="M64.3184 70.1854C64.4744 70.819 65.5607 69.3574 65.7812 69.955C65.9318 70.5598 64.7702 72.1438 63.9474 73.0366L60.6938 94.543C59.4462 100.713 52.2668 101.412 52.5949 98.2438C53.9339 85.3414 60.4303 71.7982 60.4303 71.7982C60.4626 69.3142 59.8172 69.5806 60.3227 68.8318C62.0705 66.2542 64.7433 67.255 64.8831 67.5862C65.2004 68.3278 64.5282 69.2278 64.3184 70.1854ZM91.7935 99.6334L100.737 103.867C103.108 104.99 105.738 103.089 106.217 99.7846C106.378 98.6686 106.287 97.4662 105.733 96.271C103.689 91.8502 95.7408 88.4158 95.7408 88.4158L91.7881 91.7062V99.6334H91.7935Z" fill="#F6CBAD"/>
<path fill-rule="evenodd" clip-rule="evenodd" d="M87.4 168.43H88.3304L83.9099 154.678H82.9741L87.4 168.43Z" fill="#00347F"/>
<path fill-rule="evenodd" clip-rule="evenodd" d="M72.0729 168.43H71.1372L75.5631 154.678H76.4935L72.0729 168.43Z" fill="#00347F"/>
<path fill-rule="evenodd" clip-rule="evenodd" d="M75.9292 153.525H83.4849L83.9098 154.677H75.5742L75.9292 153.525Z" fill="#00347F"/>
<path fill-rule="evenodd" clip-rule="evenodd" d="M81.5165 95.2199C79.2632 92.6135 78.7523 79.0343 82.178 79.3007C84.3721 79.4735 87.1578 82.0655 89.1852 83.2679C93.3692 85.7375 95.5687 87.7103 95.6655 87.7895C96.3484 89.9423 94.7351 99.1799 91.7935 99.6335L81.5165 95.2199Z" fill="#E8AB00"/>
<path fill-rule="evenodd" clip-rule="evenodd" d="M93.4926 162.893C95.1651 164.491 96.8322 164.498 98.4133 162.893L106.507 166.327C107.475 166.737 107.308 168.422 106.534 168.422H92.3364C92.2181 164.347 93.4926 164.743 93.4926 162.893Z" fill="#E2480D"/>
<path d="M72.8154 115.093C72.8154 115.093 92.9283 112.789 93.493 112.911C94.0577 113.041 97.9135 112.515 98.3921 119.873C98.8708 127.239 98.3921 158.033 98.3921 158.033" stroke="white" stroke-width="0.496" stroke-miterlimit="10" stroke-linecap="round" stroke-linejoin="round"/>
<path d="M73.1216 119.499L91.5405 121.061C91.5405 121.061 94.8478 120.413 94.8478 128.888C94.8478 137.369 93.9175 158.689 93.9175 158.689" stroke="white" stroke-width="0.496" stroke-miterlimit="10" stroke-linecap="round" stroke-linejoin="round"/>
<path fill-rule="evenodd" clip-rule="evenodd" d="M46.0609 131.479C44.8455 137.599 42.8611 144.62 41.4252 150.92C40.0378 154.109 38.86 152.273 35.5796 152.05C40.9036 155.765 45.7382 158.717 45.9426 153.476C47.6635 147.91 49.3144 143.316 52.4658 134.763L46.0609 131.479Z" fill="#F6CBAD"/>
<path fill-rule="evenodd" clip-rule="evenodd" d="M45.9423 153.468C43.9579 154.174 42.3983 153.389 41.3389 151.136L32.8635 150.516C31.8525 150.444 31.5567 152.1 32.2827 152.468L45.5605 159.185C46.7543 155.434 45.4529 155.196 45.9423 153.468ZM55.746 101.902C51.9277 103.457 43.5976 130.767 40.5269 146.636C42.4037 148.472 46.7274 150.228 49.3572 149.847C53.2023 137.643 56.8914 129.017 59.0533 119.412C63.5975 121.702 67.2544 125.23 72.0245 125.979C77.9777 126.915 76.9882 124.344 78.3703 116.021C77.0796 114.984 60.344 100.037 55.746 101.902Z" fill="#E2480D"/>
<path fill-rule="evenodd" clip-rule="evenodd" d="M55.7461 101.902C55.2836 102.089 54.7512 102.665 54.1704 103.544C55.5794 104.876 56.7571 106.517 57.7036 108.468C59.2739 110.765 60.3387 113.465 60.8873 116.568C61.1346 117.944 61.3121 119.348 61.4573 120.759C64.9636 122.89 68.1257 125.36 72.0246 125.979C77.9778 126.915 76.9883 124.344 78.3704 116.021C77.0797 114.984 60.3441 100.037 55.7461 101.902Z" fill="#CE3000"/>
<path d="M77.9243 118.642L60.0271 106.2C60.0271 106.2 55.5635 103.558 53.2081 110.203L42.1514 147.852" stroke="white" stroke-width="0.496" stroke-miterlimit="10" stroke-linecap="round" stroke-linejoin="round"/>
<path d="M77.069 124.063L61.0647 114.883C61.0647 114.883 55.9182 111.312 54.2672 118.224C52.6162 125.136 46.7222 149.544 46.7222 149.544" stroke="white" stroke-width="0.496" stroke-miterlimit="10" stroke-linecap="round" stroke-linejoin="round"/>
<path fill-rule="evenodd" clip-rule="evenodd" d="M69.2119 108.698C70.6854 105.674 71.4867 102.945 72.6537 98.5894C72.7774 97.207 71.8632 88.1638 73.9282 82.7494C75.3587 80.3806 75.106 80.431 76.6117 79.3006C76.9936 79.0126 79.1769 78.5734 80.2686 78.703C81.4571 78.847 83.3393 79.8694 83.8825 80.5966C89.2119 86.443 84.8559 106.351 86.4208 110.174C84.4687 115.092 72.4924 115.099 69.2119 108.698Z" fill="#F8C800"/>
<path fill-rule="evenodd" clip-rule="evenodd" d="M81.7532 79.0703C81.7532 79.0703 80.2743 78.7247 81.3821 75.2975C81.5542 74.7647 82.2318 74.8943 82.248 74.5055C82.2856 73.4543 81.3176 72.1727 81.4521 70.9271C81.5489 70.0559 80.398 69.8255 79.5645 69.7895C78.1877 69.7319 76.085 71.4671 77.5155 75.1895C77.8597 76.0823 78.0963 77.2703 78.4889 79.9631C78.6879 82.2599 82.7804 81.9359 81.7532 79.0703Z" fill="#F6CBAD"/>
<path fill-rule="evenodd" clip-rule="evenodd" d="M81.5378 70.654C80.9839 71.0932 78.7952 69.2284 78.7898 72.6772C78.7898 72.9364 78.9135 73.8004 77.9939 73.57C77.0743 73.3396 77.4884 75.0748 78.1767 74.5996C78.8113 75.406 78.7844 76.882 78.6069 78.1348C76.5795 76.1908 73.6863 72.3388 76.6118 69.43C77.0474 65.8084 81.2044 67.1116 82.694 66.082C83.2748 68.1556 82.9414 69.106 81.5378 70.654Z" fill="#00347F"/>
<path d="M79.2202 75.3047C79.3009 75.3695 79.715 77.2991 80.925 75.5207" stroke="#00347F" stroke-width="1.323" stroke-miterlimit="10" stroke-linecap="round" stroke-linejoin="round"/>
<path d="M86.631 94.7812L86.5127 97.4236L88.0991 98.2444" stroke="#00347F" stroke-width="1.323" stroke-miterlimit="10" stroke-linecap="round" stroke-linejoin="round"/>
<path d="M81.7532 79.0704C81.7532 79.0704 82.5976 81.1368 80.554 81.4752C78.5105 81.8136 78.2469 79.7184 78.3169 78.8184" stroke="#00347F" stroke-width="1.323" stroke-miterlimit="10" stroke-linecap="round" stroke-linejoin="round"/>
<path fill-rule="evenodd" clip-rule="evenodd" d="M94.563 70.1854C94.407 70.819 93.3207 69.3574 93.1002 69.955C92.9496 70.5598 94.1112 72.1438 94.934 73.0366L98.1876 94.543C99.4352 100.713 106.615 101.412 106.287 98.2438C104.947 85.3414 98.4511 71.7982 98.4511 71.7982C98.4188 69.3142 99.0642 69.5806 98.5586 68.8318C96.8109 66.2542 94.1381 67.255 93.9983 67.5862C93.681 68.3278 94.3532 69.2278 94.563 70.1854Z" fill="#F6CBAD"/>
<path d="M77.9669 153.531H81.7852V151.983H77.9669V153.531Z" fill="white"/>
<path d="M79.4085 168.427H80.3442V145.164H79.4085V168.427Z" fill="white"/>
<path fill-rule="evenodd" clip-rule="evenodd" d="M61.7692 168.43H62.7049L58.279 154.678H57.3486L61.7692 168.43Z" fill="#00347F"/>
<path fill-rule="evenodd" clip-rule="evenodd" d="M46.4426 168.43H45.5068L49.9327 154.678H50.8685L46.4426 168.43Z" fill="#00347F"/>
<path fill-rule="evenodd" clip-rule="evenodd" d="M50.2983 153.525H57.8594L58.2789 154.677H49.9487L50.2983 153.525Z" fill="#00347F"/>
<path d="M52.341 153.531H56.1592V151.983H52.341V153.531Z" fill="white"/>
<path d="M53.7772 168.428H54.7129L54.7129 122.564H53.7772L53.7772 168.428Z" fill="white"/>
<path d="M92.6863 165.277C92.6863 165.277 94.1867 165.745 93.8748 168.423M93.9178 167.329C93.907 167.386 107.179 167.545 107.179 167.545M46.0771 156.226C46.0771 156.226 44.7649 155.924 44.0281 158.415M44.4261 157.407C44.41 157.436 31.9927 151.114 31.9927 151.114" stroke="white" stroke-width="0.661" stroke-miterlimit="10" stroke-linecap="round" stroke-linejoin="round"/>
<path d="M98.3976 162.649C98.3976 162.649 96.596 165.961 93.4984 162.893M45.9427 153.469C45.9427 153.469 43.1678 155.096 41.3394 151.136" stroke="#00347F" stroke-width="1.323" stroke-miterlimit="10" stroke-linecap="round" stroke-linejoin="round"/>
<path d="M82.4199 66.7949C82.4199 66.7949 82.0542 68.1629 80.0752 68.1125C78.0961 68.0549 77.2787 69.5669 77.2787 69.5669M82.2478 69.0341C82.1241 69.0629 82.3768 69.8981 80.5376 69.7901C78.6984 69.6821 78.1553 70.8269 78.1338 70.9133M76.7893 70.9133C76.7893 70.9133 75.9558 72.1301 76.9023 75.3053" stroke="white" stroke-width="0.496" stroke-miterlimit="10" stroke-linecap="round" stroke-linejoin="round"/>
<path d="M90.5534 143.492C96.5787 135.424 96.5785 122.345 90.5531 114.278C84.5276 106.212 74.7586 106.212 68.7334 114.279C62.7081 122.346 62.7083 135.425 68.7338 143.492C74.7592 151.559 84.5282 151.559 90.5534 143.492Z" fill="#F8C800"/>
<path d="M89.0133 141.429C94.1879 134.5 94.1878 123.268 89.0129 116.339C83.8381 109.411 75.4481 109.412 70.2734 116.34C65.0987 123.268 65.0989 134.501 70.2737 141.429C75.4486 148.357 83.8386 148.357 89.0133 141.429Z" fill="white"/>
<path d="M89.0133 141.429C94.1879 134.5 94.1878 123.268 89.0129 116.339C83.8381 109.411 75.4481 109.412 70.2734 116.34C65.0987 123.268 65.0989 134.501 70.2737 141.429C75.4486 148.357 83.8386 148.357 89.0133 141.429Z" stroke="#00347F" stroke-width="1.323" stroke-miterlimit="10" stroke-linecap="round" stroke-linejoin="round"/>
<path d="M86.3606 137.253C89.8111 132.633 89.811 125.143 86.3604 120.523C82.9098 115.904 77.3153 115.904 73.8649 120.524C70.4144 125.144 70.4145 132.634 73.8651 137.253C77.3157 141.873 82.9101 141.873 86.3606 137.253Z" stroke="#E2480D" stroke-width="1.323" stroke-miterlimit="10" stroke-linecap="round" stroke-linejoin="round"/>
<path d="M79.4082 149.544H80.3439" stroke="#00347F" stroke-width="1.323" stroke-miterlimit="10" stroke-linecap="round" stroke-linejoin="round"/>
<path fill-rule="evenodd" clip-rule="evenodd" d="M45.0498 110.348V120.917C45.0498 122.58 49.1746 123.927 54.2619 123.927C59.3493 123.927 63.4741 122.58 63.4741 120.917V110.348H45.0498Z" fill="#F8C800"/>
<path d="M54.2673 113.357C59.355 113.357 63.4794 112.01 63.4794 110.347C63.4794 108.685 59.355 107.338 54.2673 107.338C49.1796 107.338 45.0552 108.685 45.0552 110.347C45.0552 112.01 49.1796 113.357 54.2673 113.357Z" fill="#00347F"/>
<path d="M54.1061 112.644C58.7424 112.644 62.5008 111.552 62.5008 110.203C62.5008 108.855 58.7424 107.763 54.1061 107.763C49.4699 107.763 45.7114 108.855 45.7114 110.203C45.7114 111.552 49.4699 112.644 54.1061 112.644Z" fill="white"/>
<path d="M54.2671 113.357V123.927" stroke="#00347F" stroke-width="1.323" stroke-miterlimit="10" stroke-linecap="round" stroke-linejoin="round"/>
<path d="M49.6533 112.91V123.537" stroke="#00347F" stroke-width="1.323" stroke-miterlimit="10" stroke-linecap="round" stroke-linejoin="round"/>
<path d="M46.2437 111.853V122.422" stroke="#00347F" stroke-width="1.323" stroke-miterlimit="10" stroke-linecap="round" stroke-linejoin="round"/>
<path d="M59.0967 112.91V123.537" stroke="#00347F" stroke-width="1.323" stroke-miterlimit="10" stroke-linecap="round" stroke-linejoin="round"/>
<path d="M62.5005 111.853V122.422" stroke="#00347F" stroke-width="1.323" stroke-miterlimit="10" stroke-linecap="round" stroke-linejoin="round"/>
<path d="M45.0498 121.054C45.0498 122.717 49.1746 124.063 54.2619 124.063C59.3493 124.063 63.4741 122.717 63.4741 121.054" stroke="#00347F" stroke-width="1.323" stroke-miterlimit="10" stroke-linecap="round" stroke-linejoin="round"/>
<path d="M53.7832 124.063V151.978" stroke="#00347F" stroke-width="1.323" stroke-miterlimit="10" stroke-linecap="round" stroke-linejoin="round"/>
<path fill-rule="evenodd" clip-rule="evenodd" d="M112.525 168.43H113.46L109.034 154.678H108.099L112.525 168.43Z" fill="#00347F"/>
<path fill-rule="evenodd" clip-rule="evenodd" d="M97.1979 168.43H96.2622L100.688 154.678H101.624L97.1979 168.43Z" fill="#00347F"/>
<path fill-rule="evenodd" clip-rule="evenodd" d="M101.054 153.525H108.615L109.035 154.677H100.699L101.054 153.525Z" fill="#00347F"/>
<path d="M103.095 153.531H106.914V151.983H103.095V153.531Z" fill="white"/>
<path d="M104.536 168.428H105.472V122.564H104.536V168.428Z" fill="white"/>
<path d="M104.533 123.927V151.978" stroke="#00347F" stroke-width="1.323" stroke-miterlimit="10" stroke-linecap="round" stroke-linejoin="round"/>
<path d="M71.4761 111.362C71.4761 111.362 77.7735 104.803 86.4209 110.174" stroke="#00347F" stroke-width="1.323" stroke-miterlimit="10" stroke-linecap="round" stroke-linejoin="round"/>
<path fill-rule="evenodd" clip-rule="evenodd" d="M95.0684 110.348V120.917C95.0684 122.58 99.1931 123.927 104.28 123.927C109.368 123.927 113.493 122.58 113.493 120.917V110.348H95.0684Z" fill="#F8C800"/>
<path d="M104.286 113.357C109.374 113.357 113.498 112.01 113.498 110.347C113.498 108.685 109.374 107.338 104.286 107.338C99.1981 107.338 95.0737 108.685 95.0737 110.347C95.0737 112.01 99.1981 113.357 104.286 113.357Z" fill="#00347F"/>
<path d="M104.125 112.644C108.761 112.644 112.519 111.552 112.519 110.203C112.519 108.855 108.761 107.763 104.125 107.763C99.4884 107.763 95.73 108.855 95.73 110.203C95.73 111.552 99.4884 112.644 104.125 112.644Z" fill="white"/>
<path d="M104.286 113.357V123.927" stroke="#00347F" stroke-width="1.323" stroke-miterlimit="10" stroke-linecap="round" stroke-linejoin="round"/>
<path d="M99.6719 112.91V123.537" stroke="#00347F" stroke-width="1.323" stroke-miterlimit="10" stroke-linecap="round" stroke-linejoin="round"/>
<path d="M96.2622 111.853V122.422" stroke="#00347F" stroke-width="1.323" stroke-miterlimit="10" stroke-linecap="round" stroke-linejoin="round"/>
<path d="M109.115 112.91V123.537" stroke="#00347F" stroke-width="1.323" stroke-miterlimit="10" stroke-linecap="round" stroke-linejoin="round"/>
<path d="M112.52 111.853V122.422" stroke="#00347F" stroke-width="1.323" stroke-miterlimit="10" stroke-linecap="round" stroke-linejoin="round"/>
<path d="M95.0685 121.054C95.0685 122.717 99.1932 124.063 104.281 124.063C109.368 124.063 113.493 122.717 113.493 121.054M39.2202 151.142C39.2902 150.991 41.4574 144.893 43.1353 147.658C44.8131 150.423 39.2202 151.142 39.2202 151.142ZM39.2202 151.142C39.1127 151.042 34.6545 147.881 36.7895 145.75C38.9245 143.619 39.2202 151.142 39.2202 151.142ZM101.049 163.915C101 163.75 98.6017 157.81 101.258 157.622C103.915 157.435 101.049 163.915 101.049 163.915ZM101.049 163.915C100.925 163.973 96.386 166.918 96.3645 163.354C96.3376 159.797 101.049 163.915 101.049 163.915Z" stroke="#00347F" stroke-width="1.323" stroke-miterlimit="10" stroke-linecap="round" stroke-linejoin="round"/>
<path d="M40.5271 162C41.893 161.208 42.3179 156.356 40.5271 154.26C38.7363 152.165 39.2257 151.143 39.2257 151.143C39.2257 151.143 32.5518 151.395 30.917 142.892M107.776 160.769C105.421 165.68 101.049 163.916 101.049 163.916C101.049 163.916 101.42 169.892 98.7039 171.994" stroke="#00347F" stroke-width="1.323" stroke-miterlimit="10" stroke-linecap="round" stroke-linejoin="round"/>
<path fill-rule="evenodd" clip-rule="evenodd" d="M52.9335 95.623C52.9335 95.623 56.7087 97.8478 54.3855 103.226C54.3855 103.226 52.6754 101.959 52.5947 98.9638C52.5947 98.971 52.6324 96.6886 52.9335 95.623Z" fill="#F4BE99"/>
<path d="M61.5004 89.2012L59.188 90.5116" stroke="#00347F" stroke-width="1.323" stroke-miterlimit="10" stroke-linecap="round" stroke-linejoin="round"/>
<path fill-rule="evenodd" clip-rule="evenodd" d="M101.205 104.055C101.205 104.055 101.473 96.7974 106.287 98.2446C106.287 98.2446 106.244 105.25 101.205 104.055Z" fill="#F4BE99"/>
<path d="M97.3809 89.2012L101.204 91.5052" stroke="#00347F" stroke-width="1.323" stroke-miterlimit="10" stroke-linecap="round" stroke-linejoin="round"/>
<path d="M70.1981 63.5543L69.8164 62.9492L60.4609 73.527L60.8426 74.1321L70.1981 63.5543Z" fill="#E2480D"/>
<path fill-rule="evenodd" clip-rule="evenodd" d="M70.8308 63.8066C70.4705 64.2098 69.9381 64.1522 69.637 63.6698C69.3358 63.1874 69.3788 62.4746 69.7391 62.0714C70.0994 61.6682 70.6318 61.7258 70.933 62.2082C71.2342 62.6834 71.1911 63.4034 70.8308 63.8066Z" fill="#E2480D"/>
<path d="M100.401 72.1076L100.562 71.3457L88.7831 66.867L88.6215 67.6288L100.401 72.1076Z" fill="#E2480D"/>
<path fill-rule="evenodd" clip-rule="evenodd" d="M88.1259 68.2054C88.5776 68.3782 89.0455 68.0254 89.1745 67.4206C89.3036 66.8158 89.0401 66.1894 88.5884 66.0166C88.1366 65.8438 87.6688 66.1966 87.5397 66.8014C87.416 67.399 87.6741 68.0326 88.1259 68.2054Z" fill="#E2480D"/>
<path d="M64.3183 70.1855L60.8389 74.1311" stroke="#00347F" stroke-width="1.323" stroke-miterlimit="10" stroke-linecap="round" stroke-linejoin="round"/>
<path d="M94.6006 69.8906L98.4565 71.3594" stroke="#00347F" stroke-width="1.323" stroke-miterlimit="10" stroke-linecap="round" stroke-linejoin="round"/>
<path d="M62.8286 67.1475C62.8448 67.1475 62.8286 70.5027 62.8286 70.5027C62.8286 70.5027 62.5328 71.5179 62.065 70.9131L61.6455 67.5579" stroke="#00347F" stroke-width="1.323" stroke-miterlimit="10" stroke-linecap="round" stroke-linejoin="round"/>
<path d="M62.0438 70.7259C62.0438 70.7259 61.6028 71.6403 61.135 71.1075C60.6671 70.5675 60.1992 69.0411 60.1992 69.0411M62.829 70.5027C62.829 70.5027 63.4689 70.6539 63.6625 69.7899C63.8615 68.9259 64.1788 67.1475 64.1788 67.1475M94.8214 67.1979C94.8214 67.1979 94.9343 69.2067 95.3968 69.3795C95.8593 69.5523 96.2949 67.1979 96.2949 67.1979" stroke="#00347F" stroke-width="1.323" stroke-miterlimit="10" stroke-linecap="round" stroke-linejoin="round"/>
<path d="M95.9399 68.6018C95.9399 68.6018 95.9453 70.157 96.5261 69.8042C97.1069 69.4514 97.4726 67.709 97.4726 67.709" stroke="#00347F" stroke-width="1.323" stroke-miterlimit="10" stroke-linecap="round" stroke-linejoin="round"/>
<path d="M65.3294 86.1338C65.3294 86.1338 64.2054 89.2154 65.1412 90.5114C66.0715 91.8074 66.8621 92.4626 66.6147 93.6506C66.3673 94.8386 65.7058 95.6378 67.0933 96.5162C68.4808 97.3946 67.9484 99.2666 67.9484 99.2666M94.2242 86.6306C94.2242 86.6306 91.0459 87.6602 91.7934 89.6978C92.5409 91.7354 93.2239 93.053 91.9978 94.169C90.7717 95.285 89.8843 94.6298 90.7233 96.797C91.5568 98.9642 90.3952 99.029 90.3952 99.029" stroke="white" stroke-width="0.661" stroke-miterlimit="10" stroke-linecap="round" stroke-linejoin="round"/>
<path fill-rule="evenodd" clip-rule="evenodd" d="M77.564 96.1924C77.564 96.1924 75.3053 87.4876 76.1872 87.754C77.0692 88.0204 78.1501 92.8372 78.1501 92.8372C78.1501 92.8372 79.2311 92.2252 79.8872 92.8372C79.8872 92.8372 80.4411 92.1748 80.9358 92.8372C80.9358 92.8372 81.2316 88.8484 81.8178 88.9348C82.4093 89.0212 81.8823 95.7172 81.4252 96.5164C81.4521 97.9636 78.8923 100.822 77.564 96.1924Z" fill="white"/>
<path d="M78.1499 92.9453C78.1499 92.9453 78.2144 95.9045 78.8867 95.6381C79.5589 95.3717 79.8869 92.8301 79.8869 92.8301" stroke="#00347F" stroke-width="1.323" stroke-miterlimit="10" stroke-linecap="round" stroke-linejoin="round"/>
<path d="M79.4084 94.8961C79.4084 94.8961 79.7526 97.4305 80.4248 95.6593C81.097 93.8881 80.9303 92.8369 80.9303 92.8369M77.3057 95.1697C77.3648 95.2201 78.2306 94.7161 78.7308 95.6377C79.1072 96.3361 77.7789 96.8545 77.7789 96.8545" stroke="#00347F" stroke-width="1.323" stroke-miterlimit="10" stroke-linecap="round" stroke-linejoin="round"/>
<path d="M72.6592 98.5969L73.9283 96.8545" stroke="#00347F" stroke-width="1.323" stroke-miterlimit="10" stroke-linecap="round" stroke-linejoin="round"/>
<path d="M108.459 105.098L111.03 101.743" stroke="#00347F" stroke-width="1.323" stroke-miterlimit="10" stroke-linecap="round" stroke-linejoin="round"/>
<path d="M107.378 104.688L108.653 98.0498" stroke="#00347F" stroke-width="1.323" stroke-miterlimit="10" stroke-linecap="round" stroke-linejoin="round"/>
<path d="M45.7971 106.755L43.2266 103.399" stroke="#00347F" stroke-width="1.323" stroke-miterlimit="10" stroke-linecap="round" stroke-linejoin="round"/>
<path d="M49.3034 106.755L48.7817 104.191" stroke="#00347F" stroke-width="1.323" stroke-miterlimit="10" stroke-linecap="round" stroke-linejoin="round"/>
<path d="M42.1459 119.499L40.2637 120.543" stroke="#00347F" stroke-width="1.323" stroke-miterlimit="10" stroke-linecap="round" stroke-linejoin="round"/>
<path d="M46.878 106.344L45.6035 99.7061" stroke="#00347F" stroke-width="1.323" stroke-miterlimit="10" stroke-linecap="round" stroke-linejoin="round"/>
<path d="M81.5486 119.499C81.2528 119.751 72.842 130.018 75.5739 130.472C78.3058 130.925 87.733 122.365 84.7914 126.843C81.8444 131.321 80.9678 135.548 83.9094 133.697" stroke="#00347F" stroke-width="1.323" stroke-miterlimit="10" stroke-linecap="round" stroke-linejoin="round"/>
<path fill-rule="evenodd" clip-rule="evenodd" d="M137.064 65.4473C137.064 65.4473 131.982 69.5153 135.241 83.0081C136.838 89.6249 140.091 82.2377 140.091 82.2377L140.339 80.7617C140.339 80.7617 140.791 71.1785 140.688 70.5809C140.575 69.9761 137.064 65.4473 137.064 65.4473Z" fill="#F6CBAD"/>
<path fill-rule="evenodd" clip-rule="evenodd" d="M141.264 88.452L128.309 71.208C126.663 71.7696 126.362 72.5256 126.556 73.5264C128.766 79.6104 132.794 89.9856 138.457 95.2704C139.57 96.3072 143.506 93.6504 141.264 88.452Z" fill="#F6CBAD"/>
<path fill-rule="evenodd" clip-rule="evenodd" d="M129.572 73.0226L127.303 69.0698C127.378 68.033 127.211 66.3698 126.652 65.585C126.308 65.4338 126.975 68.1986 126.647 67.9754C125.818 67.4282 125.275 63.0866 124.91 63.425C123.296 64.9154 125.254 68.9258 125.878 71.2154C126.27 72.7058 126.518 73.3178 126.679 73.8506L129.572 73.0226Z" fill="#F6CBAD"/>
<path fill-rule="evenodd" clip-rule="evenodd" d="M141.995 55.2885C145.136 56.1237 145.507 49.7373 149.357 48.8085C152.224 48.1173 151.089 45.5037 155.832 43.9557C160.575 42.4077 162 51.6309 156.897 53.0205C151.793 54.4101 150.82 51.6813 148.163 54.1365C145.507 56.5989 142.221 56.4837 141.995 55.2885Z" fill="#00347F"/>
<path fill-rule="evenodd" clip-rule="evenodd" d="M141.538 54.9284C141.161 55.166 141.065 55.9436 141.317 56.6636C141.57 57.3836 142.081 57.7796 142.457 57.542C142.834 57.3044 142.931 56.5268 142.678 55.8068C142.425 55.0868 141.914 54.6908 141.538 54.9284Z" fill="#E2480D"/>
<path fill-rule="evenodd" clip-rule="evenodd" d="M138.526 91.2529L135.181 92.9449L129.642 116.503C129.244 119.283 128.244 123.725 128.174 127.635C128.717 138.535 129.755 148.522 130.298 159.423C129.954 162.346 127.695 164.83 125.297 165.924C129.873 166.666 134.278 161.244 133.353 157.234C132.6 153.965 135.956 147.01 134.294 125.698C135.068 119.484 140.161 113.703 140.919 107.151L138.526 91.2529Z" fill="#F6CBAD"/>
<path fill-rule="evenodd" clip-rule="evenodd" d="M134.778 92.7074C135.273 90.677 135.81 88.5602 136.413 86.2346C136.789 84.5786 136.612 81.569 136.397 80.2586C136.574 79.1786 134.159 74.1098 136.198 68.9186C137.047 66.7442 136.789 65.3474 137.515 64.9154C137.757 64.7714 138.139 64.4978 138.44 64.4258C139.306 64.217 140.183 64.4402 140.511 64.4834C140.806 64.5842 143.366 65.117 143.764 65.4554C146.206 67.5434 146.394 71.7986 145.835 75.9674C145.372 79.409 144.296 82.8002 144.442 84.8306C144.662 87.8762 145.55 90.3962 146.518 92.693L134.778 92.7074Z" fill="#F6CBAD"/>
<path fill-rule="evenodd" clip-rule="evenodd" d="M138.306 64.5331C138.306 64.5331 139.177 64.1659 137.956 61.2571C137.768 60.8035 137.171 61.0051 137.133 60.6595C137.026 59.7307 137.806 58.4707 137.601 57.3835C137.456 56.6203 138.462 56.2747 139.204 56.1451C140.424 55.9291 142.409 57.2179 141.392 60.6955C141.15 61.5307 140.774 61.9987 140.607 64.4467C140.548 65.3179 140.381 68.8891 138.897 70.0987C137.929 68.6011 138.919 65.7139 138.306 64.5331Z" fill="#F6CBAD"/>
<path fill-rule="evenodd" clip-rule="evenodd" d="M133.326 157.227C133.326 157.227 134.612 158.717 134.714 159.783C134.816 160.855 134.434 161.827 134.402 162.943C134.37 163.923 134.316 167.134 134.3 167.897H133.843L133.81 163.246C132.616 161.352 131.089 167.458 129.411 167.897H123.463C123.453 164.7 128.298 167.141 130.508 161.849C130.847 161.05 132.003 157.86 133.326 157.227Z" fill="#E2480D"/>
<path fill-rule="evenodd" clip-rule="evenodd" d="M134.552 105.58L135.074 110.31L137.596 129.038C138.279 132.731 140.22 135.266 143.055 136.194C151.127 137.8 158.634 138.563 166.706 140.169C168.766 141.242 170.099 144.726 170.384 148.089C171.896 142.257 168.879 135.345 165.749 135.705C163.2 135.993 160.774 128.418 144.872 126.057C140.5 123.717 151.277 108.208 146.658 105.825L134.552 105.58Z" fill="#F6CBAD"/>
<path fill-rule="evenodd" clip-rule="evenodd" d="M165.754 135.749C165.754 135.749 167.114 134.381 167.916 134.474C168.717 134.568 169.352 135.274 170.158 135.554C170.868 135.806 173.202 136.562 173.751 136.742L173.654 137.34L170.255 136.397C168.615 137.556 172.75 140.854 172.713 143.136L171.444 150.912C169.104 150.25 171.917 144.425 168.529 140.407C168.018 139.802 165.931 137.606 165.754 135.749Z" fill="#E2480D"/>
<path fill-rule="evenodd" clip-rule="evenodd" d="M137.547 57.0168C137.983 57.5712 139.844 55.548 140.086 58.6152C140.102 58.8456 140.053 59.6304 140.855 59.3064C141.656 58.9896 141.71 60.4944 140.736 60.5448C140.328 60.5664 140.554 63.5976 140.693 63.4752C141.823 61.1928 143.942 59.2488 141.968 55.7496C140.166 52.56 136.628 54.8424 137.547 57.0168Z" fill="#00347F"/>
<path fill-rule="evenodd" clip-rule="evenodd" d="M144.447 85.1258C144.539 86.4218 144.802 87.545 145.135 88.625C144.006 88.6898 142.871 88.7762 141.726 88.8122C139.715 88.877 137.703 88.9274 135.692 89.0138C135.929 88.085 136.171 87.149 136.407 86.2274C136.784 84.5714 136.606 81.5618 136.391 80.2514C136.268 79.265 135.547 76.8674 135.375 73.7138C135.23 71.1074 136.483 65.3114 137.596 64.8506C137.279 65.5706 136.805 66.5786 136.171 70.3946C136.929 70.0922 137.849 70.3802 138.489 71.0426C139.236 70.1354 139.967 69.2498 141.29 69.941C141.285 67.4858 141.828 65.9666 142.968 65.1098C143.318 65.2178 143.597 65.3258 143.732 65.4194C142.866 65.8802 142.479 68.6666 143.861 71.957C144.474 73.1738 144.888 73.2098 145.991 74.4842C145.749 77.8178 144.318 83.3042 144.447 85.1258Z" fill="#F8C800"/>
<path fill-rule="evenodd" clip-rule="evenodd" d="M145.996 74.4905C144.894 73.2161 144.48 73.1801 143.867 71.9633C143.544 71.1929 143.313 70.4441 143.167 69.7529C142.925 70.7825 142.619 71.7905 142.232 72.7697C141.517 75.7217 140.29 78.2777 138.553 80.4305C137.946 81.3017 137.3 82.0793 136.612 82.7561C136.655 83.9873 136.617 85.3193 136.408 86.2337C136.166 87.1625 135.929 88.0913 135.692 89.0201C137.704 88.9337 139.715 88.8833 141.726 88.8185C142.872 88.7825 144.006 88.6961 145.136 88.6313C144.802 87.5513 144.539 86.4281 144.447 85.1321C144.318 83.3033 145.749 77.8169 145.996 74.4905Z" fill="#E8AB00"/>
<path fill-rule="evenodd" clip-rule="evenodd" d="M140.629 87.1628C141.963 87.0116 143.296 86.7956 144.625 86.5508C145.049 88.9412 146.007 90.8348 146.674 93.2972C148.529 100.144 148.486 106.999 148.486 117.194C145.302 121.579 132.465 126.417 128.448 124.012C129.373 114.199 133.401 97.9124 136.171 87.17C137.639 87.314 139.107 87.3356 140.629 87.1628Z" fill="#E2480D"/>
<path fill-rule="evenodd" clip-rule="evenodd" d="M137.596 87.2636C138.596 87.2996 139.602 87.2852 140.629 87.1628C141.963 87.0116 143.297 86.7956 144.625 86.5508C145.05 88.9412 146.007 90.8348 146.674 93.2972C148.529 100.144 148.486 106.999 148.486 117.194C146.572 119.124 142.678 121.968 138.467 123.256C143.318 112.881 143.657 96.9476 137.596 87.2636Z" fill="#CE3000"/>
<path fill-rule="evenodd" clip-rule="evenodd" d="M143.399 65.4473C143.399 65.4473 149.696 66.1169 149.287 86.5793C149.255 88.0697 146.115 89.7761 144.824 86.1977C143.614 82.8497 142.544 75.2393 142.366 71.4881C142.189 67.6865 142.334 65.9297 143.399 65.4473Z" fill="#F6CBAD"/>
<path fill-rule="evenodd" clip-rule="evenodd" d="M145.211 81.7846L128.12 90.4102C127.819 92.6494 128.206 93.3262 128.97 93.5062C134.025 93.3406 142.748 92.7358 148.685 88.027C149.847 87.1054 149.675 81.2086 145.211 81.7846Z" fill="#F6CBAD"/>
<path fill-rule="evenodd" clip-rule="evenodd" d="M129.879 89.625L126.254 90.7554C125.582 90.237 124.383 89.7402 123.619 90.1002C123.372 90.4602 125.528 90.7914 125.243 91.101C124.523 91.8858 122.382 90.9786 122.458 91.5618C122.802 94.1466 123.27 93.9594 125.453 93.9378C126.83 93.8874 128.814 93.477 129.25 93.4986L129.879 89.625Z" fill="#F6CBAD"/>
<path d="M137.596 87.2637C137.596 87.2637 130.304 112.759 133.321 124.66M140.097 87.9405C140.097 87.9405 137.289 114.501 139.091 122.695M143.044 89.3949C143.044 89.3949 145.281 113.248 143.807 120.801M144.307 89.8485C144.307 89.8485 147.819 99.7125 147.733 118.072" stroke="white" stroke-width="0.496" stroke-miterlimit="10" stroke-linecap="round" stroke-linejoin="round"/>
<path d="M131.012 64.4568L130.06 64.0244L109.118 146.715L110.07 147.147L131.012 64.4568Z" fill="white"/>
<path fill-rule="evenodd" clip-rule="evenodd" d="M116.768 150.185L102.42 143.669C102.64 142.797 103.345 142.329 103.996 142.625L115.988 148.068C116.639 148.37 116.988 149.313 116.768 150.185Z" fill="#00347F"/>
<path d="M111.816 144.416L108.969 143.124L108.57 144.699L111.417 145.992L111.816 144.416Z" fill="#E2480D"/>
<path fill-rule="evenodd" clip-rule="evenodd" d="M133.277 64.7421L129.454 65.6709C128.916 65.8005 128.405 65.3253 128.303 64.6053C128.206 63.8853 128.561 63.2013 129.099 63.0645L132.923 62.1357L133.277 64.7421Z" fill="#E2480D"/>
<path fill-rule="evenodd" clip-rule="evenodd" d="M135.214 62.6972C135.354 63.7196 134.848 64.6988 134.084 64.886C133.321 65.0732 132.589 64.3964 132.45 63.374C132.31 62.3516 132.815 61.3724 133.579 61.1852C134.348 61.0052 135.079 61.682 135.214 62.6972Z" fill="#00347F"/>
<path fill-rule="evenodd" clip-rule="evenodd" d="M146.889 89.2794C146.889 89.2794 146.529 84.4698 147.733 84.2322C148.938 83.9874 149.309 84.8226 149.309 84.8226C149.309 84.8226 149.47 86.6802 148.981 87.6234C148.497 88.5666 146.889 89.2794 146.889 89.2794ZM133.014 87.9402L136.413 86.2338C136.413 86.2338 136.655 84.4986 136.634 83.577C136.634 83.5698 133.713 83.001 133.014 87.9402ZM130.664 124.653C130.664 124.653 130.632 129.938 128.325 130.463L128.174 127.627C128.174 127.627 128.287 125.035 128.449 124.005C128.449 124.012 129.599 124.66 130.664 124.653ZM138.037 130.773C138.037 130.773 141.796 130.715 142.63 133.084C143.463 135.453 143.275 136.245 143.275 136.245C143.275 136.245 139.78 135.827 138.037 130.773Z" fill="#F4BE99"/>
<path d="M138.602 61.8114C138.602 61.8114 139.29 62.8339 139.758 61.1562" stroke="#00347F" stroke-width="1.323" stroke-miterlimit="10" stroke-linecap="round" stroke-linejoin="round"/>
<path d="M134.536 79.4951L135.515 80.7983" stroke="#00347F" stroke-width="1.323" stroke-miterlimit="10" stroke-linecap="round" stroke-linejoin="round"/>
<path d="M143.839 82.476L145.211 81.7848C145.211 81.7848 147.663 81.4248 148.486 83.124" stroke="#00347F" stroke-width="1.323" stroke-miterlimit="10" stroke-linecap="round" stroke-linejoin="round"/>
<path d="M130.782 65.3467L127.841 76.9675" stroke="#00347F" stroke-width="1.323" stroke-miterlimit="10" stroke-linecap="round" stroke-linejoin="round"/>
<path d="M122.721 93.002L123.485 93.8876L111.03 143.352" stroke="#00347F" stroke-width="1.323" stroke-miterlimit="10" stroke-linecap="round" stroke-linejoin="round"/>
<path d="M128.448 124.012C128.448 124.012 130.465 125.575 134.557 124.221L134.294 125.69C134.294 125.69 135.326 137.08 134.24 147.492M136.886 123.76C136.886 123.76 141.473 122.551 144.307 120.484" stroke="#00347F" stroke-width="1.323" stroke-miterlimit="10" stroke-linecap="round" stroke-linejoin="round"/>
<path d="M144.883 126.071L143.043 126.842" stroke="#00347F" stroke-width="1.323" stroke-miterlimit="10" stroke-linecap="round" stroke-linejoin="round"/>
<path d="M132.955 63.1002C132.955 63.1002 132.804 61.6818 134.149 61.5234M144.313 54.8634C144.313 54.8634 145.539 54.6906 146.835 52.0194C148.131 49.3482 149.158 49.521 150.599 49.305C152.04 49.089 152.433 45.1866 155.509 45.2298" stroke="white" stroke-width="0.661" stroke-miterlimit="10" stroke-linecap="round" stroke-linejoin="round"/>
<path d="M148.158 54.1439C148.158 54.1439 149.448 53.1143 151.513 54.1439C153.579 55.1735 160.107 53.9927 159.715 49.9463" stroke="#00347F" stroke-width="1.323" stroke-miterlimit="10" stroke-linecap="round" stroke-linejoin="round"/>
<path fill-rule="evenodd" clip-rule="evenodd" d="M136.714 119.095C136.714 119.851 136.257 120.456 135.698 120.456C135.133 120.456 134.676 119.844 134.676 119.095C134.676 118.339 135.133 117.727 135.698 117.727C136.257 117.734 136.714 118.346 136.714 119.095ZM142.963 116.366C142.963 117.122 142.506 117.734 141.941 117.734C141.377 117.734 140.925 117.122 140.925 116.366C140.925 115.61 141.382 115.006 141.941 115.006C142.501 115.006 142.963 115.618 142.963 116.366ZM147.529 113.81C147.529 114.566 147.072 115.171 146.507 115.171C145.942 115.171 145.491 114.559 145.491 113.81C145.491 113.054 145.948 112.442 146.507 112.442C147.072 112.45 147.529 113.062 147.529 113.81ZM131.917 120.463C131.917 121.219 131.46 121.831 130.901 121.831C130.336 121.831 129.879 121.219 129.879 120.463C129.879 119.707 130.336 119.102 130.901 119.102C131.46 119.095 131.917 119.707 131.917 120.463Z" fill="white"/>
<path d="M123.151 91.3027L124.189 91.3891" stroke="#00347F" stroke-width="1.323" stroke-miterlimit="10" stroke-linecap="round" stroke-linejoin="round"/>
<path d="M132.428 62.7549L129.314 63.4821" stroke="white" stroke-width="0.661" stroke-miterlimit="10" stroke-linecap="round" stroke-linejoin="round"/>
<path d="M128.309 64.6055C128.309 64.6055 117.376 68.6375 122.35 85.7591" stroke="#E2480D" stroke-width="1.323" stroke-miterlimit="10" stroke-linecap="round" stroke-linejoin="round"/>
<path d="M128.308 70.8262L127.206 75.2902" stroke="#00347F" stroke-width="1.323" stroke-miterlimit="10" stroke-linecap="round" stroke-linejoin="round"/>
<path d="M136.176 70.4016C136.176 70.4016 136.983 69.9336 138.494 71.0496C138.494 71.0496 140.258 69.1272 141.296 69.948" stroke="#00347F" stroke-width="0.661" stroke-miterlimit="10" stroke-linecap="round" stroke-linejoin="round"/>
<path d="M129.411 167.904C129.411 167.904 130.207 167.94 131.74 164.794C133.272 161.647 133.81 163.253 133.81 163.253M172.713 143.129C172.713 143.129 172.815 142.15 171.315 139.99C169.82 137.83 169.562 136.958 170.255 136.39" stroke="#00347F" stroke-width="1.323" stroke-miterlimit="10" stroke-linecap="round" stroke-linejoin="round"/>
<path fill-rule="evenodd" clip-rule="evenodd" d="M130.379 163.764C130.282 163.966 130.078 164.03 129.927 163.894L128.325 162.518C128.174 162.389 128.126 162.115 128.228 161.914C128.325 161.712 128.529 161.647 128.68 161.784L130.282 163.159C130.433 163.289 130.481 163.562 130.379 163.764ZM167.324 142.114C167.174 141.984 167.125 141.71 167.228 141.509L168.255 139.363C168.351 139.162 168.556 139.097 168.706 139.234C168.857 139.363 168.905 139.637 168.803 139.838L167.776 141.984C167.679 142.186 167.475 142.243 167.324 142.114Z" fill="#00347F"/>
<path d="M28.6421 168.43H215.902" stroke="#00347F" stroke-miterlimit="10" stroke-linecap="round" stroke-linejoin="round"/>
<defs>
<linearGradient id="paint0_linear_33_853" x1="31.6809" y1="83.3408" x2="23.2667" y2="102.43" gradientUnits="userSpaceOnUse">
<stop offset="0.095" stop-color="white"/>
<stop offset="0.754" stop-color="#FBE0DF"/>
<stop offset="0.979" stop-color="#F9D4D3"/>
</linearGradient>
<linearGradient id="paint1_linear_33_853" x1="86.8856" y1="99.042" x2="82.2951" y2="109.456" gradientUnits="userSpaceOnUse">
<stop offset="0.095" stop-color="white"/>
<stop offset="0.754" stop-color="#FBE0DF"/>
<stop offset="0.979" stop-color="#F9D4D3"/>
</linearGradient>
<linearGradient id="paint2_linear_33_853" x1="174.59" y1="86.398" x2="170" y2="96.8123" gradientUnits="userSpaceOnUse">
<stop offset="0.095" stop-color="white"/>
<stop offset="0.754" stop-color="#FBE0DF"/>
<stop offset="0.979" stop-color="#F9D4D3"/>
</linearGradient>
<linearGradient id="paint3_linear_33_853" x1="80.1693" y1="130.314" x2="80.1693" y2="178.951" gradientUnits="userSpaceOnUse">
<stop offset="0.095" stop-color="white"/>
<stop offset="0.754" stop-color="#FBE0DF"/>
<stop offset="0.979" stop-color="#F9D4D3"/>
</linearGradient>
</defs>
</svg>
