<svg width="27" height="22" viewBox="0 0 27 22" fill="none" xmlns="http://www.w3.org/2000/svg">
<path d="M26.2102 10.9756C26.2102 11.7456 25.5448 12.3567 24.7916 12.3567H23.373L23.3981 19.2378C23.3981 19.3478 23.3981 19.47 23.373 19.58V20.2767C23.373 21.23 22.5821 22 21.6029 22H20.8999C20.8999 22 20.7995 22 20.7492 22C20.6865 22 20.6237 22 20.5609 22H18.0627C17.0835 22 16.2926 21.23 16.2926 20.2767V16.5C16.2926 15.7422 15.6649 15.1189 14.8866 15.1189H12.0619C11.2836 15.1189 10.6559 15.73 10.6559 16.5V20.2767C10.6559 21.23 9.86499 22 8.88578 22H6.41266C6.34989 22 6.27456 22 6.21179 22C6.16158 22 6.11136 22 6.04859 22H5.34557C4.36637 22 3.57547 21.23 3.57547 20.2767V15.4611C3.57547 15.4611 3.57547 15.3756 3.57547 15.3389V12.3444H2.15687C1.36598 12.3444 0.738281 11.7456 0.738281 10.9633C0.738281 10.5722 0.876374 10.23 1.17767 9.93667L12.5515 0.342222C12.8654 0.0366667 13.2169 0 13.5182 0C13.8195 0 14.1835 0.0855556 14.4472 0.305556L25.7206 9.94889C26.0721 10.2544 26.2479 10.5967 26.2102 10.9756Z" fill="white"/>
</svg>
