<svg width="849" height="252" viewBox="0 0 849 252" fill="none" xmlns="http://www.w3.org/2000/svg">
<path d="M828.685 27.4475C825.996 12.1995 795.343 3.59744 749.304 1.13855C703.315 -1.04311 641.989 3.19559 573.187 15.3272C505.614 27.2422 446.536 44.2338 402.838 62.2299L0.553683 230.641L436.177 251.306C482.167 253.488 543.493 249.249 612.295 237.117C679.868 225.202 738.945 208.211 782.643 190.215C825.113 172.435 850.976 153.868 848.238 138.343C845.55 123.095 814.897 114.493 768.858 112.034C722.868 109.852 661.543 114.091 592.741 126.222C660.314 114.307 719.391 97.3157 763.09 79.3196C805.56 61.5401 831.422 42.9728 828.685 27.4475Z" fill="url(#paint0_linear_12_369)"/>
<defs>
<linearGradient id="paint0_linear_12_369" x1="838.462" y1="82.8951" x2="0.553683" y2="230.641" gradientUnits="userSpaceOnUse">
<stop stop-color="#00347F"/>
<stop offset="1" stop-color="#2D6F9A" stop-opacity="0.48"/>
</linearGradient>
</defs>
</svg>
