<svg width="27" height="20" viewBox="0 0 27 20" fill="none" xmlns="http://www.w3.org/2000/svg">
<path d="M13.5 0C7.93125 0 3.375 3.85714 3.375 8.57143V11.4286H1.6875C1.23995 11.4286 0.810725 11.5791 0.494257 11.847C0.17779 12.1149 0 12.4783 0 12.8571L0 18.5714C0 18.9503 0.17779 19.3137 0.494257 19.5816C0.810725 19.8495 1.23995 20 1.6875 20H5.0625C5.51005 20 5.93928 19.8495 6.25574 19.5816C6.57221 19.3137 6.75 18.9503 6.75 18.5714V8.57143C6.75 5.4 9.75375 2.85714 13.5 2.85714C17.2463 2.85714 20.25 5.4 20.25 8.57143V18.5714C20.25 18.9503 20.4278 19.3137 20.7443 19.5816C21.0607 19.8495 21.4899 20 21.9375 20H25.3125C25.7601 20 26.1893 19.8495 26.5057 19.5816C26.8222 19.3137 27 18.9503 27 18.5714V12.8571C27 12.4783 26.8222 12.1149 26.5057 11.847C26.1893 11.5791 25.7601 11.4286 25.3125 11.4286H23.625V8.57143C23.625 3.85714 19.0688 0 13.5 0Z" fill="white"/>
</svg>
