<svg width="325" height="321" viewBox="0 0 325 321" fill="none" xmlns="http://www.w3.org/2000/svg">
<path d="M46.7324 117.639C33.881 128.423 27.0726 143.561 25.6913 159.473C24.5438 175.188 29.057 191.481 40.3569 204.948C51.455 218.174 66.7167 225.448 82.5946 227.287L231.082 242.432L241.952 93.5706C243.1 77.855 238.587 61.5621 227.287 48.0954C216.188 34.8691 200.927 27.5952 185.049 25.7559C169.373 24.1571 153.282 28.2334 140.197 39.2131C127.346 49.9967 120.537 65.1349 119.156 81.0465C118.009 96.7621 122.522 113.055 133.822 126.522C122.724 113.295 107.462 106.022 91.5841 104.182C75.908 102.583 59.8175 106.66 46.7324 117.639Z" fill="url(#paint0_linear_11_246)"/>
<defs>
<linearGradient id="paint0_linear_11_246" x1="93.4648" y1="78.4262" x2="231.082" y2="242.432" gradientUnits="userSpaceOnUse">
<stop stop-color="#E2480D"/>
<stop offset="1" stop-color="#FE9732" stop-opacity="0"/>
</linearGradient>
</defs>
</svg>
