<svg width="219" height="190" viewBox="0 0 219 190" fill="none" xmlns="http://www.w3.org/2000/svg">
<path d="M109.5 164.381C154.962 164.381 191.816 162.753 191.816 160.745C191.816 158.737 154.962 157.109 109.5 157.109C64.0378 157.109 27.1836 158.737 27.1836 160.745C27.1836 162.753 64.0378 164.381 109.5 164.381Z" fill="#F4F1EA"/>
<path d="M87.9414 105.793C87.9414 105.793 108.862 119.113 111.466 126.131C114.07 133.149 94.5895 140.989 94.5895 140.989L87.9414 105.793Z" fill="#47271F"/>
<path d="M146.23 106.799L152.081 122.172L170.026 106.206L172.11 107.544C172.11 107.544 158.49 134.924 150.551 134.185C142.613 133.446 133.068 112.769 133.068 112.769L146.23 106.799Z" fill="#F4CABA"/>
<path opacity="0.35" d="M142.688 127.147C142.624 126.176 142.646 125.147 143.039 124.225C143.205 123.835 143.451 123.465 143.806 123.181C144.17 122.891 144.63 122.719 145.118 122.657C145.793 122.572 146.523 122.607 147.061 122.979C150.533 125.378 152.081 122.172 152.081 122.172L146.23 106.799L133.068 112.769C133.068 112.769 137.531 122.437 142.892 128.788C142.796 128.243 142.724 127.696 142.688 127.147Z" fill="#E8AD80"/>
<path d="M132.492 116.867L125.797 125.981L134.913 152.466L132.74 153.118C132.74 153.118 114.068 131.191 114.24 124.476C114.412 117.76 120.679 111.846 120.679 111.846L132.492 116.867Z" fill="#F4CABA"/>
<path opacity="0.35" d="M125.797 125.981L132.492 116.868L120.678 111.847C120.678 111.847 116.945 115.371 115.162 120.067C115.528 120.826 116.32 121.418 117.066 121.893C118.119 122.563 119.273 123.099 120.341 123.75C120.804 124.031 121.257 124.336 121.63 124.707C122.128 125.202 122.462 125.838 122.548 126.492C122.642 127.211 122.444 127.923 122.312 128.627C122.187 129.298 122.068 130.023 122.384 130.666C122.634 131.177 123.092 131.588 123.57 131.944C124.098 132.339 124.673 132.684 125.224 133.054C125.743 133.403 126.253 133.777 126.652 134.233C127.118 134.766 127.331 135.397 127.462 136.05C127.638 136.927 127.617 137.822 127.755 138.703C127.827 139.166 127.947 139.625 128.144 140.061C128.34 140.492 128.615 140.895 128.842 141.313C129.68 142.85 130.221 144.47 130.581 146.138C130.74 146.871 130.973 147.574 131.24 148.282C131.5 148.971 131.77 149.662 131.929 150.376C132.06 150.966 132.111 151.586 131.943 152.175C132.448 152.781 132.736 153.12 132.736 153.12L134.909 152.468L125.797 125.981Z" fill="#E8AD80"/>
<path d="M142.799 91.1001C142.799 91.1001 146.23 92.6017 147.701 100.993C148.773 107.113 161.503 107.937 161.503 107.937C161.503 107.937 155.169 113.381 149.348 111.912C143.527 110.443 147.808 122.297 138.715 121.176C129.621 120.055 129.524 122.758 121.044 120.599C112.564 118.44 108.298 123.643 106.791 118.207C106.791 118.207 119.924 110.481 121.869 99.8192C123.814 89.1577 130.588 85.3102 142.799 91.1001Z" fill="#F5B501"/>
<path opacity="0.5" d="M141.413 111.289C141.324 110.886 141.17 110.472 140.885 110.138C140.881 110.175 140.876 110.211 140.872 110.248C140.815 110.746 140.786 111.245 140.722 111.742C140.657 112.231 140.557 112.72 140.36 113.183C140.195 113.57 139.94 113.926 139.632 114.238C139.337 114.536 138.996 114.797 138.646 115.045C138.287 115.301 137.918 115.545 137.566 115.809C137.593 115.807 137.62 115.807 137.647 115.805C138.371 115.755 139.088 115.568 139.721 115.259C140.038 115.104 140.335 114.918 140.597 114.698C140.776 114.549 140.922 114.38 141.038 114.19C141.295 113.767 141.421 113.288 141.479 112.816C141.541 112.309 141.524 111.789 141.413 111.289ZM124.748 104.29C124.658 104.31 124.567 104.331 124.477 104.357C123.488 104.642 122.547 105.329 121.74 106.195C120.923 107.072 120.236 108.112 119.638 109.181C119.482 109.461 119.335 109.746 119.179 110.027C119.018 110.318 118.849 110.605 118.674 110.887C118.334 111.436 117.967 111.967 117.574 112.472C116.807 113.46 115.941 114.346 115.005 115.08C114.495 115.48 113.949 115.844 113.372 116.169C113.466 116.159 113.56 116.151 113.652 116.141C113.875 116.119 114.098 116.097 114.323 116.049C114.586 115.992 114.852 115.915 115.115 115.833C115.639 115.669 116.163 115.458 116.674 115.175C117.196 114.886 117.68 114.517 118.144 114.08C119.092 113.189 119.849 112.062 120.465 110.867C120.776 110.266 121.054 109.649 121.32 109.029C121.606 108.363 121.911 107.699 122.273 107.067C122.455 106.749 122.651 106.438 122.865 106.143C123.053 105.883 123.263 105.655 123.491 105.444C123.907 105.059 124.366 104.731 124.748 104.29ZM135.977 106.492C134.788 106.891 133.868 107.697 133.232 108.639C132.594 109.588 132.211 110.658 131.997 111.737C131.707 113.194 131.686 114.686 131.268 116.125C131.069 116.807 130.794 117.496 130.337 118.082C129.969 118.552 129.487 118.944 128.953 119.27C128.63 119.467 128.291 119.64 127.945 119.802C128.073 119.757 128.201 119.711 128.328 119.664C129.463 119.246 130.595 118.743 131.424 117.93C131.862 117.501 132.194 117.001 132.425 116.465C132.748 115.713 132.861 114.902 132.932 114.107C133.009 113.239 133.024 112.366 133.134 111.499C133.186 111.09 133.251 110.675 133.375 110.276C133.473 109.964 133.62 109.665 133.805 109.383C134.511 108.309 135.715 107.531 136.306 106.395C136.195 106.423 136.085 106.456 135.977 106.492ZM128.506 105.267C128.498 105.59 128.478 105.916 128.445 106.241C128.393 106.772 128.303 107.292 128.187 107.794C128.413 107.169 128.612 106.5 128.761 105.793C128.84 105.42 128.905 105.038 128.955 104.652C129.009 104.242 129.041 103.834 129.069 103.423C129.13 102.554 129.191 101.688 129.344 100.832C129.466 100.147 129.558 99.4502 129.684 98.7669C129.701 98.6769 129.717 98.587 129.735 98.4971C129.577 98.8973 129.407 99.2805 129.247 99.6782C129.163 99.9333 129.083 100.189 129.006 100.446C128.913 100.763 128.827 101.081 128.748 101.4C128.669 101.723 128.595 102.049 128.551 102.39C128.469 103.02 128.493 103.633 128.502 104.243C128.508 104.583 128.515 104.922 128.506 105.267Z" fill="#F5B501"/>
<path opacity="0.5" d="M147.7 100.993C146.229 92.6022 142.798 91.0999 142.798 91.0999C134.243 87.0434 128.357 87.7179 124.931 92.1519C125.124 92.5236 125.381 92.8663 125.761 93.1196C126.359 93.5173 127.142 93.6459 127.875 93.6902C128.523 93.7295 129.475 93.7092 129.903 94.2229C130.275 94.6681 130.213 95.2995 130.159 95.8151C130.095 96.4167 129.933 97.0608 130.061 97.6644C131.074 96.7416 132.023 95.7429 133.407 95.2286C134.067 94.9829 134.78 94.8017 135.503 94.7884C135.824 94.7827 136.135 94.81 136.43 94.9284C136.66 95.0215 136.844 95.1659 137.04 95.3033C137.516 95.6377 138.074 95.727 138.652 95.8505C139.144 95.9557 139.578 96.1343 139.904 96.4813C140.737 97.3648 140.926 98.6353 140.736 99.7303C140.595 100.54 140.27 101.316 139.862 102.054C139.97 101.925 140.08 101.797 140.192 101.67C140.845 100.933 141.538 100.21 141.952 99.3421C142.472 98.2521 142.381 97.0969 142.421 95.9443C142.423 95.9031 142.477 95.867 142.519 95.8999C142.797 96.1191 143.025 96.3787 143.217 96.6574C143.655 97.2914 143.934 98.0064 144.129 98.7233C144.335 99.4821 144.473 100.27 144.461 101.05C144.448 101.868 144.352 102.723 144.047 103.502C143.913 103.846 143.757 104.19 143.684 104.55C143.63 104.823 143.638 105.112 143.853 105.333C144.044 105.529 144.325 105.651 144.591 105.754C144.905 105.875 145.232 105.969 145.557 106.066C146.166 106.246 146.851 106.415 147.3 106.838C147.837 107.346 148.129 108.068 148.107 108.753C148.091 109.28 147.871 109.95 147.261 110.177C146.731 110.374 146.096 110.203 145.567 110.096C144.945 109.971 144.225 109.826 143.635 110.122C143.03 110.427 142.813 111.024 142.77 111.596C142.719 112.263 142.844 112.933 142.905 113.597C142.959 114.198 142.991 114.84 142.743 115.415C142.473 116.04 141.892 116.444 141.213 116.717C140.837 116.868 140.449 116.999 140.102 117.197C139.702 117.425 139.445 117.74 139.355 118.15C139.273 118.527 139.315 118.915 139.344 119.294C139.372 119.67 139.379 120.042 139.325 120.417C139.285 120.689 139.216 120.957 139.119 121.217C147.68 121.939 143.615 110.464 149.348 111.911C155.169 113.379 161.503 107.936 161.503 107.936C161.503 107.936 148.772 107.113 147.7 100.993Z" fill="#F5B501"/>
<path d="M170.026 106.206L172.109 107.544L173.035 107.021C173.035 107.021 177.291 109.015 178.728 108.703C180.165 108.391 174.536 103.695 172.531 103.287C170.526 102.878 170.026 106.206 170.026 106.206ZM134.735 151.804L132.275 152.513L132.236 153.47C132.236 153.47 127.908 155.344 127.376 156.544C126.844 157.743 134.509 156.449 136.047 155.261C137.584 154.073 134.735 151.804 134.735 151.804Z" fill="#5E3F35"/>
<path d="M83.7764 60.7485L96.0754 52.2264L96.5703 31.1719H99.0465C99.0465 31.1719 104.37 45.3636 102.513 54.0643C100.656 62.7651 89.017 67.3726 89.017 67.3726L83.7764 60.7485Z" fill="#F4CABA"/>
<path opacity="0.35" d="M100.846 56.968C100.279 57.2625 99.6412 57.5013 98.9908 57.6159C98.5813 57.6881 98.1593 57.64 97.7461 57.6647C97.5432 57.6767 97.3373 57.7046 97.149 57.7736C96.9665 57.8408 96.803 57.9396 96.6511 58.0491C96.3548 58.2638 96.1073 58.5229 95.8043 58.7319C95.5277 58.9225 95.2225 59.0859 94.8948 59.2018C94.24 59.4336 93.5238 59.4602 92.8362 59.3341C92.2273 59.2227 91.6317 59.0137 91.0805 58.7661C90.2542 58.3949 89.3986 57.8332 89.1081 57.0561L83.7783 60.749L89.0197 67.3731C89.0197 67.3731 98.5761 63.5901 101.752 56.4062C101.467 56.614 101.165 56.8027 100.846 56.968Z" fill="#E8AD80"/>
<path d="M86.1697 71.9921C86.1697 71.9921 86.7997 68.8533 93.7332 66.5137C93.8245 63.2913 89.0466 59.1943 88.056 57.2607C88.056 57.2607 82.7037 60.8562 78.9894 61.6795C75.6957 62.4097 80.7217 72.7438 86.1697 71.9921Z" fill="#5E3F35"/>
<path opacity="0.5" d="M91.8754 66.2531C91.2052 66.4096 90.5161 66.5141 89.8226 66.5464C89.5095 66.5609 89.1948 66.5609 88.8824 66.5388C88.5583 66.516 88.2276 66.4748 87.9224 66.3735C87.6757 66.2911 87.4501 66.1664 87.2735 65.9947C87.1187 65.8453 87.0063 65.6673 86.9077 65.4868C86.6866 65.0815 86.4967 64.6685 86.0938 64.3696C85.6565 64.0453 85.0908 63.9123 84.5593 63.7483C84.0826 63.6014 83.6235 63.4019 83.3738 63.0003C83.2198 62.7533 83.149 62.4626 83.1388 62.184C83.1256 61.8426 83.1424 61.5019 83.1439 61.1605C83.1453 60.8419 83.1285 60.5215 83.0482 60.2092C83.0431 60.189 83.0366 60.1687 83.0307 60.1484C81.6758 60.8109 80.2406 61.4018 78.9909 61.6792C75.6971 62.4094 80.7232 72.7435 86.1712 71.9918C86.1712 71.9918 86.8012 68.853 93.7347 66.5134C93.742 66.2436 93.715 65.9675 93.6595 65.6869C93.0865 65.9238 92.4864 66.1106 91.8754 66.2531Z" fill="#47271F"/>
<path d="M100.168 29.3144C100.162 29.3917 100.148 29.4607 100.132 29.5133C100.128 29.5247 100.125 29.5342 100.122 29.5424C100.038 29.7615 99.944 29.9774 99.8397 30.1897C99.5762 30.7325 99.3119 31.1422 99.3119 31.1422C99.3119 31.1422 99.5039 34.566 99.3375 34.9897C98.9827 35.3609 96.8212 35.0315 96.8212 35.0315C96.5066 34.7117 96.8029 31.2727 96.7015 30.6014C96.6007 29.9294 94.7816 28.7451 95.3882 28.4531C95.8795 28.5823 96.8139 29.1485 96.8139 29.1485C96.8139 29.1485 96.5898 25.6601 97.4986 25.6183C97.9031 25.5993 97.8702 27.3688 97.9461 28.0433C97.9469 28.049 97.9469 28.0547 97.9476 28.0598C97.9483 28.0579 98.2104 27.8476 98.5017 27.9743C98.644 28.0351 98.6907 28.12 98.6907 28.12C98.6907 28.12 98.8849 28.0446 99.0331 28.0737C99.182 28.1029 99.3886 28.2181 99.3908 28.2815C99.3937 28.2815 99.5609 28.2067 99.7237 28.2948C99.8865 28.3822 99.9529 28.6247 99.9529 28.6247H99.9507C99.9726 28.6488 99.9938 28.6722 100.012 28.6969C100.154 28.8882 100.183 29.127 100.168 29.3144Z" fill="#F4CABA"/>
<path opacity="0.2" d="M100.168 29.314C100.14 29.2899 100.107 29.2709 100.068 29.2608C99.8931 29.2146 99.7931 29.3488 99.7398 29.4616C99.7084 29.5274 99.6902 29.6003 99.65 29.663C99.6164 29.7174 99.5522 29.7643 99.4931 29.8004C98.9872 30.1107 97.9272 29.9372 97.8717 29.3444C97.8491 29.1018 97.8506 28.8479 97.8681 28.6066C97.8827 28.4052 97.8871 28.2532 97.9484 28.0606C97.9491 28.0587 98.2112 27.8485 98.5025 27.9751C98.6448 28.0359 98.6915 28.1208 98.6915 28.1208C98.6915 28.1208 98.8857 28.0454 99.0339 28.0746C99.1828 28.1037 99.3894 28.219 99.3916 28.2823C99.3945 28.2823 99.5617 28.2076 99.7245 28.2956C99.8873 28.383 99.9537 28.6256 99.9537 28.6256H99.9515C99.9734 28.6496 99.9946 28.6731 100.013 28.6978C100.154 28.8878 100.183 29.1265 100.168 29.314ZM95.5431 29.0062C95.5431 29.0062 95.627 28.9986 95.6022 28.9042C95.5766 28.8092 95.3116 28.6154 95.3116 28.6154C95.3116 28.6154 95.2445 28.8016 95.5431 29.0062Z" fill="white"/>
<path opacity="0.1" d="M99.7858 29.3407C99.6784 29.9493 99.312 30.1032 99.147 30.1418C98.6937 30.0747 98.2688 29.9468 98.0608 29.7979C97.9155 29.6941 97.8505 29.4401 97.8337 29.1494C97.8315 29.1652 97.8286 29.1817 97.8264 29.1975C97.7928 29.4673 97.7717 29.7783 97.9308 30.0234C98.0885 30.2653 98.4024 30.361 98.709 30.3534C98.955 30.347 99.1974 30.2869 99.4266 30.2045H99.4273C99.428 30.2045 99.4281 30.2039 99.4288 30.2039C99.45 30.1963 99.4719 30.1887 99.493 30.1805C99.4872 30.1798 99.4806 30.1792 99.4748 30.1792C99.8259 29.9734 99.7858 29.3407 99.7858 29.3407Z" fill="#231F20"/>
<path d="M99.1325 30.0741C99.2092 29.8898 99.253 29.7403 99.2953 29.5503C99.3362 29.3559 99.3596 29.1564 99.3296 28.9607C99.3435 29.1576 99.3048 29.3521 99.2486 29.5414C99.1909 29.7302 99.031 30.0791 99.031 30.0791C98.9544 30.0829 98.6945 30.0171 98.5843 29.9835C98.5784 29.9816 98.5733 29.9797 98.5682 29.9784C98.6274 29.7859 98.6785 29.5934 98.7186 29.3983C98.7588 29.2007 98.7916 29.0006 98.7843 28.8004C98.7755 29.0006 98.7274 29.1969 98.6719 29.3901C98.6171 29.5794 98.5514 29.7675 98.4792 29.9512C98.4047 29.9271 98.331 29.9018 98.2631 29.8695C98.074 29.7802 97.9864 29.7023 97.9061 29.4091C97.8791 29.3109 97.8674 29.2089 97.8565 29.107C97.8433 29.005 97.8382 28.903 97.8324 28.7998C97.8047 29.0044 97.8025 29.2127 97.8346 29.4198C97.8514 29.5231 97.8784 29.6276 97.9375 29.7257C97.9543 29.7498 97.9682 29.7751 97.9923 29.7954L98.0251 29.8277L98.0616 29.8543C98.0857 29.8727 98.112 29.8879 98.1383 29.9018C98.1645 29.917 98.1908 29.9303 98.2186 29.9417C98.4376 30.0373 98.6704 30.0918 98.904 30.1317C99.1384 30.1703 99.361 30.1463 99.5479 29.8898C99.4274 30.0348 99.1822 30.0836 99.1325 30.0741Z" fill="#E8AD80"/>
<path opacity="0.1" d="M99.2882 31.1098C99.0108 31.3283 98.4042 31.3359 97.8501 31.2934C97.4289 31.2611 97.0763 31.0661 96.8223 30.8672C96.8566 30.9274 96.8938 30.9869 96.9361 31.0445C97.0471 31.1946 97.4895 31.8672 98.0392 31.8666C98.8991 31.8647 99.124 31.2206 99.286 31.1402L99.2882 31.1098Z" fill="#231F20"/>
<path d="M64.1028 150.385C64.1028 150.385 59.0402 152.772 59.6177 154.109C60.1958 155.446 65.0109 160.315 65.0109 160.315H70.4312C70.4312 160.315 70.245 157.57 67.3498 158.024L65.4788 154.038L66.3045 152.772L64.1028 150.385Z" fill="#F5B501"/>
<path opacity="0.5" d="M63.5662 152.556C63.6654 152.754 63.8034 152.935 63.9319 153.119C64.0589 153.301 64.1837 153.485 64.2969 153.674C64.5144 154.037 64.6889 154.424 64.7458 154.832C64.775 155.042 64.7721 155.253 64.7495 155.463C64.7341 155.603 64.702 155.749 64.7196 155.89C64.7619 156.227 65.1656 156.427 65.4875 156.548C65.6744 156.618 65.8708 156.681 66.0357 156.788C66.181 156.883 66.2869 157.012 66.346 157.161C66.4577 157.445 66.3861 157.747 66.2642 158.018C66.1219 158.333 65.916 158.623 65.7233 158.916C65.589 159.12 65.4444 159.334 65.3568 159.56C65.6065 159.317 65.8773 159.09 66.1744 158.891C66.7665 158.495 67.4512 158.217 68.1827 158.082C68.3024 158.06 68.4228 158.043 68.5433 158.028C68.2075 157.961 67.814 157.951 67.349 158.023L65.478 154.037L66.3037 152.772L64.1027 150.385C64.1027 150.385 63.8399 150.509 63.4406 150.716C63.2771 151.327 63.2778 151.978 63.5662 152.556Z" fill="#F5B501"/>
<path d="M119.188 153.989C119.188 153.989 121.664 158.214 122.985 158.573C124.305 158.931 133.016 151.011 132.312 150.051C130.867 148.082 124.429 153.457 124.429 153.457L121.539 152.486L119.188 153.989Z" fill="#F5B501"/>
<path opacity="0.5" d="M125.096 156.929C124.708 156.992 124.326 157.08 123.937 157.142C123.574 157.199 123.174 157.204 122.831 157.067C122.544 156.952 122.331 156.742 122.217 156.486C122.155 156.344 122.12 156.193 122.105 156.042C122.096 155.947 122.093 155.855 122.108 155.76C122.123 155.671 122.146 155.584 122.163 155.494C122.236 155.119 121.97 154.81 121.758 154.507C121.664 154.373 121.584 154.226 121.585 154.066C121.587 153.912 121.675 153.754 121.798 153.644C121.906 153.549 122.047 153.483 122.186 153.428C122.358 153.359 122.537 153.307 122.716 153.259C122.932 153.2 123.153 153.154 123.372 153.101L121.541 152.485L119.188 153.99C119.188 153.99 121.664 158.214 122.985 158.573C123.405 158.687 124.575 157.961 125.952 156.888C125.668 156.852 125.377 156.883 125.096 156.929Z" fill="#F5B501"/>
<path d="M63.3882 150.302L66.2359 153.524L100.409 138.593L90.999 128.895L63.3882 150.302Z" fill="#47271F"/>
<path opacity="0.5" d="M90.9989 128.895L79.5876 137.742C80.6351 137.501 81.7155 137.382 82.7842 137.513C83.6113 137.614 84.4399 137.883 85.1151 138.315C85.5319 138.582 85.913 138.968 85.8575 139.446C85.8064 139.89 85.4334 140.261 85.0691 140.548C84.5756 140.937 83.9968 141.245 83.4128 141.519C82.3112 142.038 81.1388 142.448 79.954 142.8C79.1685 143.033 78.3736 143.248 77.6173 143.547C76.8997 143.83 76.1799 144.198 75.7083 144.76C75.4772 145.035 75.3205 145.352 75.2499 145.687C75.1835 146.002 75.1448 146.32 75.1046 146.638C75.0791 146.844 75.0528 147.059 74.9601 147.252C74.8674 147.445 74.7075 147.601 74.5206 147.732C74.2104 147.948 73.849 148.109 73.4964 148.264C73.1227 148.429 72.7314 148.566 72.3452 148.707C71.524 149.006 70.6976 149.294 69.8975 149.633C69.0967 149.973 68.3142 150.363 67.6382 150.872C66.9753 151.37 66.4673 151.971 66.1512 152.681C66.076 152.85 66.0081 153.022 65.9453 153.195L66.2366 153.524L100.41 138.593L90.9989 128.895Z" fill="#47271F"/>
<path d="M64.8736 104.54C64.8736 104.54 63.388 112.382 68.9594 119.471C74.5315 126.561 119.6 154.706 119.6 154.706L122.2 152.664L88.646 104.111C88.646 104.111 78.3698 101.532 64.8736 104.54Z" fill="#5E3F35"/>
<path opacity="0.5" d="M95.554 135.713C94.9941 134.803 94.2853 133.956 93.4063 133.258C92.6895 132.688 91.8631 132.264 90.9929 131.897C89.1723 131.127 87.2422 130.566 85.4559 129.731C83.9557 129.031 82.3782 128.047 81.9906 126.516C81.7592 125.602 82.0512 124.752 82.3103 123.871C82.6206 122.815 82.8987 121.743 82.5242 120.672C81.7767 118.53 79.6692 117.017 78.3099 115.186C77.7179 114.388 77.1573 113.45 77.2113 112.473C77.2595 111.598 77.8464 110.868 78.7158 110.448C80.6364 109.519 82.9702 109.811 85.069 109.614C87.1758 109.417 89.4183 108.894 91.247 107.874L88.646 104.111C88.646 104.111 78.3691 101.532 64.8736 104.54C64.8736 104.54 63.388 112.382 68.9594 119.471C71.818 123.109 85.0741 132.289 97.3053 140.366C96.9775 138.751 96.4424 137.159 95.554 135.713Z" fill="#47271F"/>
<path d="M80.4747 60.748C80.4747 60.748 96.8485 73.8536 90.6012 106.939C90.6012 106.939 67.3069 113.595 64.7899 105.147C62.2728 96.6979 83.4457 79.5105 80.8455 72.2063C78.246 64.9021 76.5122 60.7841 80.4747 60.748Z" fill="#F9D980"/>
<path opacity="0.5" d="M89.3602 103.494C89.0726 102.572 88.5353 101.761 87.99 100.939C87.5389 100.259 87.1045 99.5606 86.8862 98.7937C86.6453 97.945 86.7045 97.1179 86.9425 96.2755C87.1841 95.4212 87.5374 94.5845 87.6016 93.6998C87.7323 91.8872 86.5015 90.2133 85.7175 88.6033C85.3306 87.8098 85.0094 86.9845 84.8948 86.1251C84.7758 85.2327 84.9656 84.3087 85.1978 83.4417C85.4481 82.5062 85.781 81.5873 85.9789 80.6411C86.1358 79.8937 86.1709 79.1407 86.1533 78.3826C86.1176 76.8328 85.8621 75.285 85.4598 73.7764C85.0481 72.2323 84.4729 70.7148 83.6954 69.2791C83.0114 68.0168 82.1617 66.7989 81.0426 65.79C81.1346 66.7255 81.3616 67.6514 81.358 68.5925C81.355 69.362 81.1725 70.1385 80.717 70.806C80.6389 70.92 80.5542 71.0302 80.4659 71.1385C80.5907 71.4862 80.7177 71.8422 80.847 72.2057C83.4472 79.5106 62.2743 96.6973 64.7913 105.146C66.9295 112.323 84.059 108.6 89.1682 107.316C89.6369 106.111 89.777 104.834 89.3602 103.494Z" fill="#F5B501"/>
<path d="M79.4563 44.4356C79.4563 44.4356 66.0009 37.4081 65.6206 38.8819C65.2403 40.3563 71.5103 49.9912 72.1366 51.3592C72.7629 52.7265 77.5233 46.3609 79.4563 44.4356Z" fill="#F5B501"/>
<path opacity="0.5" d="M76.1232 42.7518C76.0246 42.7848 75.9297 42.8272 75.8472 42.8848C75.7107 42.9792 75.6129 43.1052 75.5326 43.2382C75.3676 43.5131 75.2684 43.8184 75.0406 44.0628C74.8092 44.3105 74.4456 44.4669 74.0916 44.534C73.3901 44.6664 72.6805 44.4644 71.9761 44.5315C71.8731 44.541 71.7592 44.5581 71.6731 44.6126C71.6059 44.655 71.5643 44.7202 71.5315 44.7848C71.4198 45.0014 71.341 45.2345 71.1599 45.4188C70.7387 45.8457 70.081 45.574 69.6444 45.3181C69.5065 45.237 69.3736 45.1496 69.2429 45.0597C69.0918 44.9552 68.9458 44.8513 68.8181 44.7247C68.5837 44.4922 68.4166 44.2199 68.2706 43.94C68.1202 43.6524 67.9837 43.3586 67.8063 43.0824C67.6761 42.8801 67.5194 42.6916 67.3391 42.5207C67.1823 42.3716 67.0081 42.2371 66.8193 42.1191C68.5867 45.5385 71.7045 50.4164 72.1367 51.3601C72.763 52.7275 77.5226 46.3618 79.4564 44.4365C79.4564 44.4359 78.0445 43.6987 76.1232 42.7518Z" fill="#F5B501"/>
<path d="M83.5361 49.9416C83.5361 49.9416 86.6685 47.649 85.8071 46.1385C84.9457 44.628 83.0258 45.2809 81.8169 44.716C80.608 44.1511 80.3014 42.4379 77.9771 44.4171C75.6528 46.3962 76.2718 46.0821 73.9775 46.5343C71.6831 46.9865 72.8343 47.5305 71.7488 48.5477C70.6632 49.5648 68.5368 51.0791 70.4537 52.6985C72.3707 54.318 69.2558 56.3491 72.6116 56.1413C75.9674 55.9336 77.4588 57.6018 80.4015 54.5061C83.3434 51.411 81.9359 51.442 83.5361 49.9416Z" fill="#47271F"/>
<path d="M80.3824 52.6458C79.9448 52.3319 79.5156 52.0092 79.0954 51.678C78.9005 51.5248 78.7114 51.374 78.4931 51.2499C78.3114 51.1467 78.1186 51.0447 77.9843 50.8864C77.75 50.6102 77.8303 50.1973 77.631 49.9072C77.5288 49.9801 77.439 50.0675 77.3726 50.172C77.2222 50.4057 77.1857 50.6793 77.1711 50.9364C77.1543 51.2246 77.1667 51.5108 77.1383 51.799C77.1127 52.0593 77.0543 52.3291 76.8959 52.5603C76.7411 52.7864 76.5061 52.9751 76.2418 53.0612C75.7133 53.2335 75.1819 53.0283 74.6811 52.9529C74.4183 52.913 74.0956 52.8845 73.8569 53.0669C73.6175 53.25 73.5459 53.5736 73.4605 53.8307C73.37 54.1005 73.2634 54.4026 73.0174 54.5926C72.8334 54.7351 72.6181 54.7313 72.4312 54.6433C72.3071 54.585 72.1991 54.5008 72.0998 54.4115C71.9874 54.3102 71.8735 54.2038 71.7998 54.072C71.6603 53.8244 71.6494 53.5299 71.5954 53.2525C71.5421 52.9783 71.4245 52.7503 71.2318 52.552C71.0727 52.388 70.8829 52.2537 70.6748 52.1486C70.4069 52.0137 70.1098 51.925 69.8018 51.8826C69.9186 52.1505 70.1281 52.4228 70.4544 52.699C72.3714 54.3184 69.2564 56.3495 72.6123 56.1418C75.9681 55.934 77.4595 57.6022 80.4021 54.5065C80.8496 54.0353 81.1963 53.6376 81.4686 53.2949C81.0649 53.1423 80.724 52.8902 80.3824 52.6458Z" fill="#47271F"/>
<path d="M82.5987 64.2057L81.776 54.4226L77.9282 51.2236L74.457 62.6819L82.5987 64.2057Z" fill="#F4CABA"/>
<path opacity="0.35" d="M80.1673 55.0337C79.795 54.9596 79.4264 54.8722 79.0512 54.8095C78.8767 54.7804 78.6986 54.769 78.5241 54.7411C78.4774 54.7335 78.4329 54.7208 78.3883 54.7075C78.3766 54.7037 78.3642 54.6987 78.3518 54.6968C78.3474 54.6961 78.346 54.6961 78.3445 54.6968C78.3292 54.7151 78.3292 54.7671 78.327 54.7886C78.3226 54.8285 78.3182 54.869 78.3219 54.9096C78.3307 54.9906 78.3642 55.0673 78.4073 55.1388C78.5117 55.313 78.6723 55.4606 78.8344 55.5955C79.1753 55.8786 79.5665 56.1072 79.9359 56.3599C80.2447 56.5708 80.5776 56.7785 80.801 57.0642C80.9054 57.1978 80.9944 57.3637 80.9419 57.5278C80.8842 57.7076 80.674 57.8204 80.4769 57.8628C80.2119 57.9198 79.9242 57.8856 79.6592 57.8463C79.4183 57.8102 79.1745 57.7748 78.9365 57.7273C78.6716 57.6741 78.4088 57.6088 78.1379 57.5829C78.0102 57.5702 77.8788 57.5651 77.7525 57.5911C77.6919 57.6031 77.6218 57.624 77.5751 57.6601C77.5452 57.6836 77.5291 57.7146 77.5079 57.7437C77.3605 57.947 77.051 57.9914 76.7969 57.9983C76.6553 58.0021 76.5137 57.9952 76.3721 57.9901C76.2151 57.9844 76.0589 57.9863 75.9019 57.9869H75.8786L74.4565 62.6812L82.5982 64.205L81.8332 55.1141C81.2784 55.1667 80.7126 55.142 80.1673 55.0337Z" fill="#E8AD80"/>
<path d="M86.2501 52.1756C86.6647 52.049 87.1253 51.8172 86.9414 51.4353C86.6267 50.781 85.085 49.4453 85.085 49.4453C84.1564 47.5764 83.2023 46.1279 83.2023 46.1279C83.2023 46.1279 77.5039 46.2261 76.7477 49.3307C76.7477 49.3307 74.4744 48.895 74.9424 51.1325C75.2336 52.5271 76.1396 51.9913 76.5447 52.2713C77.3236 52.8096 76.563 55.728 76.563 55.728C76.563 55.728 82.4475 59.2791 85.8011 57.2227C87.1991 56.3658 86.9801 54.2973 86.2501 52.1756Z" fill="#F4CABA"/>
<path d="M84.7656 46.2196C85.3737 46.9207 84.175 48.8479 82.0135 48.3875C79.8519 47.9264 78.9993 48.345 78.1466 50.2089C77.294 52.0728 76.7523 49.1956 76.2187 48.4381C75.6851 47.68 76.372 45.6021 78.6431 45.3278C80.9155 45.0536 83.5341 44.7996 84.7656 46.2196Z" fill="#47271F"/>
<path d="M80.6075 61.7334L81.3915 59.1957C81.3915 59.1957 75.3778 57.3166 74.4573 58.5997C74.0229 59.2052 75.5691 60.1514 74.7434 61.4402C73.9178 62.729 61.572 71.514 62.7276 73.0891C63.8832 74.6648 69.8262 82.1603 70.9817 81.5871C72.1373 81.014 59.4258 104.361 63.5525 106.079C67.68 107.798 78.2452 103.357 87.6557 106.938C87.6557 106.938 82.5376 94.9074 83.6932 86.6C84.8496 78.2938 85.1795 64.6455 80.6075 61.7334Z" fill="#5E3F35"/>
<path opacity="0.5" d="M67.4088 103.683C67.5278 103.222 67.8636 102.836 68.033 102.391C68.1425 102.103 68.1169 101.852 68.0082 101.569C67.9271 101.357 67.8213 101.154 67.7424 100.942C67.5556 100.437 67.5081 99.7567 67.7527 99.2544C68.1564 98.426 69.3098 98.388 70.196 98.4805C71.5078 98.6173 72.778 99.0157 74.0212 99.3868C74.5847 99.5553 75.1476 99.7294 75.7213 99.8719C76.0382 99.9505 76.4229 100.062 76.7631 100.023C76.6463 99.7421 76.5295 99.4609 76.4112 99.1803C75.8922 97.9485 75.3578 96.7211 74.776 95.5102C74.5052 94.9471 74.2212 94.3974 73.892 93.8584C73.6065 93.3917 73.3394 92.9027 73.3131 92.3657C73.2656 91.4068 74.1139 90.6335 74.1321 89.6841C74.1533 88.5948 73.3189 87.6746 73.2218 86.6068C73.1262 85.5599 73.8007 84.5624 74.3592 83.6776C74.6628 83.1956 74.9643 82.7099 75.1731 82.1893C75.3177 81.8289 75.4016 81.4559 75.4688 81.0803C75.7352 79.5869 75.8206 78.0504 75.7535 76.5412C75.7177 75.7426 75.6352 74.937 75.4206 74.158C75.2709 73.6152 75.0512 73.0059 74.5811 72.6006C74.5015 73.5215 74.1102 74.353 73.6175 75.1669C73.3766 75.5646 73.1255 75.9579 72.8999 76.3626C72.6977 76.7255 72.5145 77.0947 72.3049 77.4545C71.929 78.1011 71.5092 78.7294 71.0187 79.3165C70.561 79.8649 70.0427 80.3627 69.4777 80.8175C70.1631 81.4033 70.7077 81.7225 70.9822 81.587C72.1378 81.0138 59.4263 104.36 63.553 106.079C64.6115 106.519 66.0934 106.555 67.8702 106.424C67.5001 105.559 67.1716 104.6 67.4088 103.683Z" fill="#47271F"/>
<path d="M60.911 76.0732C60.6636 76.0732 56.4529 80.9068 56.3296 84.0064C56.0996 89.7862 76.6184 101.719 76.6184 101.719L77.939 100.574L65.7393 85.0894L70.0703 81.689L60.911 76.0732Z" fill="#F4CABA"/>
<path opacity="0.35" d="M58.3532 79.2485C58.7518 80.0288 59.2453 80.7754 59.8935 81.4208C60.5279 82.0529 61.2951 82.569 62.1222 82.9991C62.3631 83.1245 62.6084 83.2423 62.8573 83.355C63.0749 83.4538 63.2858 83.5672 63.4603 83.7192C63.7144 83.9415 63.8085 84.2214 63.8202 84.528C63.8333 84.8731 63.8005 85.2132 63.8947 85.5527C63.9567 85.7775 64.0626 85.984 64.2611 86.1436C64.4363 86.2848 64.6561 86.3747 64.8729 86.4577C65.0999 86.5451 65.3306 86.63 65.5394 86.7484C65.7554 86.8713 65.9343 87.0423 66.0825 87.224C66.3956 87.6091 66.5833 88.0562 66.784 88.4907C67.2162 89.4242 67.7965 90.3363 68.5564 91.1001C68.939 91.4845 69.3762 91.8309 69.8763 92.0976C70.3296 92.3395 70.826 92.5231 71.3319 92.6656C71.4874 92.7094 71.6443 92.748 71.8028 92.7841L65.7408 85.0897L70.0719 81.6893L60.9126 76.0742C60.7798 76.0742 59.511 77.4606 58.3423 79.2238C58.3452 79.2314 58.3489 79.2403 58.3532 79.2485Z" fill="#E8AD80"/>
<path d="M77.6858 103.67C77.5339 103.546 77.3405 103.35 77.0894 103.037C77.0894 103.037 77.0923 103.038 77.0967 103.041C76.9645 102.889 76.8397 102.723 76.7244 102.551C76.5251 102.255 76.3981 102.029 76.3185 101.865C76.3185 101.863 76.3178 101.863 76.317 101.863C76.2002 101.621 76.1842 101.514 76.1842 101.514C76.1842 101.514 73.3233 99.2603 73.0744 98.8784C72.9919 98.4116 74.5942 97.5547 74.5942 97.5547C75.068 97.5629 77.2653 99.8664 78.0099 100.017C78.8779 100.193 80.8678 99.6814 80.7204 100.256C80.5722 100.832 79.1451 100.782 79.1451 100.782C79.1451 100.782 79.1604 100.79 79.1874 100.807C79.3538 100.904 79.9707 101.286 80.3736 101.784L80.3744 101.785C80.4853 101.923 80.581 102.071 80.6452 102.224C80.6561 102.251 80.6671 102.277 80.6766 102.305C80.6934 102.353 80.7072 102.403 80.716 102.452C80.7175 102.46 80.7197 102.469 80.7204 102.477C80.7248 102.502 80.7284 102.527 80.7306 102.552V102.555C80.7299 102.555 80.7299 102.555 80.7299 102.556C80.7138 102.623 80.6715 102.698 80.5795 102.776C80.2831 103.027 80.0181 102.858 80.0181 102.858C80.0181 102.858 80.1284 103.122 79.8531 103.293C79.5611 103.475 79.4137 103.279 79.4137 103.279C79.4137 103.279 79.4254 103.582 79.1888 103.718C78.9399 103.862 78.7735 103.633 78.7735 103.633C78.7735 103.633 78.8173 103.846 78.5275 104.017C78.2683 104.172 77.6858 103.67 77.6858 103.67Z" fill="#F4CABA"/>
<path opacity="0.2" d="M79.0709 103.041C79.0715 103.046 79.0702 103.052 79.067 103.057C79.0639 103.061 79.0591 103.065 79.0534 103.068C78.8935 103.14 78.7461 103.213 78.6607 103.356C78.6322 103.404 78.5993 103.458 78.5366 103.475C78.5081 103.484 78.4782 103.482 78.4482 103.483C78.4081 103.485 78.3767 103.498 78.3424 103.514C78.2292 103.569 78.1292 103.645 78.0423 103.729C78.0029 103.767 77.965 103.807 77.9292 103.85C78.1205 103.976 78.3789 104.107 78.5293 104.018C78.8191 103.847 78.7753 103.633 78.7753 103.633C78.7753 103.633 78.941 103.862 79.1906 103.719C79.4272 103.583 79.4155 103.28 79.4155 103.28C79.4155 103.28 79.5629 103.476 79.8549 103.294C80.1301 103.123 80.0199 102.859 80.0199 102.859C80.0199 102.859 80.2849 103.028 80.5813 102.777C80.6733 102.699 80.7156 102.624 80.7317 102.557C80.7324 102.556 80.7324 102.556 80.7324 102.556V102.553C80.7302 102.528 80.7266 102.503 80.7222 102.478C80.7207 102.47 80.7193 102.461 80.7178 102.453C80.709 102.403 80.6944 102.354 80.6784 102.306C80.6689 102.278 80.6579 102.252 80.647 102.225C80.5995 102.301 80.5265 102.37 80.4565 102.427C80.3762 102.492 80.2813 102.553 80.1688 102.563C80.0506 102.575 79.9411 102.526 79.8243 102.527C79.7016 102.53 79.5958 102.608 79.5403 102.698C79.4921 102.777 79.4841 102.864 79.4009 102.923C79.3082 102.99 79.1877 103.011 79.0753 103.041C79.0731 103.04 79.0724 103.041 79.0709 103.041ZM80.6017 100.137C80.6017 100.137 80.0761 100.219 80.006 100.162C79.936 100.105 79.998 100.019 79.998 100.019C79.998 100.019 80.5112 100.009 80.6017 100.137Z" fill="white"/>
<path d="M69.331 66.167C69.331 66.167 55.4084 77.5778 57.6649 79.4391C59.9213 81.3011 67.379 84.6964 70.1982 83.882C73.0182 83.0681 79.7123 68.283 69.331 66.167Z" fill="#5E3F35"/>
<path d="M84.2901 50.2964C84.2592 50.3616 84.2137 50.421 84.1564 50.471C84.099 50.521 84.0309 50.5607 83.9559 50.5879C83.8808 50.6151 83.8003 50.6291 83.719 50.6293C83.6377 50.6295 83.5572 50.6158 83.482 50.589C83.4067 50.5622 83.3384 50.5228 83.2807 50.473C83.2231 50.4233 83.1773 50.3641 83.146 50.299C83.1146 50.2339 83.0984 50.1641 83.0982 50.0936C83.098 50.023 83.1138 49.9531 83.1447 49.8879C83.2071 49.7561 83.3274 49.6513 83.4789 49.5964C83.6305 49.5415 83.8009 49.5411 83.9528 49.5953C84.1047 49.6495 84.2256 49.7538 84.2888 49.8852C84.3521 50.0167 84.3525 50.1646 84.2901 50.2964ZM84.4324 49.0209C83.1454 48.9075 82.4162 49.2888 82.241 49.1868C82.0658 49.0848 82.7848 48.4312 83.5528 48.5345C84.3207 48.6371 84.6813 49.0424 84.4324 49.0209ZM83.9813 54.2345C85.4917 54.7798 86.5348 54.5499 86.7034 54.7291C86.8721 54.9083 85.7493 55.2168 84.8631 54.8482C83.9776 54.4802 83.69 54.1293 83.9813 54.2345Z" fill="#47271F"/>
<path opacity="0.25" d="M84.2958 53.32C84.2279 53.7893 83.495 54.0965 82.6577 54.0053C81.8211 53.9147 81.1969 53.4606 81.2648 52.9913C81.3327 52.522 82.0656 52.2149 82.9029 52.3061C83.7403 52.3973 84.3637 52.8507 84.2958 53.32Z" fill="#E8AD80"/>
<path d="M75.4798 50.94C75.4579 50.9324 75.4411 50.9179 75.4324 50.8989C75.0907 50.1902 75.8302 49.8881 75.8383 49.8849C75.8602 49.876 75.8857 49.876 75.9083 49.8836C75.9242 49.8894 75.9378 49.899 75.9475 49.9113C75.9572 49.9237 75.9625 49.9382 75.9628 49.9531C75.9631 49.968 75.9584 49.9827 75.9492 49.9953C75.9401 50.008 75.9269 50.018 75.9113 50.0242C75.8872 50.0337 75.3185 50.2662 75.5952 50.84C75.6039 50.859 75.6047 50.8792 75.5952 50.8982C75.5864 50.9172 75.5696 50.9318 75.5477 50.94C75.5251 50.9483 75.5017 50.9483 75.4798 50.94ZM129.362 54.6887C129.362 54.6887 121.927 51.4853 125.537 47.3148C129.148 43.145 132.294 45.1824 132.294 45.1824C132.294 45.1824 134.448 43.1234 137.45 46.6068C140.453 50.0907 138.264 52.0085 138.264 52.0085C138.264 52.0085 143.083 51.1186 143.344 54.4677C143.606 57.8168 139.788 60.1677 142.629 61.6972C145.469 63.2267 136.523 69.9331 132.464 66.558C128.403 63.1843 123.109 59.7028 129.362 54.6887Z" fill="#47271F"/>
<path d="M143.174 62.5312C142.792 62.6009 142.406 62.6503 142.015 62.6649C141.483 62.6845 140.939 62.6357 140.448 62.4476C140.204 62.3543 139.979 62.2267 139.783 62.0702C139.566 61.896 139.364 61.6832 139.249 61.4451C139.121 61.1816 139.1 60.8934 139.061 60.6129C139.023 60.3329 138.96 60.0289 138.735 59.8123C138.532 59.6173 138.23 59.5356 137.952 59.4526C137.668 59.3684 137.399 59.2639 137.146 59.1239C136.72 58.8877 136.357 58.5526 136.257 58.1112C136.154 57.6546 136.362 57.2321 136.576 56.8262C136.797 56.4069 137.013 55.9769 137.114 55.5221C137.203 55.1244 137.187 54.6817 136.849 54.3809C136.834 54.4132 136.819 54.4461 136.801 54.4771C136.36 55.234 135.289 55.4138 134.433 55.6146C133.946 55.7286 133.459 55.8527 133.023 56.0788C132.783 56.2036 132.575 56.3657 132.337 56.493C132.118 56.6101 131.884 56.7029 131.638 56.7692C130.666 57.0314 129.64 56.8528 128.644 56.8559C128.378 56.8566 128.106 56.8648 127.843 56.9041C127.599 56.9402 127.365 57.0098 127.134 57.0852C124.85 60.8656 129.083 63.7491 132.463 66.5592C135.991 69.4916 143.208 64.8112 143.174 62.5312Z" fill="#47271F"/>
<path d="M100.439 62.5918C100.439 62.5918 102.394 61.9338 103.355 62.9978C104.316 64.0618 103.421 64.4741 103.421 64.4741C103.421 64.4741 101.804 63.2005 101.288 63.1688C100.774 63.1371 100.132 63.0022 100.439 62.5918Z" fill="#DBAD9E"/>
<path d="M100.08 62.1387C100.08 62.1387 102.034 61.4807 102.995 62.5447C103.957 63.6087 103.061 64.021 103.061 64.021C103.061 64.021 101.444 62.7473 100.929 62.7157C100.413 62.6846 99.7722 62.5491 100.08 62.1387Z" fill="#DDA999"/>
<path d="M99.9624 61.6094C99.9624 61.6094 101.917 60.9514 102.878 62.0154C103.839 63.0794 102.944 63.4917 102.944 63.4917C102.944 63.4917 101.327 62.218 100.811 62.1864C100.296 62.1553 99.655 62.0198 99.9624 61.6094Z" fill="#DBAD9E"/>
<path d="M103.59 68.1455C103.59 68.1455 104.864 67.6933 105.219 67.2607C105.219 67.2607 103.935 65.6185 103.832 64.9934C103.729 64.3683 104.381 63.2872 103.739 62.1035C103.397 61.4733 102.975 60.8121 102.492 60.5974C101.993 60.3758 100.55 60.2358 100.361 60.4847C100.172 60.733 101.073 60.9907 101.594 61.1814C102.113 61.3726 102.506 61.8103 102.594 62.3087C102.681 62.8071 101.992 63.1504 101.992 63.1504C101.992 63.1504 101.455 61.9179 101.125 61.9357C100.794 61.9534 101.107 62.6165 101.225 63.3157C101.342 64.0149 101.34 65.2271 101.96 65.4798C102.578 65.7325 103.59 68.1455 103.59 68.1455Z" fill="#F4CABA"/>
<path opacity="0.2" d="M101.089 62.3819C101.093 62.387 101.351 62.4047 101.346 62.2863C101.341 62.1678 101.134 61.9531 101.096 62.0266C101.059 62.1001 101.007 62.2698 101.089 62.3819ZM100.369 60.5256C100.369 60.5364 100.691 60.5256 100.77 60.4787C100.85 60.4319 100.832 60.3818 100.832 60.3818C100.832 60.3818 100.371 60.3901 100.369 60.5256Z" fill="white"/>
<path d="M137.808 62.7847C137.808 62.7847 129.491 59.9467 125.229 63.7701C125.229 63.7701 123.991 70.6285 128.16 72.4183C132.33 74.2075 137.808 62.7847 137.808 62.7847Z" fill="#F4CABA"/>
<path d="M125.171 64.3574L113.569 75.176L103.893 65.201L102.826 66.6115C102.826 66.6115 109.529 83.0826 114.063 82.2377C118.598 81.3922 126.309 73.9068 126.309 73.9068L125.171 64.3574Z" fill="#F4CABA"/>
<path opacity="0.35" d="M124.293 74.8007C124.512 73.8146 124.692 72.8215 124.809 71.8221C124.928 70.7948 124.983 69.76 124.928 68.7283C124.877 67.7751 124.731 66.8213 124.431 65.9023C124.4 65.9625 124.369 66.0233 124.339 66.0841C124.005 66.7681 123.717 67.4686 123.351 68.1405C123.004 68.777 122.585 69.4091 121.978 69.886C121.68 70.1203 121.341 70.2869 120.98 70.437C120.688 70.558 120.367 70.6675 120.144 70.8797C119.848 71.1615 119.748 71.5751 119.703 71.9418C119.642 72.4447 119.703 72.952 119.748 73.4542C119.77 73.6981 119.789 73.9431 119.79 74.1882C119.791 74.4156 119.761 74.6404 119.718 74.8646C119.633 75.3111 119.488 75.7526 119.26 76.1604C119.151 76.3561 119.022 76.5442 118.874 76.7203C118.731 76.8894 118.58 77.0579 118.423 77.2168C118.33 77.3099 118.224 77.3986 118.152 77.505C118.066 77.6323 118.038 77.7811 118.018 77.9262C117.943 78.4734 117.996 79.0225 118.048 79.569C118.075 79.8572 118.104 80.146 118.125 80.4354C120.258 79.1175 122.437 77.3555 124.009 75.9939C124.101 75.5961 124.205 75.199 124.293 74.8007Z" fill="#E8AD80"/>
<path d="M144.378 89.8374C138.127 86.6257 140.757 77.7648 140.374 73.0293C139.991 68.2939 139.713 63.3438 138.012 62.4533C136.31 61.5635 134.473 65.9107 129.774 66.8961C125.074 67.8816 126.224 62.7199 126.224 62.7199C126.224 62.7199 124.165 62.8529 124.218 66.1963C124.27 69.5397 119.973 72.9179 122.074 76.234C124.174 79.5508 120.789 89.1369 124.516 92.0268C127.799 94.5728 149.365 92.3998 144.378 89.8374Z" fill="#F9D980"/>
<path opacity="0.35" d="M126.019 77.077C124.834 77.3563 123.374 77.1808 122.569 76.3094C122.201 75.9097 121.985 75.4183 121.835 74.9281C121.706 74.5056 121.623 74.075 121.542 73.6443C121.414 74.5107 121.528 75.3739 122.073 76.2334C123.543 78.5552 122.327 83.9486 122.742 87.9671C123.173 87.7923 123.538 87.5149 123.788 87.1622C124.037 86.8094 124.171 86.4053 124.229 85.9968C124.26 85.784 124.275 85.5668 124.262 85.3521C124.25 85.1292 124.212 84.9075 124.186 84.6852C124.138 84.2697 124.118 83.815 124.399 83.454C124.647 83.1367 125.094 82.9556 125.475 82.7858C125.841 82.6237 126.234 82.466 126.524 82.2063C126.664 82.0803 126.774 81.9308 126.835 81.763C126.908 81.5578 126.91 81.3349 126.891 81.1227C126.848 80.6414 126.665 80.1803 126.603 79.7021C126.573 79.4754 126.573 79.2423 126.634 79.0188C126.698 78.78 126.83 78.5628 127.003 78.3709C127.314 78.0289 127.757 77.8319 128.244 77.7496C128.71 77.671 129.191 77.6837 129.663 77.6989C130.028 77.7103 130.396 77.7021 130.761 77.671C131.174 77.6362 131.593 77.5741 131.98 77.4392C132.266 77.3398 132.548 77.1891 132.7 76.9516C132.323 77.0263 131.94 77.0795 131.555 77.1067C130.794 77.1599 130.018 77.1232 129.273 76.9712C128.955 76.906 128.652 76.8217 128.39 76.6482C128.163 76.4987 127.976 76.3087 127.775 76.1346C127.318 76.5982 126.692 76.918 126.019 77.077ZM137.782 69.0178C137.118 69.8658 136.553 70.7956 136.249 71.7905C135.982 72.662 135.97 73.5398 136.202 74.4182C136.415 75.2257 136.785 75.9933 137.125 76.7654C137.465 77.5387 137.781 78.3297 137.89 79.1562C137.947 79.5913 137.961 80.0378 137.834 80.464C137.696 80.9219 137.438 81.3418 137.268 81.7896C137.08 82.283 137.098 82.7706 137.176 83.2792C137.249 83.7555 137.342 84.2393 137.242 84.7188C137.142 85.195 136.847 85.6441 136.564 86.0545C136.263 86.4902 135.926 86.9057 135.592 87.3224C135.239 87.7632 134.885 88.2065 134.586 88.6777C134.28 89.1597 134.012 89.6632 133.746 90.1623C133.232 91.1287 132.766 92.1155 132.385 93.1275C133.123 92.2941 133.96 91.5309 134.826 90.7969C135.677 90.0742 136.556 89.3757 137.404 88.6492C137.821 88.2914 138.231 87.9272 138.624 87.5504C139.02 87.1717 139.384 86.7701 139.787 86.3977C140.107 86.1026 140.443 85.8227 140.789 85.5541C139.464 81.5641 140.64 76.3087 140.374 73.0293C140.203 70.907 140.051 68.7423 139.785 66.9189C139.049 67.5656 138.371 68.2654 137.782 69.0178ZM144.378 89.8367C143.204 89.2338 142.344 88.4314 141.718 87.4947C141.133 88.0102 140.569 88.5441 140.006 89.078C138.923 90.1053 137.832 91.1363 136.584 92.0173C136.282 92.2307 135.974 92.4391 135.643 92.6183C135.351 92.7767 135.051 92.923 134.753 93.0724C141.065 92.7146 147.31 91.3428 144.378 89.8367Z" fill="#F5B501"/>
<path d="M138.611 63.1162C138.611 63.1162 149.676 73.7632 149.287 80.2776C148.898 86.7927 133.112 94.5194 133.112 94.5194L131.623 92.919L143.306 80.4239C143.306 80.4239 136.509 73.6137 136.521 69.6218C136.533 65.6293 138.611 63.1162 138.611 63.1162Z" fill="#F4CABA"/>
<path opacity="0.35" d="M141.947 77.2406C141.488 76.8777 140.996 76.5445 140.591 76.1354C140.141 75.6819 139.809 75.1588 139.486 74.6332C139.166 74.1126 138.871 73.5805 138.606 73.0378C138.083 71.9719 137.673 70.8667 137.368 69.7387C137.127 68.8457 136.952 67.9413 136.827 67.0312C136.626 67.8833 136.524 68.7506 136.521 69.6203C136.511 73.2031 141.983 79.0538 143.106 80.2166C143.313 79.9284 143.5 78.4667 141.947 77.2406Z" fill="#E8AD80"/>
<path d="M135.248 62.7596L133.964 55.9912L130.144 56.2243L129.117 62.7558C129.117 62.7558 130.4 66.096 135.248 62.7596Z" fill="#F4CABA"/>
<path opacity="0.35" d="M129.587 61.19C129.682 61.0823 129.737 60.9531 129.788 60.8258C129.917 60.499 130.037 60.1728 130.33 59.9252C130.586 59.7086 130.915 59.5864 131.251 59.4907C131.629 59.3824 132.016 59.2944 132.376 59.1456C132.757 58.9885 133.104 58.7662 133.326 58.4495C133.517 58.1766 133.605 57.8637 133.649 57.5489C133.719 57.0366 133.692 56.5179 133.741 56.0049L130.144 56.224L129.332 61.385C129.428 61.3325 129.517 61.2698 129.587 61.19Z" fill="#E8AD80"/>
<path d="M137.361 54.2809C137.097 52.5272 135.301 53.0326 135.301 53.0326C135.301 53.0326 133.372 47.1692 130.22 48.1521C128.362 48.7316 126.902 51.852 126.415 54.6577C126.164 55.0605 125.824 55.5849 125.63 55.7958C125.401 56.0453 125.905 56.1752 126.245 56.2322C126.2 57.5292 126.43 58.6059 127.009 59.098C128.96 60.7567 133.896 57.7528 134.886 56.0916C134.886 56.0916 137.626 56.0346 137.361 54.2809Z" fill="#F4CABA"/>
<path d="M135.548 52.9851C137.274 52.6254 136.867 48.5917 133.098 47.2009C130.809 46.3566 127.17 45.7949 127.822 49.3586C128.042 50.5588 130.709 53.994 135.548 52.9851Z" fill="#47271F"/>
<path d="M129.78 97.8343C129.577 97.5411 130.729 96.389 130.729 96.389C130.729 96.389 128.56 97.9679 128.361 97.6291C128.163 97.2903 130.008 95.8792 130.008 95.8792C130.008 95.8792 127.57 97.543 127.168 97.3264C126.767 97.1098 129.473 95.3611 129.473 95.3611C129.473 95.3611 126.861 96.522 126.641 96.1978C126.422 95.8735 129.064 94.7094 129.548 94.3674C129.862 94.1451 129.858 93.8145 129.433 93.8234C129.008 93.8323 128.384 93.3408 128.507 93.0875C128.628 92.8341 129.877 93.3889 130.326 93.1755C130.775 92.9621 131.363 92.824 131.623 92.9184C132.304 92.9678 135.206 90.6973 135.206 90.6973C135.353 90.8018 136.163 91.4592 136.513 92.0868L133.189 94.2522C133.189 94.2522 133.057 94.9298 132.543 95.4815C132.028 96.0331 129.984 98.1282 129.78 97.8343Z" fill="#F4CABA"/>
<g opacity="0.2">
<path d="M128.565 93.0728C128.646 93.0215 128.819 93.069 128.889 93.0905C128.889 93.0905 128.919 93.2178 128.83 93.2147C128.741 93.2109 128.484 93.1241 128.565 93.0728ZM126.677 96.1761C126.649 96.0894 126.911 95.919 126.948 95.9215C126.948 95.9215 127.067 96.1286 127.068 96.1717C127.07 96.2148 126.705 96.2629 126.677 96.1761ZM127.237 97.2686C127.183 97.1914 127.383 96.9659 127.419 96.9602C127.419 96.9602 127.597 97.1318 127.612 97.173C127.627 97.2142 127.29 97.3459 127.237 97.2686ZM128.466 97.5758C128.408 97.5011 128.596 97.268 128.632 97.2604C128.632 97.2604 128.819 97.4251 128.835 97.4656C128.853 97.5061 128.524 97.6505 128.466 97.5758ZM129.837 97.7842C129.783 97.7259 129.917 97.5201 129.947 97.5112C129.947 97.5112 130.116 97.6353 130.133 97.6676C130.152 97.7012 129.892 97.8424 129.837 97.7842Z" fill="white"/>
</g>
<path opacity="0.25" d="M127.319 54.6805C127.164 55.1035 127.434 55.5551 127.921 55.6894C128.408 55.8236 128.929 55.5893 129.084 55.1669C129.238 54.7438 128.968 54.2922 128.481 54.158C127.994 54.0237 127.473 54.258 127.319 54.6805Z" fill="#E8AD80"/>
<path d="M129.837 52.776C128.684 52.2656 127.846 52.3916 127.725 52.2415C127.605 52.0914 128.512 51.9077 129.184 52.2453C129.857 52.5822 130.06 52.8742 129.837 52.776ZM126.377 57.0346C127.48 57.6217 128.135 56.9503 128.241 57.1087C128.348 57.2664 127.62 57.9903 126.98 57.6084C126.339 57.2258 126.164 56.9212 126.377 57.0346ZM128.397 57.1555C128.342 56.8243 128.04 56.8218 128.062 56.7705C128.083 56.7192 128.413 56.7268 128.434 56.9269C128.454 57.1264 128.407 57.2195 128.397 57.1555ZM127.787 54.1193C127.242 53.9692 127.137 53.6437 127.133 53.6279C127.121 53.5905 127.148 53.5519 127.191 53.5417C127.234 53.5316 127.279 53.5544 127.291 53.5924C127.295 53.6063 127.411 53.9452 128.076 54.0326C128.727 54.1181 128.899 53.5658 128.905 53.5424C128.916 53.505 128.961 53.4822 129.004 53.4917C129.046 53.4999 129.073 53.5392 129.062 53.5772C129.06 53.5842 128.849 54.277 128.051 54.1725C127.954 54.1586 127.865 54.1409 127.787 54.1193Z" fill="#47271F"/>
<path d="M128.975 54.3037C128.962 54.2999 128.95 54.2935 128.94 54.284L128.634 53.9952C128.627 53.9885 128.621 53.9805 128.618 53.9718C128.614 53.9631 128.612 53.9538 128.613 53.9446C128.613 53.9353 128.616 53.9262 128.62 53.9179C128.625 53.9095 128.631 53.902 128.639 53.8958C128.672 53.8692 128.724 53.8717 128.754 53.9002L129.06 54.189C129.067 54.1958 129.073 54.2038 129.076 54.2125C129.08 54.2212 129.082 54.2304 129.081 54.2397C129.081 54.2489 129.078 54.258 129.074 54.2664C129.069 54.2748 129.063 54.2823 129.055 54.2885C129.032 54.3062 129.001 54.3113 128.975 54.3037ZM128.41 54.5931C128.383 54.5855 128.361 54.5659 128.355 54.5399L128.261 54.1333C128.252 54.0953 128.281 54.0579 128.325 54.0503C128.369 54.0427 128.412 54.0674 128.42 54.1054L128.515 54.512C128.517 54.5241 128.516 54.5365 128.512 54.5481C128.507 54.5598 128.499 54.5702 128.489 54.5784C128.478 54.5866 128.466 54.5922 128.452 54.5948C128.438 54.5974 128.424 54.5968 128.41 54.5931ZM127.608 54.5013C127.597 54.4982 127.586 54.493 127.578 54.486C127.569 54.4791 127.562 54.4706 127.557 54.4611C127.553 54.4517 127.551 54.4414 127.551 54.4312C127.552 54.4209 127.555 54.4109 127.56 54.4018L127.774 54.0389C127.779 54.0304 127.785 54.0227 127.794 54.0164C127.802 54.0101 127.811 54.0052 127.821 54.0022C127.832 53.9991 127.843 53.9979 127.854 53.9985C127.864 53.9992 127.875 54.0018 127.885 54.006C127.894 54.0103 127.903 54.0163 127.91 54.0235C127.917 54.0308 127.922 54.0392 127.925 54.0482C127.929 54.0572 127.93 54.0667 127.929 54.0761C127.927 54.0855 127.924 54.0946 127.919 54.1029L127.705 54.4658C127.686 54.4968 127.644 54.5114 127.608 54.5013ZM136.317 53.5088C136.341 53.5082 136.364 53.5158 136.382 53.5297C137.05 54.0668 136.505 54.6235 136.499 54.6292C136.483 54.6457 136.459 54.6552 136.434 54.6564C136.411 54.6571 136.389 54.6501 136.371 54.6368C136.334 54.6083 136.33 54.5589 136.363 54.526C136.381 54.5082 136.799 54.0801 136.258 53.645C136.241 53.6311 136.231 53.6114 136.229 53.5905C136.229 53.5802 136.231 53.5698 136.235 53.5601C136.239 53.5504 136.245 53.5415 136.253 53.5339C136.262 53.5263 136.271 53.5202 136.282 53.5159C136.293 53.5116 136.305 53.5092 136.317 53.5088Z" fill="#47271F"/>
<path d="M129.544 47.0482C131.839 46.9652 135.533 47.5118 135.762 52.9179C135.762 52.9179 138.542 48.1768 133.444 46.5991C128.644 45.114 127.638 48.4795 127.638 48.4795C127.638 48.4795 128.707 47.0779 129.544 47.0482Z" fill="#F5B501"/>
<path d="M135.886 51.5234C135.886 51.5234 136.85 52.0953 135.768 52.9187C135.768 52.9187 135.129 52.0706 135.886 51.5234Z" fill="white"/>
<path d="M137.259 52.6366C137.259 52.6366 136.881 53.6341 135.75 52.8874C135.75 52.8874 136.498 52.1065 137.259 52.6366Z" fill="white"/>
<path d="M136.69 54.0203C136.69 54.0203 135.543 54.1432 135.806 52.8848C135.806 52.8848 136.895 53.1622 136.69 54.0203Z" fill="white"/>
<path d="M134.846 53.9256C134.846 53.9256 134.448 52.9402 135.849 52.8604C135.848 52.8604 135.806 53.8927 134.846 53.9256Z" fill="white"/>
<path d="M134.345 52.3987C134.345 52.3987 135.232 51.7185 135.773 52.8952C135.773 52.8952 134.692 53.2138 134.345 52.3987Z" fill="white"/>
<path d="M135.841 52.8357C136.138 52.5051 135.868 52.2207 135.868 52.2207C135.622 52.4227 135.72 52.7768 135.755 52.88C135.499 52.436 135.071 52.6115 135.071 52.6115C135.201 52.8661 135.564 52.8952 135.706 52.8965C135.288 53.0124 135.316 53.3702 135.316 53.3702C135.593 53.3442 135.746 53.096 135.809 52.9585C135.789 53.412 136.217 53.4753 136.217 53.4753C136.258 53.2328 136.049 53.0447 135.917 52.9522C136.299 53.0763 136.514 52.7958 136.514 52.7958C136.279 52.6545 135.983 52.7654 135.841 52.8357Z" fill="#F5B501"/>
<path d="M135.914 52.8712C135.922 52.9276 135.879 52.9802 135.817 52.9884C135.756 52.9966 135.698 52.958 135.69 52.9016C135.681 52.8453 135.724 52.7927 135.786 52.7845C135.848 52.7756 135.906 52.8149 135.914 52.8712Z" fill="#F26522"/>
<path d="M129.195 61.9658C129.195 61.9658 127.87 63.6651 129.33 64.446C131.499 65.6056 135.133 62.1527 135.133 62.1527C135.133 62.1527 131.889 66.0508 129.277 64.9786C126.619 63.8867 129.195 61.9658 129.195 61.9658Z" fill="#F5B501"/>
<path d="M129.654 65.1684C129.648 65.2306 129.628 65.2912 129.595 65.3466C129.561 65.402 129.516 65.4512 129.461 65.4914C129.406 65.5316 129.342 65.5619 129.274 65.5807C129.205 65.5995 129.133 65.6064 129.061 65.601C128.99 65.5957 128.92 65.5782 128.856 65.5495C128.792 65.5207 128.735 65.4814 128.689 65.4336C128.643 65.3858 128.608 65.3306 128.586 65.2711C128.564 65.2115 128.556 65.1489 128.563 65.0867C128.569 65.0245 128.589 64.964 128.622 64.9086C128.655 64.8531 128.701 64.8039 128.756 64.7637C128.811 64.7236 128.874 64.6932 128.943 64.6744C129.012 64.6556 129.084 64.6487 129.155 64.6541C129.457 64.6769 129.68 64.9075 129.654 65.1684Z" fill="#F5B501"/>
<path opacity="0.5" d="M129.471 65.263C129.333 65.3226 129.208 65.3048 129.088 65.2263C128.975 65.1516 128.857 65.0984 128.71 65.0996C128.614 65.1003 128.584 65.1623 128.577 65.2326C128.628 65.429 128.819 65.5835 129.062 65.6012C129.363 65.6234 129.628 65.4302 129.655 65.1687C129.655 65.1623 129.654 65.156 129.655 65.1497C129.598 65.194 129.539 65.2333 129.471 65.263Z" fill="#F5B501"/>
<path d="M52.0584 42.0859C50.4794 43.1714 48.8055 43.1226 47.4448 42.932C47.6251 42.7718 47.8062 42.6115 47.9879 42.4526C47.8398 42.2949 47.6908 42.1378 47.5412 41.9807C47.5434 41.9744 49.8626 42.2943 50.7408 41.7812C50.8335 41.8997 50.9255 42.0181 51.0174 42.1365C51.0182 42.1365 51.4854 42.2366 52.0584 42.0859Z" fill="#FFCA03"/>
<path d="M32.6398 49.7129C32.6368 49.7122 31.8959 50.6914 31.9798 50.9612C31.866 50.9162 31.7514 50.8706 31.6368 50.8263C31.5419 50.837 31.447 50.8484 31.3521 50.8598C31.3521 50.8598 31.5258 50.0707 31.9178 49.5254C32.012 49.5824 32.1061 49.64 32.2003 49.6977C32.347 49.7021 32.493 49.7078 32.6398 49.7129Z" fill="#F9D980"/>
<path d="M44.1035 46.6504C44.1028 46.6504 44.9985 46.7055 45.8241 47.1305C45.7307 47.209 45.6373 47.2869 45.5446 47.3661L45.6365 47.6891C45.638 47.6865 44.243 47.3547 43.7838 47.3857C43.7451 47.2502 43.7057 47.114 43.667 46.9785C43.8123 46.8689 43.9575 46.7593 44.1035 46.6504Z" fill="#FFCA03"/>
<path d="M54.0587 48.0519C54.0594 48.0519 53.4754 47.6263 52.7067 47.4021L52.7352 47.6668C52.6542 47.682 52.5731 47.6979 52.4921 47.7137C52.4921 47.7131 53.1301 47.8575 53.5411 48.1437C53.563 48.0981 53.5849 48.0525 53.6076 48.0069C53.7572 48.0221 53.9083 48.0367 54.0587 48.0519ZM34.5531 40.1333C34.5604 40.1238 37.2629 40.9864 37.6359 41.0726C37.4278 41.0954 37.2205 41.1188 37.0132 41.1429C37.0935 41.2607 37.1731 41.3791 37.2519 41.4969C37.2585 41.4868 34.4049 40.7432 34.0728 40.7084C34.2107 40.6381 34.3494 40.5684 34.4881 40.4988C34.51 40.3772 34.5319 40.2549 34.5531 40.1333ZM97.0039 69.976C98.5084 69.1185 99.8034 69.2629 100.76 69.5314C100.568 69.6473 100.375 69.7638 100.184 69.881C100.241 70.021 100.298 70.1609 100.354 70.3015C100.356 70.2996 98.7194 69.8753 97.9025 70.273C97.8696 70.1717 97.8361 70.0704 97.8025 69.969C97.8025 69.9684 97.4791 69.8664 97.0039 69.976ZM115.433 66.9423C115.431 66.9411 116.605 66.4433 116.709 66.2235C116.771 66.2913 116.833 66.3597 116.895 66.4274L117.139 66.492C117.138 66.492 116.508 67.0082 115.876 67.2919C115.839 67.2223 115.801 67.152 115.763 67.0823C115.654 67.0354 115.544 66.9886 115.433 66.9423ZM104.781 66.8771C104.781 66.8771 104.09 66.7124 103.579 66.2735C103.686 66.221 103.792 66.1684 103.898 66.1158C103.915 66.0253 103.931 65.9341 103.948 65.8435C103.948 65.8429 104.961 66.2868 105.343 66.3305L105.268 66.6738C105.105 66.7416 104.943 66.8093 104.781 66.8771ZM97.0185 64.9885C97.0185 64.9885 97.4039 65.3476 97.9813 65.5553L98.0295 65.3349C98.1018 65.3242 98.174 65.314 98.2463 65.3039C98.2463 65.3039 97.7521 65.1652 97.4791 64.9207C97.4484 64.9581 97.4185 64.9955 97.3878 65.0328C97.2652 65.0176 97.1418 65.0031 97.0185 64.9885ZM108.72 73.6829C108.725 73.681 107.339 72.4707 107.106 72.3434C107.261 72.3637 107.415 72.3846 107.57 72.4061L107.579 72.0844C107.584 72.0818 109.152 73.2364 109.337 73.346L108.952 73.4163C108.874 73.5049 108.796 73.5936 108.72 73.6829ZM128.127 36.593C131.87 36.6437 133.119 37.771 133.715 38.7634C133.228 38.7577 132.741 38.7546 132.254 38.7539C132.023 38.9585 131.793 39.1631 131.566 39.3683C131.569 39.3702 130.463 37.6956 128.59 37.5899C128.768 37.4442 128.949 37.2992 129.129 37.1535C129.128 37.1541 128.955 36.8007 128.127 36.593ZM156.654 46.9961C156.657 46.9904 159.032 47.4433 159.605 47.335C159.535 47.4433 159.466 47.5509 159.396 47.6592C159.444 47.7409 159.493 47.8233 159.542 47.905C159.542 47.9031 157.76 47.8752 156.451 47.6573C156.55 47.5642 156.649 47.4711 156.749 47.378C156.718 47.2507 156.686 47.1234 156.654 46.9961ZM144.333 38.8432C144.334 38.8432 143.875 38.1535 144.26 37.3207C144.504 37.3479 144.747 37.3752 144.989 37.4037C145.212 37.3245 145.436 37.2466 145.661 37.1681C145.661 37.1681 145.847 38.3809 146.201 38.7147C145.918 38.8103 145.636 38.9059 145.354 39.0028C145.014 38.949 144.674 38.8958 144.333 38.8432ZM139.635 31.0127C139.634 31.0127 139.212 31.6802 139.393 32.3357C139.585 32.2711 139.778 32.2072 139.971 32.1432C140.079 32.1875 140.187 32.2312 140.295 32.2756C140.296 32.2756 140.053 31.755 140.327 31.2939L139.953 31.3395C139.848 31.2306 139.742 31.1216 139.635 31.0127ZM135.344 49.2255C135.339 49.2255 135.879 46.8391 135.849 46.5287C136.003 46.6611 136.157 46.7928 136.31 46.9258C136.52 46.803 136.73 46.6807 136.942 46.5591C136.939 46.5591 136.704 48.9968 136.749 49.254C136.544 49.1919 136.339 49.1305 136.133 49.0697C135.87 49.121 135.606 49.1729 135.344 49.2255Z" fill="#F9D980"/>
<path d="M30.3452 69.3008C34.0879 69.3514 35.337 70.4788 35.9326 71.4712C35.4457 71.4655 34.9588 71.4623 34.4719 71.4617C34.2412 71.6663 34.0113 71.8709 33.7835 72.0761C33.7864 72.078 32.6805 70.4034 30.8073 70.2976C30.9862 70.152 31.1665 70.0069 31.3468 69.8613C31.346 69.8619 31.1716 69.5085 30.3452 69.3008Z" fill="#FFCA03"/>
<path d="M58.8717 79.7048C58.8739 79.6991 61.2493 80.1519 61.8224 80.0442C61.7523 80.1525 61.683 80.2602 61.6129 80.3685C61.6618 80.4502 61.7107 80.5325 61.7596 80.6142C61.7589 80.6123 59.9769 80.5845 58.6681 80.366C58.7673 80.2729 58.8666 80.1798 58.9666 80.0867C58.9352 79.9594 58.9038 79.8321 58.8717 79.7048ZM46.5501 71.5519C46.5515 71.5519 46.0923 70.8622 46.4778 70.0293C46.7209 70.0566 46.9632 70.0838 47.2063 70.1123C47.4297 70.0331 47.6531 69.9552 47.8779 69.8767C47.8779 69.8767 48.0648 71.0895 48.4181 71.4233C48.1356 71.5189 47.8531 71.6146 47.5713 71.7115C47.2319 71.6576 46.891 71.6038 46.5501 71.5519ZM41.8532 63.7207C41.8525 63.7207 41.4306 64.3882 41.6109 65.0437C41.8036 64.9791 41.9963 64.9152 42.189 64.8512C42.2971 64.8955 42.4051 64.9392 42.5132 64.9836C42.5139 64.9836 42.2708 64.463 42.5453 64.0019L42.1715 64.0475C42.0657 63.9392 41.9591 63.8296 41.8532 63.7207ZM37.5616 81.9341C37.5564 81.9341 38.0959 79.5477 38.0667 79.238C38.2208 79.3697 38.3741 79.5021 38.5274 79.6345C38.7376 79.5116 38.9478 79.3894 39.1595 79.2678C39.1566 79.2678 38.9215 81.7055 38.9668 81.9626C38.7617 81.9005 38.5565 81.8391 38.3507 81.7783C38.0872 81.8296 37.8244 81.8815 37.5616 81.9341Z" fill="#F9D980"/>
<path d="M158.243 84.8873C157.439 82.8517 158.543 81.6788 159.752 80.9131C159.878 81.1785 160.003 81.4445 160.128 81.7105C160.466 81.7478 160.802 81.7871 161.138 81.827C161.13 81.8226 159.16 83.1405 159.453 84.2083C159.219 84.1722 158.986 84.1368 158.751 84.1019C158.752 84.1013 158.327 84.3502 158.243 84.8873Z" fill="#FFCA03"/>
<path d="M162.349 64.7947C162.35 64.7947 161.676 63.3431 161.151 63.1208C161.358 63.0961 161.564 63.072 161.771 63.0479L162.058 62.8408C162.059 62.8402 163.082 63.7592 163.469 64.5565C163.272 64.5527 163.075 64.5496 162.877 64.5464C162.701 64.6287 162.525 64.7117 162.349 64.7947ZM156.276 75.3251C156.275 75.3257 155.489 75.9135 154.179 76.1788C154.119 76.0452 154.058 75.9116 153.997 75.7779C153.795 75.7127 153.593 75.6481 153.39 75.5841C153.387 75.5816 155.001 74.8191 155.323 74.4657C155.578 74.5531 155.832 74.6411 156.086 74.7298C156.149 74.928 156.213 75.1262 156.276 75.3251ZM147.499 81.9878C147.499 81.9871 148.518 81.7845 149.315 81.3221C149.16 81.2689 149.005 81.2157 148.85 81.1625C148.867 81.0859 148.886 81.0099 148.904 80.9333C148.903 80.9333 148.31 81.35 147.607 81.5001L147.807 81.6445C147.703 81.7591 147.601 81.8731 147.499 81.9878Z" fill="#F9D980"/>
<path d="M174.202 76.1346C174.198 76.1207 170.562 76.5292 170.125 76.6698C170.276 76.5336 170.428 76.3975 170.581 76.2613C170.346 76.1764 170.11 76.0928 169.873 76.0092C169.867 75.9953 173.513 75.3442 173.891 75.2568C173.853 75.4019 173.815 75.5469 173.776 75.6919C173.919 75.8395 174.061 75.9871 174.202 76.1346ZM65.7827 98.2576C65.2476 100.372 63.6453 101.103 62.2247 101.5C62.2568 101.217 62.2904 100.933 62.324 100.65C62.0531 100.524 61.7808 100.398 61.5078 100.274C61.5049 100.267 63.9307 99.5724 64.303 98.5116C64.4906 98.6142 64.6767 98.7174 64.8629 98.8206C64.8629 98.8213 65.3812 98.7225 65.7827 98.2576Z" fill="#FFCA03"/>
<path d="M53.864 116.435C53.8618 116.435 53.9151 117.961 54.1903 118.267C54.0516 118.255 53.9129 118.244 53.7742 118.234C53.6947 118.286 53.6158 118.338 53.537 118.389C53.5377 118.389 53.1092 117.331 53.0537 116.491C53.1844 116.525 53.3151 116.559 53.4457 116.593L53.864 116.435ZM62.1408 107.681C62.1393 107.682 63.016 107.346 64.1147 107.503C64.0884 107.644 64.0628 107.786 64.0373 107.927C64.149 108.048 64.2607 108.17 64.3716 108.292C64.3716 108.288 62.8197 108.504 62.4167 108.749C62.2758 108.596 62.1342 108.442 61.9918 108.29C62.0407 108.086 62.0904 107.884 62.1408 107.681ZM72.4761 104.783C72.4768 104.783 71.6067 104.528 70.719 104.615C70.7964 104.722 70.8737 104.829 70.9504 104.936C70.8869 104.994 70.8234 105.053 70.7606 105.112C70.7599 105.112 71.4643 104.987 72.0658 105.15C72.0512 105.082 72.0374 105.013 72.0228 104.946C72.1731 104.891 72.325 104.837 72.4761 104.783ZM47.7568 103.835C47.7598 103.822 51.063 103.699 51.4842 103.638C51.3097 103.758 51.1353 103.877 50.9615 103.996C51.1397 104.105 51.317 104.215 51.4937 104.325C51.4944 104.311 48.162 104.639 47.8145 104.737C47.8831 104.594 47.9517 104.449 48.0211 104.305C47.9333 104.149 47.8452 103.992 47.7568 103.835ZM94.7666 80.651C94.2308 82.7657 92.6292 83.4966 91.2086 83.8937C91.2407 83.6106 91.2743 83.3268 91.3079 83.0437C91.0371 82.9171 90.7648 82.7917 90.4918 82.6669C90.4888 82.6599 92.9146 81.9658 93.2869 80.905C93.4745 81.0076 93.6607 81.1108 93.8468 81.214C93.8476 81.214 94.3659 81.1152 94.7666 80.651ZM82.8479 98.8277C82.8465 98.8283 82.899 100.354 83.1742 100.659C83.0355 100.648 82.8968 100.637 82.7581 100.626C82.6786 100.678 82.5997 100.73 82.5209 100.782C82.5216 100.782 82.0931 99.7232 82.0376 98.884C82.1683 98.9176 82.299 98.9518 82.4296 98.9854L82.8479 98.8277ZM91.1247 90.0737C91.1232 90.0744 91.9999 89.7387 93.0986 89.8958C93.0723 90.037 93.0468 90.1782 93.0212 90.3195C93.1329 90.4411 93.2446 90.5627 93.3556 90.6843C93.3548 90.6817 91.8036 90.8971 91.4006 91.1415C91.2597 90.9883 91.1181 90.8356 90.9758 90.6824C91.0247 90.4797 91.0743 90.2764 91.1247 90.0737ZM101.461 87.1756C101.461 87.1756 100.591 86.921 99.7036 87.0078C99.781 87.1148 99.8584 87.2218 99.935 87.3289C99.8715 87.3878 99.808 87.446 99.7452 87.5049C99.7445 87.5049 100.449 87.3802 101.05 87.5429C101.036 87.4745 101.022 87.4061 101.007 87.3377C101.158 87.2839 101.309 87.2294 101.461 87.1756ZM76.7408 86.2288C76.7437 86.2155 80.0469 86.092 80.4681 86.0318C80.2929 86.1509 80.1192 86.2699 79.9455 86.3896C80.1236 86.4986 80.301 86.6081 80.4776 86.7183C80.4784 86.7044 77.1459 87.0325 76.7992 87.1306C76.8678 86.9869 76.9364 86.8425 77.0057 86.6987C76.9174 86.5416 76.8291 86.3852 76.7408 86.2288ZM183.061 88.5696C181.959 90.5202 180.137 90.9085 178.59 91.0098C178.698 90.74 178.806 90.4708 178.916 90.2017C178.674 90.0243 178.431 89.8476 178.187 89.6716C178.186 89.664 180.833 89.4759 181.491 88.5183C181.653 88.6557 181.816 88.7938 181.978 88.9325C181.978 88.9318 182.531 88.9401 183.061 88.5696ZM166.099 103.887C166.096 103.887 165.737 105.383 165.934 105.735L165.52 105.621C165.426 105.656 165.331 105.69 165.237 105.725C165.238 105.725 165.09 104.609 165.261 103.782C165.385 103.84 165.508 103.899 165.631 103.958C165.787 103.934 165.943 103.91 166.099 103.887ZM176.863 97.0094C176.862 97.0094 177.843 96.8586 178.921 97.2329C178.857 97.3653 178.793 97.4977 178.73 97.63C178.812 97.7706 178.893 97.9119 178.974 98.0525C178.974 98.0493 177.336 97.9467 176.861 98.1038C176.758 97.9264 176.654 97.7491 176.55 97.5718C176.654 97.3843 176.758 97.1968 176.863 97.0094ZM188.171 96.2893C188.172 96.2893 187.349 95.8618 186.419 95.7649C186.47 95.8852 186.521 96.0049 186.571 96.1252C186.491 96.1696 186.412 96.2133 186.331 96.2576C186.331 96.257 187.083 96.2798 187.655 96.5629C187.658 96.4932 187.661 96.4242 187.664 96.3545C187.833 96.3317 188.002 96.3102 188.171 96.2893ZM163.33 90.4145C163.335 90.4018 166.699 90.9306 167.141 90.956C166.932 91.037 166.725 91.1187 166.518 91.2011C166.668 91.3423 166.818 91.4842 166.967 91.626C166.97 91.6121 163.52 91.2764 163.145 91.3043C163.253 91.1776 163.361 91.051 163.47 90.9243C163.424 90.7539 163.377 90.5842 163.33 90.4145ZM74.3493 55.4678C72.6265 54.8946 72.3257 54.1093 72.3228 53.4455C72.5637 53.5089 72.8046 53.5728 73.0448 53.6368C73.2207 53.5481 73.3966 53.4595 73.5733 53.3708C73.5726 53.3714 73.6039 54.488 74.4507 54.8243C74.3201 54.8819 74.1887 54.9396 74.058 54.9972C74.0573 54.9978 74.0303 55.2258 74.3493 55.4678ZM61.2523 47.0926C61.2538 47.0907 59.8332 46.8538 59.4587 46.9456C59.5149 46.8766 59.5712 46.8076 59.6274 46.7392C59.6062 46.6898 59.585 46.641 59.5639 46.5916C59.5639 46.591 60.6851 46.5568 61.4728 46.6828L61.2465 46.8582C61.2494 46.9361 61.2509 47.014 61.2523 47.0926ZM66.8573 52.4132C66.858 52.4132 66.9456 52.8591 66.5631 53.3398C66.4426 53.3087 66.3215 53.2783 66.2003 53.2473C66.0667 53.2828 65.9331 53.3182 65.8002 53.3543C65.7995 53.3543 65.9528 52.607 65.8324 52.3866C66.0032 52.3429 66.1747 52.2992 66.3463 52.2561C66.5171 52.3087 66.6872 52.3606 66.8573 52.4132ZM67.4625 57.4678C67.4625 57.4678 67.8099 57.0992 67.8756 56.6914L67.5566 56.7617L67.4318 56.6572C67.4318 56.6572 67.4296 56.9884 67.1989 57.2462C67.261 57.2462 67.323 57.2462 67.3851 57.2468C67.4114 57.3196 67.4369 57.3937 67.4625 57.4678ZM74.7201 47.1223C74.7157 47.1211 73.6324 48.4403 73.558 48.6278C73.5127 48.5309 73.4682 48.434 73.4229 48.3371C73.2652 48.3827 73.1075 48.4283 72.9506 48.4739C72.9469 48.4732 73.8463 47.0729 73.9084 46.9178C74.0091 46.9805 74.1091 47.0432 74.2091 47.1065C74.3799 47.1109 74.55 47.1166 74.7201 47.1223Z" fill="#F9D980"/>
<path d="M175.12 141.347C174.419 141.347 174.061 140.991 173.746 140.678C173.441 140.376 173.179 140.115 172.639 140.115C172.1 140.115 171.837 140.376 171.532 140.678C171.217 140.991 170.859 141.347 170.159 141.347C169.458 141.347 169.1 140.991 168.785 140.678C168.48 140.376 168.217 140.115 167.679 140.115C167.139 140.115 166.876 140.376 166.573 140.678C166.257 140.991 165.9 141.347 165.2 141.347C164.499 141.347 164.142 140.991 163.826 140.678C163.521 140.376 163.259 140.115 162.72 140.115C162.622 140.115 162.542 140.046 162.542 139.961C162.542 139.876 162.622 139.807 162.72 139.807C163.421 139.807 163.778 140.162 164.094 140.476C164.398 140.778 164.661 141.039 165.2 141.039C165.739 141.039 166.002 140.778 166.306 140.476C166.621 140.162 166.979 139.807 167.679 139.807C168.38 139.807 168.737 140.162 169.053 140.476C169.358 140.778 169.621 141.039 170.159 141.039C170.699 141.039 170.962 140.778 171.266 140.476C171.581 140.162 171.939 139.807 172.64 139.807C173.341 139.807 173.698 140.162 174.014 140.476C174.318 140.778 174.581 141.039 175.12 141.039C175.218 141.039 175.298 141.108 175.298 141.193C175.297 141.234 175.279 141.273 175.245 141.302C175.212 141.33 175.167 141.347 175.12 141.347ZM175.12 143.392C174.419 143.392 174.061 143.036 173.746 142.723C173.441 142.421 173.179 142.16 172.639 142.16C172.1 142.16 171.837 142.421 171.532 142.723C171.217 143.036 170.859 143.392 170.159 143.392C169.458 143.392 169.1 143.036 168.785 142.723C168.48 142.421 168.217 142.16 167.679 142.16C167.139 142.16 166.876 142.421 166.573 142.723C166.257 143.036 165.9 143.392 165.2 143.392C164.499 143.392 164.142 143.036 163.826 142.723C163.521 142.421 163.259 142.16 162.72 142.16C162.622 142.16 162.542 142.091 162.542 142.006C162.542 141.921 162.622 141.852 162.72 141.852C163.421 141.852 163.778 142.207 164.094 142.521C164.398 142.823 164.661 143.084 165.2 143.084C165.739 143.084 166.002 142.823 166.306 142.521C166.621 142.207 166.979 141.852 167.679 141.852C168.38 141.852 168.737 142.207 169.053 142.521C169.358 142.823 169.621 143.084 170.159 143.084C170.699 143.084 170.962 142.823 171.266 142.521C171.581 142.207 171.939 141.852 172.64 141.852C173.341 141.852 173.698 142.207 174.014 142.521C174.318 142.823 174.581 143.084 175.12 143.084C175.218 143.084 175.298 143.153 175.298 143.238C175.297 143.279 175.279 143.318 175.245 143.347C175.212 143.375 175.167 143.392 175.12 143.392ZM167.644 35.1399C167.644 35.7479 167.234 36.0582 166.873 36.3318C166.525 36.5959 166.224 36.8239 166.224 37.292C166.224 37.76 166.525 37.988 166.873 38.2521C167.234 38.5257 167.644 38.836 167.644 39.444C167.644 40.052 167.234 40.3617 166.873 40.6359C166.525 40.9 166.224 41.1281 166.224 41.5955C166.224 42.0629 166.525 42.2915 166.873 42.5549C167.234 42.8285 167.644 43.1389 167.644 43.7462C167.644 44.3542 167.234 44.6639 166.873 44.9382C166.525 45.2023 166.224 45.4303 166.224 45.8977C166.224 45.9826 166.144 46.0516 166.046 46.0516C165.949 46.0516 165.869 45.9826 165.869 45.8977C165.869 45.2897 166.279 44.9794 166.64 44.7058C166.988 44.4417 167.289 44.2136 167.289 43.7462C167.289 43.2782 166.988 43.0509 166.64 42.7868C166.279 42.5132 165.869 42.2028 165.869 41.5948C165.869 40.9868 166.279 40.6771 166.64 40.4029C166.988 40.1388 167.289 39.9108 167.289 39.4434C167.289 38.9753 166.988 38.7474 166.64 38.4833C166.279 38.2097 165.869 37.8993 165.869 37.2913C165.869 36.6833 166.279 36.373 166.64 36.0994C166.988 35.8353 167.289 35.6073 167.289 35.1393C167.289 35.0544 167.369 34.9854 167.466 34.9854C167.564 34.986 167.644 35.0544 167.644 35.1399Z" fill="#F5B501"/>
<path d="M69.9436 129.527L63.8255 125.027V134.026L69.9436 129.527ZM179.061 51.4469C175.691 51.4469 172.96 53.8187 172.96 56.7428C172.96 59.6669 175.691 62.0387 179.061 62.0387C182.434 62.0387 185.165 59.6669 185.165 56.7428C185.165 53.8187 182.434 51.4469 179.061 51.4469ZM179.061 60.432C176.715 60.432 174.812 58.7783 174.812 56.7428C174.812 54.7047 176.715 53.0536 179.061 53.0536C181.41 53.0536 183.313 54.7047 183.313 56.7428C183.313 58.7783 181.41 60.432 179.061 60.432ZM167.118 63.2782L165.09 62.1654L164.841 64.0812L164.493 66.7767C164.163 66.645 163.726 66.5975 163.249 66.6684C162.257 66.8147 161.472 67.4088 161.497 67.9952C161.522 68.5817 162.346 68.9383 163.338 68.792C164.33 68.6457 165.114 68.0516 165.089 67.4651V63.9945L167.118 63.2782ZM115.979 50.9389L113.951 49.8262L113.703 51.742L113.354 54.4375C113.025 54.3057 112.587 54.2589 112.11 54.3292C111.118 54.4755 110.334 55.0695 110.359 55.656C110.383 56.2425 111.207 56.599 112.199 56.4527C113.191 56.3064 113.975 55.7124 113.95 55.1259V51.6552L115.979 50.9389ZM49.5087 104.366H45.1616L44.7543 106.261L44.1812 108.928C43.8636 108.775 43.4315 108.701 42.9497 108.741C41.9481 108.825 41.1167 109.368 41.0918 109.955C41.0678 110.541 41.8598 110.949 42.8606 110.865C43.8622 110.781 44.6937 110.238 44.7185 109.651L45.4894 104.934L49.5087 104.366Z" fill="#F9D980"/>
<path d="M49.3882 104.366L48.9808 106.261L48.4078 108.928C48.0902 108.775 47.6581 108.701 47.1763 108.741C46.1747 108.825 45.3432 109.368 45.3184 109.955C45.2943 110.541 46.0864 110.949 47.0879 110.865C48.0895 110.781 48.921 110.238 48.9458 109.651L49.3882 104.366ZM109.36 91.5742L105.153 92.5236L105.308 94.447L105.527 97.1526C105.176 97.0747 104.736 97.0969 104.282 97.2413C103.337 97.5409 102.69 98.2483 102.837 98.8214C102.983 99.394 103.868 99.6157 104.813 99.3161C105.757 99.0165 106.405 98.3091 106.259 97.7359L105.636 93.0024L109.36 91.5742Z" fill="#F9D980"/>
<path d="M109.244 91.6006L109.399 93.524L109.618 96.2296C109.267 96.1517 108.827 96.1739 108.373 96.3183C107.428 96.6179 106.781 97.3253 106.927 97.8985C107.074 98.471 107.959 98.6927 108.904 98.3931C109.848 98.0935 110.496 97.3861 110.349 96.8129L109.244 91.6006Z" fill="#F9D980"/>
<path d="M32.7698 138.125L76.4252 137.751C77.4735 137.742 78.332 138.472 78.3422 139.381L78.5663 159.077C78.5765 159.986 77.7356 160.731 76.6873 160.74L33.0318 161.114C31.9835 161.123 31.1251 160.393 31.1148 159.484L30.8907 139.788C30.8798 138.879 31.7215 138.134 32.7698 138.125Z" fill="#E8DDC5"/>
<path d="M48.967 139.417C48.9408 137.101 51.0913 135.198 53.7602 135.175L58.533 135.134C61.2026 135.111 63.3955 136.977 63.4225 139.292L63.451 141.78L48.9955 141.904L48.967 139.417ZM62.0304 139.305C62.0114 137.654 60.4485 136.325 58.5468 136.341L53.7741 136.382C51.8717 136.399 50.3402 137.754 50.3584 139.405L50.373 140.684L62.0443 140.584L62.0304 139.305Z" fill="#E8DDC5"/>
<path d="M34.4504 138.684L78.1059 138.31C79.1541 138.301 80.0126 139.03 80.0228 139.94L80.247 159.635C80.2572 160.545 79.4162 161.29 78.3679 161.298L34.7125 161.673C33.6642 161.682 32.8057 160.952 32.7955 160.042L32.5714 140.347C32.5612 139.438 33.4021 138.693 34.4504 138.684Z" fill="#F4EDE1"/>
<path d="M66.2098 139.161L77.5963 139.064C78.2956 139.058 78.868 139.544 78.8753 140.152L79.0892 158.913C79.0957 159.52 78.5344 160.016 77.835 160.022L66.4485 160.12C65.7491 160.126 65.1768 159.639 65.1695 159.032L64.9556 140.271C64.9491 139.663 65.5104 139.167 66.2098 139.161Z" fill="#E8DDC5"/>
<path d="M68.8639 145.089C68.8822 146.691 70.394 147.977 72.2402 147.962C74.0864 147.946 75.569 146.634 75.5507 145.032C75.5325 143.431 74.0207 142.144 72.1745 142.16C70.3283 142.176 68.8457 143.487 68.8639 145.089Z" fill="#F9F5ED"/>
<path d="M74.1163 145.044C74.1061 144.13 73.2425 143.396 72.1884 143.404C71.1343 143.413 70.2882 144.162 70.2984 145.077C70.3087 145.992 71.1722 146.726 72.2264 146.717C73.2805 146.707 74.1266 145.959 74.1163 145.044Z" fill="#E8DDC5"/>
<path d="M72.8272 157.532C75.8014 157.274 77.9717 154.973 77.6746 152.393C77.3774 149.813 74.7254 147.93 71.7511 148.188C68.7769 148.445 66.6066 150.746 66.9037 153.327C67.2009 155.907 69.8529 157.79 72.8272 157.532Z" fill="#F9F5ED"/>
<path d="M73.089 155.446C74.7394 155.069 75.7251 153.603 75.2906 152.171C74.8561 150.739 73.166 149.884 71.5156 150.261C69.8652 150.638 68.8796 152.104 69.314 153.536C69.7485 154.968 71.4386 155.823 73.089 155.446Z" fill="#E8DDC5"/>
<path d="M34.8641 139.43L46.2506 139.332C46.9499 139.326 47.5223 139.813 47.5296 140.42L47.7435 159.181C47.75 159.788 47.1894 160.285 46.4893 160.291L35.1028 160.389C34.4034 160.394 33.8311 159.907 33.8238 159.3L33.6099 140.539C33.6034 139.932 34.1647 139.435 34.8641 139.43Z" fill="#E8DDC5"/>
<path d="M37.5192 145.358C37.5375 146.96 39.0493 148.246 40.8955 148.23C42.7416 148.214 44.2243 146.903 44.206 145.301C44.1878 143.699 42.6759 142.413 40.8298 142.429C38.9829 142.445 37.501 143.756 37.5192 145.358Z" fill="#F9F5ED"/>
<path d="M42.7716 145.313C42.7614 144.398 41.8978 143.664 40.8437 143.673C39.7896 143.682 38.9435 144.431 38.9537 145.346C38.9639 146.26 39.8268 146.994 40.8816 146.985C41.9358 146.976 42.7818 146.227 42.7716 145.313Z" fill="#E8DDC5"/>
<path d="M41.7789 157.765C44.7329 157.369 46.7577 154.971 46.3013 152.408C45.8448 149.845 43.0801 148.088 40.1261 148.484C37.1721 148.88 35.1473 151.279 35.6038 153.842C36.0602 156.405 38.8249 158.161 41.7789 157.765Z" fill="#F9F5ED"/>
<path d="M43.834 154.084C44.4477 152.702 43.6543 151.151 42.0619 150.618C40.4694 150.086 38.681 150.774 38.0673 152.156C37.4536 153.537 38.247 155.089 39.8394 155.621C41.4319 156.154 43.2203 155.465 43.834 154.084Z" fill="#E8DDC5"/>
<path d="M64.4902 160.128L48.6186 160.266L48.5398 153.429L64.4114 153.291L64.4902 160.128Z" fill="#E8DDC5"/>
<path d="M62.1904 146.15L50.5973 146.25L50.518 139.288L62.1112 139.189L62.1904 146.15Z" fill="#FFCA03"/>
<path d="M54.0337 141.289L55.4331 140.303L55.8142 141.713L56.35 143.697C56.5821 143.574 56.9033 143.505 57.2669 143.521C58.0217 143.554 58.6677 143.937 58.7093 144.376C58.751 144.816 58.1728 145.145 57.4172 145.112C56.6624 145.079 56.0164 144.696 55.9748 144.257L55.62 141.667L54.0337 141.289Z" fill="#F9F5ED"/>
<path d="M63.8525 152.488L62.3568 152.501L62.2997 147.497L63.7954 147.484L63.8525 152.488Z" fill="#E8DDC5"/>
<path d="M61.6562 152.507L60.1605 152.52L60.1034 147.516L61.5991 147.503L61.6562 152.507Z" fill="#E8DDC5"/>
<path d="M59.4609 152.524L57.9652 152.537L57.9083 147.533L59.4041 147.52L59.4609 152.524Z" fill="#E8DDC5"/>
<path d="M57.2646 152.544L55.7689 152.557L55.7112 147.553L57.207 147.54L57.2646 152.544Z" fill="#E8DDC5"/>
<path d="M55.0654 152.563L53.5697 152.576L53.5126 147.572L55.0083 147.56L55.0654 152.563Z" fill="#E8DDC5"/>
<path d="M52.8691 152.582L51.3734 152.595L51.3163 147.591L52.812 147.578L52.8691 152.582Z" fill="#E8DDC5"/>
<path d="M50.6743 152.601L49.1785 152.614L49.1209 147.61L50.6166 147.597L50.6743 152.601Z" fill="#E8DDC5"/>
</svg>
