<svg width="32" height="32" viewBox="0 0 32 32" fill="none" xmlns="http://www.w3.org/2000/svg">
<g clip-path="url(#clip0_59_583)">
<path d="M22.4017 12.4805C21.9392 12.4805 21.4813 12.5716 21.054 12.7485C20.6268 12.9255 20.2385 13.1849 19.9115 13.5119C19.5845 13.8389 19.3251 14.2271 19.1481 14.6544C18.9712 15.0817 18.8801 15.5396 18.8801 16.0021C18.8801 16.4645 18.9712 16.9225 19.1481 17.3497C19.3251 17.777 19.5845 18.1652 19.9115 18.4922C20.2385 18.8192 20.6268 19.0786 21.054 19.2556C21.4813 19.4326 21.9392 19.5237 22.4017 19.5237C23.3357 19.5235 24.2313 19.1522 24.8916 18.4917C25.5519 17.8311 25.9227 16.9353 25.9225 16.0013C25.9223 15.0673 25.551 14.1716 24.8905 13.5114C24.2299 12.8511 23.3341 12.4803 22.4001 12.4805H22.4017ZM9.60168 12.4805C9.13921 12.4805 8.68128 12.5716 8.25402 12.7485C7.82676 12.9255 7.43854 13.1849 7.11153 13.5119C6.78452 13.8389 6.52512 14.2271 6.34814 14.6544C6.17117 15.0817 6.08008 15.5396 6.08008 16.0021C6.08008 16.4645 6.17117 16.9225 6.34814 17.3497C6.52512 17.777 6.78452 18.1652 7.11153 18.4922C7.43854 18.8192 7.82676 19.0786 8.25402 19.2556C8.68128 19.4326 9.13921 19.5237 9.60168 19.5237C10.5357 19.5235 11.4313 19.1522 12.0916 18.4917C12.7519 17.8311 13.1227 16.9353 13.1225 16.0013C13.1223 15.0673 12.751 14.1716 12.0905 13.5114C11.4299 12.8511 10.5341 12.4803 9.60008 12.4805H9.60168Z" fill="#699BF7"/>
<path d="M22.4017 24.4805C21.9392 24.4805 21.4813 24.5716 21.054 24.7485C20.6268 24.9255 20.2385 25.1849 19.9115 25.5119C19.5845 25.8389 19.3251 26.2271 19.1481 26.6544C18.9712 27.0817 18.8801 27.5396 18.8801 28.0021C18.8801 28.4645 18.9712 28.9225 19.1481 29.3497C19.3251 29.777 19.5845 30.1652 19.9115 30.4922C20.2385 30.8192 20.6268 31.0786 21.054 31.2556C21.4813 31.4326 21.9392 31.5237 22.4017 31.5237C23.3357 31.5235 24.2313 31.1522 24.8916 30.4917C25.5519 29.8311 25.9227 28.9353 25.9225 28.0013C25.9223 27.0673 25.551 26.1716 24.8905 25.5114C24.2299 24.8511 23.3341 24.4803 22.4001 24.4805H22.4017ZM9.60168 24.4805C9.13921 24.4805 8.68128 24.5716 8.25402 24.7485C7.82676 24.9255 7.43854 25.1849 7.11153 25.5119C6.78452 25.8389 6.52512 26.2271 6.34814 26.6544C6.17117 27.0817 6.08008 27.5396 6.08008 28.0021C6.08008 28.4645 6.17117 28.9225 6.34814 29.3497C6.52512 29.777 6.78452 30.1652 7.11153 30.4922C7.43854 30.8192 7.82676 31.0786 8.25402 31.2556C8.68128 31.4326 9.13921 31.5237 9.60168 31.5237C10.5357 31.5235 11.4313 31.1522 12.0916 30.4917C12.7519 29.8311 13.1227 28.9353 13.1225 28.0013C13.1223 27.0673 12.751 26.1716 12.0905 25.5114C11.4299 24.8511 10.5341 24.4803 9.60008 24.4805H9.60168Z" fill="#699BF7"/>
</g>
<defs>
<clipPath id="clip0_59_583">
<rect width="32" height="32" fill="white"/>
</clipPath>
</defs>
</svg>
