<svg width="312" height="259" viewBox="0 0 312 259" fill="none" xmlns="http://www.w3.org/2000/svg">
<path opacity="0.15" fill-rule="evenodd" clip-rule="evenodd" d="M200.949 173.211C200.956 173.211 200.963 173.211 200.969 173.211C213.422 173.185 223.503 160.606 223.503 145.1C223.503 129.595 213.415 117.016 200.969 116.99C200.963 116.99 200.956 116.99 200.949 116.99C200.942 116.99 200.935 116.99 200.928 116.99C188.476 117.016 178.395 129.595 178.395 145.1C178.395 160.606 188.483 173.185 200.928 173.211C200.935 173.211 200.942 173.211 200.949 173.211ZM187.311 145.092C187.311 135.707 193.412 128.093 200.949 128.084C208.485 128.101 214.587 135.707 214.587 145.092C214.587 154.476 208.485 162.091 200.949 162.099C193.412 162.091 187.311 154.476 187.311 145.092Z" fill="url(#paint0_linear_25_2176)"/>
<path opacity="0.5" d="M228.044 124.544C233.73 124.544 238.34 118.804 238.34 111.724C238.34 104.643 233.73 98.9033 228.044 98.9033C222.358 98.9033 217.748 104.643 217.748 111.724C217.748 118.804 222.358 124.544 228.044 124.544Z" fill="url(#paint1_linear_25_2176)"/>
<path opacity="0.85" d="M199.978 173.771C212.476 173.771 222.608 161.155 222.608 145.592C222.608 130.029 212.476 117.413 199.978 117.413C187.48 117.413 177.348 130.029 177.348 145.592C177.348 161.155 187.48 173.771 199.978 173.771Z" stroke="white" stroke-width="0.655" stroke-miterlimit="10"/>
<path opacity="0.5" d="M212.93 85.8323C214.871 85.8323 216.445 83.8726 216.445 81.4552C216.445 79.0378 214.871 77.0781 212.93 77.0781C210.988 77.0781 209.415 79.0378 209.415 81.4552C209.415 83.8726 210.988 85.8323 212.93 85.8323Z" fill="url(#paint2_linear_25_2176)"/>
<path opacity="0.5" d="M184.801 50.2464C186.742 50.2464 188.316 48.2867 188.316 45.8693C188.316 43.4519 186.742 41.4922 184.801 41.4922C182.859 41.4922 181.286 43.4519 181.286 45.8693C181.286 48.2867 182.859 50.2464 184.801 50.2464Z" fill="url(#paint3_linear_25_2176)"/>
<path opacity="0.5" d="M116.639 58.3265C118.581 58.3265 120.154 56.3668 120.154 53.9494C120.154 51.532 118.581 49.5723 116.639 49.5723C114.698 49.5723 113.124 51.532 113.124 53.9494C113.124 56.3668 114.698 58.3265 116.639 58.3265Z" fill="url(#paint4_linear_25_2176)"/>
<path opacity="0.2" fill-rule="evenodd" clip-rule="evenodd" d="M73.6597 210.455C73.6597 184.848 90.3343 164.085 110.899 164.085C131.463 164.085 148.138 184.848 148.138 210.455H133.432C133.432 194.958 123.344 182.396 110.899 182.396C98.4533 182.396 88.3653 194.958 88.3653 210.455H73.6597Z" fill="url(#paint5_linear_25_2176)"/>
<path fill-rule="evenodd" clip-rule="evenodd" d="M185.501 60.0363L186.957 64.2839C186.964 64.2925 186.964 64.3011 186.971 64.3184C186.978 64.327 186.978 64.3443 186.978 64.3529C187.068 65.0695 186.756 65.5271 186.222 65.812C185.64 66.1228 185.016 65.9587 184.843 65.4494C184.669 64.94 185.002 64.2666 185.585 63.9558C185.883 63.8004 186.188 63.7659 186.437 63.8349L185.224 60.2953L185.12 59.9845L184.94 59.4665C184.898 59.3456 184.933 59.1902 185.016 59.1211L188.088 56.3498C188.171 56.2721 188.268 56.3153 188.309 56.4275L188.51 57.0146L188.594 57.2563L190.043 61.4867C190.05 61.4953 190.05 61.5039 190.057 61.5212C190.063 61.5298 190.064 61.5471 190.064 61.5557C190.154 62.2723 189.842 62.7299 189.308 63.0148C188.725 63.3256 188.101 63.1615 187.928 62.6522C187.755 62.1428 188.088 61.4694 188.67 61.1586C188.968 61.0032 189.273 60.9687 189.523 61.0377L188.316 57.5067L185.501 60.0363ZM117.721 66.399L119.974 72.969C119.981 72.9863 119.988 73.0035 119.995 73.0208C120.002 73.0381 120.009 73.0553 120.009 73.0726C120.148 74.1777 119.662 74.8942 118.844 75.3259C117.936 75.8094 116.986 75.559 116.709 74.7647C116.438 73.9705 116.952 72.9431 117.86 72.4596C118.317 72.2179 118.789 72.1575 119.177 72.2697L117.298 66.7875L117.132 66.3041L116.854 65.5012C116.792 65.3199 116.841 65.0781 116.972 64.9659L121.722 60.6751C121.846 60.5629 121.999 60.6147 122.061 60.8046L122.373 61.7198L122.498 62.091L124.745 68.6351C124.752 68.6523 124.758 68.6696 124.765 68.6869C124.772 68.7041 124.779 68.7214 124.779 68.7387C124.918 69.8437 124.433 70.5603 123.614 70.992C122.706 71.4754 121.756 71.2251 121.479 70.4308C121.209 69.6365 121.722 68.6092 122.63 68.1257C123.088 67.884 123.559 67.8235 123.947 67.9358L122.075 62.4795L117.721 66.399ZM213.117 38.9278L208.194 42.7869C208.18 42.7955 208.173 42.8041 208.16 42.8214C208.146 42.83 208.132 42.8387 208.118 42.8473C207.251 43.1926 206.6 42.7092 206.114 41.7509C205.58 40.6976 205.629 39.463 206.225 38.9968C206.821 38.5306 207.73 39.0055 208.264 40.0587C208.534 40.594 208.652 41.1724 208.631 41.6732L212.736 38.4529L213.096 38.168L213.699 37.6932C213.838 37.5896 214.039 37.6155 214.15 37.7536L218.358 42.9854C218.469 43.1236 218.449 43.3221 218.31 43.4344L217.624 43.9696L217.346 44.1855L212.437 48.0359C212.424 48.0446 212.417 48.0532 212.403 48.0705C212.389 48.0791 212.375 48.0877 212.361 48.0964C211.494 48.4417 210.843 47.9582 210.357 46.9999C209.824 45.9467 209.872 44.7121 210.468 44.2459C211.065 43.7797 211.973 44.2545 212.507 45.3078C212.777 45.8431 212.895 46.4215 212.874 46.9222L216.965 43.7106L213.117 38.9278Z" fill="white"/>
<path fill-rule="evenodd" clip-rule="evenodd" d="M196.193 46.7842L194.335 53.0779L194.307 53.1815C193.78 54.1398 193.01 54.2434 192.144 53.8549C191.187 53.4146 190.611 52.3872 190.861 51.5498C191.111 50.7124 192.081 50.3929 193.038 50.8246C193.523 51.0491 193.905 51.4203 194.14 51.8433L195.846 46.0676L195.999 45.5583L196.248 44.7122C196.38 44.2719 196.831 44.41 196.761 44.8676C196.519 47.1209 198.259 48.2087 197.482 50.4706C197.767 48.6663 196.428 48.2173 196.193 46.7842Z" fill="#00347F"/>
<path fill-rule="evenodd" clip-rule="evenodd" d="M135.651 65.8465L133.411 69.5674L133.377 69.6279C132.87 70.1286 132.343 70.0164 131.83 69.5415C131.262 69.0149 131.047 68.1861 131.345 67.694C131.643 67.2019 132.343 67.2278 132.905 67.7544C133.189 68.0221 133.39 68.3674 133.474 68.7041L135.526 65.2853L135.706 64.9831L136.004 64.4824C136.164 64.2234 136.441 64.4306 136.323 64.7155C135.803 66.1486 136.788 67.3055 135.907 68.6178C136.399 67.4868 135.581 66.8566 135.651 65.8465Z" fill="#E2480D"/>
<path fill-rule="evenodd" clip-rule="evenodd" d="M211.175 60.7353L218.49 64.1455L218.615 64.2059C219.724 65.1642 219.842 66.5542 219.377 68.1168C218.857 69.8435 217.651 70.8708 216.68 70.4133C215.71 69.9643 215.342 68.1945 215.855 66.4765C216.119 65.6045 216.556 64.9138 217.055 64.4994L210.336 61.3655L209.747 61.0893L208.763 60.6317C208.243 60.39 208.423 59.5784 208.95 59.6993C211.571 60.1569 212.853 57.023 215.488 58.4475C213.38 57.9036 212.846 60.3123 211.175 60.7353Z" fill="white"/>
<path fill-rule="evenodd" clip-rule="evenodd" d="M202.661 67.2362L199.416 68.488C199.409 68.488 199.402 68.4966 199.389 68.4966C199.382 68.4966 199.375 68.5053 199.361 68.5053C198.827 68.5398 198.522 68.1427 198.362 67.5124C198.189 66.8218 198.369 66.1311 198.758 65.9843C199.146 65.8289 199.603 66.2692 199.777 66.9685C199.867 67.3225 199.86 67.6678 199.791 67.9441L202.495 66.8995L202.73 66.8045L203.126 66.6491C203.216 66.6146 203.327 66.6664 203.375 66.77L205.115 70.5082C205.164 70.6032 205.122 70.7154 205.032 70.7499L204.582 70.9226L204.401 70.9917L201.17 72.2435C201.164 72.2435 201.157 72.2521 201.143 72.2521C201.136 72.2521 201.129 72.2608 201.115 72.2608C200.581 72.2953 200.276 71.8982 200.117 71.2679C199.943 70.5773 200.124 69.8866 200.512 69.7398C200.9 69.5844 201.358 70.0247 201.531 70.724C201.621 71.078 201.614 71.4233 201.545 71.6996L204.242 70.655L202.661 67.2362Z" fill="#E2480D"/>
<path fill-rule="evenodd" clip-rule="evenodd" d="M131.04 57.4373L134.41 56.9452C134.417 56.9452 134.423 56.9452 134.437 56.9366C134.444 56.9366 134.451 56.9366 134.465 56.9366C134.992 57.0229 135.235 57.4891 135.297 58.1366C135.366 58.8618 135.089 59.4921 134.68 59.5525C134.271 59.6129 133.89 59.0777 133.82 58.3525C133.786 57.9899 133.841 57.6445 133.952 57.3855L131.137 57.7913L130.887 57.8258L130.478 57.8863C130.381 57.9035 130.284 57.8258 130.25 57.7136L129.092 53.6387C129.064 53.5264 129.113 53.4315 129.21 53.4142L129.681 53.3451L129.868 53.3192L133.231 52.8358C133.238 52.8358 133.245 52.8358 133.259 52.8271C133.266 52.8271 133.273 52.8271 133.286 52.8271C133.813 52.9135 134.056 53.3797 134.118 54.0272C134.188 54.7524 133.91 55.3826 133.501 55.443C133.092 55.5035 132.711 54.9682 132.642 54.243C132.607 53.8804 132.662 53.5351 132.773 53.2761L129.972 53.6818L131.04 57.4373Z" fill="#00347F"/>
<path d="M92.4492 210.48H224.98" stroke="#00347F" stroke-miterlimit="10"/>
<path fill-rule="evenodd" clip-rule="evenodd" d="M165.422 88.3273L187.401 80.4624C188.427 81.0063 189.654 82.4653 189.654 83.4754C183.879 88.5345 170.442 98.9895 162.919 99.6025C151.285 100.543 150.647 64.059 158.406 64.2921C165.706 64.5166 160.402 91.5735 165.422 88.3273Z" fill="#F6CBAD"/>
<path fill-rule="evenodd" clip-rule="evenodd" d="M164.583 99.335C164.583 99.335 161.671 100.932 161.352 98.9378L160.916 96.5205C160.916 96.5205 164.244 97.1076 164.583 99.335Z" fill="#F4BE99"/>
<path d="M151.743 56.3415C151.743 56.3415 151.057 58.2235 147.95 53.8205C144.789 49.3485 139.859 51.3255 138.896 53.8205" stroke="#00347F" stroke-width="1.309" stroke-miterlimit="10" stroke-linecap="round" stroke-linejoin="round"/>
<path d="M151.625 56.9968C151.625 56.9968 149.843 55.2529 149.51 51.9377C149.177 48.6225 146.418 46.9044 144.789 48.0009" stroke="#00347F" stroke-width="1.309" stroke-miterlimit="10" stroke-linecap="round" stroke-linejoin="round"/>
<path fill-rule="evenodd" clip-rule="evenodd" d="M162.379 177.001L161.339 200.898C161.325 201.951 161.644 202.97 162.233 203.73L164.958 207.235L156.617 203.367L157.054 197.445L155.209 177.692L162.379 177.001Z" fill="#F6CBAD"/>
<path fill-rule="evenodd" clip-rule="evenodd" d="M157.061 197.462C157.061 197.462 155.376 199.275 155.237 200.579C155.099 201.882 155.605 203.074 155.646 204.438C155.688 205.638 155.764 209.549 155.778 210.481H156.374L156.416 204.809C157.983 202.495 159.987 209.946 162.185 210.481H169.991C170.012 206.579 163.647 209.557 160.749 203.108C160.313 202.124 158.794 198.222 157.061 197.462Z" fill="#00347F"/>
<path fill-rule="evenodd" clip-rule="evenodd" d="M151.327 173.884L150.939 200.897C150.925 201.951 151.244 202.969 151.833 203.729L154.558 207.234L146.217 203.367L146.654 197.444L144.81 177.691L151.327 173.884Z" fill="#F6CBAD"/>
<path fill-rule="evenodd" clip-rule="evenodd" d="M146.661 197.462C146.661 197.462 144.976 199.275 144.837 200.579C144.699 201.882 145.205 203.074 145.247 204.438C145.288 205.638 145.364 209.549 145.378 210.481H145.975L146.016 204.809C147.583 202.495 149.587 209.946 151.785 210.481H159.592C159.612 206.579 153.248 209.557 150.349 203.108C149.906 202.124 148.387 198.222 146.661 197.462Z" fill="#00347F"/>
<path fill-rule="evenodd" clip-rule="evenodd" d="M139.45 100.69C131.206 122.386 140.989 131.986 140.83 177.475C143.194 180.963 154.357 183.51 162.379 177.009C162.601 116.541 161.997 103.885 161.997 103.885C161.997 103.885 141.634 94.9407 139.45 100.69Z" fill="#E2480D"/>
<path fill-rule="evenodd" clip-rule="evenodd" d="M147.084 116.852C151.854 114.124 156.672 111.353 160.95 107.546C161.339 107.14 161.713 106.725 162.08 106.294C162.032 104.541 162.004 103.876 162.004 103.876C162.004 103.876 141.641 94.9408 139.457 100.682C136.697 107.951 135.956 113.865 136.191 120.228C139.894 119.503 143.561 118.475 147.084 116.852ZM141.925 178.589C145.628 181.412 155.244 182.794 162.379 177.009C162.392 173.599 162.399 170.353 162.406 167.236C156.132 172.451 149.281 176.267 141.925 178.589Z" fill="#CE3000"/>
<path fill-rule="evenodd" clip-rule="evenodd" d="M142.681 91.7206C142.605 93.0674 138.792 99.3439 139.52 101.994C140.906 107.01 161.609 110.291 162.004 103.885C162.205 100.648 159.411 91.1767 160.132 87.663C161.928 78.926 163.585 74.8425 160.708 68.9286C160.153 67.789 160.042 64.3098 158.857 63.6882C158.184 63.3429 157.248 63.2652 156.409 63.222C155.397 63.1702 154.697 63.058 153.885 63.1616C153.435 63.2738 149.524 64.7069 148.838 64.9314C141.891 67.1156 148.755 83.5276 142.681 91.7206Z" fill="#F8C800"/>
<path fill-rule="evenodd" clip-rule="evenodd" d="M139.991 102.909C146.765 99.5079 153.469 95.8992 160.354 92.8516C160.042 90.7537 159.876 88.863 160.125 87.663C161.921 78.926 163.578 74.8425 160.701 68.9286C160.146 67.789 160.035 64.3098 158.85 63.6882C158.177 63.3429 157.241 63.2652 156.402 63.222C155.39 63.1702 154.69 63.058 153.878 63.1616C153.428 63.2738 149.517 64.7069 148.831 64.9314C141.905 67.1243 148.769 83.5276 142.688 91.7206C142.612 93.0674 138.798 99.3439 139.526 101.994C139.603 102.305 139.769 102.607 139.991 102.909Z" fill="#E8AB00"/>
<path fill-rule="evenodd" clip-rule="evenodd" d="M202.939 89.2518L194.757 84.443C194.459 84.2704 194.106 84.4862 193.981 84.8661L193.967 84.9092L183.56 79.8846C184.746 72.7449 178.02 68.8599 176.883 69.9131C176.384 70.3793 175.892 70.293 175.524 70.1031C174.845 69.7491 174.651 68.8599 174.131 68.8081C173.631 68.7563 173.971 69.6369 173.548 70.647C173.209 71.4671 171.808 71.2168 171.073 70.8887C170.359 70.5088 169.194 69.5074 169.395 68.6181C169.638 67.5217 169.95 65.7346 170.248 65.1648C170.532 64.6295 168.945 66.8569 168.251 66.5461C167.884 66.3821 167.468 66.0195 167.364 65.2598C167.1 63.4036 159.21 60.3301 156.596 68.0829C153.539 77.122 161.346 81.5422 162.594 80.3767C163.093 79.9105 163.585 79.9969 163.953 80.1868C164.632 80.5494 164.826 81.43 165.346 81.4818C165.845 81.5336 165.506 80.653 165.929 79.6429C166.268 78.8227 167.669 79.0731 168.404 79.4012C169.118 79.781 169.783 80.558 169.582 81.4473C169.34 82.5437 169.111 83.1221 169.499 83.5106C169.901 83.9078 170.532 83.4243 171.226 83.7437C171.593 83.9078 172.009 84.2704 172.113 85.0301C172.356 86.7395 179.476 89.4504 182.686 83.2171L193.447 88.4057L193.433 88.4489C193.315 88.8288 193.454 89.2863 193.773 89.4158L201.67 92.5152C202.37 93.9397 204.679 94.1555 205.254 92.3339C205.379 91.9281 205.823 90.6418 205.74 90.2619C205.553 89.4072 204.7 89.6058 204.194 89.3554C203.452 89.0014 203.341 89.1309 202.939 89.2518Z" fill="#00347F"/>
<path fill-rule="evenodd" clip-rule="evenodd" d="M168.57 77.458C167.842 77.1299 166.442 76.8709 166.095 77.6997C165.672 78.7098 166.019 79.5904 165.513 79.5386C165 79.4868 164.799 78.5976 164.119 78.2436C163.759 78.0537 163.259 77.9673 162.76 78.4335C161.512 79.6077 153.705 75.1874 156.763 66.1483C159.384 58.3956 167.267 61.469 167.53 63.3252C167.641 64.0849 168.05 64.4475 168.418 64.6116C169.111 64.9224 169.742 64.4389 170.144 64.8447C170.539 65.2332 169.804 65.5871 169.562 66.6836C169.361 67.5728 170.525 68.5743 171.24 68.9541C171.968 69.2822 173.368 69.5326 173.715 68.7124C174.131 67.7023 173.791 66.8217 174.297 66.8735C174.81 66.9253 175.011 67.8145 175.691 68.1685C176.051 68.3584 176.551 68.4448 177.05 67.9786C178.242 66.8562 185.661 71.242 183.456 79.1415C180.891 88.336 172.543 84.9862 172.273 83.0869C172.162 82.3272 171.753 81.9646 171.385 81.8005C170.692 81.4897 170.061 81.9732 169.659 81.5674C169.264 81.1789 169.999 80.825 170.241 79.7285C170.449 78.8393 169.284 77.8378 168.57 77.458Z" fill="#E2480D"/>
<path fill-rule="evenodd" clip-rule="evenodd" d="M177.23 74.7559L195.346 83.5964L194.23 87.1361L176.106 78.2955L177.23 74.7559Z" fill="#F8C800"/>
<path fill-rule="evenodd" clip-rule="evenodd" d="M203.216 87.3605L196.151 83.0697C195.853 82.8884 195.499 83.1129 195.374 83.4928L194.799 85.3058L194.223 87.1188C194.105 87.4986 194.244 87.9648 194.563 88.0857L201.843 90.9002C202.058 91.4786 202.439 91.9621 202.952 92.2124C204.006 92.7304 205.192 92.0829 205.608 90.7707C206.024 89.4584 205.504 87.9821 204.45 87.4641C204.048 87.2569 203.618 87.2396 203.216 87.3605Z" fill="#E2480D"/>
<path fill-rule="evenodd" clip-rule="evenodd" d="M163.53 68.0483L157.345 65.018C156.777 64.7417 156.132 65.0871 155.903 65.795L155.598 66.7619C155.376 67.4699 155.653 68.2728 156.222 68.5577L162.406 71.588L163.53 68.0483Z" fill="#F8C800"/>
<path fill-rule="evenodd" clip-rule="evenodd" d="M163.71 67.4785L164.639 67.9361C164.93 68.0829 165.076 68.4886 164.958 68.8512L163.897 72.2182C163.779 72.5808 163.453 72.7621 163.162 72.6153L162.233 72.1578L163.71 67.4785ZM177.41 74.1866L176.481 73.7291C176.19 73.5823 175.857 73.7636 175.746 74.1262L174.685 77.4932C174.567 77.8558 174.713 78.2702 175.004 78.4083L175.933 78.8659L177.41 74.1866Z" fill="#00347F"/>
<path d="M164.424 70.5342L200.949 88.785" stroke="white" stroke-width="0.655" stroke-miterlimit="10"/>
<path d="M164.743 69.5244L201.871 87.6976" stroke="white" stroke-width="0.655" stroke-miterlimit="10"/>
<path d="M164.105 71.5449L200.533 90.1843" stroke="white" stroke-width="0.655" stroke-miterlimit="10"/>
<path d="M199.264 82.9386L196.853 91.042L197.522 91.351L199.934 83.2476L199.264 82.9386Z" fill="#F8C800"/>
<path d="M202.278 84.3423L199.866 92.4453L200.535 92.7544L202.948 84.6514L202.278 84.3423Z" fill="#F8C800"/>
<path fill-rule="evenodd" clip-rule="evenodd" d="M199.867 82.1717C200.276 82.3616 200.484 82.9228 200.332 83.4321C200.179 83.9415 199.728 84.2005 199.319 84.0106C198.91 83.8206 198.702 83.2595 198.855 82.7501C199.007 82.2407 199.458 81.9817 199.867 82.1717ZM202.883 83.5616C203.292 83.7516 203.5 84.3127 203.348 84.8221C203.195 85.3315 202.744 85.5905 202.335 85.4005C201.926 85.2106 201.718 84.6494 201.871 84.1401C202.023 83.6307 202.474 83.3803 202.883 83.5616ZM197.461 90.2438C197.87 90.4338 198.078 90.9949 197.926 91.5043C197.773 92.0137 197.323 92.2727 196.913 92.0827C196.504 91.8928 196.296 91.3316 196.449 90.8223C196.608 90.3129 197.059 90.0539 197.461 90.2438ZM200.477 91.6338C200.886 91.8237 201.094 92.3849 200.942 92.8943C200.789 93.4036 200.339 93.6626 199.929 93.4727C199.52 93.2828 199.312 92.7216 199.465 92.2122C199.617 91.7029 200.068 91.4525 200.477 91.6338Z" fill="#F8C800"/>
<path d="M162.407 71.5881L156.229 68.5664" stroke="#00347F" stroke-width="1.309" stroke-miterlimit="10" stroke-linecap="round" stroke-linejoin="round"/>
<path d="M176.106 78.2959L182.575 81.4557" stroke="#00347F" stroke-width="1.309" stroke-miterlimit="10" stroke-linecap="round" stroke-linejoin="round"/>
<path d="M199.417 85.0557L198.085 89.4414" stroke="#00347F" stroke-width="1.309" stroke-miterlimit="10" stroke-linecap="round" stroke-linejoin="round"/>
<path d="M202.301 86.7998L201.157 90.633" stroke="#00347F" stroke-width="1.309" stroke-miterlimit="10" stroke-linecap="round" stroke-linejoin="round"/>
<path fill-rule="evenodd" clip-rule="evenodd" d="M186.458 79.7288C186.61 79.6166 188.129 77.0093 189.55 78.0626C190.271 77.6827 191.325 77.8381 191.623 78.5461C192.046 79.5648 193.377 79.4698 193.162 80.8512C193.121 81.1015 192.733 81.6109 191.076 81.9735C188.42 82.9663 185.016 81.844 186.458 79.7288Z" fill="#F6CBAD"/>
<path fill-rule="evenodd" clip-rule="evenodd" d="M177.688 56.1685L178.083 56.462L161.99 90.0111C161.859 90.2788 161.581 90.3651 161.36 90.2097C161.145 90.0457 161.075 89.7003 161.2 89.4327L177.064 56.3757C177.188 56.0908 177.473 56.0044 177.688 56.1685Z" fill="#00347F"/>
<path d="M178.079 56.4633L164.43 84.9072L164.995 85.3279L178.644 56.884L178.079 56.4633Z" fill="#F8C800"/>
<path fill-rule="evenodd" clip-rule="evenodd" d="M161.699 89.4843C162.018 89.7174 162.122 90.2353 161.928 90.6238C161.741 91.021 161.325 91.1505 161.013 90.9088C160.694 90.6757 160.59 90.1577 160.784 89.7692C160.971 89.3807 161.38 89.2512 161.699 89.4843Z" fill="#E2480D"/>
<path d="M164.431 84.9001L178.083 56.4619" stroke="white" stroke-width="0.491" stroke-miterlimit="10"/>
<path fill-rule="evenodd" clip-rule="evenodd" d="M155.584 91.1763C157.393 90.7101 158.891 89.8554 160.049 89.7777C162.08 89.6482 162.746 90.1316 162.815 89.9331C163.28 90.3216 164.174 88.5863 164.368 88.1546C164.75 87.2913 165.325 86.7646 165.124 86.4452C163.717 84.1487 160.756 86.6956 159.321 86.5574L156.867 85.8063C155.903 87.5071 155.438 89.3633 155.584 91.1763Z" fill="#F6CBAD"/>
<path d="M186.846 79.2197C186.846 79.2197 185.342 80.2816 186.444 81.4903C187.547 82.699 190.015 82.6644 192.15 81.6543" stroke="#00347F" stroke-width="1.309" stroke-miterlimit="10" stroke-linecap="round" stroke-linejoin="round"/>
<path fill-rule="evenodd" clip-rule="evenodd" d="M132.44 86.5317C132.44 86.5317 144.518 59.8374 149.947 65.4491C154.627 69.524 149.538 78.9861 141.78 85.2712C134.347 91.2973 132.44 86.5317 132.44 86.5317Z" fill="#F6CBAD"/>
<path d="M159.744 86.5322C159.744 86.5322 161.97 85.8502 162.67 85.5739C163.363 85.2976 164.341 85.384 164.889 86.1092" stroke="#00347F" stroke-width="1.309" stroke-miterlimit="10" stroke-linecap="round" stroke-linejoin="round"/>
<path fill-rule="evenodd" clip-rule="evenodd" d="M155.584 91.177C155.584 91.177 143.86 93.9742 136.413 91.8763C128.967 89.7784 132.718 82.6041 138.23 82.7077C143.742 82.8113 156.874 85.7985 156.874 85.7985M157.123 63.6021C157.123 63.6021 156.035 62.5748 158.843 59.5272C159.28 59.0524 160.042 59.6826 160.229 59.2596C160.729 58.1114 160.105 55.9789 160.805 54.6753C161.297 53.7601 160.008 52.681 159.016 52.0508C157.38 51.0061 154.1 51.4464 154.225 56.6437C154.253 57.8955 155.071 60.4855 154.877 62.0827C154.516 65.0525 154.821 65.4238 155.244 65.4583C156.014 65.5101 157.234 63.6626 157.123 63.6021Z" fill="#F6CBAD"/>
<path fill-rule="evenodd" clip-rule="evenodd" d="M160.826 54.9341C160.035 55.3572 158.267 51.6966 156.825 55.3831C156.714 55.6593 156.499 56.6694 155.536 55.7802C154.572 54.891 154.017 57.0579 155.314 57.4378C154.662 60.4681 154.828 60.8998 155.057 64.0337C156.104 78.6154 145.059 75.8527 144.089 69.205C142.958 61.5127 153.324 57.1615 152.977 56.5054C152.242 55.1327 152.63 49.4951 155.522 49.7282C162.67 46.2317 163.169 54.1917 160.826 54.9341Z" fill="#00347F"/>
<path d="M156.479 58.5166C156.479 58.5166 156.603 60.2951 157.907 59.544" stroke="#00347F" stroke-width="1.309" stroke-miterlimit="10" stroke-linecap="round" stroke-linejoin="round"/>
<path fill-rule="evenodd" clip-rule="evenodd" d="M152.623 55.9092C152.623 55.9092 154.398 57.584 155.383 57.9812L155.126 59.6215C155.126 59.6215 152.422 58.3351 151.625 57.0056C151.625 56.997 151.861 56.2545 152.623 55.9092Z" fill="#F8C800"/>
<path d="M152.228 57.0578L151.992 56.7815C150.793 55.3829 150.765 53.8548 151.25 53.0346C151.639 52.3785 152.304 52.2231 152.908 52.6461C153.22 52.862 153.414 53.2073 153.476 53.6217C153.656 54.8908 152.554 56.5657 152.429 56.747L152.228 57.0578ZM152.637 53.3195C152.63 53.3109 152.623 53.3109 152.616 53.3023C152.277 53.0605 151.951 53.1296 151.743 53.4836C151.431 54.0102 151.5 54.9858 152.173 55.9268C152.505 55.3484 152.97 54.3814 152.88 53.7512C152.859 53.5699 152.776 53.4318 152.637 53.3195Z" fill="#F8C800"/>
<path d="M152.381 56.7465L152.214 57.0919C151.368 58.8531 150.176 59.1984 149.427 58.784C148.831 58.4473 148.567 57.6703 148.768 56.8415C148.872 56.4185 149.101 56.1077 149.413 55.9436C150.37 55.4515 151.916 56.4444 152.089 56.5566L152.381 56.7465ZM149.365 57.0314C149.365 57.0401 149.358 57.0487 149.358 57.066C149.24 57.5322 149.365 57.912 149.684 58.0847C150.162 58.3523 150.911 58.0588 151.514 57.0401C150.994 56.7552 150.134 56.3926 149.656 56.6343C149.51 56.712 149.42 56.8415 149.365 57.0314Z" fill="#F8C800"/>
<path d="M144.006 83.3115C144.006 83.3115 141.863 84.4424 140.483 85.2712M155.127 65.4232C155.127 65.4232 156.298 65.7858 157.123 63.6016" stroke="#00347F" stroke-width="1.309" stroke-miterlimit="10" stroke-linecap="round" stroke-linejoin="round"/>
<path d="M152.437 56.7559C152.437 56.7559 153.671 58.4307 155.279 58.6638" stroke="white" stroke-width="0.655" stroke-miterlimit="10" stroke-linecap="round" stroke-linejoin="round"/>
<path d="M152.811 56.0645L152.006 57.489" stroke="#00347F" stroke-width="0.655" stroke-miterlimit="10" stroke-linecap="round" stroke-linejoin="round"/>
<path d="M145.357 81.9561C145.357 81.9561 149.143 78.7186 150.55 74.4883M164.223 88.457C164.223 88.457 163.641 90.6758 162.025 89.7779" stroke="#00347F" stroke-width="1.309" stroke-miterlimit="10" stroke-linecap="round" stroke-linejoin="round"/>
<path d="M152.007 59.3027C152.007 59.3027 146.661 61.5647 145.67 65.6396C144.678 69.6973 145.961 73.3751 151.306 73.4441" stroke="white" stroke-width="0.655" stroke-miterlimit="10" stroke-linecap="round" stroke-linejoin="round"/>
<path d="M161.657 80.5234L160.361 86.3337" stroke="#00347F" stroke-width="1.309" stroke-miterlimit="10" stroke-linecap="round" stroke-linejoin="round"/>
<path d="M142.244 92.6532C142.244 92.6532 151.743 92.6532 160.049 89.7783C160.049 89.7783 160.298 94.1209 161.546 99.6203M145.038 180.143C145.038 180.143 147.798 181.404 151.223 181.015M155.473 180.446C155.473 180.446 159.134 179.815 162.385 177.01M139.45 100.691C139.45 100.691 138.902 102.927 141.468 104.213C141.468 104.213 146.959 107.917 156.353 107.347C156.353 107.347 161.865 106.803 161.99 103.877" stroke="#00347F" stroke-width="1.309" stroke-miterlimit="10" stroke-linecap="round" stroke-linejoin="round"/>
<path d="M155.723 207.648L156.402 207.838" stroke="white" stroke-width="1.309" stroke-miterlimit="10" stroke-linecap="round" stroke-linejoin="round"/>
<path fill-rule="evenodd" clip-rule="evenodd" d="M160.493 205.706C160.382 205.439 160.465 205.111 160.68 204.973L163.911 202.901C164.126 202.763 164.389 202.866 164.5 203.134C164.611 203.401 164.528 203.729 164.313 203.868L161.082 205.94C160.874 206.078 160.604 205.974 160.493 205.706ZM150.197 204.714C150.086 204.446 150.169 204.118 150.384 203.98L153.615 201.908C153.83 201.77 154.093 201.873 154.204 202.141C154.315 202.409 154.232 202.737 154.017 202.875L150.786 204.947C150.571 205.085 150.308 204.981 150.197 204.714Z" fill="#E2480D"/>
<path d="M136.15 117.889C136.15 117.889 144.505 105.681 150.703 111.301C156.901 116.922 138.313 121.817 138.209 138.255" stroke="white" stroke-width="0.655" stroke-miterlimit="10" stroke-linecap="round" stroke-linejoin="round"/>
<path d="M136.143 122.542C136.143 122.542 141.738 113.174 144.054 115.989C146.37 118.795 136.254 123.586 136.906 128.568M157.865 107.088C157.865 107.088 164.341 111.068 157.865 120.236C151.389 129.405 139.034 144.116 140.275 164.085" stroke="white" stroke-width="0.655" stroke-miterlimit="10" stroke-linecap="round" stroke-linejoin="round"/>
<path d="M162.607 122.015C162.607 122.015 148.345 136.26 149.115 146.766C149.885 157.265 159.217 138.996 162.261 146.766" stroke="white" stroke-width="0.655" stroke-miterlimit="10" stroke-linecap="round" stroke-linejoin="round"/>
<path d="M162.378 130.19C162.378 130.19 153.615 137.373 155.216 139.558C156.818 141.742 161.325 136.225 162.413 139.143M140.753 169.196C140.746 169.058 146.882 156.557 152.207 157.187C157.532 157.808 150.474 174.687 162.399 173.115" stroke="white" stroke-width="0.655" stroke-miterlimit="10" stroke-linecap="round" stroke-linejoin="round"/>
<path d="M140.753 174.125C140.753 174.125 144.137 166.735 149.288 169.826C154.44 172.917 148.879 180.902 156.652 179.97" stroke="white" stroke-width="0.655" stroke-miterlimit="10" stroke-linecap="round" stroke-linejoin="round"/>
<path fill-rule="evenodd" clip-rule="evenodd" d="M133.023 85.2715C133.023 85.2715 136.344 86.5406 134.423 91.1767C134.423 91.1767 132.045 89.9249 132.239 88.2241C132.44 86.532 132.579 85.7809 133.023 85.2715Z" fill="#F4BE99"/>
<defs>
<linearGradient id="paint0_linear_25_2176" x1="200.947" y1="137.71" x2="200.947" y2="204.284" gradientUnits="userSpaceOnUse">
<stop offset="0.095" stop-color="white"/>
<stop offset="0.754" stop-color="#FBE0DF"/>
<stop offset="0.979" stop-color="#F9D4D3"/>
</linearGradient>
<linearGradient id="paint1_linear_25_2176" x1="228.044" y1="101.171" x2="228.044" y2="137.742" gradientUnits="userSpaceOnUse">
<stop offset="0.095" stop-color="white"/>
<stop offset="0.754" stop-color="#FBE0DF"/>
<stop offset="0.979" stop-color="#F9D4D3"/>
</linearGradient>
<linearGradient id="paint2_linear_25_2176" x1="209.414" y1="81.4532" x2="216.44" y2="81.4532" gradientUnits="userSpaceOnUse">
<stop offset="0.095" stop-color="white"/>
<stop offset="0.754" stop-color="#FBE0DF"/>
<stop offset="0.979" stop-color="#F9D4D3"/>
</linearGradient>
<linearGradient id="paint3_linear_25_2176" x1="181.286" y1="45.8729" x2="188.312" y2="45.8729" gradientUnits="userSpaceOnUse">
<stop offset="0.095" stop-color="white"/>
<stop offset="0.754" stop-color="#FBE0DF"/>
<stop offset="0.979" stop-color="#F9D4D3"/>
</linearGradient>
<linearGradient id="paint4_linear_25_2176" x1="113.126" y1="53.9503" x2="120.151" y2="53.9503" gradientUnits="userSpaceOnUse">
<stop offset="0.095" stop-color="white"/>
<stop offset="0.754" stop-color="#FBE0DF"/>
<stop offset="0.979" stop-color="#F9D4D3"/>
</linearGradient>
<linearGradient id="paint5_linear_25_2176" x1="110.897" y1="166.643" x2="110.897" y2="223.036" gradientUnits="userSpaceOnUse">
<stop offset="0.095" stop-color="white"/>
<stop offset="0.66" stop-color="#FBDFE0"/>
<stop offset="0.979" stop-color="#F9CBCC"/>
</linearGradient>
</defs>
</svg>
