<svg width="353" height="284" viewBox="0 0 353 284" fill="none" xmlns="http://www.w3.org/2000/svg">
<path fill-rule="evenodd" clip-rule="evenodd" d="M228.446 81.3185L222.021 86.2033C222.006 86.2127 221.99 86.2317 221.974 86.2411C221.959 86.2506 221.943 86.2695 221.927 86.279C220.79 86.7239 219.943 86.1086 219.315 84.8969C218.617 83.5621 218.688 82.0095 219.464 81.4131C220.241 80.8262 221.433 81.4226 222.131 82.7574C222.484 83.4295 222.641 84.1679 222.61 84.8022L227.968 80.7315L228.438 80.3718L229.223 79.7754C229.403 79.6429 229.67 79.6713 229.811 79.8511L235.31 86.4778C235.459 86.6577 235.428 86.9038 235.247 87.0458L234.353 87.7274L233.992 88.0019L227.583 92.8678C227.567 92.8773 227.552 92.8962 227.536 92.9057C227.52 92.9151 227.505 92.9341 227.489 92.9435C226.352 93.3885 225.504 92.7731 224.877 91.5614C224.179 90.2266 224.249 88.6741 225.026 88.0777C225.802 87.4907 226.995 88.0871 227.693 89.4219C228.046 90.0941 228.203 90.8325 228.171 91.4667L233.514 87.4055L228.446 81.3185Z" fill="white"/>
<path fill-rule="evenodd" clip-rule="evenodd" d="M235.6 56.0902L233.176 64.0517L233.137 64.1842C232.447 65.3959 231.45 65.5285 230.321 65.0362C229.074 64.4871 228.321 63.1807 228.642 62.1205C228.964 61.0602 230.235 60.6531 231.482 61.2117C232.109 61.4957 232.619 61.9595 232.917 62.4991L235.145 55.1909L235.341 54.5471L235.663 53.4774C235.835 52.9189 236.424 53.0987 236.338 53.6762C236.016 56.5257 238.291 57.8983 237.279 60.7667C237.663 58.4758 235.914 57.9078 235.6 56.0902ZM239.46 114.954L233.969 109.672L233.874 109.586C233.145 108.412 233.349 107.229 234.102 106.093C234.933 104.844 236.196 104.389 236.926 105.09C237.655 105.79 237.577 107.381 236.745 108.63C236.33 109.264 235.796 109.69 235.279 109.87L240.323 114.727L240.762 115.153L241.499 115.863C241.884 116.232 241.554 116.847 241.13 116.573C238.989 115.314 237.193 117.482 235.263 115.418C236.942 116.563 237.938 114.746 239.46 114.954Z" fill="#E2480D"/>
<path fill-rule="evenodd" clip-rule="evenodd" d="M248.387 84.6697L252.787 84.0543C252.795 84.0543 252.811 84.0543 252.819 84.0449C252.827 84.0449 252.842 84.0449 252.85 84.0449C253.54 84.1585 253.854 84.7359 253.941 85.569C254.027 86.4778 253.666 87.2825 253.14 87.3582C252.607 87.4339 252.105 86.7523 252.019 85.8435C251.972 85.3797 252.042 84.9442 252.191 84.6223L248.52 85.1335L248.198 85.1809L247.665 85.2566C247.539 85.2755 247.406 85.1714 247.367 85.0389L245.853 79.8795C245.814 79.747 245.876 79.6145 246.002 79.5955L246.614 79.5103L246.857 79.4725L251.242 78.8571C251.25 78.8571 251.266 78.8571 251.273 78.8477C251.281 78.8477 251.297 78.8477 251.305 78.8477C251.995 78.9613 252.309 79.5387 252.395 80.3718C252.481 81.2806 252.121 82.0853 251.595 82.161C251.062 82.2367 250.56 81.5551 250.473 80.6463C250.426 80.1825 250.497 79.747 250.646 79.4251L246.99 79.9363L248.387 84.6697Z" fill="#00347F"/>
<path opacity="0.85" d="M111.213 171.923C118.118 163.59 118.118 150.079 111.213 141.747C104.308 133.414 93.1124 133.414 86.2075 141.747C79.3026 150.08 79.3028 163.591 86.2079 171.923C93.113 180.256 104.308 180.256 111.213 171.923Z" stroke="white" stroke-width="0.755" stroke-miterlimit="10"/>
<path opacity="0.5" d="M120.373 129.211C122.505 129.211 124.233 127.125 124.233 124.553C124.233 121.981 122.505 119.896 120.373 119.896C118.242 119.896 116.514 121.981 116.514 124.553C116.514 127.125 118.242 129.211 120.373 129.211Z" fill="url(#paint0_linear_12_1033)"/>
<path opacity="0.5" fill-rule="evenodd" clip-rule="evenodd" d="M227.363 150.388C225.34 149.583 224.233 146.951 224.9 144.499C225.567 142.057 227.748 140.722 229.779 141.527C231.803 142.332 232.909 144.963 232.243 147.415C231.568 149.857 229.387 151.192 227.363 150.388Z" fill="url(#paint1_linear_12_1033)"/>
<path opacity="0.2" fill-rule="evenodd" clip-rule="evenodd" d="M60.6455 223.821C60.6455 190.659 82.9237 163.773 110.403 163.773C137.882 163.773 160.16 190.659 160.16 223.821H140.51C140.51 203.761 127.033 187.487 110.403 187.487C93.7726 187.487 80.2958 203.751 80.2958 223.821H60.6455Z" fill="url(#paint2_linear_12_1033)"/>
<path opacity="0.2" fill-rule="evenodd" clip-rule="evenodd" d="M266.46 137.863C266.468 137.863 266.476 137.863 266.483 137.863C280.776 137.834 292.354 123.843 292.354 106.585C292.354 89.3273 280.776 75.3355 266.483 75.3071C266.476 75.3071 266.468 75.3071 266.46 75.3071C266.452 75.3071 266.444 75.3071 266.436 75.3071C252.144 75.3355 240.565 89.3273 240.565 106.585C240.565 123.843 252.144 137.834 266.436 137.863C266.444 137.863 266.452 137.863 266.46 137.863ZM250.802 106.585C250.802 96.1433 257.808 87.6801 266.46 87.6611C275.112 87.6801 282.117 96.1433 282.117 106.585C282.117 117.027 275.112 125.49 266.46 125.509C257.808 125.49 250.802 117.027 250.802 106.585Z" fill="url(#paint3_linear_12_1033)"/>
<path d="M179.324 197.236H176.225V224.983H179.324V197.236Z" fill="#F8C800"/>
<path fill-rule="evenodd" clip-rule="evenodd" d="M161.195 224.983H158.097L166.027 197.236H169.126L161.195 224.983Z" fill="#F8C800"/>
<path fill-rule="evenodd" clip-rule="evenodd" d="M197.248 224.983H200.347L192.416 197.236H189.317L197.248 224.983Z" fill="#F8C800"/>
<path fill-rule="evenodd" clip-rule="evenodd" d="M207.823 120.206L219.182 83.1153C220.107 80.6351 223.574 83.5508 223.559 87.6783C222.61 100.117 221.049 113.854 218.13 126.085C216.601 132.512 205.603 128.385 207.823 120.206ZM145.899 184.181C146.597 192.796 147.279 201.42 147.75 210.414C147.083 215.393 142.8 219.606 138.266 221.442C146.911 222.749 155.265 213.557 153.539 206.703C152.653 203.191 154.849 197.217 155.846 184.229L145.899 184.181Z" fill="#F6CBAD"/>
<path fill-rule="evenodd" clip-rule="evenodd" d="M153.531 206.703C153.531 206.703 155.955 209.249 156.143 211.076C156.332 212.903 155.61 214.56 155.532 216.463C155.469 218.138 155.343 223.61 155.312 224.898H154.449L154.41 216.974C152.166 213.736 149.24 224.121 146.071 224.86L134.822 224.803C134.814 219.35 143.969 223.553 148.174 214.569C148.825 213.197 151.029 207.763 153.531 206.703Z" fill="#E2480D"/>
<path fill-rule="evenodd" clip-rule="evenodd" d="M147.052 128.272C141.545 133.393 143.357 164.775 146.064 189.246C147.993 191.585 150.284 193.166 154.434 196.129C160.293 175.33 160.403 155.394 157.767 143.077C166.059 145.643 173.127 150.736 180.979 153.216C191.083 156.406 191.977 145.435 190.408 132.191C187.835 131.623 153.681 122.109 147.052 128.272Z" fill="#00347F"/>
<path fill-rule="evenodd" clip-rule="evenodd" d="M215.196 184.182C214.498 192.796 213.816 201.42 213.345 210.414C214.012 215.393 218.295 219.606 222.829 221.442C214.184 222.749 205.83 213.557 207.556 206.703C208.442 203.191 206.246 197.217 205.25 184.229L215.196 184.182Z" fill="#F6CBAD"/>
<path fill-rule="evenodd" clip-rule="evenodd" d="M207.564 206.703C207.564 206.703 205.14 209.249 204.952 211.076C204.763 212.903 205.485 214.56 205.563 216.463C205.626 218.138 205.752 223.61 205.783 224.898H206.646L206.685 216.974C208.929 213.736 211.855 224.121 215.024 224.86L226.273 224.803C226.281 219.35 217.126 223.553 212.922 214.569C212.263 213.197 210.058 207.763 207.564 206.703Z" fill="#E2480D"/>
<path fill-rule="evenodd" clip-rule="evenodd" d="M214.043 128.271C219.55 133.393 217.377 168.344 214.663 192.815C212.788 194.084 211.007 196.128 206.944 197.984C201.084 177.186 200.684 155.403 203.32 143.087C195.028 145.652 187.96 150.745 180.108 153.226C170.004 156.416 169.11 145.444 170.679 132.2C173.26 131.623 207.407 122.109 214.043 128.271Z" fill="#00347F"/>
<path fill-rule="evenodd" clip-rule="evenodd" d="M181.261 97.7889C176.97 94.4851 177.684 77.8805 183.458 79.736L208.905 97.344C212.49 99.9189 207.391 110.985 202.967 112.472L181.261 97.7889Z" fill="#F6CBAD"/>
<path fill-rule="evenodd" clip-rule="evenodd" d="M192.636 126.984C191.506 121.096 188.902 118.398 188.188 111.165C187.976 108.997 187.866 106.716 188.102 104.945C187.662 103.08 192.777 94.409 187.411 86.3813C184.925 82.6609 185.615 80.9569 182.987 79.1961C182.32 78.7417 180.634 78.3062 178.735 78.505C176.664 78.7322 174.366 79.6694 173.417 80.8054C166.161 89.5621 169.557 105.201 170.381 113.087C170.993 118.984 169.84 122.497 167.125 128.498C170.522 136.233 186.925 137.028 192.636 126.984Z" fill="#F8C800"/>
<path fill-rule="evenodd" clip-rule="evenodd" d="M169 100.818C169.306 105.523 170.044 109.935 170.381 113.097C170.993 118.994 169.84 122.506 167.125 128.508C170.53 136.243 186.933 137.038 192.643 126.984C191.569 121.38 189.161 118.654 188.313 112.159C180.924 112.15 173.683 107.682 169 100.818Z" fill="#E8AB00"/>
<path fill-rule="evenodd" clip-rule="evenodd" d="M180.226 78.4483C180.226 78.4483 178.532 78.0791 181.293 73.2416C181.716 72.4937 182.846 72.9671 182.972 72.3707C183.301 70.7708 181.967 68.4041 182.509 66.5392C182.885 65.2328 180.987 64.4187 179.567 64.0211C177.229 63.3773 173.197 65.2044 174.711 71.5092C175.072 73.0239 175.896 75.0781 175.896 79.3855C176.939 82.5474 179.889 85.6903 180.861 87.2334C180.438 83.9863 179.755 81.3545 180.226 78.4483ZM166.843 83.2574C173.174 79.1394 177.982 86.5802 174.829 92.7051C172.758 96.7284 164.49 104.235 160.474 111.951C158.481 115.775 157.171 116.41 155.304 115.501C152.661 114.213 148.887 113.532 149.397 109.518C153.492 98.281 163.408 85.4915 166.843 83.2574Z" fill="#F6CBAD"/>
<path fill-rule="evenodd" clip-rule="evenodd" d="M182.712 66.1605C181.653 66.6149 178.382 62.8567 177.512 68.1675C177.449 68.5651 177.441 69.9472 175.927 69.2183C174.413 68.4893 174.688 71.3388 175.982 70.8844C177.512 70.3448 177.119 78.7323 174.382 81.9225C170.867 86.0121 169.338 86.6085 159.297 87.2712C155.578 87.5173 152.943 91.3135 147.867 92.3264C139.019 94.0872 134.304 82.9165 137.764 74.4249C142.062 63.8601 151.719 68.3947 158.395 72.3139C162.513 74.7279 166.216 73.9043 170.208 69.8525C171.856 68.1769 171.981 63.6992 174.546 63.4625C177.841 52.6611 188.29 62.5064 182.712 66.1605ZM153.884 136.233C154.974 137.019 154.433 196.119 154.433 196.119C154.433 196.119 178.453 213.746 209.893 196.431C210.082 196.327 210.27 196.223 210.45 196.119L208.301 139.385L153.884 136.233Z" fill="#00347F"/>
<path d="M215.299 189.654L216.554 175.103C216.601 174.592 216.797 174.119 217.103 173.768L219.244 171.383C220.248 170.266 219.848 168.249 218.53 167.804L214.663 166.498L213.416 161.784C212.294 157.552 212.914 152.932 215.079 149.344L217.362 145.558L219.009 146.116C220.06 146.476 221.033 145.302 220.727 144.034L220.084 141.326C219.99 140.929 220.021 140.512 220.162 140.143L224.312 129.578C224.618 128.802 224.845 127.988 224.979 127.155C226.438 118.048 221.88 108.969 214.349 106.423L210.67 105.182L210.396 105.088L206.717 103.848C199.186 101.301 191.381 106.205 188.706 114.895C188.463 115.7 188.298 116.533 188.227 117.385L187.223 129.01C187.192 129.417 187.035 129.796 186.784 130.07L185.074 131.983C184.274 132.882 184.595 134.491 185.647 134.842L187.294 135.4L187.616 140.077C187.921 144.498 186.455 148.833 183.678 151.749L180.587 154.987L176.72 153.68C175.402 153.235 174.194 154.703 174.57 156.293L175.37 159.682C175.488 160.174 175.449 160.704 175.268 161.168L170.075 174.384C169.699 175.349 169.409 176.372 169.244 177.423C167.424 188.82 173.119 200.18 182.548 203.371L186.666 204.762L188.047 205.226L192.165 206.618C201.586 209.808 211.353 203.674 214.702 192.796C215.008 191.765 215.204 190.723 215.299 189.654Z" fill="#E2480D"/>
<path d="M222.17 66.0852C222.398 65.0154 221.872 63.9362 221.001 63.6333L220.374 63.425L219.746 63.2168C218.868 62.9233 217.958 63.5197 217.691 64.5705L199.28 137.293C199.006 138.382 199.523 139.528 200.433 139.83L202.465 140.522L204.497 141.213C205.407 141.516 206.34 140.862 206.575 139.764L222.17 66.0852ZM199.688 166.858L197.146 165.996L194.605 165.135C194.118 164.974 193.624 165.334 193.514 165.93L187.043 201.885C186.941 202.434 187.215 202.973 187.662 203.125L188.463 203.399L189.263 203.674C189.71 203.825 190.173 203.532 190.322 203.002L200.276 168.23C200.449 167.644 200.174 167.019 199.688 166.858Z" fill="#F8C800"/>
<path d="M187.984 157.542C187.56 157.4 187.121 157.154 186.658 156.813C186.337 156.577 186.235 156.075 186.431 155.687C186.627 155.299 187.043 155.176 187.364 155.422C188.211 156.047 188.894 156.217 189.388 155.905C190.322 155.327 190.659 153.197 190.722 152.364L190.275 141.468C189.961 136.063 192.291 135.466 192.542 135.409C193.499 135.229 194.299 135.438 194.926 136.025C195.891 136.933 196.032 138.372 196.048 138.533C196.087 138.988 195.813 139.385 195.436 139.423C195.068 139.471 194.73 139.139 194.699 138.694C194.699 138.666 194.605 137.785 194.087 137.312C193.765 137.019 193.318 136.924 192.753 137.028H192.746C192.275 137.161 191.451 138.23 191.632 141.354C191.632 141.364 191.632 141.364 191.632 141.373L192.087 152.326C192.087 152.355 192.087 152.393 192.087 152.421C192.063 152.809 191.82 156.236 190.024 157.353C189.412 157.741 188.737 157.798 187.984 157.542ZM205.579 162.626C204.528 160.543 205.791 157.467 205.94 157.116C205.956 157.088 205.963 157.06 205.979 157.031L211.086 147.953L211.094 147.943C212.592 145.387 212.349 143.958 212.004 143.551L211.996 143.541C211.557 143.096 211.133 142.897 210.733 142.945C210.09 143.03 209.635 143.721 209.619 143.74C209.391 144.1 208.968 144.175 208.67 143.901C208.372 143.626 208.309 143.115 208.529 142.755C208.607 142.623 209.344 141.487 210.568 141.317C211.36 141.212 212.137 141.534 212.874 142.292C213.063 142.49 214.796 144.469 212.2 148.88L207.132 157.912C206.819 158.659 206.191 160.695 206.74 161.774C207.03 162.351 207.681 162.635 208.678 162.626C209.054 162.626 209.36 162.986 209.36 163.44C209.36 163.895 209.062 164.264 208.685 164.264C208.144 164.264 207.658 164.197 207.234 164.055C206.489 163.8 205.932 163.327 205.579 162.626ZM212.004 143.551C212.004 143.541 212.004 143.541 212.004 143.551V143.551Z" fill="white"/>
<path d="M218.476 67.3726L195.452 165.703" stroke="white" stroke-width="0.755" stroke-miterlimit="10"/>
<path d="M220.092 67.9214L198.206 166.356" stroke="white" stroke-width="0.755" stroke-miterlimit="10"/>
<path d="M183.45 224.983L187.427 202.992L189.483 203.683L183.45 224.983Z" fill="#F8C800"/>
<path d="M200.433 139.83L204.504 141.212" stroke="#00347F" stroke-width="1.511" stroke-miterlimit="10" stroke-linecap="round" stroke-linejoin="round"/>
<path d="M194.605 165.135L199.688 166.858" stroke="#00347F" stroke-width="1.511" stroke-miterlimit="10" stroke-linecap="round" stroke-linejoin="round"/>
<path d="M213.619 106.157L206.583 139.764" stroke="#00347F" stroke-width="1.511" stroke-miterlimit="10" stroke-linecap="round" stroke-linejoin="round"/>
<path d="M199.963 169.338L190.33 202.992" stroke="#00347F" stroke-width="1.511" stroke-miterlimit="10" stroke-linecap="round" stroke-linejoin="round"/>
<path d="M221.001 68.2244L217.77 67.1263C216.35 66.6435 215.518 64.8638 215.918 63.1503L219.087 49.4994C219.488 47.7859 220.962 46.7824 222.382 47.2652L225.614 48.3634C227.034 48.8462 227.865 50.6259 227.465 52.3394L224.296 65.9903C223.896 67.7132 222.421 68.7072 221.001 68.2244Z" fill="#E2480D"/>
<path d="M218.388 52.5088L212.919 50.6592L212.555 52.227L218.024 54.0766L218.388 52.5088Z" fill="#F8C800"/>
<path d="M214.396 52.0173C214.137 53.1249 213.188 53.7781 212.262 53.4657C211.345 53.1533 210.803 52.0078 211.062 50.8908C211.321 49.7832 212.27 49.13 213.196 49.4424C214.122 49.7548 214.655 50.9097 214.396 52.0173Z" fill="#00347F"/>
<path d="M217.211 57.5527L211.743 55.7031L211.379 57.271L216.847 59.1206L217.211 57.5527Z" fill="#F8C800"/>
<path d="M213.228 57.0632C212.969 58.1708 212.02 58.824 211.094 58.5116C210.176 58.1992 209.635 57.0537 209.894 55.9367C210.153 54.8291 211.102 54.1759 212.028 54.4883C212.953 54.8007 213.487 55.9556 213.228 57.0632Z" fill="#00347F"/>
<path d="M226.411 56.9346L231.879 58.7842L232.244 57.2163L226.775 55.3667L226.411 56.9346Z" fill="#F8C800"/>
<path d="M233.529 59.0675C234.027 58.0866 233.772 56.8044 232.959 56.2037C232.146 55.6029 231.084 55.9111 230.586 56.8919C230.088 57.8728 230.343 59.155 231.156 59.7557C231.969 60.3565 233.031 60.0483 233.529 59.0675Z" fill="#00347F"/>
<path d="M217.126 66.8042L221.558 68.3189" stroke="#00347F" stroke-width="1.511" stroke-miterlimit="10" stroke-linecap="round" stroke-linejoin="round"/>
<path d="M218.389 52.519L218.02 54.0905L214.083 52.7557" stroke="#00347F" stroke-width="1.511" stroke-miterlimit="10" stroke-linecap="round" stroke-linejoin="round"/>
<path d="M217.212 57.5649L216.851 59.1364L212.914 57.8016" stroke="#00347F" stroke-width="1.511" stroke-miterlimit="10" stroke-linecap="round" stroke-linejoin="round"/>
<path d="M226.775 55.3496L226.414 56.9211L230.336 58.2559" stroke="#00347F" stroke-width="1.511" stroke-miterlimit="10" stroke-linecap="round" stroke-linejoin="round"/>
<path d="M220.813 67.0886L218.452 66.2934C217.291 65.8958 216.608 64.4474 216.938 63.0369L219.785 50.7113C220.115 49.3102 221.315 48.4866 222.484 48.8842L224.845 49.6794C226.006 50.077 226.689 51.5254 226.359 52.936L223.512 65.2616C223.182 66.6626 221.974 67.4768 220.813 67.0886Z" stroke="white" stroke-width="0.755" stroke-miterlimit="10"/>
<path d="M187.427 202.992L189.482 203.683L183.591 224.481" stroke="#00347F" stroke-width="1.511" stroke-miterlimit="10" stroke-linecap="round" stroke-linejoin="round"/>
<path d="M207.219 105.93C207.219 105.93 204.23 104.169 199.21 105.712C194.566 107.142 190.079 110.493 189.812 121.815C189.545 133.137 189.812 133.923 189.812 133.923M213.486 107.937C213.486 107.937 216.781 108.514 220.209 113.2C223.378 117.536 225.52 123.358 220.452 132.891C215.393 142.424 214.796 142.897 214.796 142.897" stroke="white" stroke-width="0.755" stroke-miterlimit="10"/>
<path d="M185.074 201.979C185.074 201.979 174.311 196.611 172.413 189.208C170.569 182.033 170.428 175.302 179.873 162.086M213.62 167.757C213.62 167.757 217.283 195.92 206.96 200.663C206.96 200.663 199.249 205.425 192.165 203.702" stroke="white" stroke-width="0.755" stroke-miterlimit="10" stroke-linecap="round" stroke-linejoin="round"/>
<path d="M225.244 61.9805L230.712 63.8301L231.077 62.2622L225.608 60.4126L225.244 61.9805Z" fill="#F8C800"/>
<path d="M229.23 62.4685C228.971 63.5761 229.513 64.7311 230.43 65.0435C231.348 65.3559 232.305 64.7027 232.564 63.5951C232.823 62.4875 232.282 61.3325 231.364 61.0201C230.438 60.7172 229.489 61.3609 229.23 62.4685Z" fill="#00347F"/>
<path d="M225.606 60.3955L225.237 61.967L229.167 63.3018" stroke="#00347F" stroke-width="1.511" stroke-miterlimit="10" stroke-linecap="round" stroke-linejoin="round"/>
<path fill-rule="evenodd" clip-rule="evenodd" d="M157.971 107.18L191.381 127.278C191.498 131.102 190.643 132.106 189.208 132.172C179.904 130.288 160.45 126.748 150.409 117.025C148.432 115.113 147.264 101.869 157.971 107.18ZM218.342 85.88L220.17 77.3789C219.487 75.8358 218.883 73.1094 219.432 71.4054C219.95 70.8753 220.272 75.7412 220.719 75.1164C221.856 73.5449 220.476 66.3313 221.284 66.5396C224.861 67.4673 223.362 75.3057 223.512 79.3953C223.613 81.9702 223.7 84.602 223.566 87.6692L218.342 85.88Z" fill="#F6CBAD"/>
<path fill-rule="evenodd" clip-rule="evenodd" d="M200.943 124.485C200.527 124.097 199.931 124.191 199.601 124.693L193.381 134.377C193.059 134.879 193.138 135.599 193.553 135.996C193.969 136.384 194.565 136.29 194.895 135.788L201.115 126.104C201.437 125.602 201.359 124.873 200.943 124.485Z" fill="#00347F"/>
<path d="M200.658 124.217L201.197 124.722L215.44 102.531L214.901 102.027L200.658 124.217Z" fill="#00347F"/>
<path fill-rule="evenodd" clip-rule="evenodd" d="M216.648 98.9153L219.652 99.133C219.856 99.1519 219.958 99.4265 219.833 99.6253L217.071 103.923C216.985 104.056 216.828 104.084 216.718 103.98L214.757 102.143C214.647 102.039 214.624 101.85 214.71 101.717L216.428 99.0383C216.483 98.9531 216.561 98.9058 216.648 98.9153Z" fill="#00347F"/>
<path d="M200.401 128.546C200.103 128.271 199.68 128.337 199.444 128.688L197.632 131.518C197.405 131.878 197.46 132.389 197.75 132.673C198.048 132.948 198.472 132.881 198.707 132.531L200.519 129.701C200.754 129.341 200.7 128.83 200.401 128.546Z" fill="#00347F"/>
<path d="M200.418 128.563L200.679 128.806L216.758 103.758L216.498 103.515L200.418 128.563Z" fill="#00347F"/>
<path fill-rule="evenodd" clip-rule="evenodd" d="M188.282 125.413L194.762 128.442C196.111 127.789 198.417 127.353 199.759 128.196C200.143 128.877 196.095 128.745 196.558 129.351C197.735 130.884 203.822 129.994 203.563 130.951C202.418 135.144 196.025 132.816 192.636 132.55C190.439 132.408 189.49 132.172 188.682 132.068L188.282 125.413Z" fill="#F6CBAD"/>
<path d="M173.785 65.1572C173.785 65.1572 174.601 71.178 171.33 73.3459C168.059 75.5138 162.395 76.858 151.586 71.9922C140.776 67.1358 138.117 76.3374 138.117 79.5844" stroke="white" stroke-width="0.755" stroke-miterlimit="10" stroke-linecap="round" stroke-linejoin="round"/>
<path d="M177.59 72.3804C177.716 72.5129 177.943 75.6558 180.454 73.4028" stroke="#00347F" stroke-width="1.511" stroke-miterlimit="10" stroke-linecap="round" stroke-linejoin="round"/>
<path d="M161.87 109.527L157.917 110.569" stroke="#00347F" stroke-width="1.511" stroke-miterlimit="10" stroke-linecap="round" stroke-linejoin="round"/>
<path d="M168.969 100.25L172.899 95.5452C172.899 95.5452 179.285 88.4831 173.346 83.0776" stroke="#00347F" stroke-width="1.511" stroke-miterlimit="10" stroke-linecap="round" stroke-linejoin="round"/>
<path d="M188.102 104.946L186.988 107.152" stroke="#00347F" stroke-width="1.511" stroke-miterlimit="10" stroke-linecap="round" stroke-linejoin="round"/>
<path fill-rule="evenodd" clip-rule="evenodd" d="M150.339 107.151C150.339 107.151 157.791 112.434 152.747 119.051L150.409 117.016C150.401 117.025 147.499 112.954 150.339 107.151Z" fill="#F4BE99"/>
<path d="M180.226 78.4482C180.226 78.4482 179.896 82.4621 180.853 87.2333M184.32 80.3889C184.32 80.3889 185.764 83.6738 186.588 85.0276C187.411 86.3813 192.055 91.569 188.486 102.683L194.032 106.432" stroke="#00347F" stroke-width="1.511" stroke-miterlimit="10" stroke-linecap="round" stroke-linejoin="round"/>
<path d="M216.993 90.5565L220.17 77.3789" stroke="#00347F" stroke-width="1.511" stroke-miterlimit="10" stroke-linecap="round" stroke-linejoin="round"/>
<path d="M188.965 205.519C188.965 205.519 206.364 214.494 214.695 192.777" stroke="#00347F" stroke-width="1.511" stroke-miterlimit="10" stroke-linecap="round" stroke-linejoin="round"/>
<path fill-rule="evenodd" clip-rule="evenodd" d="M147.57 219.085C147.248 219.407 146.762 219.36 146.495 218.962L143.757 214.986C143.491 214.598 143.53 214.011 143.859 213.689C144.181 213.367 144.667 213.415 144.934 213.812L147.672 217.788C147.938 218.176 147.899 218.763 147.57 219.085ZM217.064 213.888C217.401 214.191 217.464 214.768 217.213 215.175L214.64 219.303C214.389 219.71 213.91 219.786 213.573 219.483C213.236 219.18 213.173 218.602 213.424 218.195L215.997 214.068C216.248 213.67 216.726 213.585 217.064 213.888Z" fill="#00347F"/>
<path d="M207.564 206.703C207.564 206.703 209.651 207.29 212.357 213.348M153.531 206.703C153.531 206.703 151.006 207.536 148.448 213.983" stroke="#00347F" stroke-width="1.511" stroke-miterlimit="10" stroke-linecap="round" stroke-linejoin="round"/>
<path d="M168.185 130.241C168.185 130.241 156.936 130.241 154.496 130.61C153.743 130.724 147.217 132.096 147.53 139.395C147.836 146.694 153.469 188.65 159.556 199.035" stroke="white" stroke-width="0.755" stroke-miterlimit="10"/>
<path d="M175.872 134.188C175.872 134.188 155.233 133.005 155.304 143.551C155.374 154.097 166.631 190.089 171.424 203.333" stroke="white" stroke-width="0.755" stroke-miterlimit="10"/>
<path d="M178.249 134.416C178.249 134.416 169.777 142.481 170.06 148.445C170.35 154.409 173.472 165.712 173.472 165.712M182.171 134.416C182.171 134.416 186.847 138.287 185.035 150.064" stroke="white" stroke-width="0.755" stroke-miterlimit="10"/>
<path fill-rule="evenodd" clip-rule="evenodd" d="M217.683 108.079C217.683 108.079 220.013 109.367 220.993 111.156L221.731 105.94C221.723 105.93 219.048 105.286 217.683 108.079Z" fill="#F4BE99"/>
<path d="M170.507 114.725L187.545 124.968" stroke="#00347F" stroke-width="1.511" stroke-miterlimit="10" stroke-linecap="round" stroke-linejoin="round"/>
<path d="M149.35 74.4439C148.683 74.3492 138.415 72.4559 140.086 83.0775C141.992 95.1759 154.59 86.4855 154.59 86.4855" stroke="white" stroke-width="0.755" stroke-miterlimit="10" stroke-linecap="round" stroke-linejoin="round"/>
<path d="M171.989 67.9216C161.368 81.3454 149.35 55.6812 136.619 68.2151" stroke="#00347F" stroke-width="1.511" stroke-miterlimit="10" stroke-linecap="round" stroke-linejoin="round"/>
<path d="M167.738 202.102L161.901 222.531" stroke="#00347F" stroke-width="1.511" stroke-miterlimit="10" stroke-linecap="round" stroke-linejoin="round"/>
<path d="M176.225 203.342V220.013" stroke="#00347F" stroke-width="1.511" stroke-miterlimit="10" stroke-linecap="round" stroke-linejoin="round"/>
<path d="M192.157 206.599L196.001 220.619" stroke="#00347F" stroke-width="1.511" stroke-miterlimit="10" stroke-linecap="round" stroke-linejoin="round"/>
<path d="M84.9556 224.038H262.617" stroke="#00347F" stroke-miterlimit="10"/>
<path fill-rule="evenodd" clip-rule="evenodd" d="M141.671 138.592C141.828 138.185 140.918 137.276 139.639 136.557C138.996 136.197 138.384 135.951 137.913 135.856C138.376 135.449 138.909 134.881 139.427 134.2C140.674 132.562 141.404 130.915 141.043 130.517C140.682 130.12 139.38 131.123 138.133 132.761C137.505 133.584 137.003 134.417 136.713 135.08C136.368 134.787 135.929 134.474 135.426 134.2C134.148 133.48 132.987 133.234 132.83 133.632C132.673 134.039 133.583 134.948 134.862 135.667C135.238 135.875 135.599 136.046 135.929 136.169C135.379 136.566 134.689 137.267 134.007 138.147C132.759 139.785 132.03 141.432 132.391 141.83C132.752 142.227 134.054 141.224 135.301 139.586C136.219 138.384 136.846 137.182 136.98 136.472C137.019 136.453 137.058 136.443 137.097 136.415C137.105 136.415 137.113 136.415 137.121 136.415C137.388 136.869 138.125 137.504 139.058 138.024C140.353 138.744 141.514 138.999 141.671 138.592Z" fill="#F8C800"/>
<path fill-rule="evenodd" clip-rule="evenodd" d="M152.379 148.409C152.622 148.542 153.155 147.727 153.555 146.591C153.759 146.023 153.893 145.484 153.94 145.067C154.191 145.465 154.544 145.919 154.967 146.355C155.971 147.415 156.975 148.011 157.211 147.69C157.438 147.368 156.811 146.251 155.807 145.19C155.297 144.66 154.795 144.244 154.387 143.998C154.559 143.695 154.732 143.297 154.889 142.862C155.297 141.735 155.422 140.713 155.171 140.58C154.928 140.448 154.395 141.262 153.994 142.398C153.877 142.729 153.783 143.051 153.712 143.344C153.461 142.871 153.03 142.284 152.488 141.707C151.484 140.646 150.48 140.05 150.245 140.372C150.017 140.694 150.645 141.811 151.649 142.871C152.386 143.647 153.124 144.177 153.555 144.272C153.563 144.31 153.579 144.338 153.587 144.376C153.587 144.386 153.587 144.386 153.587 144.395C153.32 144.641 152.959 145.295 152.661 146.118C152.261 147.264 152.135 148.277 152.379 148.409ZM139.42 158.245C139.663 158.103 139.482 157.09 139.027 155.992C138.8 155.433 138.541 154.969 138.313 154.657C138.729 154.676 139.239 154.648 139.788 154.543C141.106 154.297 142.134 153.758 142.079 153.341C142.024 152.925 140.91 152.783 139.592 153.029C138.925 153.152 138.337 153.351 137.921 153.568C137.835 153.209 137.702 152.802 137.529 152.366C137.074 151.268 136.509 150.492 136.274 150.634C136.031 150.776 136.211 151.789 136.666 152.887C136.799 153.209 136.941 153.502 137.082 153.758C136.627 153.682 135.968 153.701 135.254 153.833C133.936 154.08 132.909 154.619 132.964 155.036C133.018 155.452 134.132 155.594 135.45 155.348C136.415 155.168 137.223 154.827 137.568 154.496C137.592 154.506 137.623 154.525 137.655 154.534C137.662 154.534 137.662 154.543 137.67 154.543C137.647 154.951 137.835 155.708 138.164 156.513C138.619 157.611 139.184 158.387 139.42 158.245Z" fill="white"/>
<path fill-rule="evenodd" clip-rule="evenodd" d="M146.746 195.25C146.989 195.382 147.523 194.568 147.923 193.432C148.127 192.864 148.26 192.325 148.307 191.908C148.558 192.306 148.911 192.76 149.335 193.196C150.339 194.256 151.343 194.852 151.578 194.53C151.806 194.209 151.178 193.092 150.174 192.031C149.664 191.501 149.162 191.085 148.754 190.838C148.927 190.536 149.1 190.138 149.256 189.702C149.664 188.576 149.79 187.554 149.539 187.421C149.296 187.288 148.762 188.103 148.362 189.239C148.244 189.57 148.15 189.892 148.08 190.185C147.829 189.712 147.397 189.125 146.856 188.548C145.852 187.487 144.848 186.891 144.613 187.213C144.385 187.535 145.013 188.652 146.017 189.712C146.754 190.488 147.491 191.018 147.923 191.113C147.931 191.151 147.946 191.179 147.954 191.217C147.954 191.227 147.954 191.227 147.954 191.236C147.688 191.482 147.327 192.135 147.029 192.959C146.629 194.104 146.503 195.127 146.746 195.25Z" fill="#F8C800"/>
<path fill-rule="evenodd" clip-rule="evenodd" d="M134.171 176.477C134.03 176.752 134.603 177.509 135.458 178.172C135.889 178.503 136.313 178.749 136.642 178.882C136.274 179.119 135.85 179.469 135.419 179.895C134.391 180.917 133.74 182.015 133.96 182.347C134.187 182.678 135.199 182.11 136.227 181.078C136.744 180.558 137.168 180.027 137.435 179.583C137.654 179.838 137.952 180.113 138.282 180.368C139.137 181.031 139.953 181.353 140.094 181.078C140.235 180.804 139.663 180.046 138.807 179.384C138.556 179.185 138.313 179.024 138.086 178.891C138.509 178.674 139.066 178.257 139.623 177.699C140.651 176.676 141.302 175.578 141.082 175.247C140.855 174.915 139.843 175.483 138.815 176.515C138.062 177.263 137.513 178.058 137.356 178.551C137.325 178.56 137.293 178.56 137.262 178.57C137.254 178.57 137.254 178.57 137.246 178.57C137.09 178.21 136.611 177.67 135.983 177.187C135.128 176.525 134.32 176.203 134.171 176.477Z" fill="white"/>
<path fill-rule="evenodd" clip-rule="evenodd" d="M149.601 171.867C149.97 171.896 150.339 170.542 150.425 168.847C150.464 167.995 150.433 167.219 150.339 166.651C150.825 167.03 151.461 167.408 152.174 167.749C153.892 168.554 155.43 168.762 155.61 168.213C155.783 167.664 154.536 166.575 152.81 165.771C151.939 165.364 151.123 165.108 150.496 165.032C150.598 164.54 150.676 163.925 150.708 163.271C150.794 161.577 150.566 160.176 150.19 160.147C149.821 160.119 149.452 161.473 149.366 163.167C149.343 163.66 149.343 164.133 149.366 164.549C148.864 164.076 148.064 163.555 147.138 163.12C145.42 162.315 143.883 162.107 143.702 162.656C143.53 163.205 144.777 164.294 146.503 165.098C147.758 165.685 148.919 165.96 149.523 165.846C149.547 165.884 149.578 165.922 149.609 165.96C149.609 165.969 149.617 165.979 149.617 165.988C149.358 166.452 149.147 167.512 149.084 168.753C149.005 170.438 149.233 171.839 149.601 171.867Z" fill="#F8C800"/>
<defs>
<linearGradient id="paint0_linear_12_1033" x1="121.586" y1="120.136" x2="115.177" y2="136.266" gradientUnits="userSpaceOnUse">
<stop offset="0.095" stop-color="white"/>
<stop offset="0.754" stop-color="#FBE0DF"/>
<stop offset="0.979" stop-color="#F9D4D3"/>
</linearGradient>
<linearGradient id="paint1_linear_12_1033" x1="229.788" y1="141.538" x2="223.38" y2="157.667" gradientUnits="userSpaceOnUse">
<stop offset="0.095" stop-color="white"/>
<stop offset="0.754" stop-color="#FBE0DF"/>
<stop offset="0.979" stop-color="#F9D4D3"/>
</linearGradient>
<linearGradient id="paint2_linear_12_1033" x1="110.399" y1="167.092" x2="110.399" y2="240.12" gradientUnits="userSpaceOnUse">
<stop offset="0.095" stop-color="#E0AC26"/>
<stop offset="0.754" stop-color="#FBE0DF"/>
<stop offset="0.979" stop-color="#DAD211"/>
</linearGradient>
<linearGradient id="paint3_linear_12_1033" x1="266.461" y1="98.3698" x2="266.461" y2="172.441" gradientUnits="userSpaceOnUse">
<stop offset="0.095" stop-color="white"/>
<stop offset="0.754" stop-color="#FBE0DF"/>
<stop offset="0.979" stop-color="#F9D4D3"/>
</linearGradient>
</defs>
</svg>
