<svg width="30" height="28" viewBox="0 0 30 28" fill="none" xmlns="http://www.w3.org/2000/svg">
<path fill-rule="evenodd" clip-rule="evenodd" d="M23.1837 6.79045C24.1277 7.70257 24.1277 9.18297 23.1837 10.0954L21.3561 11.862L16.4472 7.11785L18.2748 5.3513C19.2188 4.43889 20.7519 4.43889 21.6959 5.3513L23.1837 6.79045ZM6.79072 16.4536L15.5938 7.94346L20.5027 12.6869L11.6969 21.1948C11.3042 21.5744 10.8171 21.8554 10.2847 22.0051L5.74098 23.2972C5.42304 23.3884 5.07904 23.3045 4.84455 23.0453C4.61005 22.8519 4.52238 22.5197 4.61595 22.2095L5.95244 17.8186C6.10952 17.304 6.39764 16.8332 6.79072 16.4536ZM26.3291 22.4577C26.3291 21.9722 25.9251 21.5817 25.4229 21.5817H13.9437C13.4415 21.5817 13.0374 21.9722 13.0374 22.4577C13.0374 22.9431 13.4415 23.3337 13.9437 23.3337H25.4229C25.9251 23.3337 26.3291 22.9431 26.3291 22.4577Z" fill="white"/>
</svg>
