<svg width="358" height="258" viewBox="0 0 358 258" fill="none" xmlns="http://www.w3.org/2000/svg">
<g filter="url(#filter0_d_33_101)">
<rect x="4" width="350" height="250" rx="31" fill="#E2480D"/>
</g>
<mask id="mask0_33_101" style="mask-type:alpha" maskUnits="userSpaceOnUse" x="4" y="0" width="350" height="250">
<rect x="4" width="350" height="250" rx="31" fill="#E2480D"/>
</mask>
<g mask="url(#mask0_33_101)">
</g>
<g clip-path="url(#clip0_33_101)">
<path opacity="0.1" d="M240.723 215C253.456 215 263.779 212.852 263.779 210.204C263.779 207.555 253.456 205.407 240.723 205.407C227.989 205.407 217.667 207.555 217.667 210.204C217.667 212.852 227.989 215 240.723 215Z" fill="#2A94F4"/>
<path opacity="0.1" d="M239.855 76.8799C206.2 76.8799 178.917 105.411 178.917 140.606C178.917 175.8 206.2 204.332 239.855 204.332C273.51 204.332 300.793 175.8 300.793 140.606C300.793 105.411 273.51 76.8799 239.855 76.8799ZM279.534 146.05L223.133 186.871C220.22 188.984 216.228 186.793 216.228 183.085V101.458C216.228 97.7503 220.208 95.5595 223.133 97.6725L279.534 138.493C282.063 140.321 282.063 144.222 279.534 146.05Z" fill="#F9F5ED"/>
<path d="M234.438 95.2482C234.438 95.2482 229.219 95.1316 228.5 105.67C227.781 116.209 226.641 119.657 220.455 122.25C214.27 124.843 212.361 133.359 216.923 137.352C221.484 141.345 240.425 154.8 242.855 138.726C245.284 122.652 247.925 128.991 251.891 122.795C259.031 111.646 247.044 96.8686 242.594 95.9223C238.144 94.976 234.438 95.2482 234.438 95.2482Z" fill="#0B4870"/>
<path d="M246.871 119.839L246.995 119.645L247.094 119.489L247.231 119.243L247.516 118.763L248.074 117.817L249.177 115.925L251.383 112.139C252.846 109.612 254.309 107.097 255.772 104.517L255.908 104.271L256.057 103.986C256.156 103.791 256.267 103.584 256.354 103.402C256.515 103.039 256.689 102.676 256.838 102.326C257.135 101.613 257.408 100.913 257.693 100.213C258.226 98.8134 258.734 97.4264 259.23 96.0264C260.222 93.2394 261.598 87.4838 261.598 87.4838L259.527 86.8486C259.527 86.8486 256.652 91.8134 255.573 94.5097C255.028 95.8579 254.482 97.206 253.912 98.5153C253.627 99.1764 253.342 99.8246 253.044 100.447C252.896 100.771 252.747 101.056 252.598 101.354C252.524 101.497 252.449 101.613 252.387 101.743L252.276 101.938L252.14 102.158C250.615 104.582 249.028 107.045 247.454 109.482L242.793 116.676L242.669 116.871C241.876 118.089 242.186 119.749 243.351 120.565C244.516 121.395 246.103 121.071 246.884 119.852C246.859 119.865 246.871 119.839 246.871 119.839Z" fill="#B97A59"/>
<path d="M261.597 87.8466C261.597 87.8466 262.75 83.5818 261.238 81.9355C259.725 80.3021 258.064 81.6503 258.387 83.5688C258.709 85.4873 259.354 87.5225 259.044 88.3521C258.746 89.1688 260.011 89.441 260.011 89.441L261.597 87.8466Z" fill="#B97A59"/>
<path opacity="0.5" d="M245.036 117.415C245.148 117.467 246.04 126.152 245.718 127.422C245.445 128.498 244.07 130.676 243.289 131.817C243.078 130.326 242.867 128.848 242.681 127.371L242.198 123.469C242.247 123.196 242.309 122.924 242.371 122.639C243.239 118.556 244.925 117.376 245.036 117.415Z" fill="#F5A171"/>
<path d="M246.784 129.186C246.549 130.223 246.636 139.478 246.945 144.754H233.843C234.041 144.443 236.111 138.48 235.64 137.002C234.339 132.919 231.699 124.636 231.475 123.754C231.178 122.575 231.537 116.573 231.773 116.326C232.008 116.08 236.359 114.213 236.731 114.252C237.103 114.291 240.946 113.241 240.946 113.241L242.57 114.758C242.731 114.797 243.995 114.356 244.863 115.004C244.875 115.082 244.913 115.147 244.962 115.225C246.115 116.845 247.826 123.741 247.95 123.962C248.235 124.519 249.102 127.319 246.784 129.186Z" fill="#FFBE55"/>
<path d="M242.557 114.732L242.57 114.758H235.38C235.368 114.732 235.368 114.693 235.368 114.667C237.599 112.969 235.008 104.841 235.008 104.115C235.008 104.115 241.045 105.567 242.607 107.291C238.801 111.893 242.557 114.732 242.557 114.732Z" fill="#A56950"/>
<path d="M234.029 106.643C233.695 105.074 233.31 103.519 233.31 101.924C233.31 91.3722 244.776 94.6778 244.776 99.0852C244.776 101.73 245.136 106.474 243.512 109.585C242.868 110.817 241.529 111.452 240.227 111.154C237.029 110.428 234.525 108.976 234.042 106.694L234.029 106.643ZM235.356 119.644L235.281 119.865L235.207 120.033L235.095 120.293L234.885 120.811L234.463 121.835L233.62 123.87L231.934 127.941C230.806 130.663 229.691 133.346 228.526 136.081L228.414 136.341L228.278 136.639C228.178 136.833 228.092 137.041 227.993 137.222C227.807 137.572 227.621 137.935 227.422 138.259C227.038 138.92 226.654 139.569 226.269 140.204C225.489 141.474 224.695 142.706 223.902 143.937C222.303 146.4 218.609 150.898 218.609 150.898L216.911 149.498C216.911 149.498 219.117 144.183 220.605 141.694C221.336 140.45 222.067 139.206 222.774 137.961C223.121 137.339 223.456 136.717 223.778 136.094C223.939 135.783 224.075 135.485 224.224 135.187C224.286 135.044 224.336 134.915 224.398 134.785L224.484 134.578L224.584 134.331C225.6 131.622 226.604 128.848 227.596 126.1L230.509 117.972L230.583 117.752C231.079 116.378 232.542 115.678 233.856 116.196C235.17 116.715 235.839 118.244 235.343 119.619C235.368 119.619 235.356 119.631 235.356 119.644Z" fill="#B97A59"/>
<path d="M218.906 150.691C218.906 150.691 216.241 154.139 214.096 153.802C211.952 153.465 212.039 151.261 213.725 150.432C215.41 149.602 217.369 148.967 217.84 148.228C218.311 147.489 219.241 148.422 219.241 148.422L218.906 150.691Z" fill="#B97A59"/>
<path d="M243.152 143.392C245.941 143.392 246.76 140.761 246.76 140.761L247.912 145.544C247.218 146.153 245.892 145.842 245.83 146.789C245.433 146.814 244.913 146.763 244.243 146.581C240.475 145.557 237.091 145.272 237.091 145.272C237.091 145.272 236.707 144.014 236.384 143.211C236.062 142.407 235.07 140.761 235.07 140.761C235.07 140.761 240.376 143.392 243.152 143.392Z" fill="#F6E8FF"/>
<path d="M254.866 209.258C255.251 209.245 255.35 208.713 255.003 208.545C253.837 208.013 252.561 207.391 251.928 207.313C250.962 207.184 248.111 207.184 248.111 207.184C248.111 207.184 247.813 209.4 247.987 209.4C248.111 209.413 252.375 209.322 254.866 209.258ZM234.376 210.048C234.76 210.035 234.859 209.504 234.512 209.335C233.347 208.804 232.07 208.182 231.438 208.104C230.471 207.974 227.62 207.974 227.62 207.974C227.62 207.974 227.323 210.191 227.496 210.191C227.62 210.204 231.884 210.1 234.376 210.048Z" fill="#0B4870"/>
<path d="M258.498 170.848L246.784 140.748L235.083 140.618C234.686 141.409 231.686 145.764 231.29 149.783C230.918 153.503 236.694 171.561 237.996 176.759C238.033 176.746 227.67 207.987 227.67 207.987L230.471 207.974L243.289 180.842C244.516 178.574 244.975 175.929 244.578 173.363L243.165 154.177C246.611 161.851 252.486 173.777 252.771 174.439C249.908 189.281 248.061 207.17 248.061 207.17L250.937 207.235L258.895 178.444C259.589 175.942 259.453 173.259 258.498 170.848Z" fill="#0E538C"/>
<path d="M234.847 104.089C234.847 104.958 234.24 105.671 233.496 105.671C232.752 105.671 232.145 104.958 232.145 104.089C232.145 103.221 232.752 102.508 233.496 102.508C234.252 102.508 234.847 103.221 234.847 104.089Z" fill="#F5A171"/>
<path d="M236.608 98.1C236.608 98.1 237.079 103.687 233.509 103.052C233.509 103.052 229.753 101.237 233.509 96.2722C237.265 91.3074 244.417 95.1444 245.074 98.3852C245.731 101.626 244.714 104.698 244.714 104.698C244.714 104.698 245.384 99.1241 243.5 97.9963C241.132 96.5833 239.855 100.796 236.608 98.1Z" fill="#0B4870"/>
<path d="M232.405 105.956C232.293 104.854 233.012 103.998 234.004 104.05C234.996 104.102 235.888 105.035 236 106.15C236.111 107.252 235.392 108.107 234.401 108.056C233.421 108.004 232.517 107.057 232.405 105.956Z" fill="url(#paint0_linear_33_101)"/>
<path d="M233.806 108.821C235.216 108.821 236.36 107.463 236.36 105.787C236.36 104.112 235.216 102.754 233.806 102.754C232.396 102.754 231.252 104.112 231.252 105.787C231.252 107.463 232.396 108.821 233.806 108.821Z" fill="#341675"/>
<path d="M237.413 105.372C237.413 107.433 235.727 109.105 234.054 109.105C232.38 109.105 231.029 107.433 231.029 105.372C231.029 103.311 232.38 101.639 234.054 101.639C235.74 101.639 237.413 103.311 237.413 105.372Z" fill="#A1C9E2"/>
<path d="M233.818 109.105C235.359 109.105 236.607 107.434 236.607 105.372C236.607 103.31 235.359 101.639 233.818 101.639C232.278 101.639 231.029 103.31 231.029 105.372C231.029 107.434 232.278 109.105 233.818 109.105Z" fill="#F7F7F7"/>
<path d="M232.777 102.067C232.777 101.924 232.963 95.1187 238.9 94.6002C240.177 94.4706 243.71 96.078 243.71 96.078C243.71 96.078 238.9 93.991 236.173 97.2058C234.797 98.8391 234.463 102.145 234.463 102.145L232.777 102.067Z" fill="#F7F7F7"/>
<path d="M195.205 189.152L195.131 174.607H194.375L194.437 187.389C193.879 186.831 193.061 186.481 192.144 186.481C190.458 186.481 189.094 187.674 189.094 189.139C189.094 190.604 190.458 191.77 192.144 191.77C193.817 191.77 195.168 190.681 195.193 189.126H195.218V189.152H195.205Z" fill="#FFBE55"/>
<path d="M269.27 135.213C268.936 134.344 268.056 133.787 267.014 133.787C266.432 133.787 265.861 133.968 265.39 134.292C265.031 134.539 264.758 134.85 264.548 135.213L264.597 124.194H263.841L263.767 138.778V139.426L264.151 139.439C264.151 139.439 264.275 139.426 264.473 139.426C265.143 139.426 266.419 139.374 267.411 138.933C268.973 138.246 269.791 136.587 269.27 135.213ZM267.101 138.168C266.258 138.544 265.13 138.609 264.585 138.609C264.634 136.704 265.019 135.589 265.837 135.018C266.171 134.785 266.593 134.655 267.002 134.655C267.708 134.655 268.303 135.005 268.502 135.537C268.874 136.47 268.242 137.663 267.101 138.168Z" fill="#0B4870"/>
<path d="M297.744 154.1C298.971 154.1 299.975 154.903 299.975 155.901C299.975 156.9 298.971 157.703 297.744 157.703C296.516 157.703 295.512 156.9 295.512 155.901C295.512 154.916 296.516 154.1 297.744 154.1ZM297.744 153.244C296.058 153.244 294.694 154.437 294.694 155.901C294.694 157.366 296.058 158.559 297.744 158.559C299.429 158.559 300.793 157.366 300.793 155.901C300.793 154.437 299.429 153.244 297.744 153.244ZM225.687 89.9718L225.637 75.4404V75.207L214.927 76.5941L214.939 78.3311L214.989 89.5052C214.431 88.9478 213.613 88.5978 212.696 88.5978C211.01 88.5978 209.646 89.7904 209.646 91.2552C209.646 92.72 211.01 93.8867 212.696 93.8867C214.369 93.8867 215.72 92.8107 215.745 91.2422V91.2681L215.708 78.2404L224.881 76.9959L224.931 88.2218C224.373 87.6644 223.555 87.3144 222.637 87.3144C220.951 87.3144 219.588 88.507 219.588 89.9718C219.588 91.4367 220.951 92.6033 222.637 92.6033C224.311 92.6033 225.662 91.5274 225.687 89.9589V89.9718Z" fill="#FFBE55"/>
<path d="M284.133 97.2831C283.513 96.9072 282.745 97.0498 282.447 97.5813H282.435L279.757 102.468L276.051 100.861L278.369 96.635C278.468 96.972 278.703 97.2831 279.038 97.4905C279.67 97.8665 280.427 97.7368 280.736 97.1794C281.046 96.635 280.774 95.8831 280.141 95.4943C279.522 95.1183 278.753 95.2609 278.456 95.7924H278.443L275.456 101.25L275.406 101.341L279.708 103.246L280.055 102.598L282.36 98.385C282.459 98.722 282.695 99.0331 283.03 99.2405C283.662 99.6165 284.418 99.4868 284.728 98.9424C285.038 98.398 284.765 97.672 284.133 97.2831ZM199.06 112.061C198.341 112.165 197.833 112.774 197.907 113.383H197.895L198.651 118.97L194.784 120.072L194.127 115.25C194.399 115.457 194.771 115.548 195.168 115.496C195.887 115.392 196.408 114.796 196.321 114.161C196.234 113.526 195.589 113.111 194.858 113.215C194.139 113.318 193.631 113.928 193.705 114.537H193.693L194.548 120.759L194.561 120.863L199.085 119.605L198.973 118.866L198.317 114.07C198.589 114.278 198.961 114.368 199.358 114.316C200.077 114.213 200.597 113.616 200.511 112.994C200.424 112.372 199.779 111.957 199.06 112.061Z" fill="#0B4870"/>
<path d="M288.137 194.466L288.087 179.922V179.676L277.377 181.076L277.39 182.8L277.439 193.987C276.882 193.429 276.063 193.079 275.146 193.079C273.46 193.079 272.097 194.272 272.097 195.737C272.097 197.202 273.46 198.355 275.146 198.355C276.807 198.355 278.158 197.279 278.196 195.711L278.158 184.342L287.331 183.033L287.368 192.69C286.811 192.133 285.993 191.783 285.075 191.783C283.389 191.783 282.026 192.976 282.026 194.44C282.026 195.905 283.389 197.137 285.075 197.137C286.736 197.137 288.087 195.996 288.125 194.57V194.466H288.137ZM278.158 183.5V182.722L287.331 181.478V182.19L278.158 183.5ZM310.536 118.62C309.458 118.62 308.578 119.411 308.553 120.331L308.578 127.707L302.628 128.563L302.603 122.289C302.962 122.652 303.495 122.872 304.09 122.872C305.181 122.872 306.074 122.094 306.074 121.148C306.074 120.189 305.194 119.437 304.09 119.437C303.012 119.437 302.132 120.228 302.107 121.148L302.144 130.559V130.728L309.098 129.82L309.086 128.705L309.049 121.446C309.408 121.809 309.941 122.029 310.536 122.029C311.627 122.029 312.52 121.265 312.52 120.305C312.52 119.385 311.627 118.62 310.536 118.62ZM308.578 128.278V128.783L302.628 129.6V129.146L308.578 128.278ZM190.16 142.511C189.082 142.511 188.202 143.302 188.177 144.222L188.202 151.598L182.252 152.453L182.227 146.179C182.586 146.542 183.119 146.763 183.714 146.763C184.805 146.763 185.698 145.985 185.698 145.039C185.698 144.079 184.818 143.328 183.714 143.328C182.636 143.328 181.756 144.118 181.731 145.039L181.768 154.45V154.618L188.722 153.711L188.71 152.596L188.673 145.337C189.032 145.7 189.565 145.92 190.16 145.92C191.251 145.92 192.144 145.155 192.144 144.196C192.144 143.276 191.264 142.511 190.16 142.511ZM188.214 152.168V152.674L182.264 153.49V153.037L188.214 152.168Z" fill="#FFBE55"/>
</g>
<defs>
<filter id="filter0_d_33_101" x="0" y="0" width="358" height="258" filterUnits="userSpaceOnUse" color-interpolation-filters="sRGB">
<feFlood flood-opacity="0" result="BackgroundImageFix"/>
<feColorMatrix in="SourceAlpha" type="matrix" values="0 0 0 0 0 0 0 0 0 0 0 0 0 0 0 0 0 0 127 0" result="hardAlpha"/>
<feOffset dy="4"/>
<feGaussianBlur stdDeviation="2"/>
<feComposite in2="hardAlpha" operator="out"/>
<feColorMatrix type="matrix" values="0 0 0 0 0 0 0 0 0 0 0 0 0 0 0 0 0 0 0.25 0"/>
<feBlend mode="normal" in2="BackgroundImageFix" result="effect1_dropShadow_33_101"/>
<feBlend mode="normal" in="SourceGraphic" in2="effect1_dropShadow_33_101" result="shape"/>
</filter>
<linearGradient id="paint0_linear_33_101" x1="233.134" y1="95.3523" x2="231.738" y2="122.236" gradientUnits="userSpaceOnUse">
<stop stop-color="#FFAC85"/>
<stop offset="1" stop-color="#FF8E59"/>
</linearGradient>
<clipPath id="clip0_33_101">
<rect width="238" height="140" fill="white" transform="translate(117 75)"/>
</clipPath>
</defs>
</svg>
