<svg width="154" height="130" viewBox="0 0 154 130" fill="none" xmlns="http://www.w3.org/2000/svg">
<g filter="url(#filter0_f_224_772)">
<path fill-rule="evenodd" clip-rule="evenodd" d="M87.9979 92.1331C74.4741 91.491 62.7698 93.6778 65.3179 97.0076C69.3302 102.245 81.1793 100.212 88.1607 103.681C95.9973 107.574 109.681 102.475 108.795 98.5505C107.635 93.4216 94.5633 92.4451 87.9979 92.1331ZM60.5422 25.0524C52.5971 26.7846 47.2555 31.6918 50.5478 35.3532C55.7287 41.1105 61.2382 36.3678 67.0949 39.3726C73.6685 42.7438 80.177 38.4709 77.4838 33.759C73.9634 27.6026 64.3994 24.2122 60.5422 25.0524Z" fill="#F0EFF4"/>
<path fill-rule="evenodd" clip-rule="evenodd" d="M86.5121 91.111C119.245 101.062 137.356 66.5433 120.62 48.4522C89.0124 14.2957 79.9728 53.9206 55.3007 42.4941C27.6122 29.6757 22.0235 65.3339 28.7637 77.1657C47.2898 109.726 69.5192 85.9465 86.5121 91.111Z" fill="#F0EFF4"/>
<path d="M30.2285 79.3909C30.4779 79.0306 30.7801 78.7308 31.0265 78.3364C31.0339 78.325 31.0378 78.3061 31.0451 78.2947C31.8972 77.6604 32.9156 76.9232 33.7017 76.1718C34.939 74.98 35.874 73.6486 36.6517 72.3025C37.6325 70.7157 38.2395 68.9718 38.4367 67.1746C38.4737 66.4322 38.9066 64.7157 37.9447 64.3959C37.1078 64.3221 35.5585 65.5449 34.9598 66.0196C32.7123 67.8841 30.9175 70.1072 30.02 72.427C29.7542 73.1459 29.6736 73.9078 29.784 74.6575C29.8944 75.4071 30.1931 76.1259 30.6585 76.7618C30.8292 77.053 31.0561 77.4123 31.0655 77.7342C31.0472 77.9245 30.987 78.11 30.8882 78.2802C30.8719 78.2925 30.8572 78.3065 30.8445 78.3219C30.8403 78.3288 30.8377 78.3364 30.8369 78.3442C30.8362 78.3521 30.8373 78.3599 30.8402 78.3674C30.6879 78.5924 30.518 78.8079 30.3318 79.0123C30.2843 79.073 30.2402 79.1413 30.1926 79.202C30.1075 78.9333 30.0224 78.6646 29.9229 78.3921C29.4469 77.2684 28.7692 76.2247 28.1129 75.1733C27.7818 74.6135 27.4364 74.05 27.0729 73.5017C27.6137 72.8452 28.2042 72.2153 28.6594 71.5365C29.5918 70.1445 30.3782 68.7075 30.9107 67.2369C31.5588 65.2775 32.4947 63.2342 32.1539 61.3073C32.0133 60.9173 31.8021 60.2629 31.1502 60.2643C31.0066 60.2798 30.88 60.3596 30.7641 60.4356L30.0145 60.9371C29.3449 61.3666 28.7212 61.8413 28.2322 62.3915C26.2951 64.5507 25.3186 67.3288 25.6274 69.6799C25.7964 70.7361 26.2819 71.7159 26.5302 72.753L26.5337 72.7606C26.4425 72.6436 26.3512 72.5262 26.2525 72.4203C25.458 71.5057 24.4901 70.6783 23.6955 69.7637C23.284 69.3025 22.8798 68.8301 22.4683 68.369L22.4648 68.3613C22.3719 68.1305 22.2889 67.9489 22.3031 67.7331C22.3486 67.3656 22.7 66.899 22.9222 66.4516C23.4258 65.4394 23.6147 64.3976 23.9109 63.3707C24.3436 61.6541 24.6834 59.9264 24.539 58.2377C24.5152 57.8325 24.4449 57.4305 24.3293 57.0376C24.1949 56.4964 23.5889 56.7628 23.1786 57.1008C22.3875 57.7313 21.6634 58.4258 21.146 59.1882C20.705 59.8707 20.5392 60.6059 20.3769 61.322C20.1483 62.3867 19.9551 63.474 20.1352 64.5C20.2545 65.0905 20.5429 65.639 20.8926 66.157C21.1645 66.6147 21.5847 66.9848 21.9759 67.3741C22.0499 67.4269 22.0879 67.5366 22.173 67.5857C22.1412 67.6841 22.1286 67.7866 22.136 67.8887L22.1656 68.0364C21.8696 67.719 21.5777 67.409 21.2639 67.1069C20.5013 66.4269 19.6729 65.8493 18.9131 65.2034C18.2271 64.6634 17.4723 64.1651 16.7681 63.6403C16.7703 63.6233 16.7752 63.6067 16.7829 63.591C16.8065 63.5237 16.8351 63.4579 16.8684 63.3939C17.0893 63.026 17.4101 62.6845 17.6596 62.3241C17.9967 61.8538 18.3626 61.3909 18.6426 60.9056C18.9199 60.3858 19.1525 59.8486 19.3385 59.2983C19.8059 58.0968 19.8902 56.8809 19.8128 55.6958C19.7839 55.2754 19.6792 54.8818 19.6243 54.5146C19.6013 54.3464 19.567 54.1796 19.5215 54.0149C19.4903 53.9468 19.4488 53.856 19.3343 53.8524C19.1839 53.8528 19.103 53.978 19.0265 54.0576C18.8332 54.2664 18.6366 54.4675 18.4364 54.6611C17.8839 55.1546 17.2532 55.6143 16.8002 56.1607C15.9714 57.1206 15.4558 58.2162 15.4386 59.2766C15.4719 60.0908 15.8683 60.8208 16.1786 61.5549C16.3506 61.9862 16.537 62.4213 16.5659 62.8419C16.5875 63.0539 16.5733 63.2698 16.5733 63.4895C16.1774 63.1722 15.7105 62.8097 15.3444 62.4204C15.2731 62.3456 15.2108 62.2645 15.1585 62.1784C15.175 62.1437 15.1794 62.1055 15.171 62.0686C15.1586 61.9869 15.1588 61.9041 15.1715 61.8224C15.197 61.3566 15.2691 60.883 15.2011 60.4325C15.1146 60.0237 14.8626 59.6645 14.6683 59.2937C14.2802 58.6066 13.8145 57.9555 13.2781 57.3502C11.8623 55.8726 10.2858 54.5922 8.52596 53.3501C8.36257 53.2672 7.9623 52.7757 7.77249 52.992C7.64062 53.39 7.65535 53.8065 7.59874 54.2043C7.45303 56.1095 8.34481 57.8685 9.74755 59.2629C10.185 59.6709 10.6191 60.0714 11.1326 60.4264C11.6605 60.785 12.279 61.0676 12.8578 61.3731C13.4047 61.6636 13.9805 61.9349 14.6333 62.1002C14.7147 62.1237 14.7983 62.1413 14.8831 62.1526C15.2127 62.624 15.6156 63.0527 16.0801 63.4262C14.3925 62.8087 13.0113 61.6266 10.9329 61.4721C9.98879 61.3833 8.99534 61.4612 8.01492 61.6224C7.26282 61.7231 6.52594 61.8975 5.81808 62.1424C5.47916 62.2795 5.09095 62.3634 4.80827 62.5688C4.47927 62.9747 5.27729 63.2383 5.64447 63.3547C6.33919 63.5566 7.11515 63.6346 7.86603 63.7126C8.53817 63.7831 9.19226 63.8686 9.88305 63.8975C10.024 64.7 10.1502 65.5253 10.7192 66.221C11.8246 67.6235 13.8066 68.6379 16.1405 68.7198C16.8529 68.7409 17.5753 68.5916 18.2898 68.4803C18.6993 68.415 19.1652 68.3913 19.5154 68.4435C20.2585 68.5593 21.0198 68.6598 21.8078 68.6543C21.8699 68.6567 21.9322 68.6553 21.9941 68.6501C22.5388 69.2927 23.0653 69.9505 23.6316 70.5855C24.4408 71.4775 25.3404 72.32 26.0304 73.2804C26.1773 73.4921 26.3243 73.7039 26.457 73.9119C25.0932 72.9871 23.9182 71.899 22.3365 71.1564C21.2497 70.6623 20.1169 70.2505 18.9503 69.9255C18.1442 69.7265 17.2956 69.49 16.3813 69.5485C14.8536 69.6655 13.3895 70.2784 11.9789 70.6792C11.6283 70.8731 12.1073 71.1523 12.2556 71.2845C13.1931 71.9906 14.4619 72.3779 15.7095 72.7462C16.9498 73.126 18.1497 73.5551 19.4561 73.8325C20.4477 74.0802 21.5355 74.1271 22.6209 74.1398C23.4085 74.1608 24.1736 74.2424 24.9462 74.3127C25.5406 74.3696 26.1391 74.3848 26.7362 74.3582C27.0259 74.8272 27.3012 75.2923 27.5799 75.7651C28.131 76.669 28.6333 77.4935 29.0656 78.4393C29.2851 78.9557 29.4714 79.4826 29.6237 80.0173C28.7875 79.9169 28.2006 79.4297 27.5739 78.9917C26.6777 78.3764 25.6618 77.856 24.6313 77.3584C23.5899 76.8644 22.5001 76.4845 21.4795 76.0361C20.0681 75.3916 18.613 74.7889 17.0482 74.3303C16.2943 74.1104 15.4991 74.0208 14.7064 74.0666C14.1121 74.0566 14.1756 74.3331 14.3788 74.6126C15.4677 75.9243 16.2744 77.4147 17.8081 78.4641C18.436 78.9022 19.1054 79.2922 19.8091 79.6299C20.3136 79.8825 20.8323 80.1389 21.428 80.289C22.9372 80.653 24.6338 80.7137 26.2942 80.5851C26.8822 80.5535 27.4541 80.4046 28.0258 80.2556C28.2993 80.1884 28.5675 80.1056 28.8286 80.0077L28.8827 79.9886C29.0395 80.0489 29.2033 80.0942 29.3711 80.1238C29.4677 80.1422 29.5656 80.1547 29.6641 80.1611C29.9362 81.1691 30.0875 82.1994 30.1155 83.2352C29.8803 82.9862 29.6037 82.7698 29.295 82.5932C28.9011 82.4019 28.464 82.289 28.0148 82.2628C26.9122 82.2387 25.8875 82.4682 24.8137 82.4253C23.8934 82.416 23.133 82.2624 22.262 82.0863C21.7086 81.9739 21.145 81.8388 20.5319 81.8705C19.5066 81.9333 18.6044 82.5677 17.9711 83.1865C17.7417 83.4256 17.5012 83.6685 17.3001 83.9151C17.1311 84.1768 17.4151 84.3311 17.6862 84.4026C18.2533 84.5452 18.8875 84.5326 19.5187 84.4856C20.2609 84.4347 20.9958 84.3952 21.7337 84.3898C22.6182 84.4028 23.5312 84.4238 24.3797 84.0015C24.8777 83.7732 25.2836 83.4807 25.7413 83.3017C26.7317 82.9702 27.8046 83.2857 28.7928 83.5259C29.1185 83.599 29.4561 83.6226 29.791 83.5957C29.9094 83.5894 30.026 83.5661 30.1359 83.5268C30.1549 84.3372 30.199 85.1475 30.1211 85.9657C30.1125 86.0567 30.1055 86.0415 30.0896 86.1437L30.0965 86.1589C30.0999 86.1665 30.0999 86.1665 30.0926 86.1778L30.0961 86.1854C30.0971 86.1939 30.1003 86.2021 30.1054 86.2093C30.1105 86.2166 30.1173 86.2228 30.1255 86.2275C30.1336 86.2322 30.1428 86.2353 30.1524 86.2365C30.1621 86.2377 30.1719 86.237 30.1812 86.2345C30.3098 86.2045 30.4318 86.1556 30.5418 86.0897C30.7172 86.0893 30.7142 85.616 30.7332 85.5477C30.785 85.0288 30.7968 84.5062 30.8124 83.9911C31.0466 83.9245 31.2697 83.8311 31.476 83.7132C31.6445 83.6035 31.797 83.476 31.9299 83.3334C31.9653 83.3561 32.0409 83.3294 32.1023 83.299C32.4412 83.1619 32.8221 83.0891 33.2181 82.967C33.6681 82.8259 34.1185 82.6583 34.5546 82.4869C35.6185 82.0415 36.57 81.4599 37.4579 80.8217C38.932 79.8187 40.1943 78.6267 41.0291 77.2957C41.3019 76.8217 41.6036 76.3287 41.6045 75.8363C41.5954 75.7341 41.6083 75.5977 41.4765 75.5564C41.3447 75.5151 41.1856 75.6062 41.0455 75.6293C40.7952 75.699 40.5408 75.7565 40.2833 75.8014C39.3353 75.9509 38.3799 76.1123 37.4924 76.5044C35.6639 77.281 33.6438 79.2585 33.0827 80.7216C32.8 81.366 32.7317 82.0403 32.3568 82.6205C32.1318 82.9367 31.8649 83.2284 31.5619 83.4895C31.3985 83.626 31.1603 83.7365 30.8542 83.8357L30.8326 83.8433C30.8361 83.6313 30.8361 83.4116 30.8396 83.1998C30.7715 81.8968 30.5882 80.6172 30.2285 79.3909ZM20.2716 68.3963C20.2543 68.3911 20.2362 68.3886 20.218 68.3888C20.1977 68.3169 20.0589 68.2603 20.0243 68.1847C19.7438 67.818 19.4706 67.4398 19.0599 67.1454C18.2143 66.5035 17.2196 66.002 16.2396 65.4777C15.299 64.9572 14.2529 64.5352 13.25 64.0717L12.7702 63.8455C13.0534 63.8336 13.3257 63.8254 13.6089 63.813C14.4509 63.7885 15.2961 63.798 16.1507 63.6635C16.1758 63.6635 16.1974 63.6559 16.2225 63.6558C16.2476 63.6557 16.2653 63.6671 16.2903 63.6671L16.3119 63.6594C16.7326 64.0031 17.1821 64.3278 17.5995 64.664C18.2117 65.1246 18.6954 65.5515 19.2461 66.0426C19.8254 66.5412 20.3666 66.9566 20.888 67.4932C21.1979 67.8144 21.4897 68.1509 21.7672 68.4835C21.267 68.484 20.7674 68.4548 20.2716 68.3963Z" fill="#E0DEE8"/>
<path d="M120.276 51.1894C120.4 51.3315 120.514 51.4815 120.639 51.6236C120.911 51.9504 121.204 52.2637 121.516 52.5619C121.953 52.9468 122.434 53.292 122.95 53.5921C123.613 53.9716 124.21 54.3082 124.519 54.9027L124.537 54.8871C124.714 54.7553 125.65 54.349 125.599 54.8015C125.569 55.3683 125.538 55.9026 125.724 56.42C125.788 56.6054 125.879 56.7829 125.994 56.9484C126.009 56.8749 126.03 56.8024 126.057 56.7315C126.084 56.6594 126.121 56.5795 126.205 56.558C126.449 56.4852 126.653 56.9707 126.758 57.1122C127.295 57.9092 127.439 58.8388 127.432 59.7309C127.413 60.4684 127.256 61.3716 126.442 61.7415C126.181 61.8624 125.739 61.8879 125.542 61.9705C125.018 62.1636 125.606 62.5242 126.071 62.8077C126.283 62.9314 126.504 63.0419 126.734 63.1384C127.307 62.7061 127.953 62.3532 128.648 62.0919C128.686 62.0748 128.727 62.0625 128.77 62.0555C128.898 61.8844 128.961 61.6822 128.95 61.4776C128.956 61.1777 128.753 60.822 128.683 60.4708C128.563 59.9313 129.007 59.3788 129.652 59.8223C130.137 60.2038 130.035 61.0115 129.862 61.468C129.81 61.5911 129.742 61.7086 129.66 61.8181C129.697 61.8032 129.744 61.7966 129.782 61.7816L130.26 61.6762C130.25 61.6353 130.24 61.6107 130.23 61.5698C130.119 61.2101 130.054 60.8405 130.037 60.4681C130.02 59.8754 130.313 59.3013 130.75 58.87C131.243 58.4406 131.898 58.187 132.458 57.8491C133.279 57.3903 133.957 56.7076 134.922 56.4402C135.334 56.3407 135.76 56.493 135.821 56.9007C135.873 57.2837 135.794 57.6623 135.676 58.0233C135.477 58.6168 135.146 59.1734 134.805 59.7053C134.796 59.7293 134.777 59.7449 134.768 59.769C134.78 59.7566 134.796 59.7485 134.814 59.7462C135.327 59.3986 135.8 58.8711 136.283 58.4332C136.962 57.8157 137.793 57.3326 138.681 56.9329C139.055 56.7834 139.915 56.342 140.313 56.5665C140.368 56.6144 140.406 56.6761 140.42 56.7433C140.434 56.8105 140.425 56.88 140.393 56.9423C140.173 57.3567 139.952 57.7386 139.825 58.1398C139.754 58.3702 139.698 58.6039 139.656 58.8398C139.881 58.7663 140.105 58.6928 140.339 58.6116C140.967 58.3976 141.584 58.1591 142.27 58.1093C142.957 58.092 143.72 58.191 144.289 58.5673C144.84 58.9591 145.203 59.4257 145.828 59.7227C146.434 60.0191 147.274 60.218 148 60.3967C148.246 60.4537 148.51 60.5114 148.755 60.5684C148.916 60.6144 149.086 60.6529 149.2 60.7539C149.391 60.9554 149.147 61.0279 148.959 61.0701C148.706 61.1508 148.454 61.2315 148.21 61.3205C147.649 61.5285 147.013 61.8477 146.424 62.1116C145.919 62.354 145.406 62.6205 144.834 62.7551C143.863 62.9978 142.837 63.0216 141.853 62.8242C141.702 62.7866 141.542 62.7568 141.4 62.7115C141.429 62.7692 141.477 62.8276 141.506 62.8854C141.755 63.267 142.071 63.6914 142.011 64.1355C141.905 64.6024 141.304 64.6956 140.814 64.6303C140.531 64.5882 140.276 64.4579 140.03 64.3522C139.547 64.133 139.11 63.7775 138.767 63.49C138.444 63.2194 138.026 62.9295 137.677 62.7959C137.525 62.7421 137.412 62.7058 137.366 62.7448C137.383 62.7781 137.405 62.8089 137.433 62.8363C137.767 63.2451 138.13 63.6631 138.287 64.155C138.318 64.2446 138.326 64.3391 138.309 64.4316C138.147 64.9615 136.709 63.5905 136.481 63.4205C136.176 63.183 135.849 62.9683 135.504 62.7789C134.945 62.476 134.282 62.0964 133.718 62.1585C133.521 62.2249 133.645 62.3345 133.893 62.6025C134.37 63.1216 135.094 63.7951 134.84 64.4841C134.657 64.8835 134.066 64.9851 133.622 64.8321C133.35 64.729 133.095 64.5949 132.864 64.4332L132.922 64.5326C132.961 64.6637 132.934 64.7682 132.85 64.8384C133.55 65.1542 134.476 65.429 135.085 65.9688C135.352 66.1888 135.648 66.5963 135.285 66.8355C135.173 66.8966 135.032 66.8999 134.89 66.9032C134.802 66.8991 134.714 66.8907 134.627 66.878C134.781 67.1266 134.906 67.3823 135.088 67.6075C135.356 67.9573 135.804 68.4511 136.036 68.897C136.296 69.3845 136.388 69.9148 136.413 70.4349C136.459 70.9841 136.363 71.5354 136.134 72.0477C135.951 72.4633 135.786 72.7822 135.697 73.201C135.671 73.3542 135.626 73.5065 135.609 73.6685C135.592 73.8305 135.557 74.0237 135.32 73.829C134.881 73.3923 134.658 72.906 134.23 72.4941C132.895 71.1022 131.511 71.7531 130.786 70.2113C130.618 69.8589 130.53 69.4812 130.527 69.0993C130.541 68.7296 130.518 68.3596 130.456 67.9937C130.131 68.3317 129.749 68.6348 129.425 68.9726L129.388 69.0038C129.495 69.054 129.599 69.109 129.7 69.1686C129.909 69.2892 130.127 69.4345 130.242 69.6331C130.387 69.8732 130.296 70.146 130.101 70.3259C130.139 70.3597 130.168 70.4012 130.215 70.4433C130.32 70.5524 130.53 70.7542 130.587 70.8048C130.958 71.1175 131.431 71.2958 131.829 71.5689C132.228 71.8421 132.394 72.3263 131.994 72.629C131.821 72.7668 131.599 72.8481 131.366 72.8592C131.282 72.8672 131.197 72.867 131.112 72.8587C131.064 72.9359 131.021 73.0157 130.984 73.0977C130.764 73.5769 130.715 74.1269 130.751 74.6878C130.874 75.5032 131.507 76.3683 132.155 77.0879C132.381 77.3222 132.592 77.5677 132.786 77.8232C132.891 77.9647 133.053 78.1405 132.943 78.299C132.887 78.362 132.774 78.3744 132.68 78.3874C132.474 78.4129 132.267 78.422 132.06 78.4475C131.201 78.5269 130.333 78.4505 129.509 78.2229C129.027 78.0849 128.527 77.93 128.146 77.6249C127.491 77.1403 127.516 76.2002 127.404 75.5231C127.374 75.2834 127.304 75.0488 127.197 74.8265C127.074 74.6061 126.913 74.4036 126.719 74.2263C126.717 74.4127 126.682 74.5977 126.614 74.7743C126.357 75.2847 125.768 74.8104 125.538 74.5106C124.933 73.6059 124.967 72.5444 124.653 71.5765C124.495 71.0358 124.393 70.3996 123.735 70.426C123.359 70.4295 122.975 70.5544 122.657 70.6896C122.506 70.7547 122.362 70.8313 122.227 70.9184C122.218 70.9262 122.199 70.9255 122.18 70.9249C121.872 71.7905 121.639 72.6749 121.377 73.5501C121.117 74.4579 120.856 75.3657 120.623 76.2825C120.944 76.3298 121.259 76.4002 121.567 76.493C121.831 76.5832 122.087 76.7297 122.231 76.9537C122.328 77.0952 122.394 77.2516 122.425 77.4145C122.511 77.4904 122.634 77.5676 122.748 77.6526C122.919 77.7769 123.072 77.9182 123.205 78.0737C123.587 78.5085 123.887 79.1271 123.649 79.6381L123.659 79.6466C123.86 80.0548 123.941 80.5013 123.892 80.9443C123.86 81.3488 123.733 81.7338 123.654 82.1286C123.557 82.6364 123.667 83.1674 123.769 83.7224C123.745 84.0864 123.327 83.7642 123.175 83.6292C122.87 83.3757 122.604 83.1069 122.309 82.8455C121.861 82.4165 121.348 82.0422 120.882 81.6127C120.514 81.2612 120.196 80.8718 119.935 80.4529C119.849 80.2959 119.771 80.1474 119.704 79.9909C119.543 80.6669 119.364 81.3421 119.175 82.0089C119.071 82.417 118.938 82.8189 118.777 83.2122C118.583 83.642 118.349 84.0572 118.079 84.4537C117.718 84.9688 117.359 85.5163 116.857 85.9373C116.66 86.0036 116.525 85.7556 116.655 85.6303C116.887 85.3948 117.104 85.1475 117.304 84.8898C117.729 84.3526 118.291 83.4389 118.473 82.9746C118.926 81.692 119.21 80.3551 119.55 79.0363C120.128 76.5007 120.819 73.9853 121.586 71.4885C121.598 71.4337 121.616 71.38 121.64 71.3281C121.015 71.0149 120.05 70.5603 119.628 69.9944C119.603 70.0346 119.572 70.0717 119.536 70.1049C119.345 70.3729 119.082 70.5966 118.772 70.7569C118.461 70.9172 118.111 71.0094 117.752 71.0259C117.235 71.0813 116.689 71.0628 116.207 70.8435C115.999 70.7554 115.781 70.675 115.601 70.5472C115.458 70.4367 115.485 70.2837 115.644 70.2157C115.84 70.1332 115.971 70.1052 116.139 69.9973C116.214 69.9496 116.272 69.884 116.306 69.8083C115.881 69.7047 115.457 69.5686 115.032 69.4649C114.673 69.3391 113.909 69.1591 113.801 68.8066C113.76 68.5943 113.984 68.4396 114.199 68.3902C114.224 68.3827 114.249 68.3781 114.275 68.3765C114.235 68.3476 114.19 68.3242 114.142 68.3071C113.901 68.1815 113.648 68.0755 113.386 67.9903C112.885 67.8192 112.384 67.6318 111.966 67.3256C111.719 67.1387 111.425 66.926 111.355 66.6397C111.315 66.4599 111.474 66.3598 111.643 66.3169C111.611 66.0645 111.564 65.8137 111.501 65.5658C111.313 64.8242 110.916 64.1358 110.346 63.5638C109.802 62.9207 108.936 62.1533 108.84 61.3469C108.818 61.0869 108.946 60.7826 109.314 60.8681C110.324 61.1541 111.307 61.5116 112.308 61.789C112.893 61.9549 113.459 62.1202 114.035 62.2939C114.46 62.43 114.913 62.5427 115.33 62.7353C116.002 63.107 116.471 63.7151 116.724 64.3563C116.946 64.0394 117.205 63.7075 117.666 63.7476C118.044 63.8252 118.236 64.1887 118.381 64.4613C118.51 64.7155 118.59 64.9869 118.617 65.2643C118.652 65.7603 118.62 66.1808 118.776 66.6406C118.804 66.7175 118.839 66.7921 118.883 66.8632C119.017 66.6796 119.131 66.4852 119.223 66.2826C119.287 66.1469 119.351 65.9949 119.415 65.8592C119.461 65.7391 119.553 65.5962 119.713 65.626C120.185 65.7394 120.364 66.4755 120.434 66.8429C120.636 67.9043 120.321 68.9725 119.693 69.8597C120 70.3082 120.701 70.6727 121.288 70.9846L121.657 71.1675C122.092 69.8682 122.696 68.607 123.338 67.3796C123.402 67.2438 123.485 67.1088 123.559 66.9653C123.502 66.9471 123.445 66.9127 123.388 66.8946C123.152 66.8135 122.926 66.7572 122.69 66.6924C122.341 66.6192 121.998 66.529 121.661 66.4222C120.924 66.1376 120.288 65.6861 119.717 65.1962C119.498 65.0022 119.27 64.816 119.042 64.6297C118.937 64.537 118.775 64.4098 118.746 64.2871C118.725 64.2572 118.711 64.2235 118.707 64.1885C118.715 64.0833 118.846 64.039 118.949 64.0345C119.018 64.0227 119.087 64.0143 119.156 64.0091C119.372 63.992 119.597 63.9673 119.823 63.9587C121.008 63.9502 122.47 64.2837 123.02 65.3165C123.193 65.6306 123.284 66.064 123.437 66.2635C123.551 66.3972 123.637 66.4893 123.77 66.5425C124.243 65.703 124.816 64.9096 125.479 64.1751C125.329 64.0872 125.17 64.0112 125.005 63.9481C124.288 63.7128 123.516 63.6867 122.798 63.4514C122.236 63.2712 121.701 63.0294 121.208 62.7318C120.715 62.4393 120.231 62.1227 119.85 61.7366C119.506 61.368 119.397 60.9344 119.997 60.7763C120.25 60.7281 120.505 60.7936 120.76 60.8428C121.108 60.9113 121.439 60.9793 121.834 60.9765C121.852 60.9772 121.88 60.97 121.899 60.9707C121.833 60.9441 121.767 60.9013 121.7 60.8747C121.127 60.5847 120.573 60.2652 120.042 59.918C119.814 59.7642 119.587 59.6105 119.377 59.4411C119.178 59.2802 118.987 59.0953 118.928 58.8661C118.878 58.6616 118.98 58.4948 119.224 58.4706C119.478 58.4549 119.733 58.5366 119.968 58.5851C120.317 58.6538 120.619 58.7127 120.939 58.756C120.655 58.5679 120.351 58.3953 120.076 58.1994C119.587 57.8405 119.149 57.4306 118.771 56.9789C118.666 56.8537 117.786 55.7368 118.324 55.8605C118.835 56.105 119.234 56.3781 119.762 56.5259C119.838 56.5446 119.904 56.5714 119.98 56.59C119.486 55.5592 119.798 54.9047 119.953 53.8067C120.017 53.369 120.034 52.9267 120.001 52.4862C119.977 52.0473 119.858 51.5892 119.946 51.1537C119.97 51.1359 119.997 51.1227 120.027 51.1148C120.057 51.1069 120.089 51.1046 120.12 51.1079C120.151 51.1113 120.181 51.1203 120.207 51.1343C120.234 51.1483 120.257 51.1671 120.276 51.1894ZM128.625 62.4888C128.189 62.67 127.773 62.8868 127.383 63.1362C127.709 63.1296 128.035 63.1597 128.353 63.2259C128.607 63.2751 128.787 63.3217 129.06 63.3229C129.568 63.3401 130.063 63.0892 130.618 63.1C131.06 63.1069 131.449 63.3229 131.79 63.5615L131.809 63.5784L131.238 63.0723C130.953 62.8192 130.705 62.5675 130.411 62.3709C130.278 62.269 130.126 62.199 129.984 62.1049C129.521 62.2029 129.067 62.3312 128.625 62.4888ZM123.46 68.0809C123.167 68.655 122.901 69.2054 122.664 69.7492C122.757 69.7443 122.848 69.7283 122.936 69.7017C123.224 69.6422 123.497 69.5359 123.741 69.3883C124.226 69.1128 124.472 68.4965 124.966 68.1645C125.246 68.0118 125.594 67.9993 125.933 67.9945C126.29 68.0025 126.647 68.0391 126.997 68.1037C127.374 68.1817 127.733 68.3071 128.111 68.4011C128.163 68.4142 128.217 68.4241 128.271 68.4309C128.332 68.1127 128.375 67.7919 128.399 67.4699C128.426 66.9806 128.394 66.4901 128.305 66.0066C128.264 65.7652 128.201 65.5271 128.117 65.2945C127.987 65.5471 127.826 65.7864 127.637 66.0083C127.497 66.1759 127.345 66.3359 127.183 66.4876C127.212 66.5454 127.25 66.6116 127.279 66.6696C127.374 66.8343 127.5 66.9839 127.651 67.1122C128.079 67.4269 127.978 67.61 127.509 67.7563C127.151 67.8901 126.758 67.9356 126.373 67.8881C125.94 67.8409 125.506 67.7451 125.127 67.5375C124.919 67.4331 124.747 67.265 124.548 67.1528C124.396 67.0503 124.199 67.0842 123.965 67.1492C123.775 67.4506 123.607 67.7617 123.46 68.0809H123.46Z" fill="#DAD8E4"/>
<path fill-rule="evenodd" clip-rule="evenodd" d="M76.6448 33.9234C76.6448 33.0739 73.6189 32.2213 72.8042 31.7778C72.4021 31.5601 71.9431 31.4366 71.4711 31.4191C70.9991 31.4017 70.5299 31.4908 70.1083 31.6779L30.1184 49.2412C29.659 49.4419 29.2723 49.7512 29.002 50.1343C28.7316 50.5173 28.5882 50.9591 28.5879 51.4098V89.5395C28.5867 89.9555 28.7067 90.3648 28.9365 90.7285C29.1663 91.0923 29.4982 91.3983 29.9007 91.6175C30.7152 92.061 33.3551 93.4597 34.2186 93.0804C43.837 88.8561 66.2828 76.9228 72.5871 74.1539C73.0479 73.9521 73.4353 73.6413 73.7058 73.2565C73.9762 72.8717 74.1188 72.4281 74.1176 71.9759C74.1176 65.9137 76.6448 43.171 76.6448 33.9234Z" fill="#7C76A8"/>
<path fill-rule="evenodd" clip-rule="evenodd" d="M77.3143 35.2506C77.3149 34.8358 77.1944 34.4279 76.9643 34.0656C76.7343 33.7034 76.4024 33.3991 76.0003 33.1816C75.5983 32.9641 75.1394 32.8408 74.6677 32.8234C74.1959 32.806 73.7269 32.8952 73.3055 33.0823L33.3152 50.6457C32.8558 50.8464 32.4692 51.1556 32.1988 51.5387C31.9284 51.9217 31.785 52.3635 31.7847 52.8142V90.9439C31.7823 91.3589 31.901 91.7675 32.1297 92.1306C32.3583 92.4938 32.6892 92.7994 33.0906 93.0182C33.4921 93.237 33.9508 93.3617 34.4227 93.3803C34.8947 93.399 35.3643 93.311 35.7865 93.1248L75.7838 75.5583C76.2446 75.3566 76.6321 75.0458 76.9025 74.6609C77.1729 74.2761 77.3156 73.8325 77.3143 73.3803V35.2506Z" fill="#A9A5C6"/>
<path fill-rule="evenodd" clip-rule="evenodd" d="M77.3143 37.5602C77.316 37.1449 77.1964 36.7362 76.9669 36.3731C76.7373 36.01 76.4056 35.7048 76.0034 35.4865C75.6012 35.2682 75.142 35.1441 74.6696 35.1263C74.1973 35.1084 73.7276 35.1973 73.3055 35.3844L33.3152 52.9478C32.8551 53.1485 32.4679 53.4581 32.1975 53.8418C31.927 54.2255 31.784 54.668 31.7847 55.1192V83.0135C31.783 83.4282 31.9023 83.8363 32.1312 84.199C32.3601 84.5617 32.691 84.8669 33.0923 85.0853C33.4936 85.3038 33.9519 85.4284 34.4235 85.4471C34.8951 85.4658 35.3644 85.3781 35.7865 85.1923L75.7838 67.6258C76.2433 67.4243 76.6298 67.1145 76.9001 66.731C77.1704 66.3475 77.3139 65.9054 77.3143 65.4544V37.5602Z" fill="white"/>
<mask id="mask0_224_772" style="mask-type:luminance" maskUnits="userSpaceOnUse" x="31" y="35" width="47" height="51">
<path d="M77.3143 37.5602C77.316 37.1449 77.1964 36.7362 76.9669 36.3731C76.7373 36.01 76.4056 35.7048 76.0034 35.4865C75.6012 35.2682 75.142 35.1441 74.6696 35.1263C74.1973 35.1084 73.7276 35.1973 73.3055 35.3844L33.3152 52.9478C32.8551 53.1485 32.4679 53.4581 32.1975 53.8418C31.927 54.2255 31.784 54.668 31.7847 55.1192V83.0135C31.783 83.4282 31.9023 83.8363 32.1312 84.199C32.3601 84.5617 32.691 84.8669 33.0923 85.0853C33.4936 85.3038 33.9519 85.4284 34.4235 85.4471C34.8951 85.4658 35.3644 85.3781 35.7865 85.1923L75.7838 67.6258C76.2433 67.4243 76.6298 67.1145 76.9001 66.731C77.1704 66.3475 77.3139 65.9054 77.3143 65.4544V37.5602Z" fill="white"/>
</mask>
<g mask="url(#mask0_224_772)">
<path fill-rule="evenodd" clip-rule="evenodd" d="M32.7886 73.2198C35.3376 70.239 40.7208 60.3553 45.5603 58.421C50.3998 56.4868 57.4442 62.233 61.8397 61.6142C66.0634 61.0205 69.4711 55.3272 71.9624 54.7097C73.924 54.2267 76.2436 56.2038 76.8736 57.9053C78.0334 61.1011 83.8607 70.7083 78.9495 73.8864C71.1894 78.9044 38.3727 87.6099 30.2686 88.0135C25.8302 88.2349 29.8822 78.7748 30.2974 76.3086C30.5122 75.061 31.9296 74.2297 32.7886 73.2198Z" fill="#D6D5E4"/>
<path d="M71.0122 50.2052C73.6013 47.2929 74.0617 43.8081 72.0405 42.4217C70.0194 41.0354 66.282 42.2724 63.6929 45.1848C61.1038 48.0971 60.6434 51.5819 62.6645 52.9682C64.6857 54.3546 68.4231 53.1175 71.0122 50.2052Z" fill="#D6D5E4"/>
</g>
<path fill-rule="evenodd" clip-rule="evenodd" d="M77.3144 63.0286C77.3147 62.9567 77.2943 62.8859 77.255 62.8228C77.2158 62.7598 77.1589 62.7064 77.0898 62.6679C77.0198 62.6295 76.9396 62.6078 76.8572 62.6048C76.7747 62.6019 76.6928 62.6177 76.6194 62.6509L32.0449 82.2278C31.9661 82.2627 31.8999 82.3163 31.854 82.3825C31.8081 82.4488 31.7842 82.525 31.7852 82.6025V83.584C31.7849 83.6559 31.8053 83.7266 31.8446 83.7896C31.8839 83.8527 31.9407 83.9059 32.0098 83.9443C32.0798 83.9829 32.1599 84.0047 32.2424 84.0078C32.3249 84.0108 32.4068 83.995 32.4802 83.9618L77.0547 64.3849C77.1335 64.35 77.1996 64.2964 77.2455 64.2302C77.2915 64.1639 77.3153 64.0877 77.3144 64.0102V63.0286Z" fill="#FFFEFF"/>
<path fill-rule="evenodd" clip-rule="evenodd" d="M58.5724 71.2656C58.5722 71.1937 58.5512 71.123 58.5115 71.0601C58.4718 70.9972 58.4146 70.9442 58.3452 70.906C58.2757 70.8681 58.1963 70.8464 58.1145 70.8432C58.0328 70.84 57.9515 70.8552 57.8784 70.8875L32.0486 82.2318C31.9687 82.2665 31.9015 82.3203 31.8548 82.387C31.808 82.4536 31.7836 82.5305 31.7842 82.6088V83.5903C31.7833 83.6624 31.8037 83.7334 31.8435 83.7964C31.8834 83.8594 31.9412 83.9122 32.0114 83.9496C32.0808 83.9877 32.1602 84.0094 32.242 84.0127C32.3237 84.016 32.4051 84.0008 32.4782 83.9685L58.308 72.6244C58.3874 72.5892 58.4542 72.5353 58.5009 72.4687C58.5476 72.4022 58.5723 72.3256 58.5724 72.2474V71.2656Z" fill="#77536F"/>
<path fill-rule="evenodd" clip-rule="evenodd" d="M38.0515 78.6915C38.0513 78.6452 38.0376 78.5997 38.0117 78.5594C37.9858 78.519 37.9485 78.4852 37.9035 78.4611C37.8585 78.4371 37.8071 78.4236 37.7544 78.4219C37.7018 78.4202 37.6495 78.4305 37.6026 78.4517L36.9876 78.7217C36.936 78.7446 36.8925 78.7796 36.8621 78.8228C36.8317 78.866 36.8155 78.9158 36.8154 78.9666V83.1567C36.8152 83.203 36.8287 83.2486 36.8546 83.2889C36.8804 83.3293 36.9178 83.3631 36.963 83.3869C37.0075 83.4119 37.0586 83.4265 37.1114 83.4291C37.1642 83.4318 37.2168 83.4224 37.2643 83.402L37.8793 83.1319C37.9309 83.1091 37.9744 83.0741 38.0048 83.0308C38.0352 82.9876 38.0513 82.9378 38.0515 82.887V78.6915ZM40.4304 77.6467C40.4302 77.6004 40.4165 77.5549 40.3906 77.5146C40.3647 77.4742 40.3275 77.4404 40.2824 77.4164C40.2374 77.3923 40.1861 77.3788 40.1334 77.3771C40.0807 77.3755 40.0284 77.3857 39.9815 77.4068L39.3666 77.6769C39.3149 77.6998 39.2715 77.7348 39.2411 77.778C39.2107 77.8213 39.1945 77.8711 39.1944 77.9219V82.1119C39.1941 82.1582 39.2076 82.2038 39.2335 82.2442C39.2594 82.2845 39.2967 82.3183 39.3419 82.3421C39.3864 82.3672 39.4376 82.3817 39.4903 82.3844C39.5431 82.387 39.5958 82.3777 39.6433 82.3572L40.2582 82.0872C40.3099 82.0643 40.3533 82.0293 40.3837 81.9861C40.4141 81.9428 40.4303 81.893 40.4304 81.8422V77.6467Z" fill="#77536F"/>
<path fill-rule="evenodd" clip-rule="evenodd" d="M112.26 62.6329C110.653 66.9099 84.1004 78.8085 80.1285 71.9371C77.8863 68.0556 80.3177 61.5961 83.5075 55.8618C87.0651 49.4665 91.5651 43.9715 91.5651 43.9715C91.066 43.0866 91.3149 40.6744 91.8755 39.5893C92.7249 37.9411 94.0327 38.9187 95.1167 38.3446C96.5106 37.6082 92.827 33.3159 95.6559 33.3047C97.3303 33.2942 98.9352 40.5687 98.0934 42.9318C97.7933 43.7789 96.8117 44.087 96.8117 44.087C96.8117 44.087 89.4561 58.2007 91.5667 60.4272C94.1798 63.1876 96.789 55.8128 106.449 56.2764C112.386 56.5622 113.145 60.2845 112.26 62.6329Z" fill="#FFC197"/>
<mask id="mask1_224_772" style="mask-type:luminance" maskUnits="userSpaceOnUse" x="79" y="33" width="34" height="42">
<path d="M112.26 62.6329C110.653 66.9099 84.1004 78.8085 80.1285 71.9371C77.8863 68.0556 80.3177 61.5961 83.5075 55.8618C87.0651 49.4665 91.5651 43.9715 91.5651 43.9715C91.066 43.0866 91.3149 40.6744 91.8755 39.5893C92.7249 37.9411 94.0327 38.9187 95.1167 38.3446C96.5106 37.6082 92.827 33.3159 95.6559 33.3047C97.3303 33.2942 98.9352 40.5687 98.0934 42.9318C97.7933 43.7789 96.8117 44.087 96.8117 44.087C96.8117 44.087 89.4561 58.2007 91.5667 60.4272C94.1798 63.1876 96.789 55.8128 106.449 56.2764C112.386 56.5622 113.145 60.2845 112.26 62.6329Z" fill="white"/>
</mask>
<g mask="url(#mask1_224_772)">
<path fill-rule="evenodd" clip-rule="evenodd" d="M94.1235 57.3475C95.3824 57.7955 96.1485 59.3931 96.6506 60.3871C97.1818 61.4374 97.4785 62.576 97.3938 63.7331C97.2668 65.4751 96.3751 67.0903 96.3495 68.8383C96.3312 70.1389 96.8527 71.4731 97.6889 72.5425C98.0793 73.0427 98.5687 73.4772 99.1339 73.8253C102.48 75.8747 107.338 73.629 110.215 71.9256C113.453 70.0086 116.347 67.15 117.254 63.7314C118.662 58.4309 114.285 53.3748 108.561 52.0126C106.295 51.4841 103.917 51.4437 101.629 51.8948C98.9083 52.4213 96.2955 53.5357 94.3619 55.3161L94.1235 57.3475Z" fill="#FE9400"/>
<path fill-rule="evenodd" clip-rule="evenodd" d="M88.1818 42.4629C88.9312 42.7672 91.6332 43.225 91.4748 43.9412C91.1447 45.4715 85.6789 49.2877 83.3207 64.3112C82.7569 67.9135 87.3427 71.1046 90.4504 70.6468C94.2318 70.0894 97.7106 66.8508 100.846 65.0293C101.96 64.3812 102.922 63.5928 103.953 62.8557C104.346 62.5797 104.888 62.2488 105.294 62.6848C105.81 63.241 105.906 64.0617 106.037 64.74C106.312 66.1555 106.543 67.5779 106.731 69.0072C107.116 71.9277 107.254 75.2269 105.053 77.6788C102.626 80.3903 98.3706 81.2624 94.7268 81.9176C87.9752 83.1321 79.8967 83.7855 75.2147 78.4156C74.3278 77.4052 73.6471 76.265 73.1177 75.082C71.6327 71.7592 71.2889 68.0247 71.5983 64.487C71.9558 60.3683 73.2071 56.3064 75.6616 52.7632C78.5217 48.644 82.5231 45.6292 87.1846 43.2021L88.1818 42.4629Z" fill="black" fill-opacity="0.1"/>
</g>
<path fill-rule="evenodd" clip-rule="evenodd" d="M92.7002 92.4529C96.9516 80.1304 101.193 87.0196 99.8532 73.0392C99.4277 68.6656 101.952 55.4839 110.055 56.9904C117.002 58.2822 124.504 62.4553 125.455 64.5343C127.383 68.7318 121.796 84.8403 115.205 87.5828C109.65 90.8035 106.9 95.5302 92.7002 92.4529Z" fill="#FE9400"/>
<mask id="mask2_224_772" style="mask-type:luminance" maskUnits="userSpaceOnUse" x="92" y="56" width="34" height="38">
<path d="M92.7002 92.4529C96.9516 80.1304 101.193 87.0196 99.8532 73.0392C99.4277 68.6656 101.952 55.4839 110.055 56.9904C117.002 58.2822 124.504 62.4553 125.455 64.5343C127.383 68.7318 121.796 84.8403 115.205 87.5828C109.65 90.8035 106.9 95.5302 92.7002 92.4529Z" fill="white"/>
</mask>
<g mask="url(#mask2_224_772)">
<path fill-rule="evenodd" clip-rule="evenodd" d="M117.335 68.9746C116.535 69.4286 115.906 70.1069 115.341 70.7686C113.871 72.4695 113.041 74.3736 112.515 76.444C111.992 78.4878 111.731 80.6955 110.502 82.5355C109.587 83.894 108.19 84.8105 106.799 85.7651C103.304 88.1674 101.584 88.7708 97.6536 90.1176C95.4206 90.8789 89.8777 95.1881 89.4947 97.4408C89.2231 99.0103 92.4435 98.4458 93.6178 98.3202C96.8038 97.9769 99.9129 97.0498 103.084 96.5667C107.613 95.8722 112.497 95.5879 116.549 93.4973C121.933 90.717 124.911 84.8383 125.517 79.5465C125.806 77.028 125.625 74.2349 123.826 72.1523L117.335 68.9746Z" fill="black" fill-opacity="0.1"/>
</g>
<path fill-rule="evenodd" clip-rule="evenodd" d="M124.64 63.5883C129.506 64.9912 140.168 88.2986 134.843 93.175C129.518 98.0513 92.6853 92.8468 92.6853 92.8468C91.6789 93.2876 88.1315 92.6529 87.515 91.5519C86.7958 90.2697 82.4626 91.6504 82.1574 90.3583C81.9823 89.6043 85.3334 88.0931 90.084 88.1513C91.0961 88.1643 93.5724 88.6613 93.5724 88.6613C93.5724 88.6613 118.88 88.4621 121.418 86.6044C124.556 84.3031 115.505 77.487 116.014 69.0012C116.327 63.7849 121.958 62.8154 124.64 63.5883Z" fill="#FFC197"/>
<mask id="mask3_224_772" style="mask-type:luminance" maskUnits="userSpaceOnUse" x="82" y="63" width="55" height="33">
<path d="M124.64 63.5883C129.506 64.9912 140.168 88.2986 134.843 93.175C129.518 98.0513 92.6853 92.8468 92.6853 92.8468C91.6789 93.2876 88.1315 92.6529 87.515 91.5519C86.7958 90.2697 82.4626 91.6504 82.1574 90.3583C81.9823 89.6043 85.3334 88.0931 90.084 88.1513C91.0961 88.1643 93.5724 88.6613 93.5724 88.6613C93.5724 88.6613 118.88 88.4621 121.418 86.6044C124.556 84.3031 115.505 77.487 116.014 69.0012C116.327 63.7849 121.958 62.8154 124.64 63.5883Z" fill="white"/>
</mask>
<g mask="url(#mask3_224_772)">
<path fill-rule="evenodd" clip-rule="evenodd" d="M117.257 79.8253C117.765 78.7186 119.582 78.0425 120.713 77.5995C121.908 77.1308 123.203 76.868 124.521 76.9401C126.504 77.0483 128.345 77.8282 130.335 77.8472C131.815 77.8608 133.333 77.4001 134.549 76.6633C135.118 76.3195 135.612 75.8887 136.007 75.3915C138.333 72.4484 135.767 68.1854 133.822 65.6618C131.633 62.8219 128.373 60.2851 124.479 59.495C118.442 58.2686 112.695 62.1236 111.155 67.1539C110.558 69.1458 110.517 71.2348 111.035 73.2437C111.64 75.6321 112.914 77.925 114.944 79.6202L117.257 79.8253Z" fill="#FE9400"/>
</g>
<path fill-rule="evenodd" clip-rule="evenodd" d="M111.166 57.176C111.166 57.176 112.824 56.491 112.169 54.3558C112.02 53.8561 110.359 55.8004 109.541 54.8879C108.425 53.6363 107.193 47.974 109.812 46.1553C111.437 45.0286 114.934 45.2877 116.108 46.6788C117.282 48.0699 118.127 52.5627 116.856 54.5023C114.837 57.5971 120.186 60.5619 120.186 60.5619C120.186 60.5619 112.816 62.7151 109.989 65.5696C109.159 66.408 111.166 57.176 111.166 57.176Z" fill="#FFC197"/>
<mask id="mask4_224_772" style="mask-type:luminance" maskUnits="userSpaceOnUse" x="108" y="45" width="13" height="21">
<path d="M111.166 57.176C111.166 57.176 112.824 56.491 112.169 54.3558C112.02 53.8561 110.359 55.8004 109.541 54.8879C108.425 53.6363 107.193 47.974 109.812 46.1553C111.437 45.0286 114.934 45.2877 116.108 46.6788C117.282 48.0699 118.127 52.5627 116.856 54.5023C114.837 57.5971 120.186 60.5619 120.186 60.5619C120.186 60.5619 112.816 62.7151 109.989 65.5696C109.159 66.408 111.166 57.176 111.166 57.176Z" fill="white"/>
</mask>
<g mask="url(#mask4_224_772)">
<path fill-rule="evenodd" clip-rule="evenodd" d="M111.679 54.5602C111.919 54.5 112.146 54.3258 112.347 54.2016C112.805 53.9252 113.239 53.6201 113.647 53.2887C113.801 53.1553 113.955 53.0183 114.121 52.8892C114.158 52.8555 114.26 52.7567 114.328 52.7697C114.395 52.7828 114.305 52.9695 114.292 52.9937C114.184 53.2564 113.809 53.7922 113.649 54.0344C113.01 55.0321 111.995 55.9288 111.253 56.0782L111.679 54.5602Z" fill="black" fill-opacity="0.1"/>
</g>
<path fill-rule="evenodd" clip-rule="evenodd" d="M111.179 49.2072C110.605 49.1942 110.058 48.916 109.603 48.6287C107.853 47.5259 107.89 45.5152 109.324 44.2056C110.19 43.4191 112.005 42.8575 112.903 43.901C113.165 43.55 113.732 43.388 114.165 43.2857C114.506 43.2063 118.328 41.2934 120.616 45.0184C121.988 47.2446 121.037 51.3588 119.466 51.8899C119.341 52.2197 118.998 52.4592 118.692 52.6569C117.848 53.2046 116.471 53.6195 115.487 53.1091C115.368 53.0467 115.26 52.9708 115.164 52.8834C114.45 52.2317 115.147 51.4437 115.349 50.7384C115.457 50.3667 115.539 49.9031 115.161 49.6245C114.854 49.4065 114.56 49.5443 114.332 49.7703C113.986 50.1148 113.807 50.6467 113.237 50.7578C112.417 50.9168 111.587 50.2437 111.308 49.7625C111.25 49.6602 111.179 49.2072 111.179 49.2072Z" fill="black"/>
<path fill-rule="evenodd" clip-rule="evenodd" d="M106.166 33.3875C106.165 33.1922 106.103 33.0009 105.986 32.8349C105.868 32.669 105.701 32.5349 105.502 32.4478L91.5772 26.3321C91.395 26.2523 91.1927 26.2146 90.9893 26.2228C90.7859 26.2309 90.5883 26.2845 90.4151 26.3785C90.242 26.4725 90.099 26.6038 89.9998 26.7599C89.9005 26.916 89.8483 27.0918 89.8481 27.2706V36.4301C89.848 36.625 89.9097 36.8161 90.0262 36.9819C90.1428 37.1477 90.3097 37.2816 90.5082 37.3688L104.433 43.4844C104.615 43.5648 104.818 43.603 105.021 43.5952C105.225 43.5875 105.423 43.5341 105.597 43.4402C105.771 43.3463 105.914 43.2149 106.014 43.0586C106.113 42.9022 106.165 42.7261 106.166 42.547V33.3875Z" fill="#A37B9A"/>
<path fill-rule="evenodd" clip-rule="evenodd" d="M104.805 33.9852C104.804 33.7899 104.742 33.5985 104.624 33.4326C104.507 33.2666 104.34 33.1326 104.141 33.0454L90.2163 26.9298C90.0342 26.8499 89.8318 26.8123 89.6285 26.8204C89.4251 26.8285 89.2275 26.8821 89.0543 26.9761C88.8811 27.0701 88.7381 27.2014 88.6389 27.3575C88.5397 27.5137 88.4875 27.6895 88.4873 27.8683V37.0278C88.4871 37.2226 88.5488 37.4137 88.6654 37.5795C88.782 37.7453 88.9489 37.8793 89.1473 37.9664L103.072 44.082C103.254 44.1624 103.457 44.2006 103.661 44.1929C103.864 44.1851 104.062 44.1318 104.236 44.0378C104.41 43.9439 104.553 43.8125 104.653 43.6562C104.752 43.4999 104.805 43.3238 104.805 43.1447L104.805 33.9852Z" fill="#77536F"/>
<path fill-rule="evenodd" clip-rule="evenodd" d="M93.3508 33.8514C93.2659 33.8511 93.1828 33.8727 93.1117 33.9135C93.0407 33.9543 92.9849 34.0126 92.9512 34.081C92.9195 34.1504 92.9113 34.2263 92.9277 34.2996C92.944 34.373 92.9843 34.4406 93.0435 34.4943C94.3271 35.6198 96.9791 37.9458 98.2628 39.0768C98.3229 39.1297 98.3996 39.1657 98.4831 39.1802C98.5666 39.1947 98.6531 39.1872 98.7317 39.1585C98.8085 39.1279 98.8738 39.0788 98.9201 39.0169C98.9663 38.955 98.9916 38.8828 98.993 38.8087V34.2282C98.993 34.1785 98.9819 34.1293 98.9603 34.0835C98.9387 34.0376 98.907 33.9959 98.867 33.9608C98.827 33.9257 98.7796 33.8978 98.7273 33.8788C98.6751 33.8598 98.6191 33.85 98.5626 33.8501C97.5247 33.8482 94.842 33.8529 93.3508 33.8514Z" fill="#E9DFE6"/>
<path fill-rule="evenodd" clip-rule="evenodd" d="M96.1319 42.0508C96.5618 41.6225 99.1422 40.5907 99.8196 40.5078C100.9 40.3685 101.916 40.99 101.542 41.8923C101.393 42.2394 98.1248 43.0369 97.2258 43.0653C96.8577 43.0754 95.9604 42.2205 96.1319 42.0508Z" fill="#FFC197"/>
<path fill-rule="evenodd" clip-rule="evenodd" d="M108.293 53.0303C108.362 52.8803 108.476 52.7498 108.623 52.6533C108.967 52.3984 109.421 52.2517 109.813 52.5349C110.184 52.8079 110.28 53.4299 110.947 53.1575C111.03 53.1236 111.107 53.0786 111.174 53.0241C111.779 52.5106 112.109 51.649 112.247 50.9358C112.302 50.638 112.295 50.33 112.363 50.0347C112.384 49.9478 112.439 49.7762 112.577 49.8221C112.803 49.8964 112.996 50.0733 113.223 50.1591C113.292 50.1845 113.436 50.1981 113.47 50.2654C113.56 50.4563 113.292 50.9237 113.25 51.1206C113.14 51.6465 113.058 52.1792 112.969 52.7083C112.927 52.9408 112.941 53.1938 112.858 53.4178C112.783 53.6135 112.611 53.7766 112.494 53.9505C112.329 54.1806 112.212 54.4342 111.992 54.6305C111.477 55.0937 110.5 55.4258 109.765 55.4403C108.445 55.4663 107.785 53.9444 108.163 52.9921L108.293 53.0303Z" fill="black"/>
</g>
<defs>
<filter id="filter0_f_224_772" x="-1" y="-4" width="156" height="138" filterUnits="userSpaceOnUse" color-interpolation-filters="sRGB">
<feFlood flood-opacity="0" result="BackgroundImageFix"/>
<feBlend mode="normal" in="SourceGraphic" in2="BackgroundImageFix" result="shape"/>
<feGaussianBlur stdDeviation="2" result="effect1_foregroundBlur_224_772"/>
</filter>
</defs>
</svg>
