<svg width="166" height="115" viewBox="0 0 166 115" fill="none" xmlns="http://www.w3.org/2000/svg">
<path opacity="0.1" d="M80.2937 115C109.197 115 132.627 112.149 132.627 108.632C132.627 105.116 109.197 102.265 80.2937 102.265C51.3908 102.265 27.9604 105.116 27.9604 108.632C27.9604 112.149 51.3908 115 80.2937 115Z" fill="#2A94F4"/>
<path d="M77.8125 10.5098H124.664V108.537H77.8125V10.5098Z" fill="#D3D3D3"/>
<path d="M69.3828 5.53711H118.612V108.526H69.3828V5.53711Z" fill="#F2F2F2"/>
<path d="M61.0225 0.883789H112.482V108.537H61.0225V0.883789Z" fill="#FFBE55"/>
<path opacity="0.33" d="M61.0225 0.883789H112.482V108.537H61.0225V0.883789Z" fill="white"/>
<path d="M104.822 58.5326H68.6738V14.0127H104.822V58.5326ZM71.1552 55.4872H102.341V17.0687H71.1552V55.4872Z" fill="white"/>
<path d="M67.2299 34.287C68.6911 36.8532 70.1522 39.4194 71.6133 41.9963C73.9304 46.0745 76.2475 50.1421 78.5732 54.2204C79.1179 55.168 79.654 56.1157 80.1987 57.0741C80.4926 57.5852 81.6857 59.2889 82.2045 58.2241C83.7521 54.987 85.3862 51.8139 87.0375 48.662C90.712 41.6555 94.5594 34.7768 98.6662 28.143C101.165 24.1074 103.767 20.1676 106.551 16.4301C107.675 14.918 104.632 9.90277 103.888 10.893C98.865 17.6333 94.3778 24.9486 90.1241 32.4343C86.8905 38.1204 83.7953 43.9236 80.8385 49.8333L80.1641 51.175C79.8269 51.8565 79.9566 52.2398 79.3514 51.175C78.4954 49.6736 77.6395 48.1722 76.7836 46.6602C74.4665 42.5819 72.1494 38.5143 69.8237 34.4361C69.279 33.4884 68.7429 32.5407 68.1982 31.5824C67.9216 31.0926 66.6593 29.325 66.1924 30.4324C65.7428 31.5505 66.763 33.4671 67.2299 34.287Z" fill="#0B4870"/>
<path d="M68.6738 72.0664H104.822V75.3567H68.6738V72.0664ZM68.6738 79.2858H104.822V82.5761H68.6738V79.2858ZM68.6738 87.2826H93.0983V90.5729H68.6738V87.2826Z" fill="white"/>
<path d="M50.1631 27.7813C50.1631 27.7813 52.0479 22.8406 51.1833 20.5938C50.3187 18.3471 48.8835 17.8466 47.1976 18.2193C45.5116 18.592 44.9237 17.4846 44.673 17.7934C44.4223 18.1021 44.232 19.135 44.4482 19.135C44.673 19.135 43.7306 19.9869 43.8776 20.5938C44.0245 21.2008 42.7104 27.3767 46.2898 28.1114C49.8691 28.8461 50.1631 27.7813 50.1631 27.7813Z" fill="#0B4870"/>
<path d="M40.0127 105.63H42.3298L42.6151 102.34H40.3067L40.0127 105.63Z" fill="#FCD2B1"/>
<path d="M40.013 104.373C40.013 104.373 37.938 106.449 36.4337 106.258C34.9293 106.077 34.8428 107.663 34.8169 108.483H39.6153C39.6153 108.483 40.5837 107.355 41.2062 108.483H42.6241V104.373C42.6154 104.373 41.2926 105.108 40.013 104.373Z" fill="#0B4870"/>
<path d="M54.0194 105.63H51.7109L51.417 102.34H53.7341L54.0194 105.63Z" fill="#FCD2B1"/>
<path d="M40.8082 57.8411L39.667 102.851H43.134C43.134 102.851 44.4222 71.4708 46.9381 69.6393C49.7221 67.6161 51.1746 102.851 51.1746 102.851H54.1142C54.1142 102.851 53.3533 59.2467 53.0594 57.8411C52.9643 57.3194 42.7449 52.1976 40.8082 57.8411Z" fill="#0E538C"/>
<path d="M42.5375 32.2218C42.5375 32.2218 45.9093 28.3884 51.1833 31.519C52.4715 32.2857 53.0767 56.6273 53.0767 57.8519C53.0767 57.8519 48.7365 61.025 40.8169 57.8519C40.8083 57.8412 42.2089 32.4986 42.5375 32.2218Z" fill="#FFBE55"/>
<path d="M55.0482 37.2262C55.0482 37.2262 60.08 43.8174 61.1954 43.4873C62.9245 42.9762 68.0947 41.2512 68.0947 41.2512L68.6567 42.5503C68.6567 42.5503 63.279 46.916 60.9792 47.1822C58.6794 47.4484 53.0596 39.835 53.0596 39.835L55.0482 37.2262ZM41.1284 39.5475C41.1284 39.5475 37.255 45.0739 37.2032 46.6604C37.1513 48.247 40.4281 54.6679 40.4281 54.6679L39.6759 56.3396C39.6759 56.3396 34.9812 49.9933 34.2204 47.6933C33.4595 45.3933 39.0274 37.1836 39.0274 37.1836L41.1284 39.5475Z" fill="#FCD2B1"/>
<path d="M41.3701 40.665L38.4219 36.8636C38.4219 36.8636 42.226 30.9006 44.7506 31.0284C46.6873 31.1242 45.278 37.758 41.3701 40.665ZM52.4886 40.5478L55.4715 36.789C55.4715 36.789 52.8777 31.2627 50.3531 31.3585C48.4251 31.4224 48.6153 37.577 52.4886 40.5478Z" fill="#FFBE55"/>
<path d="M45.209 25.7042V31.2093C45.209 32.2954 45.9266 33.1792 46.8085 33.1792C47.6903 33.1792 48.4079 32.2954 48.4079 31.2093V25.3848L45.209 25.7042Z" fill="#FCD2B1"/>
<path d="M50.5606 20.5938C50.5606 20.5938 52.3416 27.7812 49.8689 28.8354C47.3962 29.8896 45.3817 27.6961 45.3472 26.0775C45.3472 26.0775 43.5921 24.491 44.984 23.2771C45.4423 22.8725 45.8745 23.6817 45.8745 24.2887C45.8745 24.8956 46.2031 24.4484 46.2031 24.1715V21.4456C46.2031 21.4456 50.0678 23.4688 50.5606 20.5938Z" fill="#FFE3CA"/>
<path d="M54.028 104.373C54.028 104.373 56.103 106.449 57.6074 106.258C59.1118 106.077 59.1982 107.663 59.2242 108.483H54.4257C54.4257 108.483 53.4574 107.355 52.8349 108.483H51.417V104.373C51.417 104.373 52.7398 105.108 54.028 104.373Z" fill="#0B4870"/>
<path d="M40.4193 54.6678C40.4193 54.6678 41.4568 55.5303 41.1197 57.1275C40.7825 58.7354 39.8314 60.2687 38.9063 60.1942C38.5864 60.1622 38.3098 60.0451 38.0677 59.896C37.5403 59.5766 37.2896 58.7993 37.5489 58.1497C37.6267 57.9474 37.7305 57.8516 37.8602 58.0539C38.2147 58.6182 39.7623 57.4257 39.6672 56.3289C39.5721 55.2428 38.7593 53.2835 40.4193 54.6678Z" fill="#FCD2B1"/>
<path d="M61.6792 25.9287H68.6564V100.285H61.6792V25.9287Z" fill="#FFBE55"/>
<path d="M61.6792 25.928L65.1635 17.2178L68.6477 25.928C68.6477 25.928 67.299 26.7798 65.1635 26.7798C63.0279 26.7798 61.6792 25.928 61.6792 25.928Z" fill="#FCD2B1"/>
<path d="M63.7109 20.8488L65.1634 17.2178L66.6159 20.8488H63.7109Z" fill="#0B4870"/>
<path d="M67.4633 108.526H62.8723C62.2152 108.526 61.6792 107.866 61.6792 107.057V100.114H68.6477V107.057C68.6477 107.866 68.1203 108.526 67.4633 108.526Z" fill="#EC4561"/>
<path d="M61.6792 97.0264H68.6564V102.265H61.6792V97.0264Z" fill="#D3D3D3"/>
<path d="M68.648 38.749C68.648 38.749 69.5904 42.806 68.1033 42.7527C66.6249 42.6888 65.9332 40.0907 68.648 38.749Z" fill="#FFE3CA"/>
</svg>
