<svg width="131" height="98" viewBox="0 0 131 98" fill="none" xmlns="http://www.w3.org/2000/svg">
<g filter="url(#filter0_f_224_864)">
<path opacity="0.1" d="M63.3645 93.9999C86.1734 93.9999 104.664 91.7688 104.664 89.0165C104.664 86.2643 86.1734 84.0332 63.3645 84.0332C40.5557 84.0332 22.0654 86.2643 22.0654 89.0165C22.0654 91.7688 40.5557 93.9999 63.3645 93.9999Z" fill="#2A94F4"/>
<path d="M61.4062 12.2246H98.3796V88.9413H61.4062V12.2246Z" fill="#D3D3D3"/>
<path d="M54.7539 8.33301H93.6036V88.933H54.7539V8.33301Z" fill="#F2F2F2"/>
<path d="M48.1562 4.69141H88.7663V88.9414H48.1562V4.69141Z" fill="#FFBE55"/>
<path opacity="0.33" d="M48.1562 4.69141H88.7663V88.9414H48.1562V4.69141Z" fill="white"/>
<path d="M82.721 49.8085H54.1943V14.9668H82.721V49.8085ZM56.1525 47.4251H80.7628V17.3585H56.1525V47.4251Z" fill="white"/>
<path d="M53.055 30.8336C54.208 32.842 55.3611 34.8503 56.5142 36.867C58.3427 40.0586 60.1713 43.242 62.0066 46.4336C62.4365 47.1753 62.8595 47.917 63.2893 48.667C63.5213 49.067 64.4629 50.4003 64.8723 49.567C66.0936 47.0336 67.3831 44.5503 68.6863 42.0836C71.586 36.6003 74.6222 31.217 77.8631 26.0253C79.8349 22.867 81.8886 19.7836 84.0856 16.8586C84.9726 15.6753 82.5709 11.7503 81.9841 12.5253C78.02 17.8003 74.4789 23.5253 71.122 29.3836C68.5703 33.8336 66.1277 38.3753 63.7942 43.0003L63.262 44.0503C62.996 44.5836 63.0983 44.8836 62.6207 44.0503C61.9452 42.8753 61.2698 41.7003 60.5943 40.517C58.7657 37.3253 56.9372 34.142 55.1018 30.9503C54.672 30.2086 54.249 29.467 53.8191 28.717C53.6008 28.3336 52.6046 26.9503 52.2362 27.817C51.8814 28.692 52.6865 30.192 53.055 30.8336Z" fill="#0B4870"/>
<path d="M54.1943 60.4004H82.721V62.9754H54.1943V60.4004ZM54.1943 66.0504H82.721V68.6254H54.1943V66.0504ZM54.1943 72.3087H73.4691V74.8837H54.1943V72.3087Z" fill="white"/>
<path d="M39.5863 25.7416C39.5863 25.7416 41.0737 21.8749 40.3914 20.1166C39.7091 18.3583 38.5765 17.9666 37.2461 18.2583C35.9156 18.5499 35.4516 17.6833 35.2538 17.9249C35.0559 18.1666 34.9058 18.9749 35.0764 18.9749C35.2538 18.9749 34.5101 19.6416 34.6261 20.1166C34.7421 20.5916 33.705 25.4249 36.5297 25.9999C39.3543 26.5749 39.5863 25.7416 39.5863 25.7416Z" fill="#0B4870"/>
<path d="M31.5767 86.6668H33.4052L33.6304 84.0918H31.8086L31.5767 86.6668Z" fill="#FCD2B1"/>
<path d="M31.5766 85.6836C31.5766 85.6836 29.9391 87.3086 28.752 87.1586C27.5648 87.0169 27.4965 88.2586 27.4761 88.9003H31.2628C31.2628 88.9003 32.027 88.0169 32.5182 88.9003H33.6372V85.6836C33.6303 85.6836 32.5864 86.2586 31.5766 85.6836Z" fill="#0B4870"/>
<path d="M42.6294 86.6668H40.8077L40.5757 84.0918H42.4042L42.6294 86.6668Z" fill="#FCD2B1"/>
<path d="M32.2043 49.2669L31.3037 84.4919H34.0397C34.0397 84.4919 35.0563 59.9335 37.0418 58.5002C39.2388 56.9169 40.385 84.4919 40.385 84.4919H42.7048C42.7048 84.4919 42.1044 50.3669 41.8724 49.2669C41.7974 48.8585 33.7327 44.8502 32.2043 49.2669Z" fill="#0E538C"/>
<path d="M33.5687 29.2167C33.5687 29.2167 36.2297 26.2167 40.3916 28.6667C41.4083 29.2667 41.8859 48.3167 41.8859 49.275C41.8859 49.275 38.4608 51.7583 32.211 49.275C32.2041 49.2667 33.3095 29.4333 33.5687 29.2167Z" fill="#FFBE55"/>
<path d="M43.4415 33.1329C43.4415 33.1329 47.4124 38.2913 48.2926 38.0329C49.6572 37.6329 53.7373 36.2829 53.7373 36.2829L54.1808 37.2996C54.1808 37.2996 49.9369 40.7163 48.122 40.9246C46.3071 41.1329 41.8722 35.1746 41.8722 35.1746L43.4415 33.1329ZM32.4566 34.9496C32.4566 34.9496 29.3999 39.2746 29.359 40.5163C29.3181 41.7579 31.904 46.7829 31.904 46.7829L31.3104 48.0913C31.3104 48.0913 27.6055 43.1246 27.0051 41.3246C26.4047 39.5246 30.7986 33.0996 30.7986 33.0996L32.4566 34.9496Z" fill="#FCD2B1"/>
<path d="M32.6474 35.8255L30.3208 32.8505C30.3208 32.8505 33.3229 28.1838 35.3152 28.2838C36.8435 28.3588 35.7314 33.5505 32.6474 35.8255ZM41.4217 35.7338L43.7756 32.7921C43.7756 32.7921 41.7287 28.4671 39.7364 28.5421C38.2149 28.5921 38.365 33.4088 41.4217 35.7338Z" fill="#FFBE55"/>
<path d="M35.6772 24.1162V28.4245C35.6772 29.2745 36.2435 29.9662 36.9395 29.9662C37.6354 29.9662 38.2017 29.2745 38.2017 28.4245V23.8662L35.6772 24.1162Z" fill="#FCD2B1"/>
<path d="M39.9005 20.1162C39.9005 20.1162 41.3061 25.7412 39.3547 26.5662C37.4034 27.3912 35.8136 25.6745 35.7863 24.4079C35.7863 24.4079 34.4013 23.1662 35.4998 22.2162C35.8614 21.8995 36.2025 22.5329 36.2025 23.0079C36.2025 23.4829 36.4618 23.1329 36.4618 22.9162V20.7829C36.4618 20.7829 39.5116 22.3662 39.9005 20.1162Z" fill="#FFE3CA"/>
<path d="M42.6362 85.6836C42.6362 85.6836 44.2737 87.3086 45.4609 87.1586C46.6481 87.0169 46.7163 88.2586 46.7368 88.9003H42.9501C42.9501 88.9003 42.1859 88.0169 41.6946 88.9003H40.5757V85.6836C40.5757 85.6836 41.6196 86.2586 42.6362 85.6836Z" fill="#0B4870"/>
<path d="M31.8974 46.7837C31.8974 46.7837 32.7161 47.4587 32.45 48.7087C32.1839 49.9671 31.4334 51.1671 30.7034 51.1087C30.4509 51.0837 30.2326 50.9921 30.0415 50.8754C29.6253 50.6254 29.4275 50.0171 29.6322 49.5087C29.6936 49.3504 29.7754 49.2754 29.8778 49.4337C30.1575 49.8754 31.3788 48.9421 31.3038 48.0837C31.2287 47.2337 30.5874 45.7004 31.8974 46.7837Z" fill="#FCD2B1"/>
<path d="M48.6748 24.292H54.1809V82.4837H48.6748V24.292Z" fill="#FFBE55"/>
<path d="M48.6748 24.2913L51.4244 17.4746L54.1741 24.2913C54.1741 24.2913 53.1097 24.9579 51.4244 24.9579C49.7392 24.9579 48.6748 24.2913 48.6748 24.2913Z" fill="#FCD2B1"/>
<path d="M50.2783 20.3163L51.4246 17.4746L52.5708 20.3163H50.2783Z" fill="#0B4870"/>
<path d="M53.2393 88.9329H49.6164C49.0978 88.9329 48.6748 88.4163 48.6748 87.7829V82.3496H54.1741V87.7829C54.1741 88.4163 53.7579 88.9329 53.2393 88.9329Z" fill="#EC4561"/>
<path d="M48.6748 79.9336H54.1809V84.0336H48.6748V79.9336Z" fill="#D3D3D3"/>
<path d="M54.174 34.3252C54.174 34.3252 54.9177 37.5002 53.7441 37.4585C52.5774 37.4085 52.0316 35.3752 54.174 34.3252Z" fill="#FFE3CA"/>
</g>
<defs>
<filter id="filter0_f_224_864" x="-4" y="0" width="139" height="98" filterUnits="userSpaceOnUse" color-interpolation-filters="sRGB">
<feFlood flood-opacity="0" result="BackgroundImageFix"/>
<feBlend mode="normal" in="SourceGraphic" in2="BackgroundImageFix" result="shape"/>
<feGaussianBlur stdDeviation="2" result="effect1_foregroundBlur_224_864"/>
</filter>
</defs>
</svg>
