<svg width="22" height="23" viewBox="0 0 22 23" fill="none" xmlns="http://www.w3.org/2000/svg">
<path d="M21.8136 0C8.20879 0 5.48783 2.84597 5.48783 2.84597V14.486C5.07968 14.3437 4.58991 14.2298 4.12735 14.2298C1.86895 14.2298 0.0458984 16.1366 0.0458984 18.4988C0.0458984 20.8609 1.86895 22.7677 4.12735 22.7677C6.38575 22.7677 8.20879 20.8609 8.20879 18.4988V7.20029C10.1951 6.54572 13.6235 5.94807 19.0927 5.77731V11.64C18.6845 11.4977 18.1947 11.3839 17.7322 11.3839C15.4738 11.3839 13.6507 13.2907 13.6507 15.6528C13.6507 18.015 15.4738 19.9218 17.7322 19.9218C19.9906 19.9218 21.8136 18.015 21.8136 15.6528V0Z" fill="white"/>
</svg>
