<svg width="580" height="671" viewBox="0 0 580 671" fill="none" xmlns="http://www.w3.org/2000/svg">
<path d="M518.476 141.101C510.421 95.4234 484.792 57.9824 450.49 32.3467C416.335 7.54147 373.652 -4.62804 328.722 3.29439C284.594 11.0754 248.648 37.1091 224.234 72.2418L0.576459 403.686L324.106 638.647C358.262 663.452 400.944 675.622 445.875 667.699C490.003 659.918 525.948 633.884 550.363 598.752C573.975 563.76 585.253 519.812 577.052 473.304C568.998 427.626 543.369 390.185 509.066 364.549C474.911 339.744 432.229 327.574 387.298 335.497C431.426 327.716 467.372 301.682 491.786 266.549C515.398 231.558 526.676 187.61 518.476 141.101Z" fill="url(#paint0_linear_12_1032)"/>
<defs>
<linearGradient id="paint0_linear_12_1032" x1="547.764" y1="307.202" x2="0.576459" y2="403.686" gradientUnits="userSpaceOnUse">
<stop stop-color="#00347F"/>
<stop offset="1" stop-color="white"/>
</linearGradient>
</defs>
</svg>
