<svg width="25" height="23" viewBox="0 0 25 23" fill="none" xmlns="http://www.w3.org/2000/svg">
<path d="M17.0278 0C15.4489 0 14.0866 0.99647 13.2507 2.50541C14.6439 4.04282 15.4798 6.14964 15.4798 8.56964C15.4798 9.39529 15.3869 10.1355 15.2012 10.8758C15.7894 11.1889 16.3777 11.4167 17.0278 11.4167C19.5975 11.4167 21.6718 8.85435 21.6718 5.72259C21.6718 2.59082 19.5975 0.0284706 17.0278 0.0284706V0ZM7.73991 2.84706C5.17026 2.84706 3.09597 5.40941 3.09597 8.54117C3.09597 11.6729 5.17026 14.2353 7.73991 14.2353C10.3096 14.2353 12.3839 11.6729 12.3839 8.54117C12.3839 5.40941 10.3096 2.84706 7.73991 2.84706ZM22.4457 11.8438C21.1145 13.2958 19.2879 14.1783 17.2136 14.2353C18.0495 15.3172 18.5758 16.6268 18.5758 18.0503V19.9294H24.7677V15.2033C24.7677 13.7228 23.808 12.4416 22.4457 11.8153V11.8438ZM2.32197 14.6908C0.959749 15.3172 0 16.5983 0 18.0788V22.8049H15.4798V18.0788C15.4798 16.5983 14.5201 15.3172 13.1579 14.6908C11.7647 16.1998 9.87613 17.0823 7.73991 17.0823C5.6037 17.0823 3.71516 16.1713 2.32197 14.6908Z" fill="white"/>
</svg>
